<?xml version="1.0" encoding="UTF-8" standalone="no"?><!DOCTYPE svg PUBLIC "-//W3C//DTD SVG 1.1//EN" "http://www.w3.org/Graphics/SVG/1.1/DTD/svg11.dtd"><svg width="100%" height="100%" viewBox="0 0 101 101" version="1.1" xmlns="http://www.w3.org/2000/svg" xmlns:xlink="http://www.w3.org/1999/xlink" xml:space="preserve" xmlns:serif="http://www.serif.com/" style="fill-rule:evenodd;clip-rule:evenodd;stroke-linejoin:round;stroke-miterlimit:1.41421;"><rect id="CuredMeat" x="0.19" y="0.175" width="100" height="100" style="fill:none;"/><path d="M5.838,49.031c0.64,2.321 0.326,5.235 2.29,7.337c2.017,2.157 3.874,4.422 5.598,6.807c0.48,0.664 0.921,1.016 1.95,0.769c1.202,-0.289 2.649,-0.149 3.134,1.435c0.554,1.806 1.556,2.84 3.588,2.598c0.384,-0.046 0.829,0.205 1.211,0.394c3.523,1.752 7.134,3.283 10.354,5.671c1.819,1.351 4.044,2.56 6.658,1.029c1.703,-0.995 3.59,-0.81 5.263,0.515c0.823,0.653 1.785,0.715 2.507,-0.223c0.948,-1.228 0.79,-3.351 -0.342,-4.418c-0.855,-0.806 -1.049,-1.803 0.014,-2.241c1.628,-0.673 1.157,-1.726 0.915,-2.821c-0.212,-0.951 -0.396,-1.927 -0.757,-2.826c-1.083,-2.698 -1.931,-5.634 -4.608,-7.244c-1.48,-0.89 -1.778,-2.017 -1.643,-3.529c0.198,-2.214 -0.773,-4.178 -2.292,-5.464c-2.172,-1.833 -3.006,-4.053 -3.246,-6.684c-0.091,-0.985 -0.221,-2.045 -0.873,-2.742c-1.07,-1.144 -1.668,-2.539 -2.503,-3.807c-1.197,-1.817 -2.795,-3.264 -4.883,-3.979c-0.852,-0.293 -1.982,-0.685 -2.073,1.021c-0.068,1.202 -1.284,0.587 -1.918,0.95c-0.526,0.296 -1.237,-0.086 -1.349,-0.603c-0.358,-1.643 -1.47,-2.521 -2.688,-3.537c-0.755,-0.624 -1.347,-1.062 -2.316,-1.377c-1.945,-0.627 -3.606,0.156 -5.379,0.492c-1.098,0.207 -1.918,0.48 -1.596,1.973c0.349,1.617 -0.522,2.479 -2.165,2.353c-1.111,-0.086 -1.905,0.408 -2.548,1.16c-2.729,3.201 -3.553,6.864 -2.496,10.936c0.143,0.552 0.457,0.925 1.107,1.035c1.782,0.312 2.127,1.339 1.431,2.933c-0.238,0.547 -0.21,1.207 -0.345,2.087Zm79.906,0.923c-0.139,0.17 -0.282,0.342 -0.424,0.513c0.343,0.198 0.557,0.086 0.674,-0.273c0.186,-0.184 0.37,-0.368 0.556,-0.552c0.974,-1.261 1.955,-2.514 2.924,-3.779c0.478,-0.622 1.067,-1.233 1.838,-0.68c0.923,0.666 0.087,1.332 -0.293,1.873c-0.767,1.097 -1.626,2.127 -2.609,3.39c1.116,-0.07 1.418,-0.601 1.794,-1.098c0.817,-1.074 1.682,-2.118 2.546,-3.154c0.461,-0.552 0.988,-1.403 1.778,-0.75c0.836,0.687 0.097,1.388 -0.341,2.057c-0.591,0.892 -1.586,1.491 -1.989,2.595c2.036,-0.072 1.705,-0.34 3.774,-2.896c1.81,-2.236 0.664,-3.443 -0.557,-4.944c-0.708,-0.871 -1.495,-1.302 -2.814,-1.239c-2.796,0.135 -5.398,1.039 -8.066,1.638c-6.032,1.353 -11.118,-0.103 -15.346,-4.606c-2.451,-2.612 -5.119,-4.893 -8.576,-6.144c-1.778,-0.643 -3.334,-1.791 -4.944,-2.798c-6.199,-3.865 -12.904,-6.23 -20.197,-7.082c-4.161,-0.487 -8.119,0.603 -12.329,1.078c0.119,0.205 0.34,0.352 0.576,0.389c3.478,0.539 6.404,2.328 9.296,4.154c2.9,1.834 5.985,3.549 7.317,6.994c1.254,3.243 2.535,6.491 3.493,9.827c1.435,4.995 3.97,9.354 7.057,13.667c0.26,-0.606 0.398,-1.056 0.636,-1.442c0.4,-0.653 0.314,-2.039 1.53,-1.617c1.272,0.443 0.573,1.507 0.275,2.334c-0.468,1.303 -1.006,2.589 -0.941,4.268c0.811,-1.777 1.489,-3.336 2.232,-4.862c0.282,-0.578 0.608,-1.33 1.505,-0.827c0.783,0.443 0.61,1.079 0.286,1.745c-0.857,1.757 -1.677,3.53 -2.541,5.282c-0.513,1.036 -0.618,2.024 0.125,3.082c0.173,-0.287 0.317,-0.48 0.415,-0.699c0.885,-2.004 1.757,-4.016 2.644,-6.018c0.282,-0.631 0.727,-1.048 1.447,-0.652c0.688,0.38 0.599,1.011 0.326,1.607c-0.277,0.609 -0.666,1.168 -0.915,1.787c-1.99,4.947 -4.795,9.532 -6.333,14.657c0.546,0.112 0.991,-0.1 1.14,-0.888c0.1,-0.531 0.244,-1.083 0.494,-1.558c2.525,-4.816 5.069,-9.622 7.625,-14.419c0.259,-0.482 0.62,-0.916 0.948,-1.358c0.406,-0.546 0.941,-0.893 1.573,-0.466c0.706,0.477 0.31,1.011 -0.012,1.581c-2.553,4.548 -5.074,9.115 -7.604,13.674c1.475,-0.627 3.091,-1.014 3.939,-2.451c1.997,-3.378 3.782,-6.868 5.249,-10.51c0.417,-1.034 0.872,-2.04 1.547,-2.916c0.399,-0.515 0.872,-1.191 1.652,-0.923c0.902,0.312 0.513,1.109 0.457,1.75c-1.23,0.794 -1.473,2.157 -2.018,3.371c-1.111,2.479 -2.339,4.909 -3.734,7.802c1.104,-0.811 2.064,-0.955 2.32,-2.013c0.771,-3.173 2.453,-5.976 3.672,-8.969c0.431,-0.802 0.904,-1.585 1.281,-2.416c0.361,-0.802 0.771,-1.515 1.748,-0.911c0.873,0.538 0.428,1.204 0.025,1.887c-0.92,1.556 -1.829,3.129 -2.409,4.937c0.636,-0.019 0.781,-0.38 0.951,-0.695c1.612,-3.005 3.238,-6.001 4.813,-9.028c0.382,-0.729 0.706,-1.672 1.661,-1.237c1.056,0.483 0.615,1.41 0.173,2.202c-1.545,2.77 -3.08,5.545 -4.646,8.364c1.186,0.172 1.412,-0.725 1.743,-1.391c1.297,-2.623 2.91,-5.081 4.044,-7.791c0.347,-0.831 0.876,-1.607 1.431,-2.325c0.442,-0.571 1.09,-0.524 1.628,-0.067c0.552,0.466 0.11,0.864 -0.161,1.26c-0.834,1.211 -1.498,2.514 -2.006,3.895c-0.018,0.152 -0.111,0.38 -0.048,0.436c0.16,0.144 0.288,0.007 0.356,-0.165c1.631,-2.281 3.273,-4.55 4.888,-6.843c0.391,-0.557 0.82,-0.925 1.524,-0.664c0.731,0.273 0.517,0.867 0.426,1.407c-0.166,0.203 -0.331,0.408 -0.499,0.613Zm-44.119,30.522c-3.567,0.154 -6.42,-0.608 -9.319,-0.363c-0.769,0.063 -1.288,-0.482 -1.607,-1.062c-1.557,-2.826 -4.287,-4.509 -6.484,-6.701c-1.391,-1.388 -3.322,-1.833 -5.114,-2.33c-5.046,-1.409 -8.317,-4.948 -11.162,-9c-1.859,-2.649 -3.173,-5.542 -4.338,-8.617c-1.118,-2.95 -2.409,-5.827 -3.022,-8.926c-1.174,-5.943 0.725,-11.083 4.418,-15.677c1.076,-1.339 2.239,-2.612 3.348,-3.928c0.757,-0.897 1.756,-1.249 2.872,-1.456c7.174,-1.333 14.414,-2.469 21.679,-2.598c8.76,-0.156 16.76,2.927 24.148,7.579c1.752,1.104 3.511,2.176 5.477,2.931c3.155,1.214 5.685,3.415 7.926,5.862c3.464,3.774 7.5,5.449 12.658,4.487c3.299,-0.618 6.479,-1.815 9.906,-1.88c1.346,-0.028 2.379,0.16 3.255,1.207c1.854,2.208 3.804,4.328 3.879,7.487c0.058,2.598 -1.203,4.094 -3.761,4.544c-2.735,0.477 -5.526,0.109 -8.247,0.701c-0.676,0.147 -1.309,0.317 -1.859,0.708c-3.833,2.751 -7.546,5.594 -10.915,8.97c-4.688,4.699 -10.1,8.58 -16.01,11.676c-1.564,0.818 -2.598,2.211 -4.029,3.181c-2.257,1.523 -4.559,2.567 -7.324,2.525c-2.372,-0.037 -4.646,1 -6.375,0.68Z" style="fill:#800000;fill-rule:nonzero;"/><path d="M24.735,47.645c-1.526,-0.533 -1.338,0.594 -1.203,1.529c0.131,0.896 0.585,1.772 0.594,2.66c0.017,1.517 1.515,1.971 1.997,3.129c0.144,0.342 0.51,0.242 0.785,0.051c0.294,-0.205 0.634,-0.384 0.559,-0.838c-0.316,-1.92 -0.34,-3.889 -1.06,-5.736c-0.293,-0.755 -0.776,-1.046 -1.672,-0.795Zm-5.718,-5.696c0.105,-2.521 -0.524,-4.501 -0.356,-6.526c0.063,-0.762 -0.021,-1.607 1.027,-1.579c0.93,0.025 1.107,0.794 1.177,1.589c0.209,2.369 0.126,4.785 0.95,7.068c0.317,0.878 0.948,1.137 1.885,1.512c2.13,0.853 4.599,0.606 6.477,2.062c0.666,0.519 0.843,0.321 1.13,-0.336c0.342,-0.778 0.792,-1.523 1.274,-2.227c0.305,-0.449 0.718,-0.885 1.386,-0.594c0.595,0.259 0.802,0.783 0.765,1.356c-0.066,1.041 -0.366,2.036 -0.727,3.019c-0.739,2.002 -1.519,3.98 -1.89,6.111c-0.321,1.871 0.14,3.204 1.81,4.192c1.629,0.962 3.141,2.127 4.767,3.096c1.759,1.044 1.601,2.756 1.668,4.382c0.019,0.448 -0.258,0.955 -0.894,1.004c-0.648,0.049 -1.028,-0.188 -1.191,-0.85c-0.729,-2.956 -3.655,-3.807 -5.554,-5.624c-0.594,-0.569 -1.5,-0.07 -1.472,1.051c0.062,2.518 0.142,5.039 0.158,7.56c0.005,0.743 0.268,1.754 -0.853,1.966c-1.255,0.238 -1.535,-0.853 -1.801,-1.684c-0.452,-1.408 -0.692,-2.866 -0.209,-4.345c0.095,-0.289 0.139,-0.606 0.144,-0.911c0.054,-4.804 -0.098,-4.942 -4.841,-4.432c-1.845,0.201 -3.723,-0.556 -5.536,0.334c-0.454,0.221 -1.06,-0.168 -1.311,-0.767c-0.28,-0.657 0.158,-1.055 0.545,-1.428c1.011,-0.969 2.406,-0.692 3.776,-1.011c-1.458,-2.088 -2.907,-3.912 -5.624,-3.891c-0.752,0.007 -1.288,-0.349 -1.307,-0.997c-0.021,-0.748 0.576,-1.151 1.349,-1.225c0.485,-0.049 0.969,-0.136 1.447,-0.243c2.362,-0.519 2.458,-0.617 1.75,-2.968c-0.608,-2.017 -1.992,-3.45 -3.67,-4.694c-1.563,-1.163 -3.157,-2.37 -3.79,-4.366c-0.226,-0.709 -0.513,-1.519 0.214,-2.03c0.837,-0.589 1.419,0.096 2.062,0.618c1.92,1.554 3.418,3.497 5.265,5.808Z" style="fill:#800000;fill-rule:nonzero;"/></svg>