<?xml version="1.0" encoding="UTF-8" standalone="no"?><!DOCTYPE svg PUBLIC "-//W3C//DTD SVG 1.1//EN" "http://www.w3.org/Graphics/SVG/1.1/DTD/svg11.dtd"><svg width="100%" height="100%" viewBox="0 0 101 101" version="1.1" xmlns="http://www.w3.org/2000/svg" xmlns:xlink="http://www.w3.org/1999/xlink" xml:space="preserve" xmlns:serif="http://www.serif.com/" style="fill-rule:evenodd;clip-rule:evenodd;stroke-linejoin:round;stroke-miterlimit:1.41421;"><rect id="Fish" x="0.19" y="0" width="100" height="100" style="fill:none;"/><g><path d="M77.69,20.827c-1.682,2.175 -1.682,2.175 1.068,3.624c-0.002,-0.711 0.594,-1.269 0.292,-2.022c-2.187,1.021 -1.126,-0.744 -1.36,-1.602Zm9.732,0.917c-1.96,-0.692 -3.074,0.453 -4.188,1.607c-0.614,0.635 -1.265,1.235 -1.852,1.894c-0.215,0.243 -0.843,0.412 -0.373,0.935c0.486,0.538 0.838,0.134 1.14,-0.227c1.448,-1.725 3.308,-2.943 5.273,-4.209Zm-7.805,-4.608c2.196,-0.346 4.106,-4.232 3.623,-7.336c-2.215,1.946 -2.624,4.781 -3.623,7.336Zm-77.132,73.847c0.089,0.546 -0.181,1.103 0.307,1.411c0.517,0.325 0.862,-0.2 1.271,-0.386c0.749,-0.339 1.39,-1.576 2.031,-1.229c2.154,1.165 3.929,-0.132 5.863,-0.492c3.233,-0.607 6.364,-1.705 9.326,-2.96c7.551,-3.201 14.647,-7.341 21.475,-11.886c1.561,-1.036 3.355,-1.662 4.76,-2.962c6.319,-5.824 12.539,-11.749 18.444,-17.998c1.917,-2.027 3.574,-4.231 4.922,-6.684c1.618,-2.948 3.181,-5.944 5.036,-8.741c1.925,-2.903 3.335,-6.124 5.549,-8.842c0.269,-0.329 0.618,-0.812 -0.026,-1.193c-2.017,-1.19 -3.587,-2.884 -5.201,-4.535c-0.196,-0.2 -0.643,-0.897 -1.105,-0.122c-1.313,2.199 -3.37,3.623 -5.382,5.078c-2.682,1.938 -5.435,3.874 -8.5,5.058c-5.127,1.984 -10.517,3.211 -15.668,5.202c-4.867,1.88 -9.492,4.131 -13.718,7.172c-2.348,1.689 -4.637,3.439 -7.271,4.692c-1.34,0.638 -2.651,1.476 -3.485,2.694c-3.3,4.826 -7.232,9.217 -9.955,14.439c-1.087,2.083 -1.676,1.981 0.98,3.145c4.985,2.187 7.359,6.366 9.067,11.165c0.296,0.828 0.207,1.368 -0.534,1.792c-0.921,0.53 -1.056,-0.457 -1.489,-0.818c-0.189,-0.16 -0.202,-0.528 -0.304,-0.798c-1.524,-4.092 -3.618,-7.683 -7.944,-9.446c-0.722,-0.296 -1.048,-0.362 -1.513,0.365c-1.58,2.472 -2.716,5.057 -2.468,8.067c0.047,0.568 -0.247,0.872 -0.667,0.733c-0.796,-0.265 -0.951,0.258 -1.338,0.717c-1.825,2.172 -1.814,4.915 -2.463,7.362Zm15.127,-35.847c1.854,-2.47 3.949,-4.679 6.807,-6c3.384,-1.565 6.066,-4.144 9.096,-6.22c0.097,-0.086 0.192,-0.17 0.289,-0.254c-0.054,-0.019 -0.115,-0.066 -0.157,-0.053c-0.189,0.065 -0.221,0.182 -0.089,0.337c-7.491,1.197 -12.903,5.161 -16.096,12.082c-0.329,0.042 -0.45,0.301 -0.557,0.564c-0.006,0.013 0.149,0.139 0.231,0.139c0.402,0.008 0.357,-0.362 0.476,-0.595Zm68.846,-30.529c2.784,-1.395 5.565,-2.79 8.801,-4.414c-4.032,0.106 -6.493,2.176 -8.993,4.172c-0.205,0.052 -0.412,0.104 -0.617,0.157c0.23,0.421 0.525,0.195 0.809,0.085Zm-5.385,-1.511c1.463,-1.14 2.503,-2.417 1.415,-4.353c-0.527,1.358 -1.068,2.758 -1.609,4.156c-0.19,0.047 -0.339,0.178 -0.19,0.342c0.148,0.168 0.287,-0.006 0.384,-0.145Zm3.929,-4.089c0.827,-0.1 1.613,-1.574 2.136,0.13c0.097,0.319 0.519,-0.025 0.791,-0.042c1.956,-0.118 3.86,-0.478 5.713,-1.142c1.053,-0.376 2.132,-0.774 3.23,-0.912c1.032,-0.131 2.421,-0.911 3.076,0.379c0.722,1.419 -0.696,2.219 -1.535,3.044c-2.271,2.232 -5.231,3.394 -8.021,4.728c-4.475,2.141 -7.016,5.939 -9.498,9.928c-3.671,5.898 -6.808,12.117 -10.692,17.887c-0.132,0.197 -0.237,0.424 -0.408,0.581c-4.205,3.875 -6.064,9.312 -9.212,13.892c-0.719,1.043 -1.644,1.85 -2.447,2.792c-0.174,0.203 -0.625,0.473 -0.714,0.405c-1.459,-1.114 -2.17,0.323 -3.034,0.932c-1.497,1.059 -2.872,2.288 -4.339,3.389c-0.841,0.633 -1.761,1.053 -1.256,2.466c0.249,0.696 -0.509,1.243 -1.143,1.624c-3.73,2.246 -7.331,4.707 -11.57,6.015c-2.304,0.711 -4.305,2.111 -6.34,3.412c-2.885,1.846 -6.078,2.602 -9.512,2.973c-4.073,0.438 -8.192,1.003 -12.035,2.636c-1.423,0.602 -2.865,1.127 -4.423,1.188c-1.797,0.069 -3.129,-0.958 -3.365,-2.724c-0.305,-2.295 -0.265,-4.525 0.659,-6.779c2.368,-5.786 4.934,-11.487 7.182,-17.328c2.7,-7.015 6.865,-13.277 10.997,-19.495c2.624,-3.952 6.885,-5.817 11.227,-7.351c2.825,-0.998 5.691,-1.884 8.491,-2.945c3.082,-1.169 6.136,-2.382 9.482,-2.55c1.398,-0.071 2.075,-1.5 3.363,-1.82c0.735,-0.184 1.412,-0.996 2.187,-0.025c0.103,0.129 0.555,0.03 0.828,-0.034c4.891,-1.17 9.109,-3.692 13.314,-6.351c3.922,-2.484 6.054,-6.405 8.734,-9.899c0.375,-0.491 0.514,-1.192 0.664,-1.818c0.914,-3.834 3.213,-7.034 4.775,-10.572c0.281,-0.638 0.712,-0.959 1.34,-0.935c0.749,0.031 1.103,0.588 1.342,1.245c0.835,2.296 0.635,4.663 0.475,7.026c-0.134,1.992 -0.302,3.98 -0.462,6.05Z" style="fill:#61abdf;fill-rule:nonzero;"/><path d="M26.558,71.699c-1.582,1.15 -2.746,2.626 -3.959,4.073c-0.418,0.499 -0.807,1.664 -1.676,1.015c-0.782,-0.583 0.179,-1.258 0.5,-1.799c1.097,-1.847 2.632,-3.332 4.238,-4.729c1.115,-0.972 1.877,-0.766 2.427,0.607c0.435,1.085 0.728,2.227 1.34,3.244c0.445,0.743 0.093,1.356 -0.431,1.897c-1.715,1.765 -4.02,2.366 -6.237,3.122c-0.625,0.213 -1.014,-0.244 -1.246,-0.735c-0.296,-0.625 0.135,-1.071 0.613,-1.281c1.174,-0.513 2.41,-0.884 3.592,-1.382c2.199,-0.925 2.194,-0.948 1.345,-3.066c-0.126,-0.312 -0.314,-0.601 -0.506,-0.966Z" style="fill:#61abdf;fill-rule:nonzero;"/><path d="M13.201,81.22c-0.032,1.821 -1.263,3.112 -2.913,3.055c-1.502,-0.05 -2.057,-0.97 -2.077,-3.435c-0.009,-1.309 0.992,-2.118 2.537,-2.047c1.524,0.069 2.477,1.012 2.453,2.427Z" style="fill:#61abdf;fill-rule:nonzero;"/><path d="M52.391,54.431c-0.423,0.289 -0.775,0.237 -0.996,-0.246c-0.142,-0.31 -0.01,-0.579 0.25,-0.764c0.785,-0.557 1.572,-0.565 2.487,-0.205c1.047,0.414 1.959,0.937 2.17,2.077c0.175,0.938 -0.624,1.442 -1.266,1.957c-0.292,0.236 -0.595,0.41 -0.936,0.116c-0.325,-0.281 -0.212,-0.563 -0.063,-0.931c0.541,-1.331 -0.099,-2.085 -1.646,-2.004Z" style="fill:#61abdf;fill-rule:nonzero;"/><path d="M25.982,61.324c-0.136,0.423 -0.246,0.882 -0.436,1.307c-0.118,0.263 -0.388,0.471 -0.714,0.366c-0.331,-0.105 -0.423,-0.446 -0.381,-0.727c0.342,-2.297 -1.03,-1.484 -2.115,-1.173c-0.333,0.092 -0.649,0.311 -0.982,0.329c-0.501,0.024 -0.916,-0.402 -0.557,-0.765c0.883,-0.893 2.017,-1.449 3.323,-1.255c1.042,0.152 1.591,0.912 1.862,1.918Z" style="fill:#61abdf;fill-rule:nonzero;"/><path d="M34.748,50.699c1.069,0.17 2.237,0.909 2.791,2.458c0.163,0.453 0.361,0.928 -0.304,1.14c-0.52,0.164 -0.933,-0.004 -1.132,-0.538c-0.636,-1.713 -1.581,-2.421 -3.213,-1.03c-0.192,0.163 -0.438,0.166 -0.622,-0.047c-0.258,-0.302 -0.27,-0.702 -0.121,-0.995c0.423,-0.852 1.255,-0.988 2.601,-0.988Z" style="fill:#61abdf;fill-rule:nonzero;"/><path d="M50.037,46.492c-0.103,0.309 -0.234,0.756 -0.405,1.184c-0.115,0.289 -0.355,0.533 -0.674,0.449c-0.282,-0.076 -0.507,-0.344 -0.447,-0.673c0.28,-1.521 -0.623,-1.601 -1.755,-1.531c-0.53,0.034 -1.379,0.265 -1.403,-0.581c-0.023,-0.832 0.859,-0.633 1.384,-0.706c2.288,-0.313 3.371,0.268 3.3,1.858Z" style="fill:#61abdf;fill-rule:nonzero;"/><path d="M59.547,42.385c-0.06,0.487 0.214,1.198 -0.535,1.291c-0.643,0.078 -0.869,-0.463 -0.898,-1.056c-0.085,-1.698 -1.235,-0.702 -1.925,-0.699c-0.482,0.002 -1.083,0.509 -1.314,-0.253c-0.212,-0.7 0.489,-0.824 0.948,-1.027c2.301,-1.019 3.741,-0.34 3.724,1.744Z" style="fill:#61abdf;fill-rule:nonzero;"/><path d="M65.975,35.641c-0.919,0.115 -1.621,0.391 -1.72,-0.349c-0.082,-0.62 0.659,-0.834 1.142,-0.867c1.256,-0.085 2.575,-0.447 3.632,0.74c0.532,0.596 0.695,1.046 0.111,1.657c-0.754,0.789 -0.966,0.05 -1.245,-0.435c-0.56,-0.978 -1.478,-0.725 -1.92,-0.746Z" style="fill:#61abdf;fill-rule:nonzero;"/><path d="M44.318,60.137c-0.039,0.662 -0.13,1.479 -0.855,1.552c-0.873,0.084 -0.583,-0.731 -0.626,-1.279c-0.089,-1.119 -0.963,-1.501 -1.87,-1.795c-0.36,-0.121 -0.696,-0.281 -0.644,-0.698c0.069,-0.551 0.542,-0.528 0.952,-0.517c1.334,0.034 2.996,1.539 3.043,2.737Z" style="fill:#61abdf;fill-rule:nonzero;"/><path d="M38.438,73.362c-0.265,0.99 -0.823,1.625 -1.833,1.728c-0.187,0.018 -0.5,-0.121 -0.566,-0.27c-0.07,-0.153 0.027,-0.489 0.168,-0.608c1.204,-1.031 1.093,-1.602 -0.546,-1.717c-0.459,-0.03 -0.853,-0.203 -0.759,-0.746c0.082,-0.481 0.475,-0.615 0.941,-0.602c1.192,0.026 2.623,1.266 2.595,2.215Z" style="fill:#61abdf;fill-rule:nonzero;"/><path d="M46.334,69.157c0.004,0.396 -0.172,0.724 -0.545,0.822c-0.43,0.113 -0.806,0.021 -0.939,-0.523c-0.226,-0.933 -0.666,-1.648 -1.795,-1.584c-0.404,0.024 -0.699,-0.157 -0.699,-0.594c0,-0.446 0.378,-0.58 0.709,-0.682c1.267,-0.403 3.334,1.228 3.269,2.561Z" style="fill:#61abdf;fill-rule:nonzero;"/><path d="M71.753,30.351c1.144,0.095 1.891,0.72 2.451,1.697c0.257,0.449 0.55,0.863 -0.015,1.157c-0.382,0.2 -0.951,0.268 -1.232,-0.273c-0.442,-0.848 -0.988,-1.389 -2.063,-1.161c-0.314,0.066 -0.713,-0.304 -0.595,-0.692c0.21,-0.689 0.885,-0.642 1.454,-0.728Z" style="fill:#61abdf;fill-rule:nonzero;"/><path d="M65.227,46.623c0.041,-0.712 -0.646,-0.712 -1.022,-1.015c-0.331,-0.267 -0.665,-0.549 -0.355,-1.013c0.244,-0.365 0.596,-0.224 0.94,-0.121c1.886,0.564 2.501,2.022 1.314,3.188c-0.265,0.261 -0.544,0.749 -1.009,0.505c-0.452,-0.239 -0.294,-0.701 -0.145,-1.087c0.061,-0.16 0.177,-0.298 0.277,-0.457Z" style="fill:#61abdf;fill-rule:nonzero;"/><path d="M30.198,67.664c0.142,-0.496 -0.304,-0.696 -0.966,-0.795c-0.302,-0.046 -0.478,-0.315 -0.4,-0.662c0.074,-0.332 0.303,-0.434 0.633,-0.471c0.72,-0.083 1.276,0.179 1.657,0.764c0.342,0.523 0.76,1.009 0.357,1.753c-0.243,0.448 -0.419,0.885 -0.979,0.787c-0.641,-0.117 -0.61,-0.593 -0.302,-1.376Z" style="fill:#61abdf;fill-rule:nonzero;"/></g></svg>