<?xml version="1.0" encoding="UTF-8" standalone="no"?><!DOCTYPE svg PUBLIC "-//W3C//DTD SVG 1.1//EN" "http://www.w3.org/Graphics/SVG/1.1/DTD/svg11.dtd"><svg width="100%" height="100%" viewBox="0 0 101 101" version="1.1" xmlns="http://www.w3.org/2000/svg" xmlns:xlink="http://www.w3.org/1999/xlink" xml:space="preserve" xmlns:serif="http://www.serif.com/" style="fill-rule:evenodd;clip-rule:evenodd;stroke-linejoin:round;stroke-miterlimit:1.41421;"><rect id="HardCheese" x="0.19" y="0" width="100" height="100" style="fill:none;"/><clipPath id="_clip1"><rect x="0.19" y="0" width="100" height="100"/></clipPath><g clip-path="url(#_clip1)"><g><path d="M38.857,95.774c8.487,1.242 18.6,2.538 26.268,0c2.189,-3.102 1.99,-7.271 1.99,-12.337c0,-7.51 -0.796,-15.864 -1.194,-22.289c5.751,-0.458 11.439,-1.646 17.114,-2.588c5.677,-0.941 11.723,-0.978 17.113,-2.586c-0.02,-15.514 0.925,-31.007 -5.173,-39.801c-0.685,-0.989 -2.079,-2.099 -3.382,-3.185c-9.921,-8.255 -27.15,-11.18 -46.368,-9.949c-5.51,0.351 -9.305,2.011 -13.73,3.383c-2.557,0.792 -5.172,1.559 -7.564,2.587c-4.468,1.923 -8.648,5.226 -12.138,8.357c-7.409,6.648 -12.203,15.29 -11.542,29.852c0.34,7.509 1.265,14.261 2.188,21.293c0.445,3.386 0.917,7.075 2.19,9.551c1.587,3.092 5.723,5.88 8.956,8.358c3.656,2.805 7.204,4.397 11.741,5.573c4.437,1.149 8.818,3.091 13.531,3.781Z" style="fill:#ff6f00;"/><path d="M74.479,52.788c0.964,0.097 1.078,-0.777 0.796,-1.391c-0.332,0 -0.663,0 -0.996,0c0.002,0.527 -0.074,1.136 0.2,1.391Zm7.362,0.599c0.852,-0.192 1.112,-2.015 0.4,-2.588c-1.975,-0.581 -1.699,2.611 -0.4,2.588Zm-9.154,-4.579c0.334,0.264 0.667,0.528 1.394,0.4c1.096,-1.472 -1.706,-2.406 -1.394,-0.4Zm14.529,2.191c0.152,0.044 0.392,0.003 0.397,0.199c1.778,-0.677 3.063,-1.847 3.582,-3.783c-2.387,0.043 -4.397,1.385 -3.979,3.584Zm-6.171,-2.191c0.996,-1.295 0.773,-5.123 0.397,-6.566c-1.914,0.237 -2.419,6.085 -0.397,6.566Zm12.737,-4.775c0.614,-0.313 0.975,-0.881 0.796,-1.99c-1.524,-0.511 -1.827,1.71 -0.796,1.99Zm-7.364,0.199c1.072,0.011 1.494,-0.632 1.393,-1.792c-1.137,-1.407 -2.602,0.854 -1.393,1.792Zm-9.353,-0.399c1.782,-0.14 2.556,-1.291 2.787,-2.983c-1.506,-0.426 -3.243,1.433 -2.787,2.983Zm-2.984,2.19c1.988,-0.727 2.65,-4.692 2.189,-6.567c-1.72,0.949 -3.406,4.615 -2.189,6.567Zm19.104,-7.362c0.264,0 0.531,0 0.797,0c0.282,-0.266 0.282,-1.128 0,-1.394c-0.908,-0.188 -1.254,0.836 -0.797,1.394Zm-11.541,0.596c1.335,0.458 1.11,-1.427 0.794,-1.99c-0.197,0 -0.398,0 -0.597,0c-0.457,0.717 -0.201,0.965 -0.197,1.99Zm15.321,-7.562c0.17,-0.038 0.188,0.077 0.199,0.199c-0.462,6.798 0.018,15.151 -0.199,20.697c-5.154,0.947 -9.461,2.745 -15.321,2.983c-1.165,-1.224 -1.707,-3.068 -3.384,-3.779c-1.585,1.107 0.56,2.618 0.598,3.979c-4.405,0.306 -8.553,0.87 -12.339,1.792c0.734,-2.715 1.468,-5.43 2.388,-7.962c0.593,-0.673 1.444,1.704 2.786,1.594c1.164,-1.703 -1.313,-3.012 -2.19,-3.98c0.343,-2.179 1.188,-3.854 1.394,-6.169c0.498,-0.378 0.782,0.165 1.393,-0.199c0.013,-1.931 -1.102,-1.866 -0.597,-3.982c-0.781,0.548 -0.747,1.907 -1.395,2.588c-1.029,6.663 -3.02,12.368 -4.774,18.307c-2.344,-0.916 -1.061,-4.936 0.597,-5.769c-0.608,-3.779 1.212,-5.997 1.79,-9.155c0.311,-0.376 0.775,0.286 1.194,-0.199c-0.951,-1.857 0.463,-3.433 0.199,-4.973c-2.883,2.755 -2.424,8.853 -5.172,11.738c0.124,1.852 -0.125,3.328 -0.599,4.579c-0.518,-0.214 -0.279,-1.18 -0.795,-1.393c0.984,-2.265 1.042,-5.46 2.786,-6.965c-0.376,-3.273 1.013,-6.026 1.79,-8.758c10.701,-0.147 19.902,-3.423 29.651,-5.173Z" style="fill:#fff;"/><path d="M62.539,37.068c-0.943,2.906 -2.329,5.367 -3.184,8.358c-0.569,-2.586 1.915,-5.494 2.388,-8.358c0.266,0 0.529,0 0.796,0Z" style="fill:#fff;"/><path d="M63.732,37.267c0.199,0 0.4,0 0.597,0c-0.436,1.553 -0.883,3.097 -1.79,4.179c-0.304,-1.302 0.987,-2.724 1.193,-4.179Z" style="fill:#fff;"/><path d="M60.349,37.465c-0.606,2.049 -1.535,3.771 -2.189,5.772c-1.295,-0.989 0.41,-5.698 2.189,-5.772Z" style="fill:#fff;"/><path d="M61.343,44.033c0.178,0.121 0.358,0.24 0.4,0c0.317,1.185 -0.818,2.627 -0.996,3.979c-1.364,-0.994 0.3,-2.809 0.596,-3.979Z" style="fill:#fff;"/><path d="M7.017,47.415c0.317,0.28 0.508,0.686 0.597,1.196c-1.268,-0.274 -1.661,1.163 -2.389,0.794c-0.13,-1.392 1.518,-1.002 1.792,-1.99Z" style="fill:#fff;"/><path d="M8.409,50.004c0.234,0.298 0.249,0.813 0.598,0.995c-0.644,0.55 -1.573,0.814 -2.189,1.392c-0.538,-0.059 -0.357,-0.837 -0.796,-0.994c0.568,-0.694 1.141,-1.38 2.387,-1.393Z" style="fill:#fff;"/><path d="M10.4,53.585c-1.043,0.018 -1.261,0.862 -2.389,0.796c-0.468,-1.206 2.361,-3.365 2.389,-0.796Z" style="fill:#fff;"/><path d="M11.394,54.381c0.749,-0.151 0.434,0.76 0.995,0.796c-0.313,0.613 -1.228,0.629 -1.59,1.194c-0.296,-0.37 -1.03,-0.298 -0.996,-0.995c0.691,-0.172 1.104,-0.621 1.591,-0.995Z" style="fill:#fff;"/><path d="M5.225,55.974c0.999,-0.071 0.978,0.88 1.792,0.995c-0.571,0.754 -1.286,1.364 -2.189,1.79c-0.275,-0.947 -0.364,-2.341 0.397,-2.785Z" style="fill:#fff;"/><path d="M8.011,58.162c0.657,0.009 0.343,0.984 1.195,0.797c-1.276,1.311 -2.374,2.799 -3.981,3.779c-0.359,-2.815 1.951,-2.958 2.786,-4.576Z" style="fill:#fff;"/><path d="M11.196,60.549c-1.838,1.878 -3.44,3.991 -5.573,5.573c-0.227,-1.707 1.406,-2.732 2.388,-3.781c0.831,-0.885 2.009,-2.991 3.185,-1.792Z" style="fill:#fff;"/><path d="M12.789,61.945c-1.405,2.382 -4.662,4.618 -6.369,7.362c-0.296,-0.169 -0.288,-0.641 -0.398,-0.997c2.165,-2.014 4.101,-4.255 5.97,-6.564c0.416,-0.085 0.527,0.134 0.797,0.199Z" style="fill:#fff;"/><path d="M16.172,64.331c-3.308,3.193 -5.929,7.076 -9.155,10.349c-0.232,-1.095 0.828,-0.896 1.194,-1.394c1.95,-3.223 4.166,-6.183 6.368,-9.154c-1.958,0.146 -3.031,2.306 -4.179,3.782c-1.215,1.563 -2.55,3.126 -3.383,4.775c-0.911,-1.921 1.435,-3.543 2.587,-4.975c1.419,-1.763 2.773,-3.443 4.178,-4.976c0.851,0.478 1.508,1.149 2.39,1.593Z" style="fill:#fff;"/><path d="M50.201,88.61c2.212,-0.957 3.317,-3.323 4.576,-5.173c1.328,-1.954 2.645,-3.952 3.583,-6.17c-0.023,-0.245 -0.061,-0.472 -0.398,-0.399c-2.744,3.758 -5.442,7.56 -7.761,11.742Zm-0.399,-3.98c2.497,-3.209 4.85,-6.559 6.569,-10.548c-0.045,-0.154 -0.169,-0.231 -0.4,-0.199c-2.155,3.383 -5.596,6.765 -6.169,10.747Zm-31.64,-19.304c-2.703,4.132 -6.831,6.836 -9.155,11.343c2.264,-0.671 3.452,-3.274 4.975,-5.175c1.607,-2.003 3.324,-3.87 4.975,-5.57c10.149,6.287 29.819,8.274 44.377,4.776c0.463,1.658 0.068,4.177 0.199,6.168c-3.566,3.797 -5.458,9.269 -8.756,13.332c-0.983,0.022 1.615,-1.631 -0.399,-1.59c2.647,-3.458 5.1,-7.107 6.965,-11.343c-2.759,2.166 -4.409,5.567 -6.366,8.756c-1.201,1.954 -1.722,3.913 -4.379,4.177c-0.878,0.031 0.019,-0.485 -0.199,-0.993c-1.35,-0.224 -1.826,0.427 -2.587,0.796c-11.005,-1.494 -20.821,-3.644 -29.054,-7.961c-2.723,-1.426 -5.101,-3.293 -7.959,-4.379c0.78,1.262 2.316,2.3 3.78,3.186c7.616,4.607 17.921,8.201 28.458,10.348c-0.616,0.777 -1.546,1.239 -2.389,1.791c-6.068,-1.5 -12.855,-2.562 -18.705,-4.975c-2.659,-1.098 -4.949,-2.591 -7.563,-4.379c-2.813,-1.923 -5.746,-3.774 -6.966,-6.766c3.121,-4.108 6.056,-8.406 9.751,-11.94c0.379,0.086 0.501,0.428 0.997,0.398Z" style="fill:#fff;"/><path d="M63.334,83.237c0.439,0.024 0.083,0.843 0.199,1.191c-2.286,1.829 -2.833,5.394 -6.169,6.173c2.915,-1.529 4.257,-4.636 5.97,-7.364Z" style="fill:#fff;"/><path d="M63.334,86.221c0.392,0.091 0.358,1.396 -0.398,0.995c-0.031,-0.494 0.312,-0.616 0.398,-0.995Z" style="fill:#fff;"/><path d="M63.533,88.211c0.234,0.033 0.168,0.363 0.199,0.598c-3.179,1.466 -4.664,4.622 -8.755,5.174c2.839,-1.937 5.752,-3.801 8.556,-5.772Z" style="fill:#fff;"/><path d="M45.423,91.595c-0.571,0.888 -1.204,1.711 -2.784,1.592c0.722,-0.737 1.265,-1.653 2.784,-1.592Z" style="fill:#fff;"/><path d="M48.609,91.993c-0.836,0.623 -1.328,1.589 -2.986,1.394c0.76,-0.745 1.62,-1.844 2.986,-1.394Z" style="fill:#fff;"/><path d="M55.971,91.993c-1.225,0.698 -1.673,2.173 -3.78,1.99c1.123,-0.799 2.043,-1.804 3.78,-1.99Z" style="fill:#fff;"/><path d="M52.39,92.19c-0.247,0.818 -1.747,0.377 -1.592,1.593c-0.731,-0.064 -1.762,0.169 -2.189,-0.2c1.071,-0.653 1.851,-1.595 3.781,-1.393Z" style="fill:#fff;"/><path d="M60.152,92.589c0,0.266 0,0.531 0,0.798c-0.643,-0.045 -0.844,0.35 -1.593,0.196c0.487,-0.374 0.901,-0.822 1.593,-0.994Z" style="fill:#fff;"/><path d="M56.767,63.138c5.082,-0.823 -2.447,-4.12 0,0Zm-28.258,-36.618c0.266,0.285 1.127,0.285 1.394,0c0,-0.33 0,-0.663 0,-0.994c-0.295,-0.103 -0.502,-0.293 -0.797,-0.398c-0.344,0.319 -0.725,0.603 -0.597,1.392Zm14.13,-7.361c0.283,-0.047 0.335,-0.329 0.596,-0.4c0.202,-2.568 -2.768,-0.005 -0.596,0.4Zm13.93,0.596c1.091,0.121 1.543,-1.671 0.795,-2.587c-2.119,-0.257 -1.943,2.458 -0.795,2.587Zm-4.777,-1.591c0.224,0.042 0.31,0.219 0.399,0.396c1.975,-0.013 2.638,-1.342 2.985,-2.984c-1.675,-0.45 -3.305,0.786 -3.384,2.588Zm5.372,-4.378c-0.798,0.722 -0.331,2.585 1.196,2.187c0.619,-0.697 0.227,-2.38 -1.196,-2.187Zm29.254,5.173c0.411,0.409 0.978,1.78 1.793,1.195c-2.609,-4.69 -7.171,-7.423 -12.141,-9.752c3.729,2.497 7.329,5.538 10.348,8.557Zm-34.427,-11.741c-12.118,-0.921 -22.088,3.225 -30.048,7.761c-2.145,1.221 -5.641,2.418 -4.975,5.175c1.128,0.265 1.055,-0.67 1.391,-1.195c0.202,0.56 0.847,-0.055 1.195,0c2.069,-1.907 4.828,-3.082 7.762,-4.377c2.681,-1.186 5.23,-3.364 8.158,-3.982c5.814,-1.223 12.761,-2.11 19.9,-2.187c-0.584,-1.076 -2.231,-1.107 -3.383,-1.195Zm-40.994,16.318c-1.551,0.318 -2.693,2.649 -3.583,4.577c-2.096,4.54 -2.56,12.307 -0.596,17.91c-0.669,0.658 -1.495,1.16 -1.791,2.189c-0.839,-2.289 -1.687,-4.58 -1.791,-6.766c-0.411,-8.491 3.536,-14.917 8.158,-19.899c4.774,-5.145 9.94,-8.01 17.115,-10.947c5.473,-2.238 10.634,-5.156 18.309,-5.173c7.566,-0.017 15.448,-0.115 22.287,1.193c8.552,1.639 15.138,3.874 20.297,8.359c1.014,0.88 2.315,1.53 2.987,2.387c2.278,2.906 3.236,7.261 4.179,11.144c-6.089,1.031 -13.05,3.128 -19.303,4.379c-2.345,0.47 -4.68,0.386 -6.967,0.797c-2.012,0.361 -3.85,1.031 -5.769,1.193c-4.308,0.365 -11.09,-1.627 -11.542,2.586c-0.178,1.649 1.738,5.209 2.586,6.967c3.125,6.472 5.198,13.768 7.363,20.894c-9.337,2.272 -18.698,4.063 -28.855,2.588c-4.165,-0.606 -7.944,-3.192 -11.941,-4.578c-4.259,-1.477 -7.905,-3.367 -10.347,-5.97c1.082,-1.041 2.603,-1.643 3.78,-2.586c8.464,6.081 23.793,12.192 37.414,8.358c-4.69,-1.093 -9.278,-0.463 -13.731,-0.996c-10.24,-1.22 -18.574,-5.96 -25.274,-11.143c-1.855,-1.435 -3.764,-2.501 -4.776,-4.38c-4.651,-8.635 1.26,-19.77 5.772,-25.471c-2.037,-0.704 -3.577,3.837 -4.379,3.385c0.295,-0.172 0.287,-0.643 0.398,-0.997Z" style="fill:#fff;"/><path d="M61.941,50.401c-0.463,-2.571 1.421,-6.105 2.388,-8.557c-0.073,-1.466 0.716,-2.071 0.796,-3.383c0.267,-0.04 0.372,-0.827 0.399,0c-1.356,3.819 -2.323,8.025 -3.583,11.94Z" style="fill:#fff;"/><path d="M11.992,52.191c0.904,-0.169 1.774,1.407 2.786,1.793c-1.491,1.66 -1.579,-1.402 -2.786,-1.793Z" style="fill:#fff;"/><path d="M63.334,78.062c0.456,0.342 0.074,1.519 0.199,2.189c-2.187,2.855 -3.603,6.481 -6.369,8.756c1.6,-3.308 4.375,-7.167 6.17,-10.945Z" style="fill:#fff;"/></g></g></svg>