<?xml version="1.0" encoding="UTF-8" standalone="no"?><!DOCTYPE svg PUBLIC "-//W3C//DTD SVG 1.1//EN" "http://www.w3.org/Graphics/SVG/1.1/DTD/svg11.dtd"><svg width="100%" height="100%" viewBox="0 0 101 101" version="1.1" xmlns="http://www.w3.org/2000/svg" xmlns:xlink="http://www.w3.org/1999/xlink" xml:space="preserve" xmlns:serif="http://www.serif.com/" style="fill-rule:evenodd;clip-rule:evenodd;stroke-linejoin:round;stroke-miterlimit:1.41421;"><rect id="RedMeat" x="0" y="0.175" width="100" height="100" style="fill:none;"/><g><path d="M22.005,31.229c-0.573,0.696 -0.653,1.682 -1.337,2.335c0.903,-0.511 0.99,-1.489 1.337,-2.335Zm44.346,23.018c-3.857,-1.436 -7.935,-1.823 -11.947,-2.532c3.942,1.025 7.974,1.622 11.947,2.532Zm8.554,11.986c0,-0.314 0.022,-0.632 -0.011,-0.943c-0.017,-0.174 0.187,-0.508 -0.22,-0.49c-0.368,0.019 -0.197,0.295 -0.214,0.504c-0.063,0.894 0.451,1.933 -0.606,2.594c-0.024,0.015 -0.024,0.088 -0.018,0.129c0.103,0.667 -0.204,1.274 -0.288,1.914c-0.105,0.793 -0.119,0.765 0.641,0.702c0.37,-0.031 0.556,-0.097 0.388,-0.504c-0.08,-0.195 -0.007,-0.395 -0.012,-0.593c-0.027,-1.12 0.462,-2.185 0.34,-3.313Zm-71.911,-4.066c-0.289,0.221 -0.051,0.812 -0.515,0.835c-0.486,0.023 -0.435,0.285 -0.38,0.613c0.191,1.166 0.449,2.324 0.361,3.525c-0.023,0.302 0.164,0.581 0.617,0.757c-0.306,-0.743 -0.083,-1.41 -0.099,-2.078c-0.006,-0.256 0.022,-0.632 0.202,-0.673c0.552,-0.126 0.405,-0.559 0.447,-0.881c0.052,-0.376 0.044,-0.76 0.157,-1.13c0.235,-0.768 0.133,-1.557 0.133,-2.339c0,-0.261 -0.141,-0.396 -0.379,-0.329c-0.261,0.07 -0.009,0.238 -0.006,0.352c0.006,0.4 0.095,0.799 0.114,1.199c0.012,0.302 0.265,0.754 -0.219,0.846c-0.48,0.091 -0.18,-0.496 -0.433,-0.697Zm57.915,7.059c-0.497,1.112 -0.52,2.273 -0.614,3.418c-0.015,0.176 -0.253,0.639 0.273,0.539c0.424,-0.079 1.075,0.198 1.175,-0.53c0.135,-0.973 0.403,-1.904 0.704,-2.832c0.125,-0.391 -0.055,-0.792 -0.046,-1.19c-0.778,0.125 -0.221,-0.477 -0.362,-0.705c-0.069,-0.111 -0.005,-0.307 0.001,-0.463c0.003,-0.126 0.132,-0.29 -0.026,-0.361c-0.104,-0.05 -0.266,-0.015 -0.389,0.027c-0.199,0.069 -0.166,0.258 -0.122,0.402c0.286,0.942 0.235,1.911 0.252,2.874c0.003,0.177 0.141,0.445 -0.194,0.462c-0.246,0.011 -0.318,-0.199 -0.365,-0.408c-0.094,-0.411 -0.191,-0.822 -0.287,-1.233Zm-5.747,4.499c0.27,0 0.542,-0.031 0.805,0.006c0.486,0.07 0.651,-0.131 0.552,-0.589c-0.185,-0.848 -0.088,-1.708 -0.139,-2.561c-0.041,-0.659 0.367,-1.317 0.004,-1.969c-0.15,-0.271 0.016,-0.868 -0.379,-0.797c-0.435,0.077 -0.141,0.605 -0.112,0.908c0.108,1.171 -0.162,2.275 -0.491,3.372c-0.035,0.116 -0.071,0.27 -0.25,0.27c-0.128,0.002 -0.214,-0.054 -0.231,-0.186c-0.098,-0.822 -0.427,-1.627 -0.23,-2.469c0.095,-0.408 0.101,-0.808 0.015,-1.202c-0.044,-0.203 0.091,-0.607 -0.229,-0.572c-0.223,0.024 -0.061,0.379 -0.032,0.588c0.045,0.331 0.167,0.76 -0.08,0.956c-0.411,0.327 -0.325,0.728 -0.352,1.123c-0.037,0.561 -0.018,1.128 -0.071,1.688c-0.135,1.434 -0.146,1.434 1.22,1.434Zm27.561,-8.022c-0.402,0.65 -0.81,1.064 -0.819,1.674c-0.011,0.652 -0.237,1.408 0.023,1.918c0.173,0.341 1.034,0.057 1.586,0.094c0.11,0.007 0.224,-0.011 0.333,0.003c0.287,0.041 0.399,-0.088 0.416,-0.369c0.103,-1.731 0.618,-3.425 0.452,-5.187c-0.037,-0.388 -0.1,-0.599 -0.53,-0.543c-0.191,0.023 -0.385,0.003 -0.633,0.003c0.365,0.649 0.597,1.266 0.677,1.941c0.035,0.288 0.191,0.616 -0.151,0.781c-0.334,0.158 -0.291,-0.338 -0.526,-0.391c-0.041,-0.009 -0.085,-0.002 -0.163,-0.002c-0.018,0.466 -0.042,0.93 -0.159,1.382c-0.051,0.191 0.115,0.518 -0.253,0.503c-0.303,-0.012 -0.385,-0.317 -0.39,-0.549c-0.007,-0.353 0.072,-0.708 0.137,-1.258Zm-53.39,-16.766c0.003,0.032 0.006,0.06 0.009,0.092c0.281,0.043 0.565,0.068 0.841,0.132c1.36,0.309 2.694,0.778 4.124,0.595c0.042,-0.007 0.088,0.004 0.132,0.013c1.845,0.363 3.663,0.281 5.474,-0.245c0.982,-0.287 1.995,-0.501 3.026,-0.417c1.547,0.127 3.081,0.353 4.586,0.768c0.318,0.088 0.652,0.243 0.969,0.125c-1.482,-0.989 -3.173,-1.2 -4.907,-1.21c-0.601,-0.005 -1.212,0.323 -1.785,0.121c-0.879,-0.308 -1.68,0.088 -2.517,0.112c-0.867,0.026 -1.612,0.59 -2.519,0.454c-1.348,-0.207 -2.714,-0.158 -4.071,-0.489c-1.063,-0.259 -2.237,-0.051 -3.362,-0.051Zm-18.435,20.773c0,-0.867 -0.02,-1.721 0.009,-2.575c0.014,-0.439 -0.009,-1.167 0.2,-1.257c0.519,-0.224 0.322,-0.57 0.335,-0.864c0.041,-0.934 -0.024,-1.847 -0.671,-2.609c-0.096,-0.116 -0.062,-0.296 -0.04,-0.458c0.034,-0.22 0.031,-0.449 0.032,-0.672c0.002,-0.173 -0.097,-0.228 -0.258,-0.224c-0.147,0.004 -0.306,0.022 -0.271,0.2c0.17,0.822 -0.323,1.54 -0.306,2.361c0.038,1.705 0.025,3.428 -0.164,5.12c-0.099,0.851 0.215,0.931 0.829,0.949c0.087,0.002 0.172,0.016 0.305,0.029Zm46.636,-2.189c-0.155,0.351 -0.736,-0.064 -0.617,0.523c0.194,0.975 0.408,1.924 0.153,2.943c-0.138,0.552 0.091,1.155 0.227,1.722c0.082,0.334 -0.156,0.825 0.175,0.972c0.266,0.12 0.679,-0.147 1.025,-0.138c0.826,0.022 1.032,-0.41 1.087,-1.166c0.109,-1.514 0.59,-2.997 0.368,-4.541c-0.029,-0.199 0.073,-0.491 -0.297,-0.479c-0.374,0.012 -0.763,-0.044 -1.099,0.186c-0.029,0.019 -0.025,0.137 0.004,0.184c0.714,1.087 0.238,2.259 0.24,3.396c0,0.234 -0.071,0.495 -0.303,0.543c-0.329,0.07 -0.31,-0.255 -0.345,-0.455c-0.206,-1.187 -0.4,-2.376 -0.618,-3.69Zm-17.461,0.13c-0.318,0.608 0.075,1.225 -0.147,1.8c-0.057,0.148 -0.1,0.34 -0.285,0.326c-0.229,-0.015 -0.15,-0.234 -0.16,-0.375c-0.041,-0.532 -0.09,-1.066 -0.102,-1.599c-0.009,-0.407 -0.334,-0.443 -0.554,-0.416c-0.332,0.04 -0.101,0.305 -0.074,0.475c0.059,0.396 0.14,0.79 0.187,1.189c0.021,0.177 -0.025,0.391 -0.247,0.397c-0.182,0.006 -0.226,-0.187 -0.257,-0.344c-0.097,-0.504 -0.201,-1.007 -0.286,-1.514c-0.037,-0.216 -0.053,-0.415 -0.375,-0.326c0.058,0.166 0.115,0.323 0.168,0.481c0.425,1.277 0.431,2.557 0.004,3.832c-0.054,0.156 -0.026,0.482 -0.319,0.418c-0.309,-0.066 -0.32,-0.353 -0.232,-0.602c0.102,-0.289 0.067,-0.579 0.068,-0.87c0,-0.102 -0.018,-0.281 -0.068,-0.297c-0.572,-0.179 -0.446,-0.642 -0.444,-1.057c0,-0.519 -0.002,-1.039 -0.005,-1.557c0,-0.135 -0.019,-0.27 -0.015,-0.405c0.012,-0.281 -0.196,-0.247 -0.364,-0.273c-0.309,-0.046 -0.182,0.189 -0.173,0.303c0.158,1.965 0.646,3.897 0.595,5.883c-0.005,0.19 0.112,0.252 0.295,0.288c0.904,0.169 0.963,0.116 0.945,-0.837c-0.006,-0.266 0.09,-0.527 0.129,-0.786c0.029,-0.198 -0.073,-0.434 0.223,-0.414c0.239,0.015 0.373,0.204 0.367,0.474c-0.006,0.291 0.094,0.607 0.063,0.863c-0.11,0.908 0.478,0.722 0.986,0.755c0.367,0.023 0.443,-0.115 0.431,-0.456c-0.02,-0.495 0,-0.992 0.035,-1.486c0.092,-1.304 0.05,-2.59 -0.389,-3.87Zm41.81,-2.964c-0.012,-1.329 -0.043,-1.362 -1.066,-1.089c-0.238,0.064 -0.473,0.123 -0.288,0.475c0.08,0.151 0.138,0.362 0.098,0.518c-0.168,0.679 0.72,1.442 -0.17,2.064c-0.113,0.079 -0.154,0.302 -0.347,0.227c-0.18,-0.071 -0.124,-0.256 -0.138,-0.411c-0.073,-0.776 -0.123,-1.555 -0.353,-2.307c-0.035,-0.113 0.003,-0.286 -0.22,-0.237c-0.187,0.041 -0.168,0.15 -0.152,0.296c0.022,0.177 -0.006,0.361 0.017,0.541c0.064,0.502 -0.038,0.98 -0.211,1.444c-0.094,0.251 -0.286,0.435 -0.565,0.344c-0.287,-0.091 -0.119,-0.348 -0.088,-0.517c0.1,-0.56 0.057,-1.122 0.072,-1.683c0.007,-0.226 -0.068,-0.339 -0.318,-0.282c-0.193,0.04 -0.356,0.08 -0.249,0.335c0.111,0.26 0.099,0.538 0.049,0.799c-0.103,0.524 -0.243,1.043 -0.369,1.565c-0.04,0.172 0.126,0.477 -0.191,0.477c-0.309,0.002 -0.341,-0.277 -0.351,-0.546c-0.026,-0.717 -0.085,-1.431 -0.103,-2.147c-0.008,-0.294 -0.096,-0.315 -0.361,-0.267c-0.554,0.102 -0.43,0.545 -0.476,0.889c-0.187,1.38 -0.938,2.629 -0.716,4.124c0.17,1.154 0.027,1.159 1.249,1.053c0.313,-0.026 0.441,-0.11 0.42,-0.434c-0.047,-0.728 0.243,-1.413 0.291,-2.13c0.011,-0.157 0.022,-0.446 0.317,-0.424c0.294,0.025 0.249,0.293 0.249,0.467c0,0.604 -0.041,1.209 -0.05,1.812c-0.003,0.141 -0.096,0.407 0.085,0.407c0.347,0.001 0.725,-0.047 1.031,-0.197c0.202,-0.097 0.052,-0.395 -0.002,-0.614c-0.191,-0.796 -0.042,-1.603 -0.047,-2.405c0,-0.176 0.105,-0.39 0.308,-0.378c0.208,0.014 0.205,0.215 0.223,0.407c0.077,0.777 0.178,1.554 0.293,2.327c0.03,0.208 0.009,0.638 0.364,0.441c0.318,-0.176 1.04,0.258 0.952,-0.539c-0.114,-1.029 0.249,-1.997 0.288,-3.003c0.005,-0.129 0.056,-0.347 0.127,-0.367c0.628,-0.165 0.367,-0.653 0.398,-1.035Zm-51.387,0.538c0.013,0.12 0.026,0.229 0.035,0.337c0.105,1.352 0.613,2.649 0.488,4.037c-0.089,1.009 -0.039,2.031 -0.142,3.036c-0.089,0.874 0.52,0.463 0.857,0.552c0.523,0.14 0.509,-0.206 0.506,-0.569c-0.006,-0.924 0,-1.849 0.015,-2.776c0.005,-0.223 -0.121,-0.572 0.244,-0.596c0.36,-0.026 0.314,0.366 0.331,0.561c0.097,1.028 0.182,2.064 0.19,3.097c0.003,0.486 0.257,0.45 0.539,0.406c0.264,-0.04 0.721,0.255 0.693,-0.387c-0.019,-0.491 -0.018,-0.996 0.066,-1.478c0.04,-0.229 -0.017,-0.71 0.407,-0.632c0.308,0.054 0.334,0.415 0.317,0.732c-0.025,0.496 -0.025,0.993 -0.009,1.49c0.02,0.577 0.484,0.29 0.752,0.355c0.307,0.076 0.432,-0.047 0.398,-0.406c-0.057,-0.581 -0.04,-1.171 -0.058,-1.758c-0.021,-0.673 -0.14,-1.351 -0.027,-2.021c0.115,-0.681 -0.24,-1.252 -0.337,-1.885c-0.047,0.366 -0.038,0.727 -0.052,1.086c-0.007,0.194 -0.122,0.378 -0.313,0.381c-0.258,0.003 -0.202,-0.237 -0.21,-0.408c-0.018,-0.449 0.008,-0.896 -0.063,-1.348c-0.07,-0.446 -0.217,-0.729 -0.719,-0.67c0.102,0.641 0.209,1.276 0.302,1.915c0.045,0.32 0.382,0.869 -0.426,0.581c-0.175,-0.063 -0.158,0.175 -0.219,0.277c-0.123,0.212 -0.223,0.437 -0.344,0.649c-0.07,0.123 -0.18,0.215 -0.332,0.153c-0.194,-0.079 -0.159,-0.23 -0.097,-0.388c0.344,-0.867 0.385,-1.762 0.299,-2.69c-0.079,-0.823 -0.176,-0.954 -1.065,-0.933c0.25,0.618 0.203,1.279 0.308,1.916c0.03,0.18 -0.003,0.435 -0.223,0.524c-0.271,0.111 -0.189,-0.211 -0.318,-0.317c-0.035,0.064 -0.066,0.119 -0.096,0.172c-0.106,0.183 -0.164,0.471 -0.459,0.37c-0.302,-0.105 -0.188,-0.389 -0.123,-0.578c0.144,-0.423 0.076,-0.851 0.08,-1.277c0.012,-1.193 0.005,-1.193 -1.195,-1.51Zm-21.465,4.359c0,-1.859 -0.09,-3.608 0.248,-5.337c0.027,-0.152 0.06,-0.403 -0.014,-0.458c-0.544,-0.391 -0.187,-0.922 -0.24,-1.383c-0.039,-0.335 -0.019,-0.676 -0.006,-1.014c0.023,-0.551 -0.382,-0.357 -0.656,-0.399c-0.306,-0.046 -0.457,0.051 -0.423,0.396c0.053,0.514 0.097,1.029 0.112,1.545c0.009,0.282 -0.19,0.38 -0.452,0.362c-0.274,-0.02 -0.223,-0.214 -0.223,-0.393c0.002,-0.559 0.008,-1.119 -0.012,-1.678c-0.02,-0.505 -0.418,-0.334 -0.7,-0.37c-0.419,-0.052 -0.336,0.253 -0.328,0.481c0.015,0.468 0.153,0.925 0.146,1.404c-0.003,0.332 0.081,0.644 -0.393,0.67c-0.529,0.027 -0.407,-0.379 -0.4,-0.657c0.009,-0.514 0.083,-1.029 0.1,-1.545c0.024,-0.638 -0.47,-0.436 -0.813,-0.491c-0.497,-0.08 -0.297,0.268 -0.331,0.499c-0.094,0.679 0.501,1.449 -0.254,2.047c-0.034,0.027 -0.011,0.13 -0.011,0.197c0.005,1.531 -0.003,3.063 -0.19,4.585c-0.016,0.134 -0.115,0.319 0.102,0.408c0.45,0.185 0.955,0.215 1.38,0.103c0.285,-0.074 0.089,-0.55 0.076,-0.847c-0.031,-0.724 -0.161,-1.627 0.262,-2.085c0.437,-0.475 0.452,-0.946 0.57,-1.438c0.079,-0.318 0.032,-0.668 0.131,-0.997c0.059,-0.193 0.057,-0.458 0.327,-0.411c0.209,0.036 0.258,0.235 0.235,0.476c-0.153,1.684 -0.139,3.375 -0.138,5.064c0,0.869 -0.009,0.869 0.934,0.927c-0.241,-0.928 -0.273,-1.865 -0.274,-2.807c0,-0.249 -0.176,-0.628 0.174,-0.66c0.303,-0.025 0.314,0.398 0.347,0.642c0.081,0.602 0.061,1.219 0.179,1.81c0.09,0.432 -0.088,0.998 0.535,1.354Zm57.73,2.201c0.397,-0.129 0.768,-0.301 1.156,-0.361c0.422,-0.069 0.574,-0.314 0.657,-0.681c0.136,-0.607 0.279,-1.215 0.435,-1.818c0.052,-0.202 0.058,-0.505 0.363,-0.467c0.297,0.036 0.154,0.321 0.16,0.491c0.023,0.688 0,1.377 -0.254,2.039c0.972,0.04 0.959,0.038 1.073,-0.837c0.047,-0.353 0.168,-0.697 0.15,-1.062c-0.009,-0.178 0.085,-0.336 0.246,-0.354c0.167,-0.02 0.22,0.165 0.294,0.299c0.194,0.343 0.115,0.711 0.079,1.058c-0.073,0.677 0.158,0.901 0.84,0.818c0.453,-0.053 0.779,-0.073 0.71,-0.657c-0.025,-0.217 0.039,-0.449 0.089,-0.669c0.171,-0.737 0.156,-1.631 0.581,-2.168c0.638,-0.813 0.11,-1.515 0.333,-2.287c-0.359,0.069 -0.32,0.214 -0.324,0.346c-0.023,0.673 -0.115,1.33 -0.316,1.974c-0.071,0.235 -0.192,0.446 -0.374,0.197c-0.2,-0.272 -0.511,-0.515 -0.45,-0.955c0.054,-0.391 0.01,-0.796 0.01,-1.167c-0.805,-0.058 -1.151,0.209 -0.954,1.049c0.135,0.57 -0.098,1.16 -0.124,1.742c-0.009,0.211 -0.142,0.279 -0.3,0.293c-0.176,0.015 -0.363,-0.143 -0.331,-0.262c0.135,-0.524 -0.236,-0.963 -0.186,-1.477c0.03,-0.314 0.186,-0.91 -0.132,-0.924c-0.423,-0.018 -0.361,0.576 -0.408,0.933c-0.024,0.182 0.049,0.374 -0.223,0.376c-0.235,0.001 -0.364,-0.149 -0.409,-0.369c-0.047,-0.232 0.076,-0.482 -0.065,-0.709c-0.182,0.059 -0.155,0.218 -0.158,0.338c-0.012,0.711 -0.447,1.299 -0.546,1.988c-0.029,0.201 -0.196,0.456 -0.47,0.356c-0.221,-0.082 -0.085,-0.3 -0.071,-0.472c0.039,-0.511 0.062,-1.022 0.083,-1.534c0.012,-0.246 0.062,-0.499 -0.35,-0.461c-0.308,0.027 -0.523,0.055 -0.455,0.444c0.079,0.432 -0.117,0.84 -0.126,1.265c-0.003,0.158 0.061,0.349 -0.158,0.368c-0.232,0.022 -0.373,-0.139 -0.379,-0.374c-0.012,-0.355 -0.003,-0.708 -0.003,-1.063c-0.136,0.709 -0.136,1.419 -0.136,2.13c0.001,0.216 -0.05,0.46 -0.278,0.466c-0.27,0.007 -0.215,-0.266 -0.253,-0.458c-0.152,-0.78 -0.12,-1.566 -0.136,-2.353c-0.005,-0.196 -0.052,-0.293 -0.264,-0.27c-0.185,0.022 -0.328,0.112 -0.252,0.301c0.211,0.517 -0.045,0.971 -0.171,1.436c-0.064,0.238 -0.131,0.613 -0.473,0.53c-0.316,-0.075 -0.151,-0.42 -0.166,-0.651c-0.012,-0.177 0.008,-0.361 0.028,-0.538c0.033,-0.322 0.065,-0.637 -0.335,-1.004c0,0.523 0.022,0.896 -0.007,1.265c-0.045,0.553 -0.039,1.119 -0.242,1.646c-0.056,0.144 -0.141,0.314 -0.34,0.246c-0.182,-0.061 -0.176,-0.211 -0.139,-0.388c0.148,-0.733 0.071,-1.477 0.088,-2.219c0.001,-0.121 0.065,-0.295 -0.116,-0.335c-0.124,-0.027 -0.297,-0.036 -0.386,0.031c-0.125,0.092 0.004,0.233 0.038,0.356c0.26,0.949 0.2,1.87 -0.028,2.84c-0.201,0.866 -0.462,1.75 -0.461,2.67c0.276,-0.059 0.493,-0.139 0.711,-0.145c0.513,-0.017 0.683,-0.276 0.727,-0.775c0.067,-0.757 0.203,-1.507 0.433,-2.237c0.055,-0.17 -0.104,-0.485 0.202,-0.477c0.303,0.007 0.361,0.294 0.341,0.559c-0.05,0.672 -0.03,1.365 -0.188,2.009c-0.133,0.549 0.062,0.461 0.401,0.372c0.171,-0.046 0.354,-0.081 0.526,-0.065c0.289,0.025 0.441,-0.11 0.44,-0.37c-0.005,-0.712 0.309,-1.348 0.435,-2.029c0.036,-0.202 0.065,-0.46 0.32,-0.422c0.236,0.035 0.235,0.294 0.213,0.498c-0.068,0.688 -0.145,1.376 -0.225,2.135Zm-46.354,-37.599c-0.319,0.93 -0.544,1.688 -0.522,2.508c0.009,0.349 0.094,0.729 -0.294,0.97c-0.174,0.11 -0.074,0.214 0.04,0.313c0.18,0.158 0.21,0.379 0.251,0.603c0.178,0.992 0.378,1.981 0.557,2.971c0.144,0.794 1.058,1.695 1.727,1.683c0.508,-0.009 0.905,0.212 1.281,0.484c0.895,0.643 1.912,1.002 2.948,1.287c1.342,0.37 2.7,0.685 4.044,1.055c0.54,0.146 0.778,0.655 1.286,0.774c1.649,0.383 3.32,0.576 5.011,0.615c0.728,0.017 1.448,0.052 2.171,0.188c0.809,0.152 1.64,0.068 2.458,0.008c1.676,-0.121 3.351,-0.334 5.004,0.177c1.436,0.443 2.849,0.987 4.313,1.303c1.737,0.374 3.431,0.858 5.114,1.419c0.963,0.32 1.883,0.785 2.931,0.843c1.6,0.088 3.187,0.244 4.714,0.807c1.577,0.582 3.283,0.53 4.899,0.938c0.454,0.114 1.103,0.144 1.247,0.507c0.199,0.496 0.559,0.543 0.896,0.682c0.878,0.363 1.776,0.673 2.664,1.01c1.644,0.623 3.145,1.609 4.904,1.942c0.482,0.093 0.914,0.102 1.325,-0.263c-0.694,-0.308 -1.434,-0.373 -2.07,-0.746c-0.747,-0.44 -1.592,-0.651 -2.386,-0.974c-0.398,-0.164 -0.834,0.156 -1.065,0.071c-1.178,-0.429 -2.344,-0.932 -3.433,-1.557c-0.746,-0.431 -1.493,-0.752 -2.323,-0.948c-1.017,-0.239 -2.068,-0.26 -3.081,-0.495c-1.962,-0.457 -3.886,-1.056 -5.889,-1.365c-1.797,-0.275 -3.447,-1.137 -5.213,-1.565c-1.096,-0.265 -2.219,-0.394 -3.33,-0.575c-1.231,-0.2 -2.408,-0.732 -3.612,-1.111c-1.636,-0.513 -3.33,-0.757 -5.02,-0.955c-1.379,-0.161 -2.722,0.374 -4.108,0.435c-1.829,0.08 -3.603,-0.131 -5.246,-0.913c-0.974,-0.464 -1.961,-0.864 -3,-1.045c-1.449,-0.25 -2.718,-0.84 -4.001,-1.537c-1.08,-0.587 -2.144,-1.26 -3.351,-1.608c-0.348,-0.1 -0.721,-0.218 -1.024,-0.386c-0.626,-0.347 -1.023,-1.82 -0.717,-2.575c0.196,-0.484 0.233,-0.961 0.199,-1.453c-0.081,-1.114 -0.187,-2.226 -0.299,-3.522Zm27.081,34.052c0.355,1.122 0.366,2.277 0.182,3.443c-0.048,0.308 -0.144,0.648 -0.467,0.627c-0.291,-0.019 -0.148,-0.332 -0.145,-0.554c0.006,-0.371 -0.04,-1.063 -0.113,-1.069c-0.773,-0.071 -0.311,-0.585 -0.339,-0.882c-0.041,-0.425 -0.011,-0.859 -0.017,-1.286c-0.001,-0.17 0.05,-0.364 -0.243,-0.369c-0.332,-0.003 -0.665,-0.065 -0.997,-0.072c-0.213,-0.005 -0.361,0.056 -0.367,0.351c-0.017,0.801 -0.085,1.602 -0.128,2.404c-0.007,0.165 0.234,0.426 -0.139,0.444c-0.276,0.014 -0.387,-0.205 -0.393,-0.45c-0.014,-0.496 -0.01,-0.989 -0.01,-1.483c-0.005,-1.025 -0.016,-0.962 -0.992,-1.138c-0.716,-0.128 -0.702,0.22 -0.584,0.678c0.07,0.275 0.203,0.608 -0.073,0.721c-0.292,0.118 -0.376,0.248 -0.403,0.529c-0.014,0.141 -0.135,0.303 -0.323,0.248c-0.147,-0.044 -0.18,-0.195 -0.152,-0.336c0.122,-0.608 -0.075,-1.212 -0.021,-1.817c0.029,-0.333 -0.061,-0.511 -0.427,-0.487c-0.195,0.016 -0.392,-0.015 -0.645,-0.03c0.513,1.615 0.563,3.238 0.523,4.869c-0.023,0.899 -0.026,0.899 0.886,1.013c0.044,0.004 0.094,-0.006 0.132,0.012c0.455,0.197 0.489,-0.026 0.476,-0.421c-0.034,-1.11 0.235,-2.167 0.612,-3.355c0.301,0.816 0.313,1.496 0.261,2.201c-0.155,2.082 -0.4,1.784 1.603,1.831c0.023,0.002 0.045,-0.003 0.068,0.002c0.294,0.047 0.288,-0.12 0.293,-0.352c0.023,-1.122 0.06,-2.246 0.118,-3.369c0.017,-0.335 0.102,-0.673 0.361,-0.937c0.223,0.232 0.156,0.493 0.162,0.735c0.024,0.939 0.159,1.873 0.121,2.817c-0.015,0.358 -0.18,0.865 0.096,1.053c0.265,0.182 0.74,0.024 1.111,0.085c0.396,0.065 0.467,-0.109 0.413,-0.431c-0.1,-0.587 0.056,-1.149 0.109,-1.726c0.09,-0.97 0.5,-1.906 0.329,-2.906c-0.035,-0.2 -0.168,-0.52 0.147,-0.563c0.247,-0.033 0.284,0.282 0.361,0.49c0.229,0.611 -0.08,1.184 -0.086,1.759c-0.012,1.036 -0.126,2.059 -0.17,3.09c-0.009,0.22 0.023,0.343 0.27,0.346c0.223,0.003 0.446,0.018 0.667,0.048c0.541,0.073 0.713,-0.094 0.646,-0.691c-0.138,-1.253 -0.012,-2.517 0.012,-3.776c0.003,-0.165 0.008,-0.355 0.186,-0.385c0.217,-0.036 0.31,0.15 0.339,0.338c0.057,0.376 0.091,0.758 0.147,1.135c0.168,1.111 0.133,2.235 0.129,3.338c0.567,-0.045 1.079,-0.081 1.589,-0.132c0.256,-0.025 0.438,-0.089 0.442,-0.444c0.008,-0.876 0.013,-1.763 0.144,-2.626c0.101,-0.664 -0.15,-1.356 0.149,-1.974c0.117,-0.24 0.356,-0.461 0.197,-0.705c-0.17,-0.26 -0.482,-0.072 -0.732,-0.061c-0.112,0.005 -0.225,0.018 -0.337,0.012c-0.224,-0.012 -0.303,0.134 -0.22,0.293c0.452,0.869 -0.041,1.813 0.226,2.7c0.081,0.272 -0.179,0.486 -0.406,0.539c-0.355,0.081 -0.199,-0.246 -0.243,-0.411c-0.229,-0.83 -0.071,-1.703 -0.271,-2.539c-0.088,-0.37 -0.188,-0.671 -0.672,-0.58c-0.217,0.041 -0.446,0.016 -0.669,0.004c-0.213,-0.013 -0.272,0.07 -0.21,0.27c0.148,0.487 0.053,0.986 0.074,1.478c0.015,0.314 0.168,0.801 -0.303,0.825c-0.413,0.02 -0.202,-0.465 -0.256,-0.709c-0.527,-2.319 -0.272,-1.8 -1.943,-1.72c-0.02,0.002 -0.038,0.024 -0.085,0.058Zm-23.205,-1.439c0.301,0.192 0.345,0.509 0.385,0.761c0.253,1.603 0.418,3.215 0.289,4.843c-0.012,0.155 -0.189,0.334 0.141,0.382c0.334,0.047 0.27,-0.156 0.296,-0.359c0.065,-0.481 -0.162,-0.928 -0.13,-1.4c0.015,-0.238 0.031,-0.573 0.335,-0.559c0.329,0.017 0.151,0.355 0.188,0.552c0.107,0.573 -0.029,1.23 0.177,1.718c0.278,0.653 1.089,0.15 1.617,0.386c0.021,0.01 0.044,0.013 0.065,0.02c0.402,0.118 0.597,0.059 0.574,-0.456c-0.081,-1.879 0.439,-3.744 0.172,-5.632c-0.112,-0.799 0.048,-1.627 -0.199,-2.455c0,0.514 -0.024,0.987 0.008,1.454c0.028,0.419 0.145,0.734 -0.531,0.495c-0.315,-0.111 -0.384,-0.202 -0.39,-0.452c-0.015,-0.496 0.009,-0.995 -0.024,-1.488c-0.024,-0.374 -0.095,-0.759 -0.655,-0.761c0.074,0.488 0.17,0.946 0.211,1.41c0.112,1.253 0.467,2.52 -0.179,3.74c-0.084,0.157 -0.129,0.391 -0.337,0.347c-0.238,-0.05 -0.256,-0.29 -0.197,-0.496c0.146,-0.513 0.112,-1.025 0.038,-1.541c-0.02,-0.142 0.047,-0.356 -0.196,-0.345c-0.589,0.024 -0.538,-0.358 -0.541,-0.769c-0.008,-0.974 -0.167,-1.927 -0.468,-2.86c-0.037,0.663 0.027,1.313 0.048,1.968c0.011,0.337 0.133,0.875 -0.309,0.895c-0.388,0.017 -0.125,-0.532 -0.267,-0.813c-0.182,0.175 -0.123,0.646 -0.435,0.578c-0.388,-0.09 -0.164,-0.493 -0.188,-0.76c-0.053,-0.626 -0.096,-1.257 -0.141,-1.885c-0.014,-0.182 -0.09,-0.307 -0.292,-0.28c-0.21,0.027 -0.124,0.197 -0.122,0.315c0.007,0.587 0.016,1.172 0.032,1.759c0.003,0.137 0.04,0.285 -0.14,0.325c-0.155,0.036 -0.238,-0.093 -0.324,-0.191c-0.132,-0.153 -0.064,-0.346 -0.093,-0.519c-0.099,-0.608 -0.209,-1.214 -0.315,-1.821c-0.099,0.842 0.185,1.654 -0.072,2.481c-0.065,0.209 -0.021,0.508 -0.341,0.459c-0.255,-0.036 -0.208,-0.306 -0.208,-0.503c-0.001,-0.745 0.002,-1.489 0.002,-2.234c0,-0.177 0.032,-0.396 -0.252,-0.349c-0.251,0.044 -0.109,0.237 -0.112,0.37c-0.012,0.383 -0.023,0.765 -0.041,1.147c-0.01,0.226 -0.014,0.505 -0.318,0.491c-0.31,-0.011 -0.182,-0.294 -0.203,-0.476c-0.057,-0.447 0.036,-0.899 -0.076,-1.348c-0.067,-0.265 -0.205,-0.399 -0.451,-0.363c-0.323,0.048 -0.168,0.343 -0.133,0.474c0.356,1.348 0.038,2.735 0.318,4.115c0.251,1.228 0.307,2.55 0.185,3.836c-0.057,0.619 0.146,0.93 0.837,0.922c-0.129,-1.099 0.11,-2.185 0.111,-3.284c0.002,-0.203 0.009,-0.448 0.276,-0.461c0.317,-0.017 0.247,0.261 0.249,0.444c0.007,1.014 0.015,2.03 -0.006,3.045c-0.008,0.349 0.059,0.552 0.441,0.605c0.306,0.039 0.602,0.157 0.905,0.224c0.281,0.062 0.52,0.018 0.41,-0.355c-0.387,-1.316 0.224,-2.579 0.194,-3.878c-0.011,-0.47 -0.037,-0.977 0.182,-1.468Zm11.763,-15.914c-0.631,-0.071 -1.137,-0.17 -1.647,-0.182c-1.98,-0.042 -3.924,-0.3 -5.845,-0.809c-1.007,-0.267 -1.994,-0.646 -3.054,-0.683c-1.219,-0.044 -2.438,-0.133 -3.657,-0.129c-2.149,0.009 -4.26,-0.233 -6.343,-0.759c-0.47,-0.119 -0.949,-0.311 -1.442,-0.173c-1.002,0.28 -2.048,0.318 -3.048,0.64c-1.007,0.321 -1.933,0.688 -2.661,1.533c-0.729,0.844 -1.471,1.768 -2.441,2.288c-1.477,0.788 -1.924,2.144 -2.347,3.562c-0.269,0.897 0.106,1.775 0.495,2.498c0.284,0.534 1.077,0.797 1.784,0.709c1.48,-0.187 2.967,-0.044 4.447,-0.154c1.613,-0.118 3.128,0.252 4.617,0.828c0.981,0.381 1.976,0.643 3.025,0.176c0.435,-0.192 0.946,-0.179 1.383,-0.032c1.231,0.413 2.428,0.755 3.77,0.853c1.351,0.1 2.749,0.53 4.072,1.034c1.188,0.453 2.404,0.814 3.165,1.968c0.139,0.212 0.402,0.338 0.649,0.458c1.072,0.517 2.194,0.47 3.33,0.336c0.706,-0.081 1.401,-0.098 2.118,0.046c0.839,0.165 1.565,0.672 2.376,0.796c0.977,0.15 1.977,0.139 2.933,0.455c1.02,0.336 2.077,0.068 3.102,0.177c1.759,0.188 3.462,-0.016 5.171,-0.38c0.994,-0.213 2.022,-0.504 3.017,-0.15c0.769,0.274 1.547,0.329 2.334,0.424c0.652,0.076 1.311,-0.173 1.932,-0.044c1.373,0.284 2.597,-0.014 3.76,-0.72c2.291,-1.394 4.76,-1.237 7.219,-0.737c0.789,0.161 1.565,0.293 2.361,0.332c0.505,0.027 0.928,-0.176 1.196,-0.603c0.542,-0.868 1.398,-1.151 2.302,-1.441c0.676,-0.217 1.318,0.015 1.979,-0.059c1.281,-0.141 2.569,-0.29 3.867,-0.206c0.809,0.051 1.593,-0.05 2.209,-0.671c0.147,-0.145 0.299,-0.045 0.44,-0.039c1.98,0.096 3.965,-0.176 5.942,0.055c1.328,0.156 2.664,0.086 3.995,0.1c0.687,0.009 1.356,0.274 2.05,0.104c0.652,-0.162 1.332,-0.021 1.998,-0.151c-1.723,-0.672 -3.502,-1.128 -5.311,-1.391c-1.22,-0.177 -2.364,-0.423 -3.243,-1.342c-0.775,-0.808 -1.456,-1.713 -2.276,-2.468c-0.593,-0.545 -1.18,-1.178 -1.941,-1.467c-1.351,-0.511 -2.732,-0.899 -4.218,-0.803c-0.793,0.054 -1.627,-0.02 -2.273,-0.585c-1.877,-1.647 -4.065,-2.787 -6.232,-3.969c-0.282,-0.153 -0.714,-0.159 -0.708,-0.684c0.003,-0.227 -0.27,-0.326 -0.496,-0.389c-0.74,-0.208 -1.476,-0.448 -2.222,-0.634c-0.677,-0.165 -1.219,-0.475 -1.598,-1.093c-0.535,-0.877 -1.082,-1.759 -1.994,-2.308c-1.037,-0.625 -1.965,-1.363 -2.685,-2.359c-0.223,-0.308 -0.613,-0.458 -0.969,-0.566c-0.387,-0.118 -0.717,-0.378 -1.081,-0.475c-0.717,-0.189 -1.192,-0.858 -1.944,-0.925c-0.682,-0.059 -1.369,-0.142 -2.052,-0.122c-0.468,0.012 -0.737,-0.201 -0.997,-0.527c-0.727,-0.909 -1.539,-1.677 -2.655,-2.13c-0.756,-0.306 -1.59,-0.517 -2.219,-1.066c-0.62,-0.541 -1.342,-0.855 -2.07,-1.177c-0.608,-0.268 -1.232,-0.508 -1.821,-0.812c-1.358,-0.704 -2.728,-1.314 -4.315,-1.104c-0.235,0.03 -0.485,-0.056 -0.726,-0.096c-0.449,-0.074 -0.851,0.381 -0.781,0.54c0.323,0.745 -0.34,0.701 -0.634,0.884c-0.358,0.221 -0.699,0.447 -1.025,0.722c-1.025,0.856 -1.953,1.841 -3.148,2.477c-0.215,0.116 -0.279,0.216 -0.223,0.501c0.296,1.49 0.69,2.955 1.058,4.429c0.09,0.356 0.122,0.732 -0.297,0.835c-0.421,0.105 -0.486,-0.304 -0.561,-0.602c-0.276,-1.103 -0.499,-2.222 -0.819,-3.311c-0.11,-0.378 0.087,-1.054 -0.418,-1.08c-0.384,-0.023 -0.795,0.425 -1.193,0.664c-0.038,0.025 -0.076,0.053 -0.101,0.09c-0.741,1.082 -2.019,1.342 -3.037,1.998c-0.301,0.196 -0.718,0.316 -0.94,-0.089c-0.23,-0.425 0.203,-0.566 0.464,-0.749c1.388,-0.96 2.73,-1.994 4.214,-2.808c0.244,-0.134 0.447,-0.257 0.306,-0.665c-0.696,-2.027 -1.128,-4.116 -1.301,-6.26c-0.009,-0.113 -0.042,-0.24 0.09,-0.287c0.133,-0.048 0.27,-0.026 0.333,0.132c0.19,0.476 0.64,0.826 0.712,1.351c0.197,1.45 0.802,2.784 1.106,4.199c0.102,0.471 0.257,0.312 0.464,0.145c0.906,-0.731 1.881,-1.354 2.863,-1.968c0.539,-0.337 1.027,-0.747 1.418,-1.36c-1.386,0.083 -2.153,-0.692 -2.761,-1.738c-0.223,-0.385 -0.463,-0.852 -0.877,-0.985c-0.776,-0.254 -1.545,-0.555 -2.377,-0.621c-0.545,-0.04 -1.127,0.023 -1.608,-0.351c-0.122,-0.097 -0.406,-0.116 -0.098,-0.34c0.215,-0.155 0.239,-0.378 0.121,-0.596c-0.124,-0.23 -0.353,-0.246 -0.585,-0.218c-0.822,0.103 -1.569,-0.084 -2.312,-0.461c-0.801,-0.408 -1.638,-0.141 -2.471,0.023c-0.548,0.107 -0.665,0.498 -0.853,0.903c-0.082,0.172 -0.261,0.304 -0.41,0.438c-1.014,0.919 -1.816,1.988 -2.539,3.171c-1.042,1.701 -1.006,3.466 -0.701,5.3c0.052,0.309 0.203,0.538 0.049,0.909c-0.44,1.054 -0.39,2.005 0.843,2.426c1.557,0.533 2.979,1.374 4.421,2.163c0.622,0.338 1.242,0.681 1.982,0.753c1.177,0.114 2.35,0.413 3.369,0.971c1.589,0.87 3.292,1.008 5.012,1.187c1.044,0.109 2.019,-0.274 3.031,-0.399c1.098,-0.135 2.197,-0.229 3.327,0.175c-0.185,-0.469 -0.27,-0.833 -0.286,-1.223c-0.019,-0.597 -0.41,-0.824 -0.931,-0.533c-0.404,0.226 -0.77,0.521 -1.176,0.743c-0.209,0.115 -0.49,0.389 -0.702,0.071c-0.212,-0.315 0.057,-0.537 0.292,-0.723c0.07,-0.056 0.135,-0.128 0.216,-0.159c0.682,-0.273 1.172,-0.798 1.71,-1.273c0.273,-0.239 0.276,-0.426 0.165,-0.727c-0.461,-1.261 -0.894,-2.512 -0.982,-3.887c-0.07,-1.105 -0.432,-2.183 -0.77,-3.245c-0.047,-0.147 -0.311,-0.245 -0.078,-0.423c0.202,-0.151 0.34,-0.027 0.504,0.135c0.562,0.558 0.865,1.321 1.017,2.005c0.34,1.524 0.755,3.035 0.996,4.584c0.155,0.991 0.249,1.005 1.1,0.524c1.619,-0.919 2.966,-2.212 4.508,-3.233c0.58,-0.382 0.774,-0.345 1.091,0.269c0.072,0.136 0.105,0.294 0.164,0.44c0.617,1.492 1.022,3.05 1.429,4.609c0.141,0.544 0.282,0.819 0.835,0.352c0.82,-0.688 1.698,-1.31 2.499,-2.023c0.349,-0.309 0.646,-0.364 1.045,-0.189c-0.1,0.582 -0.69,0.727 -1.003,1.128c-0.629,0.812 -1.282,1.633 -2.183,2.17c-0.52,0.309 -0.678,0.652 -0.413,1.225c0.096,0.206 0.21,0.565 -0.13,0.703c-0.312,0.129 -0.437,-0.165 -0.52,-0.386c-0.149,-0.399 -0.346,-0.428 -0.614,-0.131c-0.238,0.26 -0.498,0.334 -0.737,0.041c-0.229,-0.279 -0.047,-0.496 0.177,-0.684c0.431,-0.357 0.654,-0.782 0.396,-1.346c-0.757,-1.662 -0.99,-3.477 -1.489,-5.213c-0.083,-0.291 -0.194,-0.364 -0.461,-0.15c-0.538,0.435 -1.098,0.844 -1.651,1.26c-0.927,0.693 -1.573,1.709 -2.642,2.25c-0.964,0.493 -0.959,0.655 -0.799,1.766c0.061,0.424 0.419,0.901 -0.112,1.347c1.506,0.258 2.886,0.754 4.302,1.12c1.612,0.421 3.258,0.66 4.875,1.036c2.675,0.623 5.223,1.714 7.936,2.214c0.117,0.021 0.222,0.199 0.346,0.047c0.091,-0.111 0.057,-0.255 0.018,-0.387c-0.346,-1.161 -0.459,-1.198 -1.334,-0.409c-0.034,0.029 -0.062,0.07 -0.1,0.088c-0.296,0.144 -0.63,0.183 -0.866,-0.037c-0.29,-0.266 0.017,-0.474 0.18,-0.668c0.116,-0.137 0.244,-0.264 0.376,-0.382c0.825,-0.745 0.912,-0.79 0.398,-1.755c-0.687,-1.289 -0.86,-2.828 -1.919,-3.939c-0.141,-0.15 -0.215,-0.572 0.055,-0.798c0.158,-0.133 0.382,-0.036 0.452,0.138c0.279,0.701 0.914,1.15 1.213,1.838c0.353,0.819 0.738,1.624 1.151,2.414c0.171,0.325 0.182,1.136 0.893,0.456c0.021,-0.021 0.103,-0.015 0.126,0.01c0.314,0.327 0.496,-0.002 0.706,-0.148c0.147,-0.103 0.279,-0.225 0.416,-0.341c0.261,-0.221 0.438,-0.088 0.612,0.131c0.235,0.294 -0.018,0.362 -0.194,0.479c-0.467,0.306 -0.946,0.597 -1.34,1.002c-0.093,0.096 -0.253,0.288 -0.243,0.299c0.455,0.473 0.002,0.998 0.1,1.483c0.075,0.356 -0.083,0.552 -0.407,0.656c1.422,0.378 2.809,0.769 4.207,1.116c2.411,0.596 4.799,1.271 7.175,2.006c1.376,0.427 2.824,0.695 4.098,1.358c1.771,0.924 3.839,1.103 5.479,2.356c0.448,0.343 1.124,0.388 1.7,0.549c0.557,0.156 1.136,0.239 1.649,0.527c0.269,0.154 0.48,0.399 0.347,0.722c-0.137,0.329 -0.408,0.388 -0.775,0.291c-0.814,-0.216 -1.638,-0.418 -2.469,-0.533c-0.925,-0.126 -1.793,-0.733 -2.779,-0.349c-1.319,-0.546 -2.757,-0.466 -4.127,-0.814c-1.779,-0.455 -3.649,-0.61 -5.351,-1.332c-3.173,-1.346 -6.583,-1.712 -9.875,-2.565c-1.48,-0.384 -3.041,-0.448 -4.526,-0.825c-4.015,-1.019 -7.933,-2.429 -12.045,-3.06c-1.035,-0.159 -2.079,-0.331 -3.129,-0.091c-1.762,0.405 -3.511,0.896 -5.423,0.831c0.38,0.55 0.121,0.787 -0.305,1.042c-0.686,0.41 -1.347,0.873 -1.985,1.357c-1.404,1.064 -2.352,2.587 -3.659,3.745c-0.384,0.341 -0.358,0.594 -0.173,1.011c0.279,0.63 0.502,1.292 0.683,1.956c0.127,0.47 0.404,0.919 0.283,1.436c-0.048,0.211 -0.129,0.525 -0.329,0.513c-0.197,-0.011 -0.385,-0.212 -0.447,-0.511c-0.147,-0.698 -0.34,-1.389 -0.566,-2.064c-0.508,-1.509 -0.52,-1.503 -1.622,-0.394c-0.493,0.499 -0.983,1.005 -1.78,0.872c-0.187,-0.032 -0.455,0.117 -0.542,-0.109c-0.091,-0.238 0.14,-0.386 0.316,-0.531c0.815,-0.666 1.598,-1.369 2.333,-2.129c0.228,-0.237 0.323,-0.426 0.191,-0.754c-0.653,-1.619 -1.222,-3.266 -1.505,-5.002c-0.057,-0.338 -0.198,-0.729 0.256,-0.838c0.429,-0.107 0.524,0.259 0.623,0.609c0.453,1.598 0.928,3.189 1.407,4.82c1.58,-1.481 3.236,-2.806 4.96,-4.045c0.173,-0.124 0.344,-0.367 0.579,-0.265c0.452,0.191 0.634,-0.14 0.831,-0.402c0.103,-0.14 0.181,-0.282 0.458,-0.381Zm-16.409,-18.196c-0.59,-0.066 -0.871,0.395 -1.206,0.74c-0.429,0.443 -0.755,1.036 -1.258,1.342c-0.499,0.304 -0.833,0.654 -1.021,1.166c-0.159,0.436 -0.44,0.762 -0.747,1.092c-0.457,0.487 -1.086,0.843 -1.344,1.48c-0.27,0.666 -0.708,1.18 -1.157,1.709c-0.893,1.046 -1.986,1.868 -2.992,2.788c-1.404,1.289 -2.94,2.434 -4.191,3.893c-0.332,0.388 -0.841,0.564 -1.141,1.019c-0.948,1.44 -1.941,2.849 -2.895,4.285c-0.255,0.383 -0.51,0.772 -0.593,1.26c-0.203,1.184 0.437,2.288 0.284,3.462c-0.005,0.038 0.016,0.091 0.044,0.119c0.506,0.513 0.8,1.179 1.194,1.737c0.489,-0.467 0.122,-0.963 0.11,-1.458c-0.06,-2.265 0.589,-4.192 2.674,-5.389c0.19,-0.11 0.346,-0.28 0.513,-0.432c1.239,-1.132 2.447,-2.298 3.522,-3.596c0.2,-0.244 0.449,-0.433 0.734,-0.575c0.966,-0.481 2.014,-0.547 3.024,-0.356c1.519,0.288 3.032,0.397 4.568,0.285c0.578,-0.044 1.166,-0.126 1.734,-0.056c1.584,0.197 3.156,0.485 4.738,0.697c1.101,0.149 2.19,0.343 3.265,0.629c0.377,0.102 0.733,0.373 1.204,0.222c-0.71,-0.311 -1.368,-0.648 -2.035,-0.899c-0.572,-0.216 -1.019,-0.693 -1.702,-0.713c-0.996,-0.024 -1.994,-0.159 -2.982,-0.309c-2.078,-0.317 -4.114,-0.784 -6.041,-1.674c-0.401,-0.185 -0.833,-0.342 -1.339,-0.228c-1.451,0.326 -2.869,0.754 -4.27,1.25c-0.516,0.183 -0.867,0.479 -1.212,0.876c-0.629,0.72 -1.225,1.478 -2.019,2.041c-0.66,0.461 -1.253,1.002 -1.574,1.774c-0.05,0.115 -0.112,0.221 -0.228,0.191c-0.468,-0.118 -0.697,0.191 -0.875,0.516c-0.451,0.832 -1.264,1.387 -1.669,2.257c-0.141,0.302 -0.429,0.411 -0.735,0.282c-0.289,-0.121 -0.337,-0.386 -0.287,-0.683c0.045,-0.269 0.111,-0.521 0.262,-0.752c0.391,-0.599 0.783,-1.198 1.15,-1.814c0.414,-0.694 1.067,-1.128 1.692,-1.575c1.274,-0.904 1.748,-2.434 2.796,-3.536c0.811,-0.854 1.654,-1.55 2.679,-2.102c2.241,-1.209 4.314,-2.631 5.247,-5.183c0.147,-0.403 0.63,-0.39 0.69,-0.717c0.168,-0.917 0.808,-1.556 1.355,-2.177c0.789,-0.9 1.285,-1.976 2.014,-2.898c0.094,-0.021 0.138,-0.082 0.118,-0.176c-0.004,-0.021 -0.054,-0.032 -0.083,-0.049c-0.034,0.078 -0.161,0.147 -0.015,0.235Zm74.387,30.81c-0.052,-0.009 -0.131,-0.044 -0.147,-0.024c-0.05,0.058 0,0.097 0.059,0.115c-0.02,0.745 0.192,1.474 0.13,2.225c-0.024,0.286 -0.016,0.637 -0.308,0.658c-0.353,0.023 -0.265,-0.403 -0.318,-0.626c-0.168,-0.724 -0.297,-1.459 -0.412,-2.193c-0.067,-0.44 -0.38,-0.214 -0.574,-0.229c-0.364,-0.027 -0.198,0.228 -0.177,0.413c0.077,0.645 0.143,1.293 0.208,1.94c0.024,0.243 -0.014,0.475 -0.314,0.49c-0.246,0.012 -0.313,-0.171 -0.364,-0.394c-0.167,-0.705 -0.246,-1.413 -0.161,-2.135c0.015,-0.124 0.09,-0.276 -0.112,-0.315c-0.085,-0.017 -0.19,-0.031 -0.262,0.006c-0.194,0.092 -0.019,0.226 -0.002,0.33c0.121,0.714 0.193,1.422 0.091,2.149c-0.032,0.238 -0.047,0.435 -0.312,0.359c-0.197,-0.056 -0.542,0.134 -0.578,-0.277c-0.05,-0.586 -0.364,-1.133 -0.367,-1.697c-0.006,-0.801 -0.384,-1.004 -1.073,-0.964c0,0.323 0.009,0.656 -0.003,0.99c-0.017,0.489 -0.035,0.981 -0.088,1.467c-0.016,0.134 -0.087,0.311 -0.279,0.343c-0.097,0.017 -0.208,-0.007 -0.211,-0.103c-0.014,-0.587 -0.667,-1.051 -0.293,-1.727c0.105,-0.191 0.067,-0.493 0.027,-0.734c-0.092,-0.564 -0.535,-0.168 -0.805,-0.258c-0.245,-0.083 -0.33,0.119 -0.251,0.31c0.427,1.034 -0.208,1.889 -0.46,2.803c-0.048,0.178 -0.177,0.431 -0.415,0.357c-0.24,-0.075 -0.155,-0.308 -0.131,-0.519c0.09,-0.779 0.281,-1.553 0.185,-2.344c-0.021,-0.178 0.131,-0.44 -0.16,-0.514c-0.258,-0.065 -0.563,-0.137 -0.783,0.007c-0.188,0.123 -0.001,0.373 0.05,0.543c0.144,0.47 0.22,0.996 0.027,1.391c-0.297,0.605 -0.282,1.22 -0.316,1.836c-0.046,0.767 -0.257,1.534 -0.034,2.67c0.105,-0.873 0.323,-0.55 0.558,-0.433c0.584,0.291 1.118,-0.055 1.204,-0.725c0.108,-0.822 0.258,-1.639 0.385,-2.46c0.025,-0.154 0.017,-0.342 0.226,-0.353c0.241,-0.011 0.276,0.209 0.294,0.376c0.026,0.22 0,0.449 -0.01,0.673c-0.034,0.651 -0.068,1.303 -0.103,1.952c-0.008,0.118 -0.002,0.238 0.154,0.229c0.111,-0.006 0.111,-0.105 0.128,-0.196c0.082,-0.506 0.183,-1.01 0.261,-1.516c0.027,-0.179 -0.002,-0.416 0.227,-0.419c0.249,-0.003 0.296,0.238 0.306,0.445c0.028,0.541 -0.11,1.062 -0.276,1.57c-0.079,0.246 -0.179,0.46 0.023,0.684c0.2,0.223 0.464,0.153 0.69,0.1c0.581,-0.135 0.625,-0.568 0.491,-1.052c-0.104,-0.385 -0.28,-0.758 -0.16,-1.172c0.046,-0.159 0.007,-0.417 0.25,-0.414c0.265,0.006 0.177,0.255 0.198,0.419c0.088,0.683 0.185,1.364 0.261,2.048c0.027,0.25 0.203,0.355 0.378,0.425c0.223,0.089 0.373,-0.096 0.503,-0.248c0.402,-0.468 0.246,-1.102 0.457,-1.631c0.065,-0.161 -0.131,-0.488 0.168,-0.479c0.245,0.006 0.391,0.288 0.373,0.564c-0.018,0.288 -0.09,0.574 -0.096,0.863c-0.001,0.13 0.002,0.347 0.234,0.332c0.156,-0.012 0.205,-0.135 0.215,-0.29c0.033,-0.506 0.085,-1.011 0.114,-1.518c0.012,-0.22 0.089,-0.417 0.283,-0.482c0.214,-0.073 0.281,0.153 0.383,0.297c0.313,0.449 0.135,0.962 0.21,1.441c0.026,0.165 -0.321,0.493 0.135,0.502c0.282,0.004 0.578,-0.056 0.548,-0.492c-0.026,-0.401 0.009,-0.811 0.009,-1.216c0.001,-0.167 0.026,-0.356 0.198,-0.371c0.201,-0.018 0.317,0.156 0.326,0.355c0.02,0.382 0.058,0.758 0.19,1.125c0.717,-0.375 1.016,-1.135 0.825,-2.008c-0.043,-0.197 -0.266,-0.467 0.088,-0.553c0.224,-0.055 0.368,0.154 0.486,0.37c0.261,0.473 0.081,0.953 0.038,1.443c0.11,-0.01 0.187,0.005 0.237,-0.027c0.535,-0.337 1.092,-0.135 1.645,-0.08c0.121,0.012 0.259,0.257 0.375,-0.017c0.251,-0.602 0.58,-1.186 0.338,-1.914c-0.055,0.1 -0.09,0.178 -0.137,0.246c-0.116,0.167 -0.11,0.529 -0.412,0.415c-0.326,-0.122 -0.12,-0.4 -0.077,-0.635c0.063,-0.353 0.087,-0.714 0.092,-1.072c0.008,-0.519 -0.003,-0.514 -0.426,-0.308c-0.073,0.034 -0.209,0.053 -0.252,0.011c-0.421,-0.422 -0.418,0.057 -0.536,0.255c-0.108,0.18 -0.131,0.483 -0.436,0.404c-0.279,-0.072 -0.145,-0.336 -0.153,-0.518c-0.035,-0.807 -0.197,-0.993 -1.011,-1.109c0.083,0.417 0.203,0.827 0.235,1.242c0.023,0.272 -0.121,0.579 -0.435,0.586c-0.392,0.006 -0.254,-0.326 -0.255,-0.558c-0.009,-1.217 -0.074,-1.309 -1.031,-1.455Zm-75.691,0.51c-0.393,0.224 -0.384,-0.032 -0.393,-0.316c-0.014,-0.48 -0.053,-0.961 -0.082,-1.443c-0.156,0.608 -0.273,1.219 -0.3,1.832c-0.012,0.256 0.1,0.535 -0.247,0.565c-0.404,0.038 -0.363,-0.32 -0.37,-0.576c-0.016,-0.587 -0.013,-1.175 -0.005,-1.762c0.005,-0.252 -0.089,-0.356 -0.347,-0.374c-0.279,-0.017 -0.326,0.101 -0.335,0.348c-0.012,0.311 -0.085,0.617 -0.125,0.927c-0.021,0.16 -0.033,0.347 -0.239,0.344c-0.229,-0.006 -0.272,-0.217 -0.275,-0.393c-0.003,-0.174 0.062,-0.352 0.076,-0.527c0.023,-0.284 0.141,-0.59 -0.159,-0.915c-0.168,0.648 0.026,1.238 -0.132,1.797c-0.059,0.208 -0.012,0.502 -0.349,0.438c-0.288,-0.053 -0.308,-0.314 -0.239,-0.538c0.132,-0.447 0.05,-0.89 0.042,-1.337c-0.007,-0.46 -0.252,-0.528 -0.643,-0.56c-0.48,-0.038 -0.406,0.282 -0.45,0.554c-0.059,0.354 -0.121,0.706 -0.181,1.059c-0.065,0.384 -0.41,0.402 -0.653,0.399c-0.252,-0.004 -0.188,-0.282 -0.179,-0.487c0.023,-0.494 0.018,-0.993 0.029,-1.489c0.003,-0.183 -0.05,-0.288 -0.261,-0.295c-0.197,-0.008 -0.274,0.042 -0.281,0.255c-0.042,1.413 -0.297,2.821 -0.019,4.238c0.094,0.474 -0.178,1.149 -0.384,1.181c-0.703,0.109 -0.271,0.535 -0.329,0.802c-0.039,0.173 -0.011,0.359 -0.027,0.537c-0.147,1.421 -0.147,1.421 1.157,1.789c0.03,0.009 0.073,-0.027 0.116,-0.046c0.052,-0.291 -0.003,-0.574 -0.033,-0.867c-0.051,-0.491 -0.064,-0.987 -0.062,-1.483c0,-0.191 0.042,-0.453 0.312,-0.424c0.222,0.022 0.2,0.251 0.213,0.433c0.041,0.651 0.08,1.3 0.144,1.949c0.022,0.241 0.094,0.48 0.171,0.711c0.036,0.108 0.162,0.153 0.284,0.13c0.185,-0.032 0.094,-0.165 0.074,-0.254c-0.416,-1.782 -0.123,-3.583 -0.129,-5.377c0,-0.22 0.08,-0.44 0.123,-0.66c0.033,-0.17 0.123,-0.317 0.3,-0.291c0.168,0.023 0.206,0.188 0.232,0.355c0.212,1.342 -0.08,2.731 0.402,4.051c0.226,0.615 0.148,1.288 0.176,1.935c0.022,0.511 0.341,0.532 0.676,0.513c0.499,-0.029 0.22,-0.423 0.197,-0.607c-0.209,-1.598 -0.048,-3.199 -0.083,-4.797c-0.003,-0.17 0.032,-0.352 0.198,-0.384c0.226,-0.044 0.299,0.15 0.325,0.34c0.088,0.667 0.221,1.332 0.239,2.003c0.014,0.509 0.566,0.815 0.416,1.358c-0.15,0.537 0.024,1.075 0.011,1.614c-0.019,0.718 0.489,0.761 0.982,0.74c0.614,-0.031 0.1,-0.483 0.212,-0.718c0.087,-0.177 -0.056,-0.386 -0.098,-0.582c-0.056,-0.261 -0.109,-0.602 0.154,-0.746c0.305,-0.167 0.223,-0.393 0.225,-0.625c0.012,-1.396 0.023,-2.791 0.035,-4.188c0.323,-0.051 0.338,0.167 0.388,0.407c0.226,1.049 0.08,2.11 0.105,3.164c0.012,0.539 0.141,1.154 -0.066,1.6c-0.257,0.559 -0.183,1.043 -0.066,1.547c0.127,0.544 0.697,0.489 1.069,0.541c0.306,0.045 0.136,-0.382 0.157,-0.593c0.196,-1.939 -0.312,-3.845 -0.277,-5.779c0.012,-0.606 -0.255,-1.166 -0.167,-1.813c0.112,-0.833 0.017,-0.846 -0.996,-0.895c-0.181,0.548 0.174,1.18 -0.259,1.685Zm10.549,0.773c-0.02,-0.033 -0.041,-0.068 -0.061,-0.1c-0.017,0.015 -0.049,0.04 -0.046,0.046c0.02,0.034 0.047,0.065 0.072,0.097c0.13,1.217 0.075,2.435 0.059,3.658c-0.017,1.411 -0.005,2.825 -0.041,4.239c-0.005,0.198 -0.299,0.611 0.247,0.532c0.391,-0.055 1.004,0.299 1.052,-0.51c0.058,-0.941 0.143,-1.881 0.184,-2.823c0.029,-0.67 0.315,-1.337 0.05,-2.108c-0.349,0.481 -0.291,0.992 -0.422,1.444c-0.057,0.2 0.025,0.534 -0.288,0.521c-0.346,-0.015 -0.288,-0.351 -0.265,-0.58c0.121,-1.236 0.1,-2.478 0.139,-3.72c0.019,-0.538 -0.188,-0.728 -0.68,-0.696Zm-8.863,-32.917c-0.117,0.01 -0.135,0.091 -0.125,0.183c0.003,0.018 0.084,0.042 0.087,0.039c0.03,-0.054 0.053,-0.113 0.079,-0.172c0.033,-0.06 0.068,-0.119 0.101,-0.176c1.463,-1.172 2.399,-2.813 3.647,-4.178c0.428,-0.312 0.913,-0.452 1.419,-0.55c0.005,0.346 -0.406,0.521 -0.204,0.861c-0.066,-0.197 -0.154,-0.088 -0.239,-0.015c-0.121,0.158 -0.398,0.214 -0.323,0.502c-0.054,0.006 -0.115,-0.071 -0.16,0.033c-0.049,0.109 0.059,0.093 0.086,0.138c-0.323,0.006 -0.323,0.006 -0.518,0.423c0.038,0.003 0.095,0.026 0.112,0.009c0.133,-0.144 0.258,-0.294 0.38,-0.447c0.029,-0.056 0.058,-0.114 0.087,-0.17c0.256,-0.004 0.344,-0.189 0.418,-0.391c0.052,-0.03 0.102,-0.062 0.153,-0.093c0.164,-0.335 0.354,-0.627 0.74,-0.759c0.094,-0.034 0.349,-0.276 0.067,-0.367c-0.191,-0.061 -0.261,-0.526 -0.396,-0.259c-0.154,0.306 -0.345,0.23 -0.523,0.235c-0.556,0.013 -0.999,0.176 -1.204,0.749c-0.99,0.62 -1.416,1.754 -2.244,2.521c-0.54,0.501 -1.093,0.983 -1.393,1.682c-0.015,0.067 -0.032,0.135 -0.047,0.202Zm-18.709,35.751c0.226,-1.797 -0.013,-3.627 -0.148,-5.43c-0.097,-1.31 -0.128,-2.615 -0.173,-3.927c-0.006,-0.17 0.042,-0.379 -0.111,-0.511c-0.662,-0.579 -0.59,-1.354 -0.59,-2.124c-0.001,-0.696 0.05,-1.394 -0.042,-2.093c-0.056,-0.415 0.12,-0.794 0.332,-1.145c1.08,-1.783 2.281,-3.486 3.477,-5.192c0.32,-0.456 0.852,-0.647 1.219,-1.041c1.671,-1.792 3.568,-3.322 5.415,-4.918c1.054,-0.912 2.07,-1.895 2.661,-3.24c0.311,-0.704 0.972,-1.178 1.553,-1.656c0.629,-0.515 1.05,-1.151 1.386,-1.86c0.197,-0.42 0.462,-0.743 0.826,-1.027c0.476,-0.371 0.796,-0.911 1.211,-1.333c0.727,-0.734 1.277,-1.613 2.008,-2.329c0.32,-0.314 0.663,-0.602 0.898,-0.984c0.652,-1.055 1.636,-1.813 2.392,-2.776c0.539,-0.686 3.221,-0.858 3.899,-0.322c0.145,0.114 0.297,0.193 0.471,0.24c1.347,0.364 2.461,1.187 3.656,1.859c2.244,1.26 4.601,2.261 7.115,2.846c0.779,0.185 1.499,0.473 2.2,0.902c0.967,0.593 2.112,0.789 3.195,1.083c1.434,0.39 2.684,1.06 3.753,2.085c0.27,0.259 0.556,0.418 0.929,0.455c0.381,0.035 0.739,0.157 1.057,0.382c1.042,0.732 2.252,1.129 3.365,1.722c0.556,0.295 1.111,0.561 1.569,1.001c1.391,1.33 3.166,1.944 4.886,2.646c0.885,0.361 1.718,0.699 2.452,1.392c0.797,0.754 1.862,1.212 2.723,1.908c0.946,0.764 2.135,1.199 2.89,2.224c0.558,0.761 1.478,0.986 2.27,1.356c1.148,0.536 2.199,1.225 3.11,2.066c1.149,1.06 2.555,1.509 3.939,2.037c1.852,0.706 3.793,1.084 5.724,1.483c1.442,0.297 2.479,1.222 3.574,2.121c0.919,0.754 1.084,1.964 1.902,2.77c0.474,0.467 0.891,0.86 1.549,1.133c1.762,0.731 3.606,0.796 5.439,1.061c1.024,0.151 2.02,0.596 2.671,1.541c0.173,0.25 0.318,0.535 0.655,0.643c0.224,0.073 0.345,0.293 0.417,0.505c0.429,1.275 0.869,2.556 0.69,3.932c-0.084,0.65 -0.519,1.228 -0.449,1.93c0.009,0.092 -0.179,0.302 -0.241,0.288c-0.807,-0.168 -1.368,0.814 -2.193,0.476c-0.799,-0.326 -1.43,0.164 -2.092,0.44c-0.816,0.338 -1.653,0.594 -2.525,0.635c-2.502,0.118 -4.975,-0.15 -7.457,-0.484c-1.92,-0.259 -3.865,-0.068 -5.771,0.41c-1.99,0.499 -4.031,0.693 -6.066,0.923c-1.154,0.131 -2.362,-0.104 -3.445,0.287c-0.753,0.273 -1.536,0.302 -2.28,0.552c-0.461,0.156 -0.972,0.221 -1.45,0.323c-1.208,0.259 -2.494,0.342 -3.553,1.113c-0.053,0.039 -0.116,0.106 -0.168,0.098c-1.595,-0.206 -3.092,0.432 -4.644,0.545c-0.975,0.069 -1.961,-0.025 -2.942,-0.032c-0.271,-0.002 -0.597,-0.117 -0.755,0.259c-0.041,0.097 -0.176,0.12 -0.224,0.064c-0.458,-0.525 -0.988,-0.158 -1.48,-0.123c-2.984,0.199 -5.973,0.049 -8.939,-0.197c-1.911,-0.159 -3.818,-0.308 -5.727,-0.303c-0.878,0.001 -1.814,0.082 -2.651,0.01c-1.043,-0.088 -2.109,-0.068 -3.154,-0.226c-0.361,-0.056 -0.809,-0.213 -1.093,0.243c-0.026,0.041 -0.126,0.068 -0.177,0.053c-1.862,-0.534 -3.817,-0.372 -5.705,-0.793c-1.909,-0.428 -3.78,-0.96 -5.646,-1.539c-1.153,-0.356 -2.378,-0.264 -3.559,-0.487c-0.942,-0.177 -1.879,-0.271 -2.811,-0.606c-1.194,-0.428 -2.478,-0.661 -3.785,-0.543c-0.217,0.019 -0.446,-0.147 -0.673,-0.212c-1.298,-0.37 -2.569,-0.839 -3.928,-0.947c-0.418,-0.032 -0.823,-0.163 -1.119,-0.485c-0.3,-0.327 -0.589,0.088 -0.926,-0.041c-0.728,-0.277 -0.796,-0.294 -0.786,-1.116Z" style="fill:#c3151b;fill-rule:nonzero;"/><path d="M49.732,59.461c1.445,-1.166 2.878,-2.309 4.293,-3.476c0.378,-0.313 0.685,-0.709 1.046,-1.042c0.246,-0.228 0.011,-0.363 -0.07,-0.517c-0.075,-0.144 -0.195,-0.278 -0.043,-0.417c0.138,-0.129 0.304,-0.068 0.409,0.06c0.379,0.469 0.766,0.734 1.301,0.201c0.103,-0.104 0.283,-0.097 0.411,0.063c0.141,0.178 0.041,0.338 -0.076,0.404c-0.904,0.514 -0.405,1.191 -0.099,1.687c0.83,1.341 1.253,2.857 1.952,4.25c0.038,0.078 0.092,0.148 0.167,0.257c1.469,-1.58 3.333,-2.628 4.955,-3.99c0.347,-0.289 0.15,-0.547 0.056,-0.835c-0.073,-0.222 -0.265,-0.455 0.014,-0.669c0.229,-0.174 0.427,-0.012 0.62,0.077c0.499,0.228 0.77,0.891 1.46,0.775c0.065,-0.01 0.231,0.193 0.109,0.322c-0.335,0.358 -0.019,0.593 0.122,0.875c0.447,0.897 0.887,1.797 1.323,2.699c0.228,0.471 0.463,0.612 0.848,0.124c0.917,-1.16 2.337,-1.627 3.463,-2.502c0.176,-0.135 0.454,-0.167 0.645,0.103c0.182,0.258 0.05,0.432 -0.129,0.573c-0.297,0.235 -0.602,0.466 -0.928,0.657c-0.993,0.584 -1.742,1.465 -2.635,2.168c-0.226,0.178 -0.095,0.267 -0.017,0.416c0.236,0.453 0.467,0.91 0.69,1.372c0.129,0.265 0.029,0.353 -0.256,0.343c-0.522,-0.022 -0.85,-0.314 -1.112,-0.725c-0.28,-0.44 -0.594,-0.601 -1.037,-0.176c-0.413,0.396 -0.934,0.141 -1.439,0.229c0.064,-0.632 0.567,-0.77 0.949,-0.983c0.549,-0.306 0.607,-0.582 0.171,-1.067c-0.691,-0.767 -0.882,-1.833 -1.473,-2.679c-0.21,-0.299 -0.235,-0.332 -0.551,-0.17c-1.495,0.763 -2.584,2.041 -3.889,3.042c-0.143,0.109 -0.275,0.228 -0.422,0.332c-1.017,0.724 -1.017,0.723 -0.462,1.896c0.077,0.164 0.141,0.333 0.223,0.492c0.127,0.245 0.118,0.4 -0.187,0.511c-0.248,0.091 -0.429,0.211 -0.578,-0.14c-0.148,-0.348 -0.394,-0.655 -0.53,-1.005c-0.182,-0.463 -0.375,-0.376 -0.657,-0.106c-0.438,0.421 -0.893,0.819 -1.342,1.227c-0.165,0.148 -0.323,0.307 -0.565,0.332c-0.21,0.019 -0.425,0.022 -0.552,-0.158c-0.156,-0.225 0.041,-0.355 0.176,-0.51c0.561,-0.641 1.116,-1.288 1.795,-1.806c0.296,-0.225 0.378,-0.407 0.171,-0.761c-0.955,-1.637 -1.376,-3.51 -2.241,-5.231c-0.505,0.25 -0.858,0.684 -1.249,1.058c-1.248,1.194 -2.767,2.038 -4.041,3.201c-0.325,0.296 -0.4,0.514 -0.182,0.9c0.385,0.677 0.744,1.37 1.078,2.075c0.138,0.296 0.399,0.686 -0.109,0.903c-0.496,0.21 -0.511,-0.252 -0.651,-0.531c-0.33,-0.658 -0.659,-1.319 -1.002,-1.971c-0.096,-0.185 -0.18,-0.405 -0.461,-0.122c-0.898,0.91 -2.053,1.514 -2.92,2.464c-0.088,0.099 -0.196,0.194 -0.314,0.246c-0.137,0.061 -0.326,0.12 -0.422,-0.042c-0.08,-0.137 0.076,-0.228 0.158,-0.334c0.925,-1.201 2.056,-2.212 3.048,-3.353c0.179,-0.203 0.257,-0.33 0.141,-0.627c-0.899,-2.258 -1.856,-4.495 -2.593,-6.871c-0.699,0.652 -1.139,1.483 -1.908,2.018c-1.222,0.856 -2.382,1.799 -3.59,2.672c-0.305,0.22 -0.398,0.364 -0.213,0.73c0.651,1.284 0.919,2.67 1.05,4.098c0.051,0.57 0.593,0.983 0.638,1.582c0.006,0.088 0.029,0.172 0.047,0.276c-0.423,0.081 -0.769,0.088 -1.005,-0.37c-0.1,-0.196 -0.229,-0.419 -0.605,-0.37c-0.423,0.051 -0.473,-0.42 -0.534,-0.734c-0.202,-1.033 -0.372,-2.075 -0.552,-3.112c-0.008,-0.045 0.003,-0.094 -0.009,-0.135c-0.29,-0.984 -0.168,-0.913 -0.972,-0.348c-1.594,1.122 -3.061,2.394 -4.607,3.57c-0.142,0.108 -0.333,0.34 -0.521,0.131c-0.203,-0.229 0.079,-0.361 0.206,-0.478c0.346,-0.318 0.732,-0.59 1.075,-0.913c0.831,-0.785 1.433,-1.784 2.35,-2.503c0.507,-0.396 0.925,-0.92 1.52,-1.199c0.388,-0.181 0.361,-0.392 0.218,-0.727c-0.664,-1.56 -1.283,-3.14 -1.729,-4.781c-0.04,-0.15 -0.051,-0.312 -0.109,-0.453c-0.068,-0.167 -0.101,-0.309 0.088,-0.396c0.182,-0.083 0.296,0.032 0.373,0.184c0.09,0.179 0.17,0.362 0.254,0.543c0.145,0.31 0.274,0.562 0.626,0.78c0.464,0.287 0.661,0.912 0.823,1.471c0.191,0.664 0.388,1.327 0.582,1.988c0.116,0.391 0.278,0.469 0.646,0.206c1.301,-0.926 2.525,-1.965 3.923,-2.759c0.743,-0.423 1.207,-1.195 1.794,-1.811c0.391,-0.408 0.603,-0.506 0.876,0.131c0.799,1.878 1.711,3.71 2.156,5.722c0.113,0.504 0.229,1.005 0.549,1.469Z" style="fill:#c3151b;fill-rule:nonzero;"/><path d="M19.499,53.618c1.034,-1.132 2.074,-2.148 3.16,-3.113c0.125,-0.114 0.178,-0.237 0.183,-0.408c0.008,-0.25 -0.067,-0.49 0.358,-0.58c0.432,-0.094 0.835,-0.115 1.18,0.096c0.238,0.146 0.125,0.438 -0.081,0.634c-0.487,0.464 -0.938,0.969 -1.462,1.387c-1.072,0.86 -1.931,1.927 -2.894,2.893c-0.255,0.255 -0.178,0.452 -0.088,0.716c0.47,1.371 0.976,2.728 1.313,4.143c0.055,0.23 0.196,0.524 -0.112,0.633c-0.299,0.108 -0.276,-0.271 -0.417,-0.404c-1.063,-0.995 -1.151,-2.405 -1.506,-3.68c-0.177,-0.633 -0.356,-0.455 -0.661,-0.201c-0.652,0.551 -1.205,1.201 -1.803,1.809c-0.634,0.643 -1.412,1.119 -2.185,1.585c-0.232,0.139 -0.459,0.103 -0.593,-0.087c-0.15,-0.212 0.012,-0.376 0.219,-0.465c1.072,-0.466 1.745,-1.391 2.418,-2.272c0.488,-0.639 1.06,-1.141 1.701,-1.587c0.352,-0.246 0.487,-0.493 0.31,-0.934c-0.37,-0.93 -0.763,-1.852 -0.968,-2.846c-0.065,-0.317 -0.248,-0.634 0.16,-0.793c0.415,-0.163 0.589,0.209 0.644,0.494c0.19,1.02 0.766,1.883 1.124,2.98Z" style="fill:#c3151b;fill-rule:nonzero;"/><path d="M25.534,33.874c0.371,-0.185 0.582,-0.395 0.721,-0.807c0.149,-0.443 0.567,-0.808 0.992,-1.067c0.838,-0.513 1.682,-1.013 2.453,-1.629c0.276,-0.221 0.617,-0.449 0.934,-0.044c0.304,0.388 -0.057,0.638 -0.254,0.864c-0.264,0.301 -0.563,0.605 -0.907,0.789c-1.189,0.634 -1.862,1.913 -3.149,2.447c-1.015,0.419 -0.649,1.383 -0.455,2.108c0.403,1.493 0.394,3.023 0.594,4.534c0.052,0.401 -0.011,0.673 -0.535,0.661c-0.537,-0.012 -0.472,-0.276 -0.419,-0.655c0.061,-0.431 -0.173,-0.827 -0.261,-1.244c-0.259,-1.228 -0.292,-2.486 -0.445,-3.787c-0.319,0.103 -0.416,0.371 -0.587,0.551c-0.196,0.21 -0.328,0.475 -0.637,0.574c-0.17,0.053 -0.315,0.2 -0.482,0.044c-0.211,-0.202 -0.031,-0.372 0.08,-0.53c0.399,-0.568 0.751,-1.178 1.298,-1.624c0.243,-0.198 0.316,-0.417 0.173,-0.708c-0.294,-0.602 -0.238,-1.27 -0.35,-1.907c-0.047,-0.278 -0.037,-0.592 0.301,-0.651c0.357,-0.062 0.475,0.194 0.539,0.526c0.098,0.522 0.259,1.033 0.396,1.555Z" style="fill:#c3151b;fill-rule:nonzero;"/><path d="M9.852,54.135c-0.689,0.826 -1.645,1.449 -2.038,2.555c-0.056,0.157 -0.109,0.445 -0.384,0.383c-0.291,-0.066 -0.189,-0.315 -0.221,-0.533c-0.09,-0.639 0.17,-1.136 0.523,-1.602c0.461,-0.602 0.848,-1.27 1.442,-1.759c0.237,-0.192 0.262,-0.353 0.074,-0.606c-0.298,-0.4 -0.191,-0.955 -0.471,-1.38c-0.099,-0.149 0.013,-0.315 0.18,-0.373c0.193,-0.068 0.357,0.012 0.448,0.194c0.227,0.461 0.444,0.925 0.692,1.439c0.833,-0.688 1.273,-1.63 1.911,-2.406c0.314,-0.381 0.631,-0.754 1.033,-1.036c0.194,-0.136 0.438,-0.149 0.6,0.062c0.137,0.175 0.13,0.402 -0.036,0.552c-0.877,0.795 -1.377,1.865 -2.059,2.802c-0.119,0.161 -0.248,0.335 -0.413,0.44c-0.646,0.402 -0.503,0.846 -0.186,1.406c0.715,1.263 0.981,2.723 1.654,4.009c0.085,0.164 0.076,0.353 -0.109,0.479c-0.232,0.155 -0.384,0.009 -0.501,-0.162c-0.138,-0.202 -0.307,-0.408 -0.359,-0.639c-0.32,-1.393 -0.94,-2.641 -1.78,-3.825Z" style="fill:#c3151b;fill-rule:nonzero;"/><path d="M69.829,52.453c-0.201,0.003 -0.329,0.014 -0.386,-0.1c-0.07,-0.14 -0.006,-0.224 0.121,-0.326c0.54,-0.434 1.131,-0.782 1.73,-1.119c0.17,-0.096 0.354,-0.134 0.473,0.055c0.107,0.171 0.058,0.368 -0.091,0.489c-0.576,0.467 -1.272,0.707 -1.847,1.001Z" style="fill:#c3151b;fill-rule:nonzero;"/></g></svg>