<?xml version="1.0" encoding="UTF-8" standalone="no"?><!DOCTYPE svg PUBLIC "-//W3C//DTD SVG 1.1//EN" "http://www.w3.org/Graphics/SVG/1.1/DTD/svg11.dtd"><svg width="100%" height="100%" viewBox="0 0 101 101" version="1.1" xmlns="http://www.w3.org/2000/svg" xmlns:xlink="http://www.w3.org/1999/xlink" xml:space="preserve" xmlns:serif="http://www.serif.com/" style="fill-rule:evenodd;clip-rule:evenodd;stroke-linejoin:round;stroke-miterlimit:1.41421;"><rect id="RichFish" x="0" y="0" width="100" height="100" style="fill:none;"/><path d="M87.282,57.131c0.089,-0.074 0.154,-0.128 0.218,-0.181c-0.037,-0.044 -0.086,-0.131 -0.109,-0.124c-0.084,0.024 -0.159,0.077 -0.236,0.121c0.037,0.053 0.074,0.107 0.127,0.184Zm-60.873,-30.938c0.152,-0.227 0.274,-0.343 0.313,-0.483c0.058,-0.211 -0.134,-0.149 -0.234,-0.148c-0.147,0.004 -0.229,0.089 -0.199,0.241c0.018,0.099 0.058,0.194 0.12,0.39Zm5.171,14.647c-0.352,0.455 -0.164,0.946 -0.169,1.405c-0.002,0.241 0.077,0.57 0.455,0.374c0.214,-0.108 0.64,-0.155 0.416,-0.578c-0.212,-0.398 -0.226,-0.92 -0.702,-1.201Zm29.468,-0.705c-1.03,-0.254 -0.796,0.68 -0.991,1.198c-0.166,0.428 0.24,0.487 0.485,0.472c0.548,-0.035 1.14,-0.106 1.045,-0.909c-0.038,-0.326 0.199,-0.843 -0.539,-0.761Zm14.147,40.799c-1.146,1.582 -2.053,3.248 -3.297,4.724c1.606,-0.504 3.145,-1.084 4.675,-1.678c0.173,-0.067 0.32,-0.214 0.462,-0.343c0.152,-0.137 0.259,-0.279 0.007,-0.453c-0.848,-0.577 -1.21,-1.564 -1.847,-2.25Zm-56.215,3.784c-0.102,-2.08 -0.749,-3.744 -1.4,-5.408c-0.072,-0.183 -0.18,-0.425 -0.386,-0.337c-0.818,0.355 -1.546,-0.137 -2.422,-0.261c0.916,2.31 2.365,4.115 4.208,6.006Zm-11.406,-20.512c-1.592,-0.727 -1.95,-2.255 -2.469,-3.668c-0.072,-0.194 0.028,-0.432 -0.288,-0.532c-1.099,-0.356 -2.029,-1.037 -3.011,-1.691c-0.057,2.524 2.928,5.587 5.768,5.891Zm1.02,9.993c-1.398,-0.495 -2.723,-0.604 -3.415,-1.9c-2.254,1.771 -2.836,4.369 -3.605,6.885c2.036,-2.036 3.69,-4.471 7.02,-4.985Zm87.828,3.965c-0.067,-0.649 -0.15,-1.223 -0.184,-1.8c-0.137,-2.407 -1.196,-4.177 -3.451,-5.181c-0.731,-0.323 -1.186,-0.299 -1.253,0.626c-0.03,0.421 -0.637,0.902 -0.025,1.249c2.121,1.212 3.202,3.393 4.913,5.106Zm-83.199,-16.748c0.781,1.27 1.464,1.517 2.787,0.944c1.527,-0.665 3.133,-1.125 4.633,-1.864c0.572,-0.284 1.179,-0.612 1.895,-0.525c-0.879,-1.536 -1.408,-1.678 -2.658,-1.099c-1.845,0.853 -3.65,1.828 -5.67,2.258c-0.331,0.072 -0.733,-0.063 -0.987,0.286Zm0.172,1.894c-1.403,-0.924 -1.699,-2.884 -3.682,-2.548c-0.103,0.017 -0.246,-0.084 -0.341,-0.164c-0.845,-0.719 -1.82,-0.457 -2.773,-0.396c-0.326,0.021 -0.383,0.17 -0.32,0.435c0.462,1.912 2.277,3.424 3.888,3.26c0.985,-0.102 1.953,-0.35 3.228,-0.587Zm61.696,15.038c0.504,1.458 1.437,2.544 2.295,3.658c0.52,0.677 1.348,0.609 2.115,0.358c0.237,-0.079 0.279,-0.254 0.269,-0.529c-0.079,-2.303 -1.143,-4.203 -2.335,-6.107c-0.813,0.914 -0.226,2.897 -2.344,2.62Zm-56.547,-5.989c-1.4,1.073 -2.931,1.722 -4.097,2.904c-0.47,0.479 -0.592,0.979 -0.184,1.554c0.964,1.36 2.451,1.551 3.587,0.346c0.739,-0.782 1.358,-1.749 1.174,-2.895c-0.092,-0.574 -0.32,-1.154 -0.48,-1.909Zm74.931,-9.72c2.168,-0.233 5.123,-5.156 4.807,-8.217c-0.405,0.899 -1.191,1.131 -1.679,1.748c-0.922,1.166 -1.976,2.215 -3.344,2.872c-0.276,0.136 -0.49,0.303 -0.254,0.574c0.776,0.895 0.486,1.939 0.47,3.023Zm-65.417,5.385c-1.709,-0.134 -3.34,0.011 -4.608,1.082c-1.017,0.861 -2.054,1.654 -3.178,2.355c-0.591,0.368 -0.837,1.529 -0.331,1.957c0.5,0.422 1.097,0.376 1.632,-0.119c0.903,-0.834 1.941,-1.498 2.929,-2.226c1.231,-0.907 2.571,-1.701 3.556,-3.049Zm61.82,-30.935c-0.087,0.477 -0.058,0.721 0.017,0.979c0.49,1.668 0.746,3.381 0.952,5.105c0.053,0.447 -0.331,0.892 0.013,1.305c0.801,0.955 1.298,2.099 2.108,3.404c-0.208,-2.375 0.488,-4.408 0.368,-6.51c-0.035,-0.591 -0.126,-1.136 -0.601,-1.462c-1.07,-0.733 -1.975,-1.626 -2.857,-2.821Zm-2.5,26.82c1.072,0.035 1.995,-0.236 2.922,-0.507c0.758,-0.221 1.467,-0.514 1.935,-1.185c0.525,-0.756 0.211,-1.45 -0.19,-2.136c-0.375,-0.64 -0.837,-0.222 -1.253,-0.102c-1.661,0.482 -3.309,1.019 -5.042,1.19c-0.323,0.031 -0.577,0.046 -0.537,0.47c0.052,0.562 -0.425,1.271 0.171,1.657c0.597,0.388 1.284,0.776 1.994,0.613Zm0.1,-7.075c0.109,-0.028 0.232,-0.023 0.278,-0.08c1.505,-1.897 3.225,-3.618 4.647,-5.587c0.242,-0.334 0.19,-0.687 0.112,-1.02c-0.37,-1.573 -1.108,-2.974 -2.056,-4.396c-0.209,1.646 -0.704,3.069 -1.265,4.51c-0.619,1.597 -1.969,3.056 -1.336,5.011c0.18,0.56 -0.539,0.949 -0.38,1.562Zm-66.457,0.263c-0.336,-1.162 -1.167,-1.93 -1.704,-2.87c-0.092,-0.161 -0.092,-0.066 -0.214,-0.009c-0.668,0.316 -1.399,0.355 -2.127,0.345c-1.958,-0.03 -3.812,0.796 -5.899,0.552c0.742,0.764 1.353,1.377 1.945,2.006c0.923,0.98 1.907,1.256 3.299,0.864c1.487,-0.418 2.964,-1.12 4.7,-0.888Zm46.417,12.843c0.611,0.609 1.221,0.011 1.832,0.164c1.695,0.425 3.387,0.266 5.084,-0.045c1.013,-0.185 2.03,-0.378 3.057,-0.461c1.375,-0.113 1.561,-0.338 1.251,-1.72c-0.122,-0.55 -0.389,-0.713 -0.936,-0.657c-2.556,0.256 -5.144,0.184 -7.65,0.951c-1.112,0.343 -2.121,0.688 -2.638,1.768Zm12.036,-2.994c0.231,0.542 0.229,1.051 0.301,1.549c0.04,0.28 0.047,0.561 0.502,0.514c1.241,-0.127 2.464,0.125 3.581,0.602c1.962,0.84 4.194,1.055 5.895,2.506c0.15,0.13 0.321,0.227 0.517,0.068c0.323,-0.262 0.476,-1.649 0.149,-1.865c-1.441,-0.95 -2.67,-2.295 -4.44,-2.646c-2.108,-0.418 -4.24,-0.676 -6.505,-0.728Zm1.142,-3.034c0.323,0 0.648,0.017 0.969,-0.005c0.319,-0.025 0.639,-0.082 0.955,-0.137c1.019,-0.181 1.643,-0.932 1.619,-1.944c-0.003,-0.191 0.062,-0.458 -0.144,-0.527c-1.11,-0.376 -2.183,-1.089 -3.399,-0.833c-0.848,0.179 -1.644,0.142 -2.474,0.038c-0.885,-0.108 -1.84,-0.371 -2.216,0.884c-0.075,0.256 -0.341,0.461 -0.534,0.677c-0.346,0.388 -0.497,0.617 0.154,0.949c1.616,0.824 3.366,0.694 5.07,0.898Zm-53.555,2.922c-0.754,-1.897 -1.507,-2.327 -3.39,-1.98c-0.095,0.018 -0.193,0.016 -0.29,0.028c-2.671,0.321 -5.229,0.918 -7.289,2.839c-0.275,0.256 -0.373,0.361 -0.138,0.667c0.987,1.293 1.588,1.839 3.165,0.684c0.909,-0.665 1.86,-1.234 2.902,-1.691c1.63,-0.714 3.324,-0.577 5.04,-0.547Zm50.275,-32.386c-0.933,0.34 -1.609,0.942 -2.337,1.455c-0.177,0.127 -0.368,0.211 -0.391,0.499c-0.096,1.206 0.09,2.368 0.446,3.514c0.487,1.559 2.364,1.497 3.078,2.897c1.272,-2.903 1.146,-5.68 0.536,-8.487c-0.164,0.299 -0.196,0.61 -0.236,0.923c-0.072,0.557 -0.514,0.835 -0.947,0.766c-0.602,-0.093 -0.284,-0.562 -0.186,-0.918c0.05,-0.176 0.024,-0.375 0.037,-0.649Zm-0.157,8.876c-0.258,-0.248 -0.519,-0.539 -0.82,-0.78c-0.239,-0.189 -0.411,0.042 -0.579,0.188c-1.259,1.11 -2.472,2.278 -3.402,3.678c-0.443,0.667 -1.121,1.303 -1.261,2.024c-0.169,0.855 0.995,1.169 1.381,1.872c0.061,0.112 0.159,0.202 0.235,0.306c0.388,0.542 0.711,0.548 1.192,0.025c1.609,-1.751 2.431,-3.908 3.281,-6.06c0.102,-0.256 0.072,-0.28 -0.174,-0.36c-0.357,-0.114 -0.787,-0.31 -0.097,-0.622c0.113,-0.052 0.247,-0.062 0.244,-0.271Zm-10.544,28.083c1.151,1.146 2.272,2.284 3.821,2.873c0.39,0.147 0.713,0.445 0.957,0.797c0.604,0.879 1.45,1.427 2.419,1.819c1.485,0.602 2.074,0.284 2.338,-1.263c0.353,-2.076 0.139,-2.486 -1.87,-2.932c-2.521,-0.564 -4.945,-1.745 -7.665,-1.294Zm20.186,-16.202c-0.203,-0.027 -0.307,-0.072 -0.389,-0.047c-2.157,0.693 -4.404,0.357 -6.604,0.537c-1.271,0.104 -1.634,0.184 -2.139,1.426c-0.146,0.356 -0.214,0.749 -0.4,1.078c-0.472,0.837 -0.077,1.044 0.688,1.041c1.903,-0.008 3.805,-0.015 5.709,-0.012c0.224,0 0.373,-0.099 0.495,-0.249c0.937,-1.174 2.011,-2.253 2.64,-3.774Zm-80.44,17.089c2.013,0.795 3.879,1.621 6.01,0.483c1.33,-0.707 2.388,-1.806 3.813,-2.35c-0.646,-0.895 -1.546,-1.505 -1.767,-2.579c-0.03,-0.154 -0.067,-0.196 -0.236,-0.177c-1.463,0.157 -2.813,0.63 -3.979,1.53c-1.25,0.965 -2.461,1.977 -3.841,3.093Zm6.184,-13.931c-0.145,-0.435 -0.45,-0.632 -0.709,-0.859c-1.378,-1.223 -2.537,-2.563 -3.038,-4.422c-0.558,-2.072 -1.281,-4.103 -1.91,-6.159c-0.216,-0.705 -0.363,-1.435 -0.558,-2.218c-0.767,0.601 -1.064,1.335 -1.25,2.128c-0.197,0.843 -0.37,1.69 -0.562,2.534c-0.35,1.526 0.473,3.429 1.768,4.344c1.504,1.061 2.986,2.162 3.978,3.778c0.503,0.817 1.226,1.197 2.281,0.874Zm6.989,-25.25c-1.278,-0.05 -1.624,0.167 -1.91,1.282c-0.246,0.961 -0.477,1.928 -0.678,2.902c-0.222,1.095 0.072,2.089 0.629,3.037c0.286,0.484 0.589,0.579 0.987,0.181c0.551,-0.547 1.315,-0.978 1.961,-0.907c1.062,0.119 1.238,-0.592 1.646,-1.177c0.627,-0.903 1.256,-1.81 1.423,-2.927c0.076,-0.512 0.256,-1.116 -0.458,-1.392c-1.168,-0.45 -2.322,-0.952 -3.6,-0.999Zm-0.846,11.967c-0.176,0.189 -0.04,0.44 -0.027,0.696c0.112,2.163 1.327,3.849 2.417,5.587c0.08,0.129 0.181,0.294 0.377,0.244c1.421,-0.375 2.929,-0.38 4.297,-0.993c0.274,-0.124 0.369,-0.243 0.219,-0.574c-0.875,-1.927 -1.273,-4.037 -2.252,-5.922c-0.428,-0.826 -1.078,-1.529 -1.393,-2.415c-0.248,-0.694 -0.595,-1.31 -1.412,-1.134c-0.808,0.172 -1.661,0.535 -1.776,1.495c-0.121,0.994 -0.504,1.94 -0.45,3.016Zm47.999,-27.666c0.181,0.735 0.27,1.504 1.215,1.76c0.343,0.092 0.477,0.529 0.455,0.902c-0.022,0.415 0.04,0.589 0.545,0.652c1.228,0.154 1.435,0.495 1.116,1.69c-0.139,0.52 -0.134,0.821 0.512,0.794c0.433,-0.02 0.778,0.306 0.719,0.629c-0.258,1.394 0.969,2.28 1.112,3.526c0.061,0.524 0.674,0.914 0.46,1.519c-0.289,0.825 -1.022,0.241 -1.525,0.435c-0.703,0.271 -1.271,-0.007 -1.559,-0.724c-0.082,-0.204 -0.184,-0.39 -0.402,-0.32c-1.45,0.465 -1.366,-0.51 -1.36,-1.425c0,-0.229 0.138,-0.579 -0.312,-0.527c-0.966,0.112 -1.314,-0.497 -1.325,-1.271c-0.015,-1.067 -0.561,-1.45 -1.516,-1.45c-0.649,0 -0.995,-0.4 -1.023,-0.947c-0.042,-0.763 -0.477,-1.097 -1.153,-1.425c0.365,1.579 0.236,3.129 0.825,4.613c0.664,1.668 1.634,3.15 2.597,4.617c1.156,1.756 2.846,2.996 4.848,3.717c0.87,0.314 1.815,0.445 2.61,0.938c0.329,0.204 0.508,0.179 0.801,-0.037c0.699,-0.515 1.333,-1.196 2.179,-1.408c1.098,-0.279 1.123,-0.999 1.009,-1.857c-0.023,-0.189 -0.089,-0.373 -0.137,-0.559c-0.591,-2.275 -1.388,-4.464 -2.498,-6.548c-1.124,-2.116 -2.315,-4.145 -4.061,-5.845c-1.178,-1.147 -2.414,-1.798 -4.132,-1.449Zm-33.614,-3.255c-2.392,1.2 -4.683,2.354 -6.433,4.349c-0.53,0.606 -1.116,1.181 -1.751,1.675c-1.593,1.233 -2.802,2.755 -3.664,4.566c-0.925,1.949 -1.376,4.02 -1.535,6.156c-0.047,0.646 0.103,1.102 0.935,1.265c1.253,0.244 2.517,0.582 3.593,1.316c0.386,0.265 0.702,0.378 1.152,0.278c2.762,-0.616 5.355,-1.521 7.454,-3.576c2.411,-2.359 4.957,-4.579 5.296,-8.269c0.154,-1.674 0.512,-3.329 0.453,-5.023c-0.018,-0.515 -0.16,-0.935 -0.762,-0.855c-0.449,0.06 -0.9,0.129 -0.75,0.873c0.124,0.609 0.044,1.29 -0.363,1.857c-0.354,0.49 -0.925,0.447 -1.435,0.525c0.398,1.464 0.276,1.678 -1.071,1.732c-0.311,0.011 -0.282,0.137 -0.299,0.317c-0.028,0.355 -0.084,0.711 -0.072,1.066c0.02,0.677 -0.16,1.086 -0.943,0.831c-0.353,-0.115 -0.469,0.082 -0.499,0.38c-0.035,0.321 -0.032,0.649 -0.083,0.969c-0.154,0.913 -0.44,1.08 -1.307,0.769c-0.237,-0.087 -0.423,-0.261 -0.6,0.122c-0.577,1.25 -1.494,1.793 -2.854,1.198c-0.365,1.56 -0.739,1.952 -2.22,2.158c-0.403,0.055 -0.425,0.331 -0.555,0.557c-0.532,0.926 -1.139,1.045 -1.956,0.351c-0.245,-0.209 -0.461,-0.453 -0.7,-0.673c-0.745,-0.679 -0.676,-1.06 0.276,-1.421c0.779,-0.296 1.574,-0.551 2.345,-0.869c0.339,-0.138 0.595,-0.332 0.219,-0.784c-0.422,-0.507 -0.243,-1.101 0.36,-1.224c0.943,-0.196 0.849,-0.763 0.817,-1.457c-0.06,-1.354 0.208,-1.66 1.529,-1.829c0.337,-0.043 0.434,-0.119 0.414,-0.456c-0.044,-0.716 0.369,-0.927 1.032,-0.961c0.587,-0.03 1.164,-0.148 1.107,-1.007c-0.089,-1.343 -0.06,-1.346 1.352,-1.264c0,-0.517 0.02,-1.037 -0.004,-1.554c-0.037,-0.776 0.214,-1.285 1.089,-1.215c0.723,0.057 0.44,-0.393 0.433,-0.873Zm45.078,39.28c0.087,-0.035 0.165,-0.094 0.088,-0.179c-0.031,-0.034 -0.148,0.013 -0.227,0.023c-0.289,0.025 -0.581,0.04 -0.868,0.077c-2.222,0.29 -3.971,-0.557 -5.403,-2.206c-0.489,-0.562 -0.955,-1.173 -1.543,-1.613c-1.256,-0.945 -2.402,-1.937 -2.865,-3.521c-0.055,-0.192 -0.279,-0.343 -0.443,-0.497c-1.596,-1.5 -3.62,-1.753 -5.669,-1.905c-0.254,-0.02 -0.477,-0.069 -0.572,-0.279c-0.228,-0.51 -0.8,-0.619 -1.131,-0.587c-0.689,0.07 -1.179,-0.191 -1.798,-0.38c-3.27,-1.004 -6.654,-1.557 -10.092,-1.537c-3.912,0.02 -7.82,0.284 -11.647,1.119c-1.257,0.274 -2.598,0.535 -3.687,1.318c-2.208,1.587 -3.715,3.769 -4.619,6.271c-0.458,1.266 -1.231,1.894 -2.346,2.28c-1.753,0.609 -3.649,0.637 -5.417,1.303c0.479,0.979 1.42,1.73 1.778,2.728c1.104,3.09 3.261,5.534 4.908,8.28c0.738,1.231 1.593,2.62 3.24,2.998c0.778,0.181 1.412,0.639 1.967,1.167c1.21,1.145 2.6,1.856 4.263,2.073c1.47,0.191 2.939,0.408 4.396,0.689c2.977,0.574 5.938,1.39 9.002,1.036c3.42,-0.395 6.844,-0.507 10.276,-0.541c0.872,-0.01 1.736,-0.115 2.574,-0.369c1.688,-0.507 3.221,-1.195 4.472,-2.568c1.38,-1.512 3.561,-1.959 4.971,-3.59c1.589,-1.843 3.001,-3.757 4.008,-5.963c0.519,-1.136 0.647,-2.451 1.48,-3.436c0.547,-0.647 0.813,-1.375 0.904,-2.191Zm-69.553,-17.556c0.187,-0.095 0.229,-0.231 0.11,-0.408c-0.082,0.072 -0.165,0.146 -0.249,0.218c-1.658,1.9 -3.039,3.991 -4.431,6.092c-1.41,2.132 -0.678,4.284 -0.564,6.455c0.002,0.013 0.104,0.023 0.199,0.043c0.358,-1.493 0.566,-3.049 1.713,-4.223c0.12,-0.122 0.104,-0.368 0.186,-0.539c0.63,-1.306 0.528,-2.872 1.356,-4.083c0.756,-1.106 1.193,-2.337 1.68,-3.555Zm13.432,32.91c0.085,-0.018 0.186,-0.045 0.12,-0.156c-0.016,-0.026 -0.15,0.017 -0.229,0.027c-0.701,0.268 -1.371,0.571 -1.738,1.29c0.741,-0.189 1.397,-0.512 1.847,-1.161Zm-3.038,1.855c-1.457,0.396 -2.902,0.798 -4.116,1.78c-0.572,0.463 -1.23,0.835 -1.886,1.174c-0.419,0.216 -0.762,0.356 -0.744,0.947c0.015,0.406 -0.268,0.607 -0.59,0.164c-0.382,-0.525 -0.904,-0.395 -1.29,-0.156c-0.704,0.434 -1.464,0.649 -2.248,0.818c-1.345,0.291 -2.436,0.994 -3.351,2.004c-0.977,1.082 -1.962,2.153 -2.823,3.337c-0.295,0.405 -0.665,0.949 -1.257,0.661c-0.637,-0.311 -0.461,-0.947 -0.411,-1.547c0.18,-2.217 1.403,-4.043 2.183,-6.032c0.398,-1.017 1.207,-1.775 2.208,-2.059c1.778,-0.504 2.937,-1.849 4.285,-2.911c1.608,-1.266 3.274,-2.23 5.365,-1.964c1.075,0.136 1.766,-0.374 2.417,-1.017c0.408,-0.401 0.835,-0.664 1.373,-0.843c2.153,-0.719 4.341,-1.226 6.69,-1.241c-0.305,-1.163 -1.027,-1.974 -1.72,-2.8c-0.087,-0.106 -0.115,-0.251 -0.358,-0.132c-2.201,1.077 -4.545,1.811 -6.79,2.783c-0.98,0.425 -1.997,0.683 -3.032,0.929c-0.392,0.092 -1.236,-0.22 -1.139,0.742c0.005,0.05 -0.189,0.166 -0.3,0.179c-2.218,0.288 -4.382,0.075 -6.473,-0.748c-0.944,-0.373 -1.635,-1.114 -2.157,-1.898c-0.856,-1.288 -1.975,-2.486 -2.107,-4.144c-0.044,-0.53 -0.178,-1.179 0.359,-1.52c0.561,-0.356 1.036,0.117 1.503,0.386c0.138,0.081 0.25,0.204 0.386,0.295c1.208,0.796 2.208,1.925 4.006,1.274c1.051,-0.383 2.33,-0.202 3.202,0.847c0.349,0.423 0.947,0.41 1.355,0.385c1.577,-0.108 3.161,-0.298 4.612,-1.048c-1.253,0.153 -2.483,-0.324 -3.781,0.231c-1.045,0.447 -2.129,-0.17 -2.762,-1.132c-1.094,-1.663 -2.628,-2.817 -4.168,-4.008c-1.241,-0.959 -1.905,-2.324 -2.118,-3.889c-0.017,-0.127 0.029,-0.298 -0.038,-0.378c-1.549,-1.849 -0.827,-4.159 -1.246,-6.235c-0.077,-0.383 0.207,-0.873 0.413,-1.271c1.754,-3.381 3.949,-6.445 6.661,-9.131c0.282,-0.278 0.545,-0.721 1.053,-0.37c0.415,0.284 0.42,0.669 0.266,1.116c-0.627,1.823 -1.313,3.636 -2.35,5.255c-0.692,1.084 -0.808,2.297 -1.179,3.446c-0.1,0.31 0.291,0.753 0.371,1.151c0.569,2.879 1.666,5.6 2.484,8.406c0.089,0.307 0.209,0.609 0.342,0.903c0.257,0.575 0.588,0.704 1.319,0.697c2.352,-0.023 4.649,-0.898 7.019,-0.408c0.124,0.109 0.291,0.181 0.407,0.069c0.107,-0.105 -0.034,-0.204 -0.136,-0.266c-0.443,-1.029 -0.443,-1.029 1.576,-1.653c-0.402,-0.555 -0.8,-1.085 -1.178,-1.634c-1.681,-2.436 -1.786,-5.102 -1.132,-7.874c0.087,-0.364 0.187,-0.535 -0.38,-0.654c-0.818,-0.174 -1.107,-1.042 -1.402,-1.729c-0.436,-1.024 -0.568,-2.101 -0.229,-3.22c0.269,-0.889 0.395,-1.82 0.643,-2.715c0.242,-0.872 0.685,-1.598 1.649,-1.862c0.276,-0.074 0.43,-0.196 0.426,-0.606c-0.04,-4.784 1.539,-8.88 5.275,-12.012c0.797,-0.669 1.52,-1.4 2.228,-2.162c1.582,-1.708 3.598,-2.829 5.655,-3.836c0.599,-0.293 1.17,-0.661 1.807,-0.885c0.271,-0.095 0.488,-0.139 0.719,0.045c0.246,0.194 0.284,0.48 0.126,0.693c-0.419,0.565 -0.245,1.177 -0.179,1.764c0.083,0.748 -0.151,1.148 -0.937,1.053c-0.581,-0.071 -0.729,0.175 -0.671,0.706c0.047,0.418 0.024,0.843 0.034,1.264c0.006,0.315 -0.081,0.668 -0.38,0.718c-0.736,0.117 -1.076,0.51 -1.196,1.223c-0.037,0.215 -0.285,0.453 -0.495,0.573c-0.683,0.39 -1.551,0.494 -1.638,1.589c-0.032,0.397 -0.687,0.4 -1.111,0.355c-0.508,-0.055 -0.65,0.127 -0.654,0.639c-0.005,0.689 0.295,1.422 -0.2,2.068c-0.064,0.045 -0.186,0.118 -0.183,0.125c0.076,0.147 0.189,0.069 0.295,0.04c0.033,-0.002 0.068,-0.013 0.097,-0.003c1.189,0.421 2.091,0.254 2.487,-1.126c0.095,-0.333 0.472,-0.483 0.808,-0.37c0.716,0.245 0.791,-0.182 0.798,-0.699c0.01,-0.734 0.206,-1.28 1.094,-1.261c0.456,0.012 0.217,-0.373 0.283,-0.577c0.242,-0.748 0.051,-1.737 1.204,-1.944c0.321,-0.058 0.115,-0.378 0.105,-0.575c-0.057,-1.009 0.241,-1.31 1.181,-0.947c0.74,0.286 0.768,-0.089 0.803,-0.587c0.019,-0.26 0.01,-0.521 0.005,-0.78c-0.008,-0.647 -0.124,-1.326 0.765,-1.552c1.164,-0.293 2.234,0.02 2.651,0.815c0.204,0.388 0.229,0.829 0.204,1.231c-0.211,3.338 -0.199,6.758 -2.225,9.658c-1.228,1.755 -2.785,3.234 -4.451,4.585c-1.373,1.116 -2.673,2.38 -4.553,2.598c-1.116,0.13 -2.086,0.885 -3.26,0.744c-0.263,-0.031 -0.425,0.037 -0.429,0.357c-0.023,1.749 -1.048,3.067 -1.953,4.432c-0.112,0.168 -0.439,0.248 -0.178,0.524c0.529,0.557 0.623,1.352 1.056,1.95c1.467,2.021 2.134,4.383 2.932,6.874c0.43,-0.681 0.903,-1.22 1.136,-1.845c0.504,-1.355 1.442,-2.357 2.439,-3.324c0.259,-0.249 0.314,-0.44 0.273,-0.818c-0.091,-0.825 -0.201,-1.681 0.16,-2.489c0.363,-0.808 0.985,-0.913 1.567,-0.251c0.211,0.241 0.509,0.53 0.516,0.805c0.03,1.455 0.677,0.891 1.381,0.503c1.33,-0.728 2.844,-0.808 4.298,-1.042c3.036,-0.492 6.105,-0.672 9.176,-0.684c1.902,-0.009 3.793,0.219 5.686,0.493c1.701,0.246 3.325,0.75 4.995,1.086c0.54,0.11 0.803,0.038 0.902,-0.574c0.1,-0.614 0.192,-1.275 0.97,-1.527c1.86,-0.607 2.838,0.236 2.465,2.171c-0.068,0.348 -0.18,0.688 -0.282,1.067c0.911,0.206 1.784,0.502 2.684,0.728c1.553,0.386 2.899,1.283 3.583,2.844c0.412,0.938 0.859,1.798 1.922,2.193c0.746,-2.717 2.702,-4.544 4.706,-6.332c-1.494,-1.636 -1.87,-3.576 -1.596,-5.66c0.099,-0.743 -0.44,-0.674 -0.741,-0.679c-3.028,-0.037 -5.346,-1.534 -7.107,-3.778c-2.091,-2.658 -3.911,-5.515 -3.99,-9.109c-0.017,-0.83 -0.253,-1.651 -0.37,-2.479c-0.051,-0.363 -0.048,-0.748 0.337,-0.94c0.396,-0.198 0.7,0.065 0.931,0.327c0.494,0.561 0.996,1.101 1.681,1.432c0.079,0.037 0.166,0.142 0.176,0.224c0.137,1.176 0.805,1.586 1.96,1.585c0.593,0 0.703,0.62 0.768,1.181c0.076,0.637 -0.025,1.431 1.093,1.369c0.635,-0.035 0.749,0.591 0.813,1.131c0.025,0.211 -0.091,0.633 0.078,0.604c0.987,-0.155 1.365,0.402 1.651,1.184c0.025,0.069 0.648,0.111 0.522,-0.212c-0.206,-0.53 -0.147,-1.169 -0.605,-1.597c-0.024,-0.022 -0.066,-0.031 -0.079,-0.056c-0.569,-1.08 -0.877,-2.296 -1.847,-3.168c-0.306,-0.276 0.02,-0.799 0.171,-1.276c-1.027,-0.089 -1.907,-0.333 -1.795,-1.606c0.017,-0.206 -0.172,-0.244 -0.299,-0.335c-0.184,-0.128 -0.394,-0.24 -0.532,-0.408c-0.494,-0.597 -0.685,-1.428 -1.608,-1.688c-0.304,-0.087 -0.702,-0.612 -0.525,-1.135c0.181,-0.539 0.661,-0.557 1.124,-0.532c1.342,0.072 2.7,-0.281 4.026,0.292c1.81,0.785 3.035,2.26 4.088,3.764c2.398,3.418 4.214,7.146 5.059,11.285c0.075,0.376 0.095,0.767 0.125,1.152c0.015,0.191 -0.053,0.504 0.139,0.522c1.124,0.104 1.066,1.025 1.159,1.736c0.343,2.65 0.511,5.346 -0.732,7.797c-1.188,2.342 -1.911,4.903 -3.373,7.106c-0.319,0.482 -0.719,0.91 -1.083,1.361c-0.138,0.173 -0.457,0.305 -0.357,0.529c0.114,0.254 0.412,0.443 0.711,0.442c1.029,-0.004 2.063,0.165 3.083,-0.149c0.41,-0.127 0.868,-0.373 1.26,0.077c0.349,0.401 0.087,0.801 -0.026,1.191c-0.14,0.488 -0.454,0.933 -0.359,1.594c2.251,-0.474 4.573,-0.316 6.841,-0.743c0.424,-0.078 0.807,-0.269 0.887,-0.639c0.477,-2.183 1.731,-4.078 2.277,-6.233c0.254,-1.01 0.006,-2.161 0.858,-3.014c0.095,-0.095 0.036,-0.376 0.003,-0.565c-0.49,-2.784 -1.02,-5.557 -2.022,-8.215c-0.156,-0.41 -0.42,-0.88 0.082,-1.208c0.485,-0.314 0.747,0.161 1.05,0.425c1,0.875 1.867,1.87 2.631,2.954c0.293,0.412 0.725,0.641 1.119,0.915c1.225,0.852 1.685,1.922 1.538,3.473c-0.194,2.047 -0.479,4.113 -0.402,6.155c0.037,0.974 -0.4,1.812 -0.299,2.745c0.028,0.273 -0.167,0.537 -0.345,0.78c-1.562,2.149 -3.424,4.051 -5.075,6.127c-0.473,0.597 -1.129,1.001 -1.895,1.083c-0.641,0.068 -1.081,0.374 -1.439,0.859c-0.103,0.141 -0.386,0.216 -0.257,0.452c0.113,0.204 0.338,0.135 0.523,0.087c1.738,-0.463 3.451,-1.081 5.218,-1.353c2.475,-0.383 4.021,-1.952 5.531,-3.697c0.589,-0.681 1.27,-1.291 1.961,-1.872c0.721,-0.609 1.326,-0.343 1.497,0.574c0.134,0.711 0.169,1.427 -0.074,2.106c-0.665,1.872 -1.278,3.755 -2.395,5.44c-0.88,1.324 -1.945,2.251 -3.59,2.27c-1.358,0.016 -2.549,0.67 -3.845,0.916c-1.477,0.28 -2.934,0.492 -4.328,-0.308c-0.236,-0.135 -0.495,-0.204 -0.742,-0.092c-2.607,1.193 -5.253,0.566 -7.896,0.201c-0.39,-0.055 -0.766,-0.164 -1.06,-0.43c-0.758,-0.689 -1.288,-0.47 -1.722,0.37c-0.431,0.835 -1.386,1.241 -1.798,2.079c2.931,-0.333 5.881,-0.612 8.784,-0.58c3.237,0.033 6.592,0.247 9.268,2.701c0.889,0.815 2.217,1.081 3.366,1.553c2.079,0.854 3.391,2.402 3.767,4.633c0.248,1.464 0.457,2.942 0.276,4.44c-0.057,0.473 -0.172,0.976 -0.671,1.07c-0.523,0.1 -0.742,-0.395 -0.957,-0.794c-1.09,-2.046 -2.594,-3.756 -4.283,-5.32c-1.029,-0.952 -2.377,-1.383 -3.58,-1.969c-1.914,-0.928 -3.973,-1.656 -6.089,-2.07c-0.485,-0.098 -1.33,-0.579 -1.444,0.553c-0.011,0.117 -0.172,0.228 -0.307,0.161c-1.446,-0.708 -2.899,-0.106 -4.343,-0.007c-0.622,0.042 -1.269,0.114 -1.955,0.433c1.166,0.482 2.46,0.387 3.308,1.345c0.166,0.189 0.499,0.316 0.432,0.606c-0.199,0.871 0.437,1.36 0.838,1.959c1.442,2.149 2.451,4.442 2.559,7.085c0.064,1.541 -0.672,2.138 -2.089,1.523c-0.338,-0.148 -0.502,-0.016 -0.662,0.17c-0.78,0.898 -1.845,1.276 -2.918,1.651c-1.727,0.599 -3.459,1.188 -5.177,1.815c-0.341,0.126 -0.642,0.228 -0.846,-0.112c-0.184,-0.306 -0.055,-0.601 0.196,-0.868c0.731,-0.78 1.445,-1.576 2.154,-2.374c0.788,-0.883 1.405,-1.863 1.718,-3.021c0.112,-0.411 0.351,-0.926 0.708,-0.983c0.873,-0.136 0.404,-0.521 0.247,-0.855c-0.512,-1.079 -1.542,-1.619 -2.435,-2.292c-0.392,-0.296 -0.763,-0.594 -1.056,-0.988c-0.154,-0.206 -0.303,-0.491 -0.515,-0.569c-2.006,-0.738 -3.244,-2.533 -5.005,-3.603c-0.375,-0.229 -0.627,-0.211 -1.025,-0.072c-1.464,0.507 -2.961,0.942 -4.53,0.886c-3.571,-0.128 -7.111,0.231 -10.656,0.581c-2.547,0.251 -5.013,-0.356 -7.48,-0.878c-1.864,-0.395 -3.754,-0.619 -5.637,-0.882c-1.767,-0.246 -3.342,-0.972 -4.657,-2.185c-0.897,-0.826 -1.984,-0.901 -2.824,-0.021c-1.989,2.076 -4.605,3.349 -6.691,5.299c-1.714,0.013 -1.85,1.547 -2.568,2.574c-0.644,0.919 -0.493,1.715 -0.175,2.653c0.619,1.834 1.157,3.694 1.157,5.659c0,0.355 0.056,0.705 -0.359,0.914c-0.428,0.217 -0.71,-0.071 -0.945,-0.288c-1.191,-1.102 -2.287,-2.312 -3.207,-3.638c-1.061,-1.533 -1.905,-3.2 -2.621,-4.938c-0.517,-1.255 -0.119,-2.17 0.704,-3.026c1.226,-1.27 2.802,-2.036 4.329,-2.849c0.447,-0.238 0.791,-0.51 1.069,-0.905c0.443,-0.135 0.882,-0.276 1.144,-0.965c-0.594,0.264 -1.037,0.395 -1.258,0.873Z" style="fill:#d90000;fill-rule:nonzero;"/></svg>