<?xml version="1.0" encoding="UTF-8" standalone="no"?><!DOCTYPE svg PUBLIC "-//W3C//DTD SVG 1.1//EN" "http://www.w3.org/Graphics/SVG/1.1/DTD/svg11.dtd"><svg width="100%" height="100%" viewBox="0 0 101 101" version="1.1" xmlns="http://www.w3.org/2000/svg" xmlns:xlink="http://www.w3.org/1999/xlink" xml:space="preserve" xmlns:serif="http://www.serif.com/" style="fill-rule:evenodd;clip-rule:evenodd;stroke-linejoin:round;stroke-miterlimit:1.41421;"><rect id="RoastedVeg" x="0.19" y="0" width="100" height="100" style="fill:none;"/><clipPath id="_clip1"><rect x="0.19" y="0" width="100" height="100"/></clipPath><g clip-path="url(#_clip1)"><g><path d="M19.784,75.777c0.197,0.029 0.323,-0.086 0.454,-0.187c-0.175,-0.03 -0.358,-0.083 -0.454,0.187Zm31.017,-17.897c-0.122,-0.175 -0.158,-0.43 -0.411,-0.451c-0.048,-0.004 -0.113,0.039 -0.104,0.117c0.039,0.304 0.333,0.24 0.515,0.334Zm12.803,-39.58c0.476,-0.417 0.747,-0.95 0.947,-1.523c-0.545,0.37 -0.594,1.041 -0.947,1.523Zm-33.163,57.325c-0.47,0.284 -0.74,0.63 -0.819,1.12c-0.016,0.097 -0.126,0.194 0.002,0.274c0.177,0.11 0.182,-0.089 0.242,-0.168c0.27,-0.355 0.376,-0.785 0.575,-1.226Zm14.86,-32.45c0.753,1.199 1.119,1.511 1.908,1.711c-0.471,-0.733 -1.386,-0.982 -1.908,-1.711Zm15.25,-19.409c-0.438,0.748 -1.067,1.38 -1.323,2.225c0.647,-0.626 0.998,-1.42 1.323,-2.225Zm-29.823,53.597c0.035,0.015 0.072,0.03 0.108,0.045c0.273,-0.34 0.417,-0.777 0.731,-1.088c0.05,-0.049 0.019,-0.097 -0.007,-0.11c-0.272,-0.136 -0.536,-0.343 -0.824,-0.372c-0.208,-0.021 -0.206,0.326 -0.289,0.514c-0.085,0.197 -0.2,0.384 -0.275,0.585c-0.043,0.113 -0.269,0.248 -0.035,0.362c0.183,0.089 0.306,-0.046 0.397,-0.202c0.152,-0.259 0.302,-0.52 0.452,-0.781c0.122,0.25 -0.045,0.374 -0.099,0.537c-0.056,0.169 -0.107,0.34 -0.159,0.51Zm-2.828,-3.622c0.401,0.819 0.865,1.414 1.379,1.967c0.085,0.092 0.202,0.378 0.392,0.092c0.14,-0.213 0.49,-0.437 0.114,-0.712c-0.593,-0.434 -1.196,-0.856 -1.885,-1.347Zm7.924,3.674c-0.035,-0.333 -0.051,-0.528 -0.257,-0.598c-1.064,-0.362 -2.205,-0.29 -3.309,-0.424c-0.204,-0.025 -0.231,0.19 -0.277,0.309c-0.054,0.144 0.112,0.145 0.201,0.154c0.431,0.042 0.858,0.1 1.3,0.092c0.783,-0.011 1.654,-0.415 2.342,0.467Zm26.01,-35.147c0.575,-0.027 1.124,0.016 1.63,0.26c0.314,0.154 0.631,0.298 0.951,0.439c0.081,0.037 0.171,0.146 0.265,0.005c0.131,-0.198 -0.059,-0.643 -0.248,-0.778c-0.511,-0.362 -1.15,-0.272 -1.71,-0.469c-0.31,-0.108 -0.795,-0.095 -0.888,0.543Zm-8.164,14.587c0.015,-0.182 0.338,-0.316 0.176,-0.576c-0.114,-0.184 -0.317,-0.261 -0.529,-0.25c-0.175,0.007 -0.362,0.051 -0.501,0.179c-0.512,0.474 -1.016,0.958 -1.521,1.442c-0.061,0.058 -0.161,0.176 -0.051,0.219c0.258,0.097 0.487,0.341 0.681,0.39c0.322,0.079 0.772,-0.034 1.04,-0.388c0.242,-0.316 0.455,-0.654 0.705,-1.016Zm2.152,-5.787c-0.44,-0.874 -1.116,-1.512 -1.903,-2.037c-0.098,-0.067 -0.193,-0.176 -0.318,0.024c-0.247,0.394 -0.58,0.704 -0.987,0.92c-0.228,0.122 -0.298,0.319 -0.216,0.533c0.084,0.221 0.213,0.399 0.523,0.27c0.156,-0.067 0.347,-0.031 0.523,-0.046c0.293,-0.025 0.625,-0.008 0.835,-0.25c0.247,-0.281 0.451,-0.205 0.705,-0.093c0.34,0.149 0.562,0.438 0.838,0.679Zm-9.813,4.627c-0.098,-0.458 0.117,-0.921 -0.221,-1.256c-0.378,-0.372 -0.572,-0.873 -0.858,-1.31c-0.103,-0.16 -0.21,-0.314 -0.337,-0.448c-0.149,-0.159 -0.289,-0.209 -0.417,0.077c-0.134,0.303 -0.249,0.638 -0.56,0.816c-0.319,0.187 -0.19,0.32 0.015,0.444c0.443,0.27 0.895,0.526 1.325,0.821c0.356,0.247 0.573,0.664 1.053,0.856Zm3.939,1.791c-0.108,-0.241 -0.108,-0.48 -0.125,-0.721c-0.01,-0.153 0.005,-0.37 -0.211,-0.391c-0.697,-0.072 -0.908,-0.642 -1.156,-1.174c-0.045,-0.098 -0.063,-0.206 -0.209,-0.135c-0.574,0.283 -1.17,0.524 -1.715,0.961c1.11,0.594 2.195,1.127 3.416,1.46Zm-7.423,-8.695c0.66,0.306 1.279,0.492 1.965,0.381c0.171,-0.027 0.342,-0.041 0.374,-0.256c0.088,-0.605 0.314,-1.206 -0.122,-1.778c-0.327,-0.43 -0.536,-0.567 -0.796,-0.219c-0.391,0.522 -0.813,0.974 -1.39,1.281c-0.229,0.12 -0.188,0.515 -0.031,0.591Zm10.385,3.476c0.249,-0.304 0.007,-0.453 -0.033,-0.64c-0.123,-0.571 -0.177,-0.59 -0.74,-0.342c-0.096,0.043 -0.191,0.107 -0.29,0.124c-0.547,0.099 -0.945,0.263 -1.105,0.959c-0.095,0.415 -0.071,0.619 0.199,0.862c0.21,0.19 0.508,0.33 0.538,0.663c0.024,0.257 0.116,0.364 0.373,0.378c0.29,0.015 0.302,-0.219 0.361,-0.384c0.21,-0.581 0.217,-1.247 0.697,-1.62Zm-10.939,-3.462c-0.161,0.36 -0.432,0.623 -0.609,0.944c-0.204,0.376 -0.484,0.655 -0.924,0.752c-0.271,0.06 -0.533,0.201 -0.791,0.322c-0.116,0.055 -0.282,0.141 -0.271,0.273c0.01,0.143 0.141,0.26 0.283,0.313c0.159,0.056 0.401,-0.111 0.351,0.323c-0.037,0.318 1.129,0.502 1.408,0.236c0.43,-0.413 0.587,-0.998 0.915,-1.476c0.086,-0.127 -0.027,-0.291 -0.057,-0.438c-0.088,-0.416 -0.403,-0.764 -0.305,-1.249Zm2.996,3.955c0.191,0.328 0.319,0.558 0.456,0.78c0.372,0.608 0.95,1.119 0.785,1.98c-0.022,0.114 0.015,0.238 0.032,0.421c0.633,-0.453 1.241,-0.741 1.843,-1.044c0.165,-0.082 0.42,-0.095 0.324,-0.386c-0.073,-0.227 -0.015,-0.534 -0.416,-0.552c-0.395,-0.015 -0.793,-0.062 -1.105,-0.402c-0.298,-0.322 -0.608,-0.694 -1.137,-0.642c-0.236,0.022 -0.456,-0.051 -0.782,-0.155Zm-7.012,-3.739c0.162,0.093 0.32,0.14 0.421,0.074c0.404,-0.261 0.851,-0.268 1.288,-0.347c0.347,-0.062 0.592,-0.273 0.773,-0.58c0.238,-0.407 0.084,-0.906 0.355,-1.308c0.028,-0.04 0.003,-0.141 -0.099,-0.157c-0.215,-0.032 -0.332,-0.218 -0.494,-0.335c-0.373,-0.27 -0.95,-0.097 -1.21,0.316c-0.458,0.726 -0.586,1.588 -1.034,2.337Zm4.309,-6.818c0.367,0.131 0.466,0.47 0.724,0.637c0.523,0.334 0.9,1.252 0.775,1.881c-0.079,0.402 0.023,0.711 0.361,0.92c0.367,0.223 1.009,0.188 1.378,-0.084c0.187,-0.139 0.371,-1.019 0.245,-1.172c-0.416,-0.503 -0.822,-1.016 -1.252,-1.507c-0.562,-0.642 -1.246,-0.973 -2.231,-0.675Zm-1.313,4.75c-0.114,0.273 -0.113,0.466 -0.137,0.657c-0.064,0.504 -0.253,0.964 -0.728,1.203c-0.567,0.285 -1.229,0.192 -1.795,0.516c-0.044,0.026 -0.124,0.018 -0.172,-0.006c-0.14,-0.072 -0.252,-0.111 -0.357,0.08c-0.11,0.203 -0.006,0.325 0.109,0.432c0.236,0.215 0.492,0.407 0.729,0.621c0.292,0.264 0.564,0.573 0.957,0.081c0.057,-0.07 0.202,-0.06 0.288,-0.119c0.369,-0.246 0.892,-0.181 1.148,-0.653c0.239,-0.438 0.663,-0.782 0.691,-1.328c0.005,-0.112 0.069,-0.168 0.146,-0.211c0.308,-0.171 0.166,-0.301 -0.017,-0.408c-0.34,-0.199 -0.686,-0.387 -0.862,-0.865Zm14.043,7.74c0.421,-0.76 0.79,-1.538 1.081,-2.354c0.058,-0.161 0.065,-0.273 0.031,-0.448c-0.106,-0.55 -0.601,-0.718 -0.907,-1.064c-0.228,-0.26 -0.552,-0.507 -0.924,-0.069c-0.066,0.078 -0.225,0.067 -0.336,0.114c-0.321,0.134 -0.66,0.011 -1.003,0.12c0.124,0.107 0.116,0.254 0.162,0.375c0.13,0.344 0.21,0.765 0.612,0.859c0.471,0.108 0.727,0.359 0.775,0.851c0.007,0.068 0.062,0.132 0.104,0.191c0.285,0.42 0.428,0.887 0.405,1.425Zm-6.931,-8.801c-0.315,-0.217 -0.565,-0.418 -0.842,-0.57c-0.279,-0.152 -0.606,-0.223 -0.875,-0.388c-0.296,-0.186 -0.359,0.006 -0.361,0.221c-0.001,0.308 -0.101,0.539 -0.37,0.677c-0.119,0.063 -0.256,0.095 -0.385,0.119c-0.3,0.053 -0.54,0.26 -0.682,0.482c-0.132,0.207 0.189,0.311 0.292,0.475c0.086,0.136 0.148,0.288 0.215,0.435c0.135,0.301 0.327,0.4 0.685,0.371c0.645,-0.051 1.295,-0.009 2.033,0.312c-0.422,-0.798 -0.604,-1.546 0.29,-2.134Zm5.202,6.317c-0.656,0.511 -0.68,1.285 -0.917,1.964c-0.041,0.116 -0.099,0.212 0.034,0.313c0.284,0.218 0.349,0.557 0.409,0.902c0.049,0.29 0.087,0.595 0.529,0.418c0.183,-0.073 0.4,0.017 0.526,0.158c0.206,0.231 0.33,0.095 0.464,-0.079c0.478,-0.614 0.572,-1.66 0.208,-2.319c-0.271,-0.488 -0.378,-1.133 -1.084,-1.216c-0.069,-0.008 -0.126,-0.104 -0.169,-0.141Zm-4.773,-6.115c-0.085,-0.031 -0.207,-0.128 -0.297,-0.098c-0.382,0.121 -0.691,1.025 -0.462,1.369c0.145,0.216 0.16,0.428 0.127,0.681c-0.058,0.426 -0.241,0.816 -0.356,1.226c-0.127,0.447 0.025,0.858 0.157,1.226c0.064,0.177 0.462,-0.137 0.728,-0.116c0.222,0.017 0.35,-0.072 0.417,-0.343c0.175,-0.715 0.632,-1.175 1.33,-1.378c0.323,-0.093 0.565,-0.347 0.849,-0.52c0.214,-0.129 0.195,-0.388 0.239,-0.575c0.047,-0.199 -0.218,-0.126 -0.333,-0.168c-0.533,-0.189 -1.067,-0.363 -1.551,-0.673c-0.151,-0.095 -0.449,-0.047 -0.49,-0.254c-0.045,-0.231 -0.218,-0.25 -0.358,-0.377Zm2.081,6.112c0.083,-0.631 0.463,-0.851 0.985,-0.936c0.2,-0.033 0.391,-0.146 0.589,-0.221c0.177,-0.066 0.294,-0.094 0.115,-0.326c-0.25,-0.329 -0.136,-0.69 0.236,-0.918c0.221,-0.136 0.415,-0.292 0.598,-0.482c0.489,-0.5 0.471,-0.621 -0.164,-0.819c-0.414,-0.129 -0.847,-0.217 -1.148,-0.579c-0.179,-0.216 -0.396,-0.403 -0.445,0.124c-0.012,0.127 -0.129,0.194 -0.233,0.268c-0.386,0.275 -0.785,0.513 -1.223,0.687c-0.526,0.207 -0.778,0.668 -0.889,1.196c-0.101,0.479 0.304,0.596 0.57,0.835c0.374,0.337 0.928,0.53 1.009,1.171Zm9.517,-25.317c0.354,-0.726 0.926,-1.296 1.236,-2.095c0.303,-0.786 0.573,-1.653 1.125,-2.352c0.133,-0.168 0.169,-0.47 0.373,-0.505c0.316,-0.055 0.345,-0.297 0.447,-0.502c0.067,-0.137 0.081,-0.313 0.174,-0.423c0.619,-0.736 1.074,-1.577 1.562,-2.397c0.348,-0.583 0.713,-1.155 0.722,-1.971c-0.474,0.973 -1.166,1.687 -1.507,2.615c-0.097,0.264 -0.249,0.533 -0.496,0.709c-0.076,0.053 -0.166,0.122 -0.238,0.04c-0.083,-0.094 0.015,-0.155 0.082,-0.215c0.247,-0.221 0.388,-0.522 0.522,-0.811c0.392,-0.846 0.943,-1.591 1.469,-2.349c0.182,-0.264 0.251,-0.488 0.165,-0.816c-0.446,0.402 -0.806,0.821 -1.032,1.351c-0.178,0.412 -0.388,0.804 -0.71,1.127c-0.601,0.602 -1.031,1.356 -1.527,2.032c-0.586,0.796 -1.342,1.621 -1.341,2.752c0.001,0.199 -0.126,0.406 -0.194,0.609c0.504,-0.823 0.988,-1.649 1.568,-2.414c0.055,-0.072 0.053,-0.255 0.2,-0.185c0.152,0.073 0.055,0.205 0.002,0.313c-0.034,0.069 -0.073,0.136 -0.117,0.2c-0.655,0.937 -1.244,1.913 -1.721,2.956c-0.055,0.122 -0.161,0.318 -0.235,0.318c-0.342,0.001 -0.382,0.296 -0.521,0.493c-0.116,0.164 -0.208,0.349 -0.342,0.495c-0.298,0.328 -0.295,0.586 0.082,0.802c0.241,-0.309 0.353,-0.701 0.666,-0.952c-0.04,0.427 -0.353,0.751 -0.414,1.175Zm-2.537,-1.803c-0.126,3.443 1.314,5.513 5.287,6.18c0.028,-0.088 -0.026,-0.137 -0.073,-0.195c-0.663,-0.806 -1.318,-1.623 -1.994,-2.419c-0.397,-0.465 -0.948,-0.829 -1.222,-1.358c-0.485,-0.937 -1.144,-1.652 -1.998,-2.208Zm-4.976,31.044c0.194,-0.299 -0.097,-1.369 -0.363,-1.507c-0.05,-0.024 -0.069,-0.014 -0.105,0.004c-0.457,0.221 -0.729,-0.267 -0.752,-0.427c-0.086,-0.617 -0.713,-0.725 -0.898,-1.209c-0.049,-0.127 -0.151,-0.088 -0.211,-0.022c-0.434,0.475 -1.043,0.595 -1.572,0.868c-0.192,0.1 -0.187,0.185 -0.122,0.34c0.102,0.243 0.22,0.54 0.225,0.748c0.013,0.522 0.207,1.088 0.682,1.162c0.503,0.078 0.609,0.384 0.581,0.822c-0.016,0.28 0.015,0.436 0.348,0.283c0.216,-0.101 0.303,0.111 0.403,0.247c0.08,0.11 0.162,0.258 0.309,0.12c0.51,-0.478 1.006,-0.972 1.475,-1.429Zm11.442,-23.468c-0.274,-0.334 -0.544,-0.669 -0.824,-0.996c-0.042,-0.048 -0.131,-0.086 -0.194,-0.077c-0.382,0.059 -0.722,-0.093 -1.073,-0.175c-1.47,-0.344 -2.815,-0.913 -3.704,-2.228c-0.304,-0.449 -0.621,-0.914 -0.758,-1.441c-0.254,-0.964 -0.184,-1.996 -0.339,-2.985c-0.036,-0.227 -0.421,-0.711 -0.634,-0.73c-0.134,-0.01 -0.142,0.096 -0.152,0.175c-0.254,1.78 -0.401,3.513 0.665,5.075c0.816,1.194 1.793,2.112 3.178,2.516c0.985,0.287 1.987,0.52 3.005,0.69c0.276,0.046 0.542,0.105 0.83,0.176Zm-23.148,11.159c-0.451,0.608 -0.869,1.219 -1.22,1.874c-0.071,0.132 -0.177,0.382 0.032,0.337c0.329,-0.069 0.535,0.338 0.916,0.112c0.092,-0.056 0.676,0.435 0.636,0.58c-0.126,0.467 0.181,0.54 0.405,0.684c0.186,0.12 0.387,0.22 0.502,0.41c0.105,0.178 0.185,0.12 0.351,0.061c0.683,-0.241 1.064,-0.831 1.486,-1.359c0.117,-0.146 0.255,-0.462 -0.101,-0.651c-0.369,-0.197 -0.513,-0.798 -0.359,-1.236c0.044,-0.124 0.04,-0.234 0.032,-0.356c-0.073,-0.951 -0.778,-1.377 -1.422,-1.856c-0.143,-0.106 -0.262,-0.077 -0.368,0.084c-0.37,0.557 -0.872,1.076 -0.503,1.815c0.012,0.024 0.018,0.057 0.014,0.087c-0.061,0.586 0.224,0.955 0.663,1.251c0.247,0.166 0.268,0.609 0.083,0.861c-0.059,0.081 -0.132,0.159 -0.22,0.105c-0.107,-0.068 -0.018,-0.151 0.03,-0.229c0.171,-0.277 0.071,-0.464 -0.135,-0.663c-0.44,-0.421 -0.935,-0.826 -0.709,-1.598c0.023,-0.082 0.005,-0.214 -0.113,-0.313Zm1.429,5.194c-0.06,0.232 0.069,0.371 0.113,0.54c0.095,0.35 0.378,0.692 0.157,1.075c-0.309,0.531 -0.531,1.121 -0.975,1.563c-0.142,0.142 -0.034,0.194 0.026,0.29c0.358,0.585 1.044,0.699 1.529,1.1c0.02,0.015 0.056,0.019 0.083,0.016c0.311,-0.035 1,-1.056 0.862,-1.333c-0.139,-0.275 -0.058,-0.513 -0.004,-0.783c0.084,-0.44 0.393,-0.803 0.426,-1.26c0.013,-0.172 -0.086,-0.508 0.122,-0.493c0.227,0.018 0.062,0.352 0.068,0.543c0.019,0.494 -0.343,0.877 -0.455,1.338c-0.088,0.357 0.012,0.634 0.284,0.761c0.527,0.245 1.108,0.341 1.692,0.406c0.139,0.014 0.149,-0.027 0.166,-0.155c0.046,-0.345 0.106,-0.692 0.19,-1.031c0.087,-0.353 -0.024,-0.62 -0.252,-0.848c-0.318,-0.316 -0.649,-0.623 -0.878,-1.023c-0.144,-0.25 -0.357,-0.361 -0.657,-0.341c-0.6,0.039 -1.208,0.105 -1.777,-0.137c-0.226,-0.097 -0.44,-0.226 -0.72,-0.228Zm4.994,4.561c0.367,0.297 0.88,0.183 1.295,0.04c0.463,-0.16 0.962,-0.308 1.368,-0.674c0.519,-0.468 0.537,-0.876 -0.002,-1.281c-0.326,-0.243 -0.714,-0.449 -0.936,-0.774c-0.291,-0.426 -0.623,-0.304 -0.981,-0.204c-0.363,0.101 -0.727,0.104 -1.091,0.105c-0.076,0 -0.203,0.013 -0.198,-0.115c0.003,-0.126 0.12,-0.129 0.199,-0.113c0.564,0.121 0.461,-0.205 0.364,-0.538c-0.077,-0.263 -0.086,-0.534 0.001,-0.807c0.069,-0.218 0.114,-0.447 0.209,-0.653c0.142,-0.304 0.048,-0.456 -0.238,-0.499c-0.403,-0.061 -0.807,-0.122 -1.214,-0.148c-0.836,-0.056 -0.85,-0.046 -0.956,0.802c-0.019,0.148 -0.215,0.37 -0.039,0.441c0.571,0.231 0.723,0.874 1.179,1.202c0.586,0.42 0.654,0.986 0.462,1.67c-0.165,0.592 0.063,1.202 0.578,1.546Zm7.743,-30.689c-0.041,0.46 -0.084,0.884 -0.12,1.307c-0.145,1.673 -0.203,3.339 0.249,4.948c0.124,0.443 0.293,0.89 0.602,1.214c0.985,1.035 2.026,1.987 3.475,2.353c0.799,0.2 1.522,0.651 2.344,0.791c1.135,0.192 2.222,0.693 3.427,0.422c-0.163,-0.361 -0.452,-0.529 -0.841,-0.64c-1.198,-0.338 -2.375,-0.742 -3.626,-0.893c-1.084,-0.132 -1.969,-0.685 -2.753,-1.401c-1.462,-1.334 -2.044,-3.103 -2.108,-5.103c-0.02,-0.576 0.216,-1.133 0.32,-1.7c0.028,-0.158 0.131,-0.334 -0.072,-0.488c-0.308,-0.231 -0.577,-0.517 -0.897,-0.81Zm-30.06,62.5c-0.252,0.356 -0.447,0.721 -0.725,0.998c-0.274,0.271 -0.477,0.586 -0.599,0.917c-0.422,1.125 -1.193,2.046 -1.733,3.096c-0.55,1.072 -1.404,1.923 -1.984,2.964c-0.697,1.252 -1.262,2.573 -2.032,3.791c-0.319,0.503 -0.543,1.068 -0.815,1.601c-0.235,0.461 0.188,0.491 0.389,0.64c0.274,0.202 0.269,-0.135 0.328,-0.256c0.4,-0.817 0.81,-1.627 1.298,-2.397c0.081,-0.128 0.174,-0.252 0.312,-0.176c0.168,0.092 0.059,0.244 -0.029,0.344c-0.696,0.785 -0.982,1.795 -1.524,2.669c0.285,0.114 0.388,-0.076 0.447,-0.265c0.131,-0.421 0.354,-0.793 0.591,-1.152c0.782,-1.18 1.357,-2.477 2.161,-3.651c0.823,-1.203 1.484,-2.52 2.212,-3.788c0.051,-0.089 0.157,-0.167 0.107,-0.307c-0.113,0.122 -0.206,0.317 -0.391,0.209c-0.091,-0.053 -0.076,-0.181 0.009,-0.278c0.514,-0.58 0.809,-1.307 1.267,-1.93c0.436,-0.592 0.934,-1.149 1.25,-1.829c0.053,-0.115 0.033,-0.425 0.292,-0.159c0.034,0.036 0.447,-0.645 0.411,-0.711c-0.082,-0.149 -0.833,-0.301 -0.965,-0.166c-0.353,0.358 -0.218,-0.057 -0.277,-0.164Zm42.167,-48.594c-0.332,-0.557 -0.794,-0.712 -1.384,-0.542c-0.101,0.028 -0.205,0.046 -0.309,0.053c-1.493,0.103 -2.947,0.619 -4.48,0.419c-1.78,-0.23 -3.595,-0.14 -5.322,-0.786c-2.349,-0.88 -4.133,-2.312 -5.034,-4.75c-0.232,-0.624 -0.503,-1.27 -0.474,-1.959c0.065,-1.562 0.531,-3.067 0.959,-4.574c0.245,-0.866 0.723,-1.658 0.877,-2.554c0.071,-0.423 0.185,-0.839 0.407,-1.216c0.212,-0.357 -0.065,-0.443 -0.268,-0.572c-0.28,-0.182 -0.263,0.139 -0.361,0.248c-0.067,0.076 -0.1,0.188 -0.133,0.29c-0.276,0.857 -0.489,1.739 -1.028,2.494c-0.079,0.11 -0.122,0.25 -0.165,0.381c-0.5,1.509 -0.908,3.029 -0.888,4.618c0.005,0.483 -0.019,0.968 -0.019,1.45c-0.002,1.01 0.547,1.818 0.842,2.719c0.23,0.701 0.488,1.426 1.097,1.877c0.48,0.353 0.957,0.702 1.357,1.151c0.042,0.05 0.131,0.053 0.193,0.09c0.729,0.443 1.54,0.658 2.374,0.815c0.4,0.076 0.824,0.079 1.205,0.208c0.998,0.336 2.04,0.434 3.086,0.518c1.104,0.089 2.198,0.197 3.324,0.089c1.383,-0.132 2.763,-0.27 4.144,-0.467Zm-0.919,-0.942c-0.284,-0.457 -0.672,-0.639 -1.157,-0.577c-1.739,0.216 -3.472,0.118 -5.207,0.182c-0.968,0.035 -1.942,-0.038 -2.862,-0.328c-1.063,-0.335 -1.993,-0.958 -2.939,-1.509c-1.143,-0.668 -1.909,-1.775 -2.182,-3.128c-0.371,-1.841 -0.285,-3.714 0.187,-5.585c0.307,-1.216 0.666,-2.415 1.192,-3.558c0.16,-0.345 -0.048,-0.379 -0.224,-0.496c-0.27,-0.176 -0.281,0.109 -0.372,0.23c-0.2,0.267 -0.261,0.584 -0.33,0.899c-0.068,0.312 -0.102,0.641 -0.229,0.928c-0.54,1.211 -0.863,2.484 -1.225,3.746c-0.268,0.942 -0.522,1.939 -0.356,2.869c0.258,1.443 0.702,2.839 1.818,3.861c0.719,0.658 1.365,1.39 2.302,1.762c0.838,0.331 1.648,0.784 2.535,0.915c1.047,0.155 2.109,0.302 3.181,0.278c0.939,-0.021 1.865,0.285 2.81,0.009c0.985,-0.288 1.999,-0.287 3.058,-0.498Zm-17.338,26.38c0.116,-0.71 0.355,-1.403 0.317,-2.131c-0.048,-0.917 -0.604,-1.596 -0.975,-2.358c-0.249,-0.51 -0.679,-0.842 -1.215,-1.044c-0.528,-0.199 -1.023,-0.451 -1.489,-0.795c-0.406,-0.299 -0.697,-0.726 -1.174,-0.948c-0.842,-0.392 -1.559,-1.006 -2.359,-1.479c-0.352,-0.209 -0.772,-0.274 -1.074,-0.541c-0.448,-0.397 -0.976,-0.525 -1.547,-0.437c-1.038,0.158 -2.106,0.133 -2.958,1.069c-0.481,0.53 -1.119,0.89 -1.534,1.532c-0.843,1.306 -0.928,3.41 -0.113,4.643c0.183,0.276 0.425,0.555 0.726,0.588c0.192,0.022 0.409,-0.001 0.522,0.134c0.456,0.543 1.092,0.875 1.558,1.372c0.584,0.62 1.318,0.959 2.049,1.183c0.773,0.234 1.432,0.687 2.204,0.9c0.531,0.147 1.047,0.354 1.547,0.581c0.333,0.151 0.646,-0.051 0.987,-0.001c1.069,0.154 2.062,-0.233 2.961,-0.884c0.242,-0.175 0.423,-0.453 0.676,-0.59c0.362,-0.195 0.638,-0.45 0.891,-0.794Zm-1.679,-18.09c0.242,0.344 0.671,0.44 0.957,0.743c0.508,0.535 1.109,0.961 1.706,1.388c0.975,0.695 2.172,0.551 3.282,0.728c0.313,0.048 0.651,0.063 0.964,-0.002c1.581,-0.328 3.138,-0.798 4.584,-1.571c0.621,-0.332 1.338,-0.772 1.18,-1.728c-0.006,-0.04 0.027,-0.088 0.029,-0.133c0.043,-0.727 0.583,-1.143 0.991,-1.656c0.495,-0.623 0.889,-1.308 0.798,-2.149c-0.022,-0.196 -0.035,-0.392 -0.069,-0.585c-0.086,-0.498 -0.795,-1.091 -1.209,-0.987c-0.663,0.167 -1.313,0.132 -1.976,0.1c-1.788,-0.088 -3.512,-0.377 -5.08,-1.25c-0.237,-0.133 -0.506,-0.215 -0.771,-0.282c-0.567,-0.145 -1.171,-0.127 -1.729,-0.319c-0.934,-0.323 -1.934,-0.258 -2.935,-0.431c0.323,0.674 1.136,1.373 1.818,1.618c0.163,0.058 0.449,0.068 0.359,0.334c-0.082,0.243 -0.301,0.103 -0.457,0.045c-0.786,-0.288 -1.452,-0.792 -2.172,-1.2c-1.004,-0.567 -1.537,-1.813 -2.815,-1.977c-0.065,-0.009 -0.112,-0.094 -0.175,-0.13c-0.799,-0.461 -1.478,-1.13 -2.43,-1.334c-0.398,-0.085 -0.663,-0.015 -0.845,0.363c-0.497,1.028 -0.511,2.1 -0.348,3.164c0.301,1.989 1.526,3.363 2.877,4.639c0.166,0.156 0.385,0.277 0.604,0.349c0.872,0.29 1.636,0.79 2.368,1.311c0.831,0.588 1.746,0.91 2.731,1.036c0.852,0.108 1.596,0.432 2.322,0.838c0.081,0.046 0.183,0.117 0.142,0.247c-0.035,0.117 -0.142,0.133 -0.216,0.085c-0.425,-0.267 -0.956,-0.135 -1.388,-0.317c-0.805,-0.338 -1.694,-0.416 -2.486,-0.781c-0.19,-0.087 -0.375,-0.232 -0.611,-0.156Zm-16.101,31.494c0.193,0.146 0.42,0.21 0.655,0.226c1.021,0.07 2.007,0.326 3.021,0.439c0.625,0.07 1.231,0.289 1.827,0.489c0.855,0.287 1.699,0.132 2.548,-0.12c0.079,-0.022 0.15,-0.1 0.216,-0.162c0.688,-0.646 1.361,-1.313 2.069,-1.937c0.954,-0.842 1.566,-1.955 2.314,-2.959c0.196,-0.265 0.297,-0.604 0.43,-0.914c0.309,-0.716 0.022,-1.39 -0.124,-2.042c-0.185,-0.827 -0.562,-1.58 -1.197,-2.165c-0.217,-0.2 -0.629,-0.161 -0.69,-0.393c-0.161,-0.612 -0.673,-0.898 -0.997,-1.353c-0.361,-0.51 -0.865,-0.828 -1.47,-0.952c-0.523,-0.108 -0.988,-0.38 -1.32,-0.732c-0.634,-0.673 -1.5,-0.933 -2.238,-1.403c-1.03,-0.657 -2.264,-0.878 -3.47,-1.103c-0.222,-0.042 -0.454,-0.128 -0.684,-0.016c-0.799,0.393 -1.557,0.869 -2.261,1.422c-0.389,0.306 -0.697,0.692 -0.913,1.182c-0.304,0.686 -0.315,1.421 -0.566,2.112c-0.514,1.418 -0.77,2.909 -1.346,4.313c-0.517,1.26 -0.204,2.367 0.648,3.263c1.049,1.102 2.389,1.838 3.548,2.805Zm-10.342,-0.183c0.301,-0.082 0.599,-0.186 0.902,-0.241c0.824,-0.148 1.622,-0.36 2.386,-0.759c0.395,-0.206 0.852,-0.279 1.284,-0.397c0.085,-0.024 0.217,-0.058 0.262,0.079c0.047,0.142 -0.079,0.158 -0.154,0.229c-0.625,0.6 -1.386,0.96 -2.113,1.384c-1.031,0.602 -2.149,1.011 -3.164,1.649c-0.157,0.098 -0.316,0.069 -0.322,-0.138c-0.015,-0.5 -0.271,-0.958 -0.141,-1.483c-0.22,0.042 -0.423,0.088 -0.628,0.12c-0.153,0.024 -0.242,0.062 -0.215,0.257c0.067,0.489 0.111,0.982 0.16,1.434c0.211,0.064 0.328,-0.183 0.515,-0.064c-0.012,0.099 -0.059,0.189 -0.149,0.207c-0.333,0.064 -0.315,0.273 -0.256,0.524c0.122,0.52 0.503,0.885 0.711,1.354c0.065,0.148 0.18,-0.006 0.254,-0.055c0.28,-0.181 0.554,-0.374 0.827,-0.565c0.094,-0.065 0.184,-0.045 0.235,0.029c0.064,0.092 -0.014,0.167 -0.089,0.222c-0.28,0.209 -0.555,0.427 -0.846,0.62c-0.159,0.105 -0.204,0.185 -0.11,0.36c0.406,0.746 0.968,1.347 1.601,1.882c0.174,0.147 0.354,0.149 0.419,-0.15l-0.012,0c0.066,0.078 0.267,0.092 0.112,0.271c-0.156,0.183 -0.042,0.263 0.093,0.348c0.668,0.419 1.34,0.827 1.994,1.264c0.257,0.173 0.347,0.058 0.451,-0.174c0.122,-0.267 0.266,-0.524 0.405,-0.782c0.055,-0.104 0.145,-0.181 0.251,-0.104c0.102,0.073 0.003,0.16 -0.034,0.236c-0.152,0.303 -0.289,0.616 -0.469,0.902c-0.1,0.158 -0.063,0.199 0.044,0.315c0.702,0.751 1.71,1.02 2.5,1.631c0.159,0.122 0.185,-0.025 0.232,-0.137c0.202,-0.482 0.404,-0.963 0.616,-1.439c0.037,-0.083 0.069,-0.23 0.218,-0.162c0.139,0.064 0.072,0.163 0.024,0.264c-0.13,0.278 -0.256,0.559 -0.379,0.84c-0.338,0.775 -0.337,0.775 0.441,0.988c0.084,0.023 0.17,0.035 0.252,0.062c0.342,0.118 0.493,-0.001 0.566,-0.387c0.127,-0.658 0.32,-1.307 0.476,-1.961c0.022,-0.09 0.008,-0.188 0.136,-0.184c0.118,0.004 0.137,0.108 0.138,0.193c0.002,0.088 -0.032,0.179 -0.055,0.266c-0.178,0.663 -0.357,1.323 -0.534,1.986c-0.027,0.105 -0.137,0.248 0.056,0.287c0.326,0.067 0.616,0.298 0.963,0.229c0.474,-0.092 0.925,-0.007 1.381,0.057c0.23,0.03 0.293,-0.055 0.32,-0.283c0.06,-0.54 0.16,-1.078 0.23,-1.618c0.08,-0.617 0.141,-1.235 0.215,-1.852c0.018,-0.154 -0.14,-0.409 0.041,-0.434c0.223,-0.032 0.124,0.273 0.166,0.428c0.029,0.109 0,0.24 -0.013,0.359c-0.082,0.861 -0.16,1.721 -0.252,2.581c-0.03,0.278 0.075,0.576 -0.185,0.855c0.657,0.07 1.265,0.14 1.873,0.196c0.232,0.022 0.468,0.015 0.703,0.017c0.232,0.002 0.348,-0.06 0.271,-0.345c-0.095,-0.346 -0.138,-0.708 -0.202,-1.062c-0.017,-0.098 -0.081,-0.231 0.066,-0.264c0.119,-0.029 0.173,0.088 0.19,0.198c0.056,0.356 0.196,0.691 0.17,1.067c-0.014,0.207 0.071,0.382 0.306,0.252c0.304,-0.169 0.641,-0.073 0.835,0.032c0.4,0.217 0.717,0.015 1.058,-0.086c0.431,-0.126 0.687,-0.585 0.705,-1.021c0.044,-1.044 -0.279,-1.994 -0.569,-2.943c-0.255,-0.824 -0.32,-1.735 -0.786,-2.464c-0.339,-0.532 -0.598,-1.109 -0.919,-1.649c-0.033,-0.02 -0.082,-0.063 -0.097,-0.053c-0.054,0.034 -0.006,0.065 0.016,0.093c-0.016,0.298 0.18,0.558 0.104,0.933c-0.326,-0.237 -0.387,-0.597 -0.346,-0.886c0.047,-0.343 -0.076,-0.363 -0.319,-0.367c-0.673,-0.012 -0.673,-0.013 -0.637,0.686c0.007,0.12 0.038,0.238 0.044,0.359c0.035,0.734 0.162,1.465 -0.007,2.212c-0.019,0.084 0.011,0.214 -0.114,0.207c-0.151,-0.007 -0.095,-0.145 -0.087,-0.243c0.02,-0.225 0.104,-0.476 0.045,-0.673c-0.211,-0.714 -0.111,-1.471 -0.229,-2.198c-0.053,-0.332 -0.134,-0.357 -0.423,-0.351c-1.026,0.019 -2.055,0.275 -3.079,0.124c-0.166,-0.024 -0.253,0.046 -0.301,0.194c-0.131,0.397 -0.332,0.761 -0.538,1.123c-0.048,0.083 0.045,0.299 -0.171,0.214c-0.161,-0.063 -0.058,-0.214 -0.015,-0.313c0.147,-0.339 0.28,-0.69 0.475,-1.002c0.186,-0.297 0.068,-0.311 -0.175,-0.384c-0.417,-0.125 -0.83,-0.281 -1.206,-0.493c-0.236,-0.134 -0.41,-0.324 -0.701,0.012c0.077,-0.311 -0.002,-0.458 -0.199,-0.633c-0.439,-0.393 -0.854,-0.831 -1.201,-1.312c-0.266,-0.369 -0.496,-0.289 -0.789,-0.071c-0.11,0.08 -0.203,0.182 -0.312,0.266c-0.112,0.086 -0.214,0.238 -0.409,0.096c0.332,-0.347 0.652,-0.684 1.15,-0.759c-0.145,-0.362 -0.508,-0.572 -0.397,-1.059c0.072,-0.306 -0.077,-0.651 -0.099,-0.982c-0.024,-0.333 -0.22,-0.436 -0.497,-0.418c-0.203,0.014 -0.41,0.068 -0.612,0.126c-0.562,0.156 -1.105,0.426 -1.686,0.482c-1.57,0.152 -3,0.937 -4.531,1.265c-0.254,0.054 -0.15,0.292 -0.148,0.469c0.004,0.251 0.138,0.138 0.261,0.108c0.527,-0.132 1.05,-0.299 1.589,-0.349c0.111,-0.011 0.252,-0.084 0.302,0.075c0.022,0.076 -0.068,0.126 -0.133,0.166c-0.039,0.024 -0.119,0.011 -0.08,0.097c0.003,0.005 0.062,-0.021 0.094,-0.032Zm7.177,-0.755c0.044,-0.387 -0.255,-0.615 -0.417,-0.881c-0.163,-0.27 -0.647,-0.016 -0.858,-0.365c0.1,0.836 0.238,0.96 0.928,1.139c0.122,0.032 0.272,-0.031 0.362,0.103c-0.299,0.327 -0.598,0.019 -0.909,0.048c0.056,0.372 0.271,0.639 0.504,0.894l-0.005,-0.018c0.187,0.221 0.107,0.598 0.305,0.766c0.564,0.477 1.081,1.021 1.741,1.366c0.239,0.126 0.51,0.222 0.779,0.256c0.903,0.113 1.795,0.297 2.733,0.187c0.864,-0.102 1.736,-0.142 2.611,-0.063c-0.219,-0.729 -0.633,-1.061 -1.357,-0.914c-0.174,0.037 -0.355,0.043 -0.53,0.034c-0.357,-0.017 -0.662,0.01 -0.605,0.513c0.009,0.083 -0.022,0.16 -0.112,0.169c-0.093,0.009 -0.13,-0.064 -0.112,-0.148c0.115,-0.498 -0.178,-0.547 -0.543,-0.539c-0.116,0.003 -0.238,-0.022 -0.344,-0.066c-0.261,-0.11 -0.434,-0.049 -0.556,0.241c-0.06,0.14 -0.104,0.316 -0.333,0.322c-0.792,0.018 -1.519,-0.103 -2.05,-0.756c-0.105,-0.128 -0.212,-0.23 -0.046,-0.371c0.316,-0.269 0.156,-0.45 -0.052,-0.64c-0.107,-0.098 -0.193,-0.219 -0.3,-0.315c-0.317,-0.285 -0.46,-0.733 -0.834,-0.962Zm28.029,-24.883c0.021,0.028 0.041,0.054 0.061,0.08c0.015,-0.034 0.032,-0.068 0.048,-0.102c-0.015,-0.903 -0.244,-1.645 -1.136,-2.028c-0.253,-0.109 -0.465,-0.083 -0.699,-0.117c-0.63,-0.09 -1.258,0.047 -1.893,0.015c0.912,0.459 1.69,1.123 2.609,1.553c0.356,0.165 0.712,0.335 1.01,0.599Zm8.424,-14.907c-0.106,0.009 -0.213,0.018 -0.32,0.027c-1.092,-0.162 -2.193,-0.288 -3.274,-0.495c-1.068,-0.206 -2.143,-0.401 -3.154,-0.824c-0.222,-0.093 -0.468,-0.347 -0.714,-0.188c-0.232,0.148 -0.273,0.006 -0.382,-0.098c-0.071,-0.067 -0.05,-0.184 -0.17,-0.237c-0.566,-0.246 -0.959,-0.706 -1.371,-1.15c0.277,-0.207 0.42,-0.071 0.503,0.137c0.044,0.11 0.097,0.164 0.187,0.238c0.819,0.669 1.841,0.899 2.803,1.228c1.136,0.387 2.339,0.58 3.535,0.766c1.099,0.172 2.19,0.41 3.327,0.113c-0.019,-0.167 -0.094,-0.178 -0.245,-0.16c-0.482,0.053 -0.962,0.086 -1.449,0.036c-0.455,-0.046 -0.864,-0.237 -1.314,-0.292c-1.348,-0.165 -2.544,-0.795 -3.821,-1.178c-1.012,-0.303 -1.738,-1.027 -2.502,-1.692c-0.266,-0.232 -0.53,-0.491 -0.721,-0.814c-0.501,-0.847 -0.661,-1.813 -0.764,-2.786c-0.158,-1.461 0.021,-2.936 0.169,-4.403c0.046,-0.46 0.021,-0.868 -0.394,-1.188c0.001,0.353 -0.417,0.344 -0.477,0.607c-0.127,0.565 -0.322,1.113 -0.391,1.693c-0.119,0.99 -0.051,1.97 -0.066,2.954c-0.014,1.02 0.131,2.021 0.612,2.927c0.243,0.458 0.435,0.946 0.784,1.464c-0.357,-0.129 -0.572,-0.274 -0.68,-0.496c-0.419,-0.861 -0.873,-1.703 -0.97,-2.713c-0.07,-0.738 -0.013,-1.484 -0.065,-2.218c-0.113,-1.522 0.219,-2.987 0.684,-4.434c0.088,-0.271 0.1,-0.387 -0.147,-0.474c-0.163,0.108 -0.146,0.299 -0.205,0.451c-0.989,2.587 -1.631,5.211 -1.354,7.973c0.127,1.276 0.693,2.313 1.52,3.123c0.864,0.845 2.011,1.331 3.117,1.82c0.726,0.321 1.518,0.42 2.331,0.465c0.969,0.055 1.937,-0.022 2.904,-0.01c0.72,0.009 1.441,0.02 2.164,-0.068c0.111,-0.003 0.224,-0.008 0.336,-0.011c0.061,-0.015 0.121,-0.031 0.181,-0.047c0.402,0 0.805,-0.002 1.208,-0.002c-0.109,-0.315 -0.322,-0.356 -0.583,-0.234c-0.21,0.097 -0.431,0.091 -0.647,0.139c-0.061,0.018 -0.123,0.035 -0.185,0.051Zm-15.697,22.715c0.9,0.968 1.06,2.138 0.917,3.425c-0.091,0.823 -0.51,1.459 -0.989,2.105c-0.442,0.599 -1.074,0.84 -1.669,1.134c-0.568,0.277 -1.185,0.54 -1.791,0.601c-0.816,0.084 -1.666,0.133 -2.439,-0.235c-0.297,-0.141 -0.604,-0.262 -0.908,-0.393c-0.012,0.033 -0.037,0.078 -0.029,0.086c0.63,0.599 0.878,1.475 1.517,2.11c0.638,0.633 1.171,1.496 1.187,2.545c0,0.015 -0.003,0.032 0,0.045c0.419,1.293 -0.155,2.372 -0.865,3.414c-1.064,1.558 -2.146,3.099 -3.716,4.188c-0.518,0.36 -1.07,0.541 -1.677,0.568c-0.539,0.025 -1.075,0.158 -1.62,0.007c-0.144,-0.04 -0.367,0.051 -0.539,-0.076c-0.021,-0.014 -0.138,-0.007 -0.123,0.071c0.029,0.136 -0.062,0.271 0.064,0.417c0.315,0.359 0.632,0.715 0.907,1.115c0.368,0.532 0.638,1.108 0.771,1.735c0.321,1.532 0.856,2.99 1.214,4.509c0.09,0.384 0.11,0.774 0.135,1.164c0.019,0.305 -0.625,0.842 -0.998,0.968c-0.858,0.294 -1.759,0.24 -2.616,0.515c-0.593,0.189 -1.187,0.037 -1.744,-0.039c-1.025,-0.138 -2.069,-0.184 -3.074,-0.425c-1.04,-0.25 -2.094,-0.464 -3.085,-0.87c-0.135,-0.054 -0.259,-0.135 -0.387,-0.204c-0.532,-0.288 -0.623,-0.275 -0.865,0.324c-0.26,0.65 -0.635,1.234 -0.976,1.836c-0.922,1.63 -1.874,3.241 -2.799,4.869c-0.343,0.603 -0.689,1.215 -0.939,1.857c-0.144,0.373 -0.446,0.564 -0.653,0.85c-0.72,0.986 -1.323,2.033 -1.875,3.116c-0.078,0.154 -0.248,0.294 -0.091,0.491c0.065,0.08 0.016,0.168 -0.057,0.241c-0.366,0.366 -1.162,0.408 -1.594,0.147c-0.318,-0.192 -0.564,-0.45 -0.827,-0.699c-0.131,-0.124 -0.116,-0.236 0.006,-0.335c0.459,-0.375 0.65,-0.914 0.876,-1.427c0.248,-0.564 0.454,-1.145 0.71,-1.704c0.087,-0.193 0.172,-0.394 0.435,-0.495c0.254,-0.097 0.381,-0.449 0.375,-0.687c-0.008,-0.471 0.252,-0.816 0.456,-1.175c0.74,-1.296 1.59,-2.536 2.452,-3.739c1.014,-1.414 1.659,-3.007 2.607,-4.438c0.107,-0.162 0.085,-0.25 -0.048,-0.368c-0.138,-0.124 -0.239,-0.291 -0.359,-0.437c-0.036,-0.042 -0.1,-0.115 -0.125,-0.104c-0.608,0.264 -0.893,-0.304 -1.191,-0.564c-1.018,-0.877 -1.957,-1.851 -2.885,-2.83c-0.53,-0.558 -0.84,-1.31 -0.968,-2.064c-0.199,-1.167 -0.371,-2.348 -0.443,-3.545c-0.022,-0.368 0.086,-0.552 0.428,-0.62c1.044,-0.204 2.035,-0.621 3.039,-0.976c0.379,-0.133 0.762,-0.137 1.144,-0.2c0.711,-0.117 1.39,-0.368 2.079,-0.579c0.432,-0.132 0.871,-0.246 1.284,0.011c0.042,0.025 0.112,-0.059 0.144,0.032c0.172,0.485 0.607,0.453 1.041,0.515c-0.121,-0.159 -0.201,-0.304 -0.316,-0.409c-1.008,-0.92 -1.107,-2.07 -0.686,-3.372c0.164,-0.508 0.288,-1.03 0.407,-1.55c0.403,-1.746 0.935,-3.462 1.47,-5.172c0.153,-0.484 0.524,-0.909 0.809,-1.351c0.061,-0.094 0.181,-0.177 0.312,-0.126c0.056,0.021 0.138,0.059 0.144,-0.012c0.042,-0.5 0.49,-0.507 0.773,-0.633c1.475,-0.655 2.559,-0.981 4.063,-0.737c-0.922,-1.794 -0.918,-3.58 0.275,-5.357c1.173,-1.743 2.803,-2.525 4.879,-2.529c-0.51,-0.541 -1.039,-0.862 -1.546,-1.209c-0.25,-0.173 -0.515,-0.341 -0.671,-0.6c-0.226,-0.369 -0.256,-0.81 -0.048,-1.218c0.884,-1.743 1.607,-3.563 2.604,-5.255c0.176,-0.296 0.389,-0.556 0.61,-0.792c0.337,-0.355 0.47,-0.973 0.81,-1.13c0.492,-0.226 1.036,-0.707 1.652,-0.365c0.087,0.049 0.18,0.088 0.329,0.159c-0.584,-0.723 -1.251,-1.27 -1.767,-1.976c-0.468,-0.643 -0.703,-1.391 -1.031,-2.097c-0.062,-0.135 -0.093,-0.293 -0.177,-0.409c-0.637,-0.863 -0.482,-1.822 -0.223,-2.81c0.189,-0.726 0.715,-1.111 1.288,-1.452c0.291,-0.174 0.602,-0.138 0.894,-0.001c0.999,0.469 2.021,0.882 3.053,1.277c0.813,0.312 1.54,0.826 2.398,1.046c0.352,0.089 0.696,0.219 1.053,0.279c0.919,0.155 1.815,0.427 2.841,0.447c-0.566,-0.586 -1.134,-1.066 -1.596,-1.655c-0.911,-1.163 -1.421,-2.498 -1.475,-4.026c-0.013,-0.329 -0.298,-0.506 -0.289,-0.878c0.023,-1.025 0.226,-2.021 0.499,-3.005c0.352,-1.265 0.555,-2.584 1.191,-3.758c0.367,-0.678 0.36,-1.483 0.847,-2.106c0.235,-0.3 0.481,-0.581 0.605,-0.967c0.088,-0.277 0.616,-0.368 0.884,-0.252c0.677,0.295 0.949,1.015 1.481,1.456c1.386,1.142 2.401,2.708 3.979,3.631c0.232,0.136 0.32,0.413 0.508,0.592c0.228,0.218 0.432,0.313 0.674,-0.064c0.256,-0.399 0.433,-0.857 0.893,-1.124c0.244,-0.142 0.266,-0.543 0.411,-0.783c0.333,-0.555 0.42,-1.206 0.773,-1.729c0.869,-1.291 1.779,-2.567 2.446,-3.966c0.411,-0.862 1.109,-1.277 1.784,-1.781c0.095,-0.072 0.212,-0.119 0.325,-0.157c0.318,-0.107 0.555,-0.078 0.524,0.353c-0.055,0.792 -0.005,1.584 -0.248,2.372c-0.096,0.315 -0.38,0.356 -0.533,0.586c-1.005,1.504 -1.837,3.113 -2.84,4.617c-0.338,0.508 -0.548,1.103 -0.817,1.658c-0.236,0.486 -0.465,0.973 -0.823,1.387c-0.509,0.587 -0.554,0.911 -0.143,1.418c1.261,1.558 2.411,3.214 3.84,4.623c0.254,0.251 0.417,0.596 0.631,0.891c0.639,0.882 1.281,1.763 2.02,2.559c0.21,0.226 0.323,0.524 0.475,0.791c0.161,0.281 0.041,0.362 -0.212,0.406c-1.839,0.323 -3.652,0.898 -5.527,0.834c-0.24,-0.007 -0.442,0 -0.266,0.371c0.404,0.853 0.57,1.761 0.431,2.746c-0.045,0.321 0.304,0.194 0.45,0.157c0.39,-0.097 0.768,-0.086 1.141,-0.019c0.449,0.08 0.872,0.236 1.26,0.48c0.165,0.103 0.267,0.204 0.186,0.431c-0.108,0.304 -0.016,0.631 -0.155,0.942c-0.128,0.285 -0.247,0.429 -0.569,0.266c-0.44,-0.221 -0.902,-0.399 -1.361,-0.579c-0.187,-0.074 -0.388,-0.118 -0.588,-0.151c-0.652,-0.106 -1.084,0.06 -1.427,0.789c-0.758,1.607 -2.084,2.641 -3.627,3.405c-0.433,0.216 -0.857,0.428 -1.328,0.49c-0.263,0.034 -0.26,0.121 -0.167,0.338c0.523,1.206 0.604,2.532 0.74,3.837c0.021,0.206 -0.144,0.439 -0.193,0.673c-0.093,0.429 -0.215,0.862 -0.394,1.263c-0.308,0.688 -0.728,1.321 -1.061,2.003c-0.369,0.762 -0.876,1.461 -1.252,2.221c-0.372,0.752 -1.021,0.924 -1.689,1.006c-0.683,0.086 -1.373,0.045 -2.019,-0.226c-0.199,-0.082 -0.353,-0.159 -0.509,-0.343c-0.212,-0.249 -0.633,-0.238 -0.913,-0.452Z" style="fill:#325810;fill-rule:nonzero;"/><path d="M19.784,75.777c0.096,-0.27 0.279,-0.217 0.454,-0.187c-0.131,0.101 -0.257,0.216 -0.454,0.187Z" style="fill:#325810;fill-rule:nonzero;"/><path d="M64.075,34.934c0.107,-0.009 0.214,-0.018 0.32,-0.027c0.009,0.031 0.017,0.061 0.026,0.093c-0.112,0.003 -0.225,0.008 -0.336,0.011c-0.003,-0.025 -0.006,-0.052 -0.01,-0.077Z" style="fill:#325810;fill-rule:nonzero;"/><path d="M64.602,34.953c-0.06,0.016 -0.12,0.032 -0.181,0.047c-0.009,-0.032 -0.017,-0.062 -0.026,-0.093c0.062,-0.016 0.124,-0.033 0.185,-0.051c0.008,0.033 0.015,0.065 0.022,0.097Z" style="fill:#325810;fill-rule:nonzero;"/><path d="M56.08,49.792c-0.016,0.034 -0.033,0.068 -0.048,0.102c-0.02,-0.026 -0.04,-0.052 -0.061,-0.08c0.037,-0.007 0.073,-0.015 0.109,-0.022Z" style="fill:#325810;fill-rule:nonzero;"/><path d="M20.765,75.452c-0.032,0.011 -0.091,0.037 -0.094,0.032c-0.039,-0.086 0.041,-0.073 0.08,-0.097c0.005,0.021 0.011,0.043 0.014,0.065Z" style="fill:#325810;fill-rule:nonzero;"/><path d="M36.142,78.763c-0.022,-0.028 -0.07,-0.059 -0.016,-0.093c0.015,-0.01 0.064,0.033 0.097,0.053c-0.026,0.017 -0.052,0.03 -0.081,0.04Z" style="fill:#325810;fill-rule:nonzero;"/><path d="M39.337,65.624c0.673,0.645 1.523,1.008 2.282,1.51c0.306,0.203 0.412,0.617 0.639,0.919c0.814,1.09 0.724,2.376 -0.111,3.59c-0.508,0.737 -1.019,1.448 -1.771,1.963c-0.355,0.242 -0.747,0.089 -1.086,0.306c-0.093,0.057 -0.116,-0.118 -0.063,-0.188c0.273,-0.356 0.444,-0.843 0.965,-0.907c0.248,-0.031 0.349,-0.236 0.479,-0.391c0.549,-0.651 1.23,-1.266 1.205,-2.191c-0.023,-0.826 0.132,-1.696 -0.299,-2.457c-0.386,-0.682 -1.009,-1.072 -1.662,-1.426c-0.288,-0.155 -0.494,-0.377 -0.578,-0.728Z" style="fill:#325810;fill-rule:nonzero;"/><path d="M38.135,68.201c-0.803,-0.415 -1.449,-0.983 -2.146,-1.476c-0.735,-0.518 -1.225,-1.15 -1.542,-2.006c-0.179,-0.483 -0.702,-0.695 -1.154,-0.885c-0.333,-0.138 -0.63,-0.443 -1.059,-0.316c-0.087,0.026 -0.147,-0.035 -0.145,-0.117c0.002,-0.082 0.072,-0.144 0.153,-0.14c0.556,0.021 1.111,-0.053 1.654,0.177c0.79,0.337 1.104,1.029 1.41,1.757c0.295,0.703 0.948,1.041 1.485,1.492c0.366,0.307 0.767,0.574 1.132,0.884c0.161,0.134 0.289,0.322 0.212,0.63Z" style="fill:#325810;fill-rule:nonzero;"/><path d="M30.106,66.223c0.105,0.077 0.117,0.172 0.059,0.282c-0.257,0.493 -0.247,1.029 -0.29,1.552c-0.048,0.591 -0.205,1.196 0.053,1.774c0.057,0.129 0.009,0.334 -0.04,0.491c-0.203,0.653 -0.051,1.251 0.145,1.849c0.124,0.377 0.232,0.761 0.348,1.143c0.034,0.109 0.032,0.229 -0.066,0.29c-0.111,0.07 -0.201,-0.028 -0.245,-0.118c-0.308,-0.614 -0.792,-1.122 -1.022,-1.779c-0.163,-0.469 -0.145,-0.961 0.066,-1.463c0.423,-1.002 0.425,-2.075 0.58,-3.121c0.039,-0.252 0.019,-0.513 0.145,-0.755c0.066,-0.127 0.133,-0.206 0.267,-0.145Z" style="fill:#325810;fill-rule:nonzero;"/><path d="M33.486,69.952c0.267,0.044 0.309,0.288 0.358,0.501c0.147,0.625 0.517,1.039 1.063,1.323c0.72,0.375 0.884,1.086 0.941,1.851c0.01,0.15 0.02,0.301 0.009,0.452c-0.033,0.444 0.183,0.754 0.467,1.032c0.06,0.057 0.131,0.145 0.039,0.226c-0.089,0.077 -0.143,-0.004 -0.212,-0.07c-0.561,-0.521 -0.875,-1.178 -1.003,-1.953c-0.118,-0.717 -0.633,-1.18 -1.022,-1.724c-0.348,-0.485 -0.765,-0.94 -0.64,-1.638Z" style="fill:#325810;fill-rule:nonzero;"/><path d="M40.446,75.207c-0.237,0.242 -0.594,0.52 -1.012,0.699c-0.896,0.384 -1.83,0.562 -2.777,0.659c-0.074,0.008 -0.201,0.061 -0.23,-0.052c-0.044,-0.163 0.119,-0.122 0.191,-0.177c0.478,-0.36 1.037,-0.382 1.575,-0.518c0.749,-0.192 1.482,-0.462 2.173,-0.849c0.068,-0.038 0.123,-0.092 0.182,-0.015c0.04,0.051 0.028,0.111 -0.102,0.253Z" style="fill:#325810;fill-rule:nonzero;"/><path d="M35.683,69.485c0.106,0.069 0.191,0.137 0.267,0.233c0.467,0.582 1.051,1.034 1.626,1.496c0.549,0.442 0.576,0.513 0.335,1.219c-0.027,0.078 0.023,0.204 -0.106,0.205c-0.055,0 -0.144,-0.077 -0.152,-0.133c-0.136,-0.883 -0.822,-1.303 -1.381,-1.843c-0.315,-0.304 -0.545,-0.704 -0.811,-1.06c-0.037,-0.049 -0.06,-0.107 0,-0.158c0.098,-0.085 0.158,0.02 0.222,0.041Z" style="fill:#325810;fill-rule:nonzero;"/><path d="M34.289,62.431c-0.468,-0.198 -0.826,-0.557 -1.329,-0.6c-0.258,-0.023 -0.522,-0.077 -0.774,0.094c-0.062,0.043 -0.166,0.118 -0.206,-0.028c-0.035,-0.128 0.08,-0.152 0.152,-0.189c0.406,-0.203 0.818,-0.16 1.199,-0.01c1.016,0.401 1.899,1.069 2.916,1.473c0.08,0.031 0.24,0.056 0.173,0.199c-0.081,0.173 -0.216,0.046 -0.298,0.003c-0.619,-0.324 -1.293,-0.537 -1.833,-0.942Z" style="fill:#325810;fill-rule:nonzero;"/><path d="M28.724,66.737c0.238,0.354 -0.03,0.56 -0.116,0.777c-0.543,1.365 -0.951,2.736 -0.498,4.181c-0.258,0.014 -0.254,-0.184 -0.296,-0.333c-0.31,-1.109 0.014,-2.188 0.336,-3.258c0.135,-0.448 0.362,-0.871 0.574,-1.367Z" style="fill:#325810;fill-rule:nonzero;"/><path d="M32.291,65.373c0.596,0.544 1.25,1.032 1.597,1.813c0.12,0.269 0.274,0.516 0.475,0.727c0.05,0.054 0.127,0.092 0.063,0.176c-0.075,0.098 -0.18,0.057 -0.23,-0.008c-0.14,-0.182 -0.292,-0.366 -0.387,-0.576c-0.343,-0.76 -0.901,-1.32 -1.516,-1.833c-0.152,-0.128 -0.305,-0.228 -0.509,-0.159c-0.093,0.03 -0.184,0.077 -0.206,-0.049c-0.014,-0.098 0.077,-0.16 0.166,-0.186c0.2,-0.056 0.379,-0.014 0.547,0.095Z" style="fill:#325810;fill-rule:nonzero;"/><path d="M40.057,71.491c-0.067,0.027 -0.121,0.066 -0.173,0.065c-0.08,-0.002 -0.06,-0.086 -0.062,-0.138c-0.002,-0.075 -0.011,-0.158 0.016,-0.223c0.432,-1.01 -0.025,-1.901 -0.21,-2.829c-0.017,-0.088 -0.07,-0.168 -0.075,-0.256c-0.008,-0.089 -0.117,-0.218 0.047,-0.266c0.176,-0.052 0.115,0.123 0.144,0.206c0.231,0.662 0.364,1.355 0.491,2.05c0.09,0.484 -0.218,0.913 -0.178,1.391Z" style="fill:#325810;fill-rule:nonzero;"/><path d="M34.168,74.951c-0.741,0.204 -1.248,-0.077 -1.643,-0.835c-0.277,-0.531 -0.314,-1.149 -0.505,-1.712c-0.038,-0.115 0.027,-0.18 0.122,-0.2c0.133,-0.025 0.112,0.095 0.13,0.177c0.089,0.396 0.158,0.798 0.273,1.182c0.215,0.712 0.591,1.255 1.414,1.27c0.048,0.001 0.094,0.051 0.209,0.118Z" style="fill:#325810;fill-rule:nonzero;"/><path d="M36.854,63.843c0.545,0.248 0.781,0.762 1.099,1.187c0.13,0.173 0.223,0.377 0.319,0.576c0.028,0.058 0.024,0.152 -0.058,0.2c-0.057,0.032 -0.108,0.036 -0.136,-0.041c-0.264,-0.708 -0.75,-1.244 -1.256,-1.763c-0.01,-0.012 0.009,-0.056 0.032,-0.159Z" style="fill:#325810;fill-rule:nonzero;"/><path d="M29.977,62.759c0.067,0.034 0.086,0.08 0.065,0.15c-0.176,0.582 -0.072,1.205 -0.319,1.778c-0.032,0.073 0.007,0.213 -0.129,0.194c-0.155,-0.02 -0.103,-0.136 -0.067,-0.244c0.189,-0.554 0.184,-1.132 0.26,-1.7c0.022,-0.159 0.032,-0.236 0.19,-0.178Z" style="fill:#325810;fill-rule:nonzero;"/><path d="M52.465,41.726c0.055,-0.142 0.17,-0.133 0.266,-0.125c1.372,0.121 2.743,0.195 4.121,-0.178c0.296,-0.08 0.607,-0.02 0.911,0.055c0.238,0.058 0.476,0.223 0.765,0.015c0.149,-0.106 0.188,0.125 0.236,0.229c0.06,0.133 -0.022,0.185 -0.154,0.198c-0.397,0.038 -0.793,0.115 -1.189,0.119c-0.815,0.01 -1.629,0.178 -2.449,0.013c-0.692,-0.14 -1.433,-0.005 -2.133,-0.173c-0.138,-0.034 -0.287,-0.015 -0.374,-0.153Z" style="fill:#325810;fill-rule:nonzero;"/><path d="M44.601,37.183c1.722,1.567 3.573,2.732 5.554,3.696c-0.848,0.25 -5.252,-2.594 -5.554,-3.696Z" style="fill:#325810;fill-rule:nonzero;"/><path d="M51.116,44.045c-0.597,-0.143 -1.052,-0.494 -1.565,-0.714c-0.545,-0.234 -1.038,-0.581 -1.637,-0.697c-0.082,-0.016 -0.175,-0.058 -0.229,-0.121c-0.122,-0.144 -0.451,-0.248 -0.331,-0.432c0.137,-0.21 0.293,0.107 0.458,0.159c1.072,0.337 1.999,0.975 3,1.461c0.117,0.057 0.292,0.078 0.304,0.344Z" style="fill:#325810;fill-rule:nonzero;"/><path d="M44.352,36.668c-0.251,0.084 -0.387,-0.017 -0.506,-0.175c-0.325,-0.433 -0.751,-0.762 -1.15,-1.111c-0.207,-0.182 -0.441,-0.379 -0.763,-0.374c-0.116,0.002 -0.202,-0.087 -0.149,-0.211c0.039,-0.094 0.126,-0.185 0.249,-0.142c0.096,0.033 0.191,0.072 0.279,0.121c0.648,0.364 1.201,0.839 1.626,1.466c0.11,0.163 0.274,0.284 0.414,0.426Z" style="fill:#325810;fill-rule:nonzero;"/><path d="M57.53,44.98c-0.097,0.306 -0.342,0.388 -0.582,0.435c-0.858,0.166 -1.652,-0.064 -2.433,-0.338c-0.073,-0.025 -0.19,-0.053 -0.138,-0.178c0.044,-0.104 0.147,-0.1 0.231,-0.079c0.169,0.039 0.334,0.09 0.501,0.134c0.787,0.206 1.578,0.372 2.421,0.026Z" style="fill:#325810;fill-rule:nonzero;"/><path d="M43.048,39.334c0.894,0.185 1.658,0.616 2.316,1.233c0.08,0.076 0.143,0.21 -0.033,0.289c-0.146,0.067 -0.131,-0.041 -0.202,-0.137c-0.329,-0.454 -0.812,-0.73 -1.332,-0.917c-0.287,-0.103 -0.528,-0.261 -0.749,-0.468Z" style="fill:#325810;fill-rule:nonzero;"/><path d="M37.96,55.376c-0.211,0.352 -0.886,0.56 -1.187,0.367c-0.369,-0.237 -0.472,-0.976 -0.206,-1.438c0.246,-0.429 0.476,-0.496 1.343,-0.045c0.404,0.21 0.406,0.522 0.05,1.116Z" style="fill:#325810;fill-rule:nonzero;"/><path d="M35.558,79.472c0.02,0.055 0.045,0.123 0.066,0.193c0.525,1.694 1.179,3.335 1.809,4.984c0.156,0.407 0.154,0.873 0.417,1.241c0.061,0.084 -0.04,0.219 -0.139,0.255c-0.42,0.151 -0.858,0.241 -1.28,0.137c-0.173,-0.043 -0.283,-0.242 -0.328,-0.476c-0.37,-1.882 -0.759,-3.758 -0.673,-5.719c0.007,-0.164 -0.052,-0.326 -0.053,-0.491c0,-0.066 0.025,-0.201 0.181,-0.124Z" style="fill:#325810;fill-rule:nonzero;"/><path d="M29.021,80.171c-0.578,1.397 -1.431,2.689 -1.696,4.205c-0.037,0.218 -0.137,0.284 -0.337,0.239c-0.401,-0.089 -0.682,-0.365 -0.97,-0.627c-0.163,-0.148 -0.104,-0.318 0.015,-0.486c0.38,-0.538 0.741,-1.093 1.142,-1.617c0.57,-0.744 0.996,-1.591 1.617,-2.297c0.15,-0.172 0.284,-0.358 0.429,-0.534c0.08,-0.098 0.184,-0.201 0.3,-0.11c0.089,0.068 0.046,0.183 -0.01,0.286c-0.168,0.311 -0.327,0.627 -0.49,0.941Z" style="fill:#325810;fill-rule:nonzero;"/><path d="M33.221,86.079c-0.209,-0.142 -0.173,-0.357 -0.152,-0.544c0.12,-1.066 0.273,-2.131 0.378,-3.198c0.062,-0.64 0.273,-1.289 0.034,-1.926c-0.04,-0.106 0.073,-0.221 0.182,-0.211c0.151,0.016 0.329,0.025 0.346,0.258c0.046,0.66 0.129,1.313 0.124,1.982c-0.009,1.136 -0.022,2.281 0.615,3.261c0.091,0.14 0.159,0.376 -0.111,0.347c-0.428,-0.044 -0.843,-0.052 -1.265,0.064c-0.051,0.014 -0.111,-0.023 -0.151,-0.033Z" style="fill:#325810;fill-rule:nonzero;"/><path d="M30.635,85.847c-0.224,-0.087 -0.288,-0.196 -0.271,-0.348c0.021,-0.181 0.031,-0.368 0.088,-0.538c0.489,-1.489 0.941,-2.987 1.226,-4.525c0.015,-0.087 0.068,-0.171 0.112,-0.251c0.077,-0.137 0.166,-0.289 0.345,-0.222c0.174,0.067 0.088,0.249 0.055,0.358c-0.223,0.751 -0.336,1.507 -0.354,2.282c-0.018,0.757 0.008,1.51 0.06,2.26c0.078,1.091 0.054,1.134 -0.964,1.026c-0.129,-0.014 -0.257,-0.036 -0.297,-0.042Z" style="fill:#325810;fill-rule:nonzero;"/><path d="M26.127,76.884c-0.327,0.312 -0.644,0.642 -0.988,0.938c-0.975,0.837 -1.811,1.806 -2.623,2.804c-0.138,0.171 -0.297,0.418 -0.55,0.311c-0.338,-0.145 -0.516,-0.46 -0.618,-0.814c-0.068,-0.241 0.072,-0.405 0.266,-0.529c0.602,-0.38 1.191,-0.785 1.808,-1.133c0.861,-0.484 1.602,-1.139 2.387,-1.732c0.103,-0.077 0.215,-0.211 0.354,-0.099c0.101,0.082 -0.032,0.157 -0.036,0.254Z" style="fill:#325810;fill-rule:nonzero;"/><path d="M26.686,79.387c-0.488,0.912 -1.162,1.708 -1.629,2.635c-0.428,0.849 -0.449,0.839 -1.256,0.375c-0.543,-0.312 -0.553,-0.407 -0.021,-0.792c1.037,-0.748 1.745,-1.823 2.603,-2.748c0.198,-0.213 0.393,-0.429 0.575,-0.655c0.087,-0.107 0.161,-0.198 0.288,-0.101c0.125,0.095 0.058,0.214 -0.004,0.324c-0.185,0.321 -0.371,0.642 -0.556,0.962Z" style="fill:#325810;fill-rule:nonzero;"/><path d="M31.683,79.136c-0.112,0.297 -0.135,0.693 -0.277,1.069c-0.328,0.873 -0.609,1.764 -0.902,2.647c-0.035,0.108 -0.053,0.244 -0.183,0.206c-0.124,-0.036 -0.066,-0.17 -0.031,-0.264c0.44,-1.193 0.842,-2.395 1.099,-3.638c0.017,-0.087 0.075,-0.17 0.129,-0.244c0.079,-0.108 0.186,-0.178 0.3,-0.074c0.151,0.138 -0.051,0.155 -0.135,0.298Z" style="fill:#325810;fill-rule:nonzero;"/><path d="M23.394,80.493c0.653,-0.628 1.277,-1.234 1.906,-1.832c0.061,-0.058 0.162,-0.111 0.232,-0.018c0.038,0.05 0,0.108 -0.05,0.155c-0.555,0.534 -1.107,1.074 -1.67,1.6c-0.09,0.084 -0.219,0.161 -0.418,0.095Z" style="fill:#325810;fill-rule:nonzero;"/><path d="M26.006,73.289c-0.063,0.277 -0.244,0.299 -0.37,0.319c-0.691,0.117 -1.345,0.4 -2.026,0.56c-0.076,0.018 -0.184,0.089 -0.218,-0.047c-0.026,-0.102 0.063,-0.127 0.135,-0.147c0.811,-0.233 1.613,-0.514 2.479,-0.685Z" style="fill:#325810;fill-rule:nonzero;"/><path d="M27.062,80.153c0.255,-0.504 0.506,-1.011 0.769,-1.513c0.055,-0.104 0.138,-0.235 0.279,-0.138c0.117,0.08 0.023,0.189 -0.02,0.281c-0.246,0.519 -0.515,1.022 -0.923,1.43c-0.036,-0.02 -0.071,-0.04 -0.105,-0.06Z" style="fill:#325810;fill-rule:nonzero;"/><path d="M27.298,77.064c-0.432,0.475 -0.835,0.913 -1.311,1.266c-0.104,0.077 -0.276,0.205 -0.346,0.099c-0.117,-0.18 0.121,-0.19 0.212,-0.259c0.464,-0.349 0.803,-0.829 1.226,-1.219c0.077,-0.071 0.087,-0.292 0.242,-0.176c0.104,0.079 0.006,0.22 -0.023,0.289Z" style="fill:#325810;fill-rule:nonzero;"/><path d="M37.346,83.826c-0.365,-0.889 -0.507,-1.814 -0.74,-2.706c-0.019,-0.074 -0.047,-0.162 0.042,-0.198c0.127,-0.051 0.141,0.075 0.16,0.151c0.129,0.506 0.26,1.014 0.374,1.525c0.065,0.294 0.122,0.591 0.261,0.851c0.08,0.147 0.07,0.246 -0.097,0.377Z" style="fill:#325810;fill-rule:nonzero;"/><path d="M29.212,82.929c-0.067,0.064 -0.138,0.143 -0.219,0.209c-0.029,0.022 -0.089,0.029 -0.12,0.014c-0.067,-0.032 -0.051,-0.097 -0.019,-0.153c0.316,-0.544 0.533,-1.128 0.714,-1.726c0.025,-0.082 0.078,-0.141 0.162,-0.103c0.08,0.036 0.074,0.122 0.047,0.195c-0.185,0.515 -0.372,1.03 -0.565,1.564Z" style="fill:#325810;fill-rule:nonzero;"/><path d="M23.098,76.777c0.626,-0.334 1.253,-0.669 1.883,-0.997c0.035,-0.018 0.117,0.012 0.147,0.046c0.048,0.057 0.002,0.113 -0.059,0.139c-0.657,0.266 -1.222,0.757 -1.908,0.956c-0.02,-0.048 -0.042,-0.096 -0.063,-0.144Z" style="fill:#325810;fill-rule:nonzero;"/><path d="M33.088,78.759c0.15,0.703 -0.112,1.36 -0.242,2.03c-0.172,-0.699 0.081,-1.363 0.242,-2.03Z" style="fill:#325810;fill-rule:nonzero;"/><path d="M35.271,84.648c-0.228,-0.055 -0.197,-0.176 -0.204,-0.276c-0.04,-0.458 -0.06,-0.923 -0.131,-1.374c-0.021,-0.131 -0.044,-0.198 0.088,-0.223c0.112,-0.021 0.216,0.035 0.22,0.161c0.016,0.56 0.02,1.122 0.027,1.712Z" style="fill:#325810;fill-rule:nonzero;"/><path d="M23.576,77.716c-0.467,0.305 -0.894,0.677 -1.43,0.846c-0.045,0.014 -0.11,-0.019 -0.153,-0.05c-0.015,-0.009 -0.002,-0.106 0.014,-0.113c0.531,-0.204 0.982,-0.614 1.569,-0.683Z" style="fill:#325810;fill-rule:nonzero;"/><path d="M21.079,74.96c0.413,-0.319 0.904,-0.353 1.361,-0.51c0.058,-0.02 0.121,-0.016 0.137,0.061c0.018,0.076 -0.032,0.105 -0.093,0.127c-0.457,0.167 -0.918,0.301 -1.405,0.322Z" style="fill:#325810;fill-rule:nonzero;"/><path d="M20.567,78.455c-0.114,-0.134 -0.035,-0.235 0.057,-0.264c0.243,-0.077 0.46,-0.208 0.686,-0.325c0.066,-0.036 0.147,-0.039 0.188,0.042c0.052,0.104 -0.047,0.128 -0.101,0.158c-0.208,0.118 -0.419,0.232 -0.632,0.34c-0.063,0.031 -0.137,0.034 -0.198,0.049Z" style="fill:#325810;fill-rule:nonzero;"/><path d="M22.134,81.95c-0.029,-0.064 -0.116,-0.133 -0.04,-0.198c0.28,-0.235 0.524,-0.528 0.901,-0.627c-0.234,0.34 -0.507,0.633 -0.873,0.824l0.012,0.001Z" style="fill:#325810;fill-rule:nonzero;"/><path d="M22.102,90.508c0.373,-0.647 0.7,-1.288 1.098,-1.881c0.397,-0.591 0.638,-1.264 1.048,-1.846c0.07,-0.1 0.122,-0.256 0.256,-0.181c0.101,0.057 0.023,0.188 -0.023,0.287c-0.593,1.255 -1.393,2.391 -2.079,3.593c-0.029,0.053 -0.07,0.1 -0.3,0.028Z" style="fill:#325810;fill-rule:nonzero;"/><path d="M22.208,92.128c-0.371,0.733 -0.963,1.451 -1.443,2.241c-0.054,0.089 -0.112,0.23 -0.229,0.166c-0.133,-0.073 -0.021,-0.177 0.039,-0.263c0.652,-0.954 1.254,-1.939 1.777,-2.971c0.041,-0.084 0.089,-0.163 0.138,-0.243c0.064,-0.105 0.13,-0.253 0.268,-0.182c0.151,0.075 0.042,0.214 -0.011,0.312c-0.155,0.286 -0.322,0.565 -0.539,0.94Z" style="fill:#325810;fill-rule:nonzero;"/><path d="M21.152,92.543c-0.368,0.862 -0.897,1.623 -1.356,2.425c-0.04,0.07 -0.11,0.125 -0.176,0.055c-0.071,-0.073 -0.031,-0.166 0.018,-0.25c0.339,-0.587 0.677,-1.173 1.015,-1.76c0.119,-0.208 0.257,-0.391 0.499,-0.47Z" style="fill:#325810;fill-rule:nonzero;"/><path d="M17.311,99.277c0.023,-0.484 0.278,-0.824 0.463,-1.171c0.323,-0.611 0.703,-1.193 1.059,-1.788c0.055,-0.092 0.106,-0.189 0.172,-0.273c0.047,-0.062 0.118,-0.11 0.193,-0.059c0.112,0.075 0.025,0.137 -0.025,0.216c-0.364,0.581 -0.723,1.165 -1.08,1.751c-0.168,0.277 -0.323,0.558 -0.426,0.871c-0.049,0.157 -0.12,0.34 -0.356,0.453Z" style="fill:#325810;fill-rule:nonzero;"/><path d="M19.712,96.048c0.01,-0.384 0.262,-0.671 0.369,-1.01c0.025,-0.078 0.098,-0.134 0.175,-0.106c0.075,0.027 0.076,0.107 0.068,0.189c-0.038,0.416 -0.351,0.653 -0.612,0.927Z" style="fill:#325810;fill-rule:nonzero;"/><path d="M27.552,75.635c0.045,-0.085 0.064,-0.271 0.178,-0.197c0.256,0.168 0.541,0.107 0.85,0.105c-0.327,0.328 -0.504,0.335 -1.033,0.073c0,0.001 0.005,0.019 0.005,0.019Z" style="fill:#325810;fill-rule:nonzero;"/><path d="M32.418,78.023c-0.049,0.07 -0.109,0.046 -0.159,0.026c-0.163,-0.063 -0.237,-0.2 -0.287,-0.366c-0.043,-0.141 -0.148,-0.313 0.054,-0.377c0.17,-0.054 0.096,0.167 0.141,0.259c0.05,0.103 0.057,0.23 0.18,0.285c0.068,0.032 0.123,0.083 0.071,0.173Z" style="fill:#325810;fill-rule:nonzero;"/><path d="M28.987,76.263c-0.26,0.218 -0.54,0.24 -0.83,0.09c0.263,-0.146 0.542,-0.152 0.83,-0.09Z" style="fill:#325810;fill-rule:nonzero;"/><path d="M68.826,49.488c-0.272,0.019 -0.401,0.056 -0.515,0.032c-1.153,-0.249 -2.166,0.788 -1.861,1.964c0.244,0.94 0.252,1.892 0.07,2.838c-0.111,0.576 -0.391,1.144 -0.679,1.669c-0.885,1.61 -2.072,2.929 -3.659,3.841c-1.183,0.681 -2.37,1.357 -3.536,2.07c-2.775,1.7 -4.793,4.101 -6.18,7.077c-0.64,1.374 -1.323,2.731 -1.916,4.125c-0.561,1.318 -0.998,2.685 -1.547,4.008c-0.605,1.457 -1.216,2.917 -1.935,4.32c-0.701,1.371 -1.79,2.468 -2.815,3.599c-0.289,0.317 -0.546,0.668 -0.856,0.961c-0.105,0.101 -0.326,0.073 -0.494,0.103c0.069,-0.146 0.111,-0.315 0.21,-0.435c0.512,-0.625 1.087,-1.204 1.553,-1.863c1.441,-2.037 2.227,-4.382 3.014,-6.7c0.534,-1.571 0.81,-3.223 1.224,-4.832c0.458,-1.771 1.196,-3.435 2.215,-4.956c0.814,-1.216 1.663,-2.426 2.619,-3.529c1.245,-1.436 2.773,-2.544 4.358,-3.556c1.313,-0.84 2.69,-1.592 3.907,-2.564c1.007,-0.802 2.062,-1.592 2.828,-2.71c0.329,-0.478 0.719,-0.904 0.819,-1.48c0.092,-0.531 0.251,-1.121 0.123,-1.601c-0.27,-1.012 0.241,-1.635 0.854,-2.29c0.559,-0.602 1.181,-0.723 1.877,-0.445c0.093,0.039 0.15,0.16 0.322,0.354Z" style="fill:#325810;fill-rule:nonzero;"/><path d="M30.7,56.507c0.014,-0.137 0.001,-0.283 0.047,-0.41c0.681,-1.85 1.36,-3.7 2.065,-5.541c0.104,-0.271 0.332,-0.5 0.518,-0.738c0.928,-1.188 1.449,-2.579 2.037,-3.943c0.838,-1.944 0.204,-3.653 -0.551,-5.302c-0.564,-1.236 -0.954,-2.507 -1.07,-3.873c-0.024,-0.287 0.226,-0.617 0.356,-0.924c0.401,-0.947 0.754,-1.92 1.226,-2.833c0.331,-0.641 0.825,-1.201 1.248,-1.796c0.755,-1.062 0.947,-2.277 0.987,-3.508c0.011,-0.333 -0.245,-0.655 -0.341,-0.995c-0.038,-0.137 0.026,-0.308 0.043,-0.464c0.119,0.072 0.256,0.123 0.355,0.217c1.049,1.008 0.78,2.351 0.616,3.619c-0.162,1.249 -0.736,2.387 -1.267,3.537c-0.444,0.959 -0.82,1.971 -1.066,2.991c-0.136,0.567 -0.01,1.218 0.111,1.801c0.213,1.013 0.511,2.004 0.777,3.004c0.031,0.117 0.068,0.238 0.128,0.342c0.722,1.287 0.714,2.629 0.056,3.996c-0.49,1.018 -0.993,2.036 -1.567,3.008c-0.342,0.582 -0.768,1.159 -1.274,1.587c-0.663,0.561 -1.01,1.293 -1.395,2.014c-0.389,0.729 -0.75,1.476 -1.094,2.23c-0.229,0.504 -0.403,1.033 -0.609,1.548c-0.062,0.156 -0.15,0.304 -0.225,0.455c-0.037,-0.007 -0.073,-0.015 -0.111,-0.022Z" style="fill:#325810;fill-rule:nonzero;"/><path d="M66.265,29.941c0.34,-0.495 0.712,-0.97 1.01,-1.487c0.635,-1.104 1.282,-2.206 1.828,-3.354c0.719,-1.511 1.291,-3.09 2.025,-4.593c0.685,-1.404 1.443,-2.781 2.265,-4.109c1.134,-1.825 2.486,-3.469 4.289,-4.659c0.08,-0.052 0.155,-0.128 0.24,-0.149c1.474,-0.361 2.949,-0.958 4.386,-0.048c0.546,0.346 0.918,0.803 1.022,1.443c0.065,0.403 0.231,0.679 0.53,0.91c0.074,0.058 0.099,0.184 0.147,0.28c-0.105,0.048 -0.246,0.164 -0.311,0.131c-0.316,-0.156 -0.684,-0.29 -0.901,-0.55c-0.708,-0.85 -1.66,-1 -2.643,-0.775c-0.687,0.158 -1.328,0.601 -1.981,0.938c-0.304,0.156 -0.605,0.339 -0.877,0.552c-0.417,0.325 -0.837,0.656 -1.204,1.038c-0.54,0.559 -1.061,1.143 -1.54,1.756c-1.176,1.509 -2.054,3.199 -2.896,4.909c-0.359,0.731 -0.745,1.45 -1.103,2.184c-0.328,0.671 -0.558,1.408 -0.972,2.02c-0.577,0.851 -1.265,1.63 -1.944,2.404c-0.393,0.452 -0.861,0.833 -1.296,1.246c-0.024,-0.029 -0.049,-0.058 -0.074,-0.087Z" style="fill:#325810;fill-rule:nonzero;"/><path d="M59.738,13.219c0.032,-1.495 0.987,-2.337 2.028,-3.158c0.47,-0.372 0.885,-0.859 1.22,-1.365c0.421,-0.635 0.808,-1.318 1.079,-2.028c0.436,-1.139 0.452,-2.462 -0.614,-3.272c-0.494,-0.375 -1.381,-0.425 -1.87,0.003c-0.316,0.277 -0.305,0.897 0.047,1.098c0.092,0.053 0.27,-0.061 0.409,-0.066c0.136,-0.007 0.272,0.026 0.408,0.041c-0.069,0.132 -0.107,0.31 -0.214,0.384c-0.442,0.309 -0.926,0.304 -1.282,0.024c-0.681,-0.534 -0.836,-0.907 -0.604,-1.569c0.434,-1.249 1.195,-1.851 2.451,-1.913c0.759,-0.036 1.497,-0.048 2.152,0.387c0.434,0.289 0.717,0.669 0.823,1.21c0.208,1.064 0.095,2.09 -0.426,3.077c-0.824,1.561 -1.763,3.045 -3.015,4.294c-0.354,0.351 -0.82,0.578 -1.203,0.902c-0.622,0.526 -1.112,1.163 -1.389,1.951Z" style="fill:#325810;fill-rule:nonzero;"/></g></g></svg>