<?xml version="1.0" encoding="UTF-8" standalone="no"?><!DOCTYPE svg PUBLIC "-//W3C//DTD SVG 1.1//EN" "http://www.w3.org/Graphics/SVG/1.1/DTD/svg11.dtd"><svg width="100%" height="100%" viewBox="0 0 101 101" version="1.1" xmlns="http://www.w3.org/2000/svg" xmlns:xlink="http://www.w3.org/1999/xlink" xml:space="preserve" xmlns:serif="http://www.serif.com/" style="fill-rule:evenodd;clip-rule:evenodd;stroke-linejoin:round;stroke-miterlimit:1.41421;"><rect id="SoftCheese" x="0" y="0" width="100" height="100" style="fill:none;"/><g><path d="M75.408,71.901c8.057,-0.702 15.769,-3.781 22.524,-5.974c0.69,-7.509 1.11,-16.505 2.068,-22.983c-9.145,-2.665 -18.994,-3.526 -28.727,-5.516c-4.833,-0.988 -9.774,-1.271 -14.481,-2.528c-2.291,-0.614 -4.427,-1.364 -6.664,-1.84c-2.488,-0.528 -5.025,-0.578 -7.585,-1.148c-4.711,-1.05 -12.704,-4.201 -18.156,-3.906c-3.895,0.209 -8.211,2.844 -12.642,4.825c-2.956,1.323 -9.686,3.956 -10.802,5.976c-1.713,3.096 -0.652,11.966 -0.229,15.628c0.259,2.261 0.389,4.099 0.919,7.356c0.303,1.859 0.541,5.757 1.61,6.894c1.009,1.075 2.767,0.527 5.284,0.688c4,0.26 8.241,0.861 12.641,1.151c10.098,0.662 22.355,-0.695 33.555,0c7.336,0.456 14.713,1.9 20.685,1.377Z" style="fill:#ffb800;"/><g><path d="M29.213,30.994c-1.312,1.676 -3.229,2.63 -5.288,4.365c-1.856,1.568 -3.4,4.485 -6.435,4.597c-0.347,-1.016 1.119,-1.453 1.84,-2.069c2.257,-1.926 6.478,-4.9 8.044,-7.354c0.826,-0.06 1.107,0.424 1.839,0.461Z" style="fill:#fff;"/><path d="M13.124,39.725c0.095,-0.977 1.172,-0.973 1.149,-2.068c-1.812,0.181 -2.384,1.6 -3.677,2.299c-2.413,0.039 -4.82,0.068 -6.664,-0.46c6.261,-3.544 13.458,-6.153 20.914,-8.502c-0.386,0.818 -2.899,2.321 -5.285,4.365c-2.005,1.717 -3.398,4.595 -6.437,4.366Z" style="fill:#fff;"/><path d="M31.971,31.681c-1.645,1.668 -3.517,3.082 -5.287,4.597c-1.649,1.414 -3.265,3.459 -5.745,3.906c-0.313,-0.949 1.142,-1.487 1.838,-2.066c2.444,-2.037 5.505,-4.682 8.045,-6.666c0.265,0.193 0.615,0.304 1.149,0.229Z" style="fill:#fff;"/><path d="M34.957,32.141c-1.34,1.188 -2.682,2.618 -4.366,4.137c-1.658,1.5 -3.302,3.822 -5.975,3.906c2.442,-3.224 6.407,-4.929 8.963,-8.043c0.461,0 0.92,0 1.378,0Z" style="fill:#fff;"/><path d="M84.371,42.253c-16.302,0.29 -31.097,-2.917 -48.953,-1.837c-0.736,-0.496 1.418,-1.905 1.839,-2.759c-2.012,0.441 -2.008,2.898 -4.598,2.759c1.557,-2.505 4.785,-3.338 5.745,-6.436c-3.695,0.823 -4.811,6.219 -10.11,6.204c2.411,-2.798 5.445,-4.973 8.043,-7.582c14.956,4.273 31.818,6.639 48.034,9.651Z" style="fill:#fff;"/><path d="M42.773,59.263c0.543,-1.286 0.181,-3.1 -0.691,-3.68c-4.972,-0.962 -3.301,6.488 0.691,3.68Zm30.336,-4.371c-2.155,0.026 -3.165,2.805 -2.067,5.059c4.574,2.722 6.064,-5.097 2.067,-5.059Zm-6.663,1.153c1.492,0.267 1.986,-0.466 1.837,-1.839c-1.347,-1.396 -3.107,0.472 -1.837,1.839Zm20.682,-1.61c0.426,0.496 0.675,1.166 1.841,0.921c0.526,-0.61 0.526,-1.462 0,-2.071c-1.108,-0.11 -1.588,0.408 -1.841,1.15Zm-76.302,0.229c0.718,0.443 1.655,0.596 2.298,0c0,-0.534 0,-1.072 0,-1.607c-0.985,-1.077 -2.861,-0.265 -2.298,1.607Zm7.354,-2.298c0.383,0 0.767,0 1.15,0c0.463,-0.532 0.234,-1.764 -0.231,-2.068c-1.326,-0.378 -1.39,1.371 -0.919,2.068Zm55.849,0c1.401,0.253 1.701,-0.596 1.607,-1.837c-1.117,-1.749 -3.04,0.52 -1.607,1.837Zm-9.191,0.691c1.774,-0.611 1.576,-4.849 -0.921,-4.369c-3.165,0.612 -1.643,5.248 0.921,4.369Zm-36.085,-2.99c-0.325,-2.742 -4.777,-2.075 -3.678,1.608c1.685,1.811 3.906,0.321 3.678,-1.608Zm-15.858,0.919c0.558,0.513 1.64,0.505 2.757,0.462c0.77,-0.762 1.369,-1.696 1.15,-3.448c-1.78,-2.318 -5.439,-0.024 -3.907,2.986Zm83.887,-4.595c-0.671,5.608 -0.336,12.228 -1.148,17.697c-0.976,0.515 -1.698,-0.683 -3.218,-0.919c-2.828,-0.443 -6.144,0.214 -9.194,0.229c-9.25,0.051 -17.391,-1.382 -25.971,-2.068c-9.02,-0.721 -18.304,0.461 -27.12,0.461c-8.759,0 -16.874,2.033 -24.361,2.986c-2.017,-5.906 -2.857,-13.849 -2.068,-21.833c-0.022,-0.326 -0.038,-0.652 0.23,-0.691c29.932,2.272 62.896,2.65 92.85,4.138Z" style="fill:#fff;"/><path d="M15.424,48.688c0.137,1.436 -0.725,1.779 -1.841,1.379c-0.507,-0.963 0.883,-1.877 1.841,-1.379Z" style="fill:#fff;"/><path d="M26.684,49.61c0.761,0.089 0.688,2.045 -0.459,1.607c-0.557,-0.585 0.228,-1.12 0.459,-1.607Z" style="fill:#fff;"/><path d="M40.246,57.192c1.497,-0.465 1.497,1.613 0,1.152c0,-0.385 0,-0.769 0,-1.152Z" style="fill:#fff;"/><path d="M50.128,64.319c-1.834,2.687 -5.4,3.64 -10.341,3.219c1.461,-3.059 5.41,-3.632 10.341,-3.219Z" style="fill:#fff;"/><path d="M55.873,64.319c-2.163,0.901 -2.841,3.286 -6.435,2.755c1.558,-1.507 2.93,-3.193 6.435,-2.755Z" style="fill:#fff;"/><path d="M57.251,64.319c0.669,0.932 -1.969,2.237 -3.216,2.755c0.989,-0.999 2.209,-1.772 3.216,-2.755Z" style="fill:#fff;"/><path d="M40.475,64.548c-0.815,1.177 -2.492,1.493 -2.99,2.99c-0.947,0.177 -1.178,-0.356 -2.067,-0.233c1.527,-1.077 2.469,-2.738 5.057,-2.757Z" style="fill:#fff;"/><path d="M18.87,65.008c-0.437,0.481 -0.628,1.211 -1.609,1.147c-0.857,0.246 -0.742,-0.482 -1.149,-0.688c-2.456,0.992 -6.764,1.354 -9.882,0.918c3.475,-1.101 8.61,-1.572 12.64,-1.377Z" style="fill:#fff;"/><path d="M36.568,64.777c-1.031,0.809 -2.029,1.651 -2.989,2.528c-0.92,0.078 -1.275,-0.408 -2.298,-0.231c1.408,-1.12 2.474,-2.581 5.287,-2.297Z" style="fill:#fff;"/><path d="M24.387,65.008c0.918,0 1.838,0 2.756,0c-0.776,0.907 -1.369,2.001 -3.449,1.609c-0.086,-0.855 0.933,-0.603 0.693,-1.609Z" style="fill:#fff;"/><path d="M31.51,65.008c-1.181,1.061 -1.845,2.442 -4.136,1.838c0.797,-1.193 1.75,-2.234 4.136,-1.838Z" style="fill:#fff;"/><path d="M61.16,65.008c-1.412,0.887 -2.273,2.324 -4.368,2.53c1.03,-1.274 2.443,-2.156 4.368,-2.53Z" style="fill:#fff;"/><path d="M22.777,65.238c-0.285,0.479 -0.668,0.862 -1.147,1.147c-0.729,0.113 -0.812,-0.413 -1.61,-0.23c0.259,-0.964 1.437,-1.011 2.757,-0.917Z" style="fill:#fff;"/><path d="M64.607,65.238c-1.496,1.032 -2.546,2.511 -5.058,2.528c1.501,-1.028 2.704,-2.354 5.058,-2.528Z" style="fill:#fff;"/><path d="M67.136,65.467c-1.421,0.882 -2.231,2.37 -4.367,2.528c1.374,-0.924 2.51,-2.084 4.367,-2.528Z" style="fill:#fff;"/><path d="M70.354,65.696c-1.48,1.054 -2.522,2.539 -5.059,2.53c1.659,-0.869 3.015,-2.042 5.059,-2.53Z" style="fill:#fff;"/><path d="M74.259,66.155c-1.623,0.982 -2.733,2.479 -5.516,2.3c1.624,-0.98 2.732,-2.477 5.516,-2.3Z" style="fill:#fff;"/><path d="M80.005,66.617c-1.009,0.906 -2.349,1.479 -3.907,1.838c1.275,-0.642 1.988,-1.842 3.907,-1.838Z" style="fill:#fff;"/><path d="M76.558,66.617c0.009,-0.013 -2.148,1.643 -3.449,1.838c0.876,-0.888 2.192,-1.336 3.449,-1.838Z" style="fill:#fff;"/></g></g></svg>