<?xml version="1.0" encoding="UTF-8" standalone="no"?><!DOCTYPE svg PUBLIC "-//W3C//DTD SVG 1.1//EN" "http://www.w3.org/Graphics/SVG/1.1/DTD/svg11.dtd"><svg width="100%" height="100%" viewBox="0 0 101 101" version="1.1" xmlns="http://www.w3.org/2000/svg" xmlns:xlink="http://www.w3.org/1999/xlink" xml:space="preserve" xmlns:serif="http://www.serif.com/" style="fill-rule:evenodd;clip-rule:evenodd;stroke-linejoin:round;stroke-miterlimit:1.41421;"><rect id="Starches" x="0" y="0" width="100" height="100" style="fill:none;"/><g><path d="M33.589,54.167c-1.999,-1.15 -11.622,-1.377 -15.018,-0.351c2.121,-0.404 4.17,0.579 6.292,0.251c2.135,-0.333 4.278,-0.481 6.442,-0.297c0.742,0.063 1.387,0.548 2.284,0.397Zm0.196,0.094c0.605,0.368 1.277,0.409 1.882,0.729c1.985,1.057 3.126,2.889 3.738,4.836c0.828,2.64 2.734,4.376 4.465,6.244c1.349,1.454 2.851,2.786 4.104,4.331c2.403,2.965 5.232,5.531 7.758,8.379c0.327,0.373 0.829,0.4 1.138,0.763c1.306,1.538 2.621,3.068 3.922,4.606c0.471,0.56 0.457,0.569 0.823,0.055c0.031,-0.045 0.124,-0.041 0.189,-0.06c0.574,-0.184 0.511,-0.516 0.234,-0.925c-0.588,-0.883 -1.146,-1.784 -1.748,-2.657c-0.746,-1.081 -1.885,-1.727 -2.884,-2.528c-3.824,-3.056 -6.192,-7.385 -9.494,-10.912c-1.531,-1.633 -3.014,-3.351 -4.587,-4.967c-0.756,-0.777 -1.404,-1.629 -1.997,-2.542c-0.438,-0.677 -0.067,-1.397 -0.325,-2.059c-0.634,-1.612 -1.928,-2.385 -3.48,-2.959c-1.248,-0.464 -2.516,-0.074 -3.738,-0.334Zm-28.791,-12.113c0.653,0.153 1,-0.323 1.27,-0.608c1.954,-2.071 4.577,-2.953 7.105,-3.888c2.583,-0.957 5.194,-1.827 7.739,-2.899c1.244,-0.523 2.623,-0.758 4.032,-0.53c0.854,0.141 1.554,-0.419 2.308,-0.639c1.65,-0.485 3.322,-1.036 5.115,-1.102c2.322,-0.087 4.671,0.165 6.981,-0.426c0.968,-0.244 2.021,-0.235 3.032,-0.211c3.351,0.072 5.929,1.823 8.322,3.939c0.641,0.567 1.11,1.253 1.519,2.002c1.401,2.551 1.136,5.259 0.488,7.875c-0.261,1.052 -0.376,1.727 0.067,2.815c1.344,3.312 2.267,6.782 3.97,9.972c2.396,4.489 3.707,9.418 5.514,14.146c0.579,1.516 0.928,3.085 1.435,4.613c0.07,0.203 0.041,0.507 0.314,0.583c0.363,0.103 1.592,-1.277 1.47,-1.645c-0.578,-1.789 -1.26,-3.554 -1.724,-5.374c-0.564,-2.193 -1.533,-4.225 -2.296,-6.342c-0.636,-1.772 -1.707,-3.362 -2.389,-5.101c-1.514,-3.843 -3.195,-7.612 -4.792,-11.417c-0.254,-0.607 -0.182,-1.114 0.076,-1.731c0.306,-0.722 1.112,-1.15 1.153,-1.976c0.091,-1.769 0.464,-3.548 -0.206,-5.301c-0.531,-1.395 -0.433,-3.047 -1.693,-4.138c-0.636,-0.55 -1.385,-0.992 -1.913,-1.623c-1.59,-1.897 -3.618,-2.648 -6.041,-2.791c-2.702,-0.161 -5.393,-0.416 -8.095,-0.015c-1.102,0.168 -2.107,0.754 -3.248,0.708c-1.425,-0.052 -2.836,-0.045 -4.161,0.596c-0.332,0.16 -0.65,0.33 -1.038,0.37c-2.24,0.242 -4.469,0.562 -6.617,1.285c-1.805,0.605 -3.587,1.279 -5.402,1.846c-1.028,0.32 -2.042,0.66 -3.006,1.143c-1.38,0.686 -2.657,1.562 -4.207,1.913c-2.257,0.514 -3.9,1.901 -5.082,3.951Zm22.396,-11.714c1.036,-0.198 1.753,-0.416 2.483,-0.459c3.573,-0.217 7.133,-0.569 10.647,-1.253c1.807,-0.354 3.572,0.201 5.359,0.041c1.346,-0.122 2.599,0.282 3.86,0.681c1.791,0.57 2.877,2.088 4.323,3.109c2.16,1.521 2.765,3.707 3.066,6.089c0.213,1.686 -0.277,3.396 0.177,5.089c0.175,0.655 0.027,1.432 -0.373,1.937c-1.016,1.284 -0.394,2.348 0.177,3.52c0.962,1.959 1.892,3.977 2.542,6.024c0.95,2.98 2.253,5.749 3.676,8.497c0.308,0.598 0.65,1.189 0.875,1.82c0.866,2.432 1.686,4.879 2.53,7.316c0.302,0.868 1.373,1.25 2.169,0.791c1.863,-1.074 2.246,-3.384 0.589,-4.692c-1.146,-0.901 -1.655,-2.071 -1.65,-3.274c0.009,-2.994 -0.682,-5.914 -0.713,-8.896c-0.033,-3.052 0.029,-6.089 0.361,-9.128c0.179,-1.655 0.93,-2.688 2.499,-3.265c1.681,-0.612 3.513,-0.932 4.85,-2.336c1.421,-1.487 2.569,-3.049 2.238,-5.254c-0.105,-0.701 -0.31,-1.392 -0.377,-2.095c-0.306,-3.123 -2.122,-5.106 -4.747,-6.565c-1.146,-0.633 -2.291,-1.289 -3.279,-2.193c-2.222,-2.03 -4.922,-2.721 -7.875,-2.774c-2.899,-0.05 -5.814,0.11 -8.667,-0.648c-1.822,-0.485 -3.695,-0.449 -5.534,-0.158c-1.655,0.264 -3.262,0.9 -4.952,0.852c-1.785,-0.053 -3.49,0.158 -5.14,0.834c-1.946,0.799 -4.106,1.156 -5.691,2.703c-1.134,1.107 -2.007,2.446 -3.423,3.687Zm-3.357,21.026c0.471,0.074 0.937,0.127 1.416,0.048c1.846,-0.301 3.692,-0.177 5.548,-0.062c1.236,0.079 2.353,0.646 3.525,0.76c1.241,0.122 2.473,0.194 3.656,0.584c2.7,0.889 4.496,2.473 4.812,4.929c0.172,1.336 0.842,2.15 1.621,2.999c1.617,1.764 3.652,3.152 4.774,5.356c0.074,0.146 0.203,0.278 0.334,0.378c1.907,1.44 3.026,3.532 4.451,5.369c1.71,2.203 3.659,4.171 5.716,6.031c0.545,0.493 1.222,0.68 1.985,0.562c0.32,-0.05 0.447,-0.145 0.315,-0.423c-0.588,-1.258 -0.586,-2.688 -1.196,-3.948c-0.478,-0.995 -0.825,-2.057 -1.207,-3.097c-0.952,-2.578 -1.681,-5.23 -2.791,-7.765c-1.024,-2.33 -2.124,-4.63 -3.068,-7c-0.871,-2.191 -1.261,-4.53 -2.263,-6.67c-0.452,-0.964 -1.523,-1.935 -0.244,-3.056c0.323,-2.631 0.484,-5.276 -0.688,-7.739c-1.026,-2.159 -3.066,-3.286 -5.111,-4.257c-1.387,-0.657 -2.929,-1.394 -4.462,-0.968c-2.055,0.569 -4.147,0.552 -6.213,0.758c-3.186,0.315 -6.393,0.476 -9.451,1.456c-1.321,0.426 -2.743,0.278 -3.992,0.904c-3.491,1.751 -7.349,2.545 -10.874,4.212c-1.772,0.841 -3.216,2.083 -4.546,3.467c-0.39,0.407 -0.622,1.005 -0.729,1.634c-0.455,2.647 0.377,4.881 2.001,6.937c0.634,0.801 1.363,1.105 2.337,1.15c1.87,0.084 3.608,-0.545 5.28,-1.164c2.954,-1.095 5.967,-1.409 9.064,-1.385Zm35.176,33.641c-1.404,-1.566 -2.717,-3.154 -4.164,-4.611c-1.282,-1.289 -2.803,-2.343 -3.654,-4.022c-0.031,-0.058 -0.079,-0.115 -0.134,-0.151c-1.432,-1.026 -2.566,-2.339 -3.597,-3.752c-0.258,-0.352 -0.571,-0.672 -0.894,-0.971c-2.147,-1.992 -4.276,-3.965 -6.06,-6.342c-1.131,-1.507 -2.406,-2.808 -2.774,-4.754c-0.225,-1.187 -1.44,-1.761 -2.035,-2.727c-0.82,-1.334 -2.023,-1.891 -3.508,-1.975c-1.215,-0.069 -2.435,-0.103 -3.65,-0.172c-0.626,-0.036 -1.246,-0.421 -1.877,-0.086c-1.543,0.82 -3.181,0.569 -4.762,0.325c-2.097,-0.323 -4.187,-0.34 -6.272,-0.12c-1.526,0.165 -3.004,0.77 -4.468,1.053c-2.109,0.408 -3.922,1.296 -5.756,2.216c-0.844,0.421 -1.748,0.876 -2.353,1.67c-1.158,1.521 -1.344,3.3 -1.091,5.094c0.17,1.198 0.737,2.252 1.871,2.96c0.868,0.541 1.831,0.392 2.726,0.653c2.303,0.672 3.857,2.468 5.479,4.022c1.394,1.342 2.451,3.054 3.869,4.418c1.731,1.657 2.755,3.828 4.178,5.708c0.6,0.794 1.363,1.227 2.351,1.002c1.277,-0.289 2.566,-0.16 3.848,-0.187c0.554,-0.009 1.049,0.077 0.629,-0.777c-0.199,-0.402 0.191,-0.82 0.404,-1.198c0.196,-0.344 0.538,-0.622 0.485,-1.083c-0.033,-0.328 0.003,-0.639 0.452,-0.617c0.459,0.021 0.526,0.363 0.531,0.717c0.014,0.933 -0.11,1.844 -0.452,2.667c1.806,0.392 3.618,0.559 5.457,0.499c0.878,-0.026 1.756,0.003 2.638,0.115c1.983,0.249 3.98,0.388 5.984,0.247c2.262,-0.156 4.527,-0.323 6.799,-0.165c2.633,0.186 5.261,0.418 7.896,0.59c0.612,0.041 1.268,0.172 1.904,-0.246Zm-10.774,-64.969c1.973,-0.158 3.791,0.562 5.675,0.827c2.212,0.316 4.46,0.29 6.699,0.249c3.035,-0.057 5.811,0.837 8.255,2.566c1.153,0.813 2.21,1.772 3.439,2.483c0.937,0.542 1.882,1.078 2.705,1.786c1.38,1.184 2.451,2.633 2.982,4.367c0.28,0.918 0.323,1.923 0.581,2.867c0.839,3.044 -0.208,5.524 -2.226,7.78c-1.619,1.808 -3.841,2.401 -5.979,3.166c-0.78,0.28 -1.193,0.713 -1.205,1.516c-0.012,0.713 -0.053,1.411 -0.177,2.119c-0.151,0.861 -0.297,1.765 -0.196,2.621c0.499,4.238 0.609,8.492 0.758,12.746c0.016,0.551 0.184,0.926 0.557,1.328c1.38,1.473 2.568,3.049 2.104,5.271c-0.016,0.083 0.039,0.179 0.07,0.318c0.213,-0.087 0.413,-0.134 0.574,-0.24c1.614,-1.04 3.252,-2.018 5.046,-2.752c0.77,-0.316 1.611,-0.421 2.341,-0.883c1.896,-1.2 3.711,-2.558 5.871,-3.297c1.313,-0.452 2.537,-1.098 3.769,-1.727c1.667,-0.851 3.391,-1.629 3.731,-3.819c0.071,-0.464 0.105,-0.727 -0.218,-1.146c-0.82,-1.059 -1.995,-1.93 -2.011,-3.484c-0.012,-1.186 0.064,-2.36 0.16,-3.547c0.263,-3.199 0.411,-6.409 0.469,-9.625c0.016,-0.907 -0.043,-1.918 0.643,-2.688c0.94,-1.06 1.734,-2.244 2.927,-3.083c0.514,-0.359 0.806,-0.968 1.107,-1.552c1.397,-2.726 0.787,-5.347 -0.322,-7.961c-0.842,-1.98 -2.373,-3.516 -3.573,-5.249c-0.809,-1.165 -1.88,-2.445 -3.389,-2.947c-2.504,-0.834 -4.852,-2.121 -7.464,-2.606c-1.736,-0.323 -3.446,-0.689 -5.256,-0.735c-4.207,-0.1 -8.239,1.038 -12.366,1.435c-3.03,0.292 -5.95,1.16 -8.94,1.638c-2.501,0.4 -4.792,1.361 -7.141,2.258Zm-41.683,35.013c-0.684,-0.927 -1.339,-1.824 -2.004,-2.714c-0.304,-0.411 -0.505,-0.846 -0.648,-1.351c-0.187,-0.648 -0.536,-1.203 -1.067,-1.734c-0.93,-0.94 -1.262,-2.171 -1.179,-3.592c0.153,-2.635 1.442,-4.661 3.059,-6.569c1.052,-1.244 2.372,-2.076 3.927,-2.552c1.219,-0.373 2.449,-0.727 3.53,-1.452c2.133,-1.432 4.723,-1.729 7.007,-2.781c1.413,-0.653 2.879,-1.129 4.409,-1.358c0.605,-0.091 0.711,-0.565 0.957,-0.926c1.38,-2.018 2.884,-3.905 4.981,-5.254c2.263,-1.454 4.783,-2.274 7.326,-3.015c0.741,-0.218 1.511,-0.4 2.152,-0.778c1.777,-1.047 3.85,-1.329 5.648,-2.303c0.287,-0.155 0.634,-0.208 0.957,-0.303c1.234,-0.373 2.537,-0.105 3.757,-1.074c1.217,-0.969 3.011,-1.052 4.565,-1.483c3.542,-0.978 7.239,-1.207 10.783,-2.099c3.588,-0.904 7.206,-0.897 10.822,-0.979c3.291,-0.071 6.686,-0.289 9.764,1.163c1.966,0.93 3.994,1.786 5.862,2.872c1.37,0.794 2.721,1.877 3.544,3.386c1.023,1.88 2.721,3.317 3.458,5.393c0.768,2.164 1.672,4.312 1.327,6.663c-0.315,2.145 -1.38,3.974 -3.09,5.299c-1.446,1.124 -2.561,2.124 -2.525,4.297c0.045,2.765 0.019,5.539 0.105,8.306c0.019,0.605 -0.007,1.181 -0.167,1.794c-0.316,1.212 0.079,2.384 0.846,3.307c1.45,1.734 2.076,3.659 1.799,5.897c-0.058,0.46 -0.254,0.823 -0.548,1.165c-1.062,1.227 -2.315,2.169 -3.931,2.504c-1.533,0.318 -2.633,1.456 -4.03,2.042c-0.737,0.311 -1.43,0.713 -2.207,0.962c-0.962,0.306 -1.82,0.813 -2.679,1.377c-1.224,0.808 -2.578,1.449 -3.943,1.997c-0.845,0.337 -1.722,0.603 -2.492,1.083c-1.617,1.007 -3.437,1.533 -5.183,2.227c-0.915,0.368 -1.65,1.16 -2.771,1.107c-0.227,-0.01 -0.751,0.258 -0.842,0.887c-0.201,1.39 -1.538,1.911 -2.494,2.657c-0.644,0.502 -1.143,0.77 -1.167,1.782c-0.024,1.023 -0.701,2.021 -0.524,3.135c0.325,2.083 -0.316,2.21 -1.918,2.645c-2.282,0.622 -4.606,0.466 -6.947,0.32c-3.269,-0.208 -6.524,-0.657 -9.832,-0.401c-3.274,0.251 -6.571,0.263 -9.843,-0.239c-0.167,-0.027 -0.337,-0.065 -0.504,-0.06c-3.384,0.115 -6.754,-0.426 -10.14,-0.204c-0.469,0.029 -0.945,0.087 -1.402,0.194c-2.291,0.533 -3.953,-0.492 -4.976,-2.363c-1.717,-3.14 -4.413,-5.464 -6.51,-8.269c-1.27,-1.701 -3.075,-2.729 -4.546,-4.164c-0.361,-0.349 -0.897,-0.495 -1.409,-0.473c-3.235,0.138 -5.526,-3.128 -5.581,-5.989c-0.063,-3.331 1.164,-5.796 3.728,-7.858c0.897,-0.722 1.703,-1.552 2.786,-2.124Z" style="fill:#ba6d42;fill-rule:nonzero;"/><path d="M23.313,62.222c0.005,-0.667 -0.072,-1.249 0.241,-1.775c0.206,-0.344 0.519,-0.557 0.919,-0.495c0.387,0.06 0.727,0.316 0.71,0.737c-0.043,1.205 0.019,2.432 -0.557,3.554c-0.153,0.301 -0.328,0.643 -0.751,0.521c-0.364,-0.105 -0.313,-0.443 -0.359,-0.746c-0.093,-0.629 -0.284,-1.246 -0.203,-1.796Z" style="fill:#ba6d42;fill-rule:nonzero;"/><path d="M21.668,72.134c0.437,-0.069 0.813,0.07 1.155,0.302c0.449,0.301 0.77,0.715 0.583,1.262c-0.189,0.548 -0.674,0.725 -1.231,0.663c-0.536,-0.058 -1.069,-0.139 -1.603,-0.201c-0.667,-0.072 -0.901,-0.478 -0.932,-1.1c-0.031,-0.651 0.399,-0.679 0.856,-0.718c0.402,-0.033 0.758,-0.308 1.172,-0.208Z" style="fill:#ba6d42;fill-rule:nonzero;"/><path d="M33.697,65.558c0.244,-0.686 0.452,-1.394 0.751,-2.064c0.174,-0.392 0.535,-0.6 1.002,-0.399c0.447,0.193 0.798,0.571 0.643,1.014c-0.297,0.844 -0.729,1.64 -1.134,2.441c-0.11,0.218 -0.337,0.345 -0.602,0.232c-0.536,-0.227 -0.474,-0.767 -0.66,-1.224Z" style="fill:#ba6d42;fill-rule:nonzero;"/><path d="M9.055,66.034c-0.043,-0.488 -0.057,-1.095 0.729,-1.189c0.656,-0.076 1.691,0.921 1.715,1.586c0.022,0.681 -0.636,1.451 -1.263,1.471c-0.731,0.023 -1.181,-0.644 -1.181,-1.868Z" style="fill:#ba6d42;fill-rule:nonzero;"/><path d="M40.797,77.941c-0.041,0.605 -0.426,0.858 -0.887,1.033c-0.476,0.182 -0.73,-0.033 -0.94,-0.469c-0.306,-0.633 -0.648,-1.262 -1.504,-1.294c-0.251,-0.009 -0.295,-0.236 -0.316,-0.447c-0.034,-0.303 0.179,-0.428 0.402,-0.504c0.59,-0.199 2.836,0.791 3.106,1.356c0.058,0.122 0.105,0.244 0.139,0.325Z" style="fill:#ba6d42;fill-rule:nonzero;"/><path d="M48.158,52.013c0.308,0.739 -0.574,1.363 -0.325,2.219c0.095,0.332 -0.524,0.461 -0.864,0.548c-0.444,0.112 -0.777,-0.158 -1.004,-0.531c-0.45,-0.73 -0.208,-3.162 0.366,-3.796c0.473,-0.519 1.222,-0.421 1.628,0.208c0.256,0.4 0.211,0.845 0.199,1.352Z" style="fill:#ba6d42;fill-rule:nonzero;"/><path d="M34.866,42.672c-0.177,0.753 -0.777,1.48 -0.825,2.427c-0.017,0.296 -0.648,0.28 -0.858,0.024c-0.354,-0.44 -0.84,-0.988 -0.816,-1.469c0.041,-0.801 0.16,-1.686 0.672,-2.374c0.45,-0.605 1.366,-0.426 1.621,0.291c0.113,0.309 0.127,0.656 0.206,1.101Z" style="fill:#ba6d42;fill-rule:nonzero;"/><path d="M53.424,63.929c-0.631,-0.088 -1.103,-0.48 -1.564,-0.87c-0.457,-0.388 -0.959,-0.737 -1.296,-1.258c-0.187,-0.292 -0.228,-0.569 -0.043,-0.847c0.227,-0.337 0.488,-0.136 0.791,-0.074c1,0.203 1.76,0.837 2.602,1.32c0.421,0.239 0.431,0.672 0.335,1.079c-0.096,0.414 -0.454,0.552 -0.825,0.65Z" style="fill:#ba6d42;fill-rule:nonzero;"/><path d="M20.919,45.647c-0.457,0.023 -0.696,-0.297 -0.98,-0.517c-0.448,-0.342 -0.692,-0.887 -1.208,-1.179c-0.223,-0.127 -0.234,-0.411 -0.093,-0.629c0.129,-0.198 0.332,-0.335 0.593,-0.227c0.913,0.368 1.679,0.968 2.422,1.585c0.175,0.149 0.153,0.433 0.017,0.658c-0.184,0.304 -0.474,0.337 -0.751,0.309Z" style="fill:#ba6d42;fill-rule:nonzero;"/><path d="M66.601,38.484c0.007,0.849 -1.031,2.121 -1.863,2.262c-0.383,0.063 -0.715,0.005 -0.957,-0.375c-0.256,-0.402 -0.05,-0.703 0.137,-1.021c0.186,-0.328 0.581,-0.474 0.574,-0.99c-0.008,-0.687 0.045,-1.5 1.037,-1.545c0.658,-0.029 1.062,0.638 1.072,1.669Z" style="fill:#ba6d42;fill-rule:nonzero;"/><path d="M61.053,31.554c0.004,0.05 0.026,0.33 -0.326,0.423c-0.31,0.079 -0.545,-0.074 -0.669,-0.333c-0.557,-1.138 -0.99,-2.336 -1.82,-3.338c-0.273,-0.33 0.017,-0.715 0.32,-0.957c0.357,-0.279 0.754,-0.277 1.124,-0.012c0.605,0.443 0.89,1.11 1.057,1.787c0.177,0.715 0.199,1.468 0.314,2.43Z" style="fill:#ba6d42;fill-rule:nonzero;"/><path d="M46.941,26.582c-0.68,-0.043 -1.124,-0.027 -1.552,-0.108c-0.5,-0.093 -0.88,-0.409 -0.866,-0.952c0.014,-0.509 0.416,-0.882 0.863,-0.827c1.115,0.136 2.284,-0.026 3.336,0.555c0.23,0.126 0.428,0.239 0.412,0.485c-0.015,0.247 -0.213,0.435 -0.455,0.493c-0.655,0.148 -1.315,0.27 -1.738,0.354Z" style="fill:#ba6d42;fill-rule:nonzero;"/><path d="M62.942,53.505c-0.005,0.332 -0.23,0.708 -0.679,0.866c-0.44,0.155 -0.864,-0.055 -1.007,-0.457c-0.335,-0.945 -0.584,-1.918 -0.851,-2.884c-0.067,-0.244 0.012,-0.467 0.244,-0.612c0.208,-0.132 0.373,-0.046 0.547,0.078c1.002,0.694 1.55,1.663 1.746,3.009Z" style="fill:#ba6d42;fill-rule:nonzero;"/></g></svg>