<?xml version="1.0" encoding="UTF-8" standalone="no"?><!DOCTYPE svg PUBLIC "-//W3C//DTD SVG 1.1//EN" "http://www.w3.org/Graphics/SVG/1.1/DTD/svg11.dtd"><svg width="100%" height="100%" viewBox="0 0 101 101" version="1.1" xmlns="http://www.w3.org/2000/svg" xmlns:xlink="http://www.w3.org/1999/xlink" xml:space="preserve" xmlns:serif="http://www.serif.com/" style="fill-rule:evenodd;clip-rule:evenodd;stroke-linejoin:round;stroke-miterlimit:1.41421;"><rect id="Sweets" x="0" y="0.175" width="100" height="100" style="fill:none;"/><clipPath id="_clip1"><rect x="0" y="0.175" width="100" height="100"/></clipPath><g clip-path="url(#_clip1)"><path d="M83.197,52.256c0.739,0.169 1.409,-0.169 2.079,0.016c0.138,0.035 0.39,-0.091 0.486,-0.221c0.343,-0.456 -0.02,-2.988 -0.439,-3.411c-0.218,-0.218 -0.447,-0.316 -0.708,-0.144c-0.225,0.146 -0.487,0.414 -0.327,0.659c0.385,0.599 -0.038,1.004 -0.254,1.458c-0.254,0.539 -0.539,1.062 -0.837,1.643Zm-19.583,-42.595c2.082,-2.191 3.634,-4.934 6.757,-5.905c0.252,-0.078 0.174,-0.298 0.11,-0.478c-0.076,-0.201 -0.201,-0.154 -0.357,-0.083c-1.278,0.595 -2.783,0.735 -3.694,2.049c-0.561,0.808 -1.249,1.529 -1.921,2.26c-0.519,0.563 -0.835,1.32 -0.895,2.157Zm17.194,45.243c0.639,0.872 1.378,1.554 2.224,2.028c0.465,0.261 0.962,0.833 1.674,0.477c0.982,-0.49 1.989,-0.933 3.069,-1.152c0.579,-0.118 0.683,-0.32 0.378,-0.848c-0.372,-0.648 -0.993,-1.04 -1.465,-1.581c-0.076,-0.089 -0.178,-0.231 -0.374,-0.107c-1.65,1.042 -3.571,0.835 -5.506,1.183Zm-51.466,-23.324c1.305,0.087 2.405,-0.352 3.433,-0.276c3.037,0.229 6.079,0.358 9.118,0.586c6.56,0.487 12.908,-0.375 19.022,-2.853c0.751,-0.305 1.559,-0.356 2.269,-0.91c1.187,-0.925 1.859,-2.158 2.645,-3.372c0.421,-0.654 0.541,-1.099 -0.033,-1.498c-0.637,-0.441 -0.808,0.356 -1.069,0.657c-1.196,1.378 -2.442,2.614 -4.377,2.859c-0.359,0.044 -0.713,0.26 -1.034,0.45c-3.787,2.233 -7.862,3.569 -12.248,3.894c-1.133,0.082 -2.245,0.338 -3.409,0.252c-4.037,-0.306 -8.078,-0.522 -12.131,-0.435c-0.696,0.014 -1.405,0.123 -2.186,0.646Zm-10.534,13.698c3.099,-1.592 6.348,-1.692 9.503,-1.85c2.356,-0.118 4.74,0.015 7.103,-0.201c1.895,-0.171 3.823,-0.173 5.655,-0.779c0.867,-0.285 1.719,-0.525 2.639,-0.597c2.093,-0.158 4.233,-0.171 6.255,-0.661c2.711,-0.657 5.346,-1.643 8.12,-2.106c2.605,-0.434 5.041,-1.479 7.374,-2.617c1.844,-0.897 3.917,-1.46 5.387,-3.123c1.16,-1.319 1.302,-2.728 0.017,-4.336c-0.601,2.797 -2.763,4.264 -4.905,5.478c-3.647,2.066 -7.437,3.954 -11.681,4.542c-1.434,0.2 -2.776,0.895 -4.235,0.851c-1.632,-0.052 -3.222,0.24 -4.753,0.639c-3.926,1.017 -7.936,1.376 -11.942,1.632c-3.235,0.205 -6.47,0.503 -9.725,0.545c-1.817,0.025 -3.846,0.285 -4.812,2.583Zm32.41,-41.497c-0.576,1.697 -1.681,3.064 -2.589,4.542c-1.089,1.775 -2.634,3.284 -4.342,4.284c-1.757,1.024 -3.033,2.296 -4.093,3.921c0.637,0.506 1.323,0.846 2.127,1.096c1.832,0.57 3.776,0.719 5.517,1.676c1.272,0.699 2.142,0.063 2.098,-1.347c-0.087,-2.81 0.735,-5.255 2.803,-7.209c0.481,-0.452 0.497,-0.869 0.187,-1.405c-0.692,-1.201 -0.968,-2.534 -1.242,-3.877c-0.112,-0.548 0.031,-1.173 -0.466,-1.681Zm36.592,53.608c-1.371,0.053 -2.36,0.821 -3.511,1.013c-0.091,0.015 -0.223,0.133 -0.236,0.22c-0.2,1.165 -1.194,1.864 -1.659,2.877c-1.625,3.52 -3.097,7.129 -4.409,10.748c-1.687,4.651 -3.288,9.387 -4.263,14.274c-0.524,2.63 -0.962,5.278 -1.457,8.003c1.009,-0.221 1.169,-1 1.359,-1.65c0.59,-1.993 1.137,-3.995 1.883,-5.938c0.915,-2.392 0.984,-5.033 2.191,-7.351c1.138,-2.188 2.238,-4.406 2.826,-6.828c0.298,-1.232 0.824,-2.334 1.79,-3.191c0.171,-0.156 0.236,-0.363 0.312,-0.588c1.088,-3.24 2.596,-6.303 3.972,-9.423c0.312,-0.71 0.755,-1.367 1.202,-2.166Zm-63.184,36.229c-0.131,-0.882 -0.225,-1.628 -0.354,-2.369c-0.721,-4.071 -1.498,-8.134 -2.167,-12.213c-0.855,-5.226 -1.863,-10.396 -3.974,-15.299c-0.494,-1.147 -1.262,-2.265 -1.443,-3.443c-0.285,-1.861 -1.543,-2.959 -2.571,-4.27c-0.121,-0.15 -0.23,-0.486 -0.49,-0.227c-0.517,0.509 -1.069,1.015 -1.43,1.625c-0.113,0.194 0.327,0.721 0.523,1.093c1.468,2.806 2.1,5.925 3.289,8.846c1.396,3.423 2.273,7.061 3.32,10.624c0.394,1.342 0.699,2.721 0.926,4.101c0.517,3.153 0.951,6.319 1.443,9.474c0.062,0.388 0.234,0.764 0.679,0.958c0.722,0.311 1.416,0.688 2.249,1.1Zm12.734,-39.231c1.888,0 3.654,0.069 5.411,-0.024c1.095,-0.061 2.171,-0.121 3.279,-0.08c2.08,0.075 4.16,-0.437 6.262,-0.357c0.037,0.002 0.077,-0.013 0.106,-0.033c2.209,-1.541 4.707,-2.409 7.217,-3.325c3.017,-1.095 5.927,-2.471 9.109,-3.088c0.614,-0.12 1.204,-0.369 1.797,-0.614c3.168,-1.307 4.388,-4.231 5.796,-6.956c0.483,-0.935 0.44,-2.107 0.374,-3.231c-0.147,0.058 -0.241,0.067 -0.265,0.111c-2.463,4.79 -6.339,7.898 -11.4,9.597c-2.561,0.859 -5.204,1.36 -7.847,1.897c-3.195,0.646 -6.346,1.539 -9.512,2.334c-3.503,0.879 -7.058,1.734 -10.327,3.769Zm40.894,-18.648c0.04,0.216 0.04,0.328 0.084,0.417c0.517,1.068 1.334,2.124 0.027,3.219c-0.105,0.089 -0.114,0.372 -0.073,0.544c0.202,0.857 -0.07,1.634 -0.557,2.266c-1.815,2.358 -3.367,4.981 -6.606,5.794c-2.011,0.501 -3.839,1.632 -5.881,2.057c-2.854,0.595 -5.446,1.851 -8.08,3.008c-0.664,0.292 -1.289,0.668 -1.937,1.009c0.211,0.325 0.443,0.347 0.674,0.327c1.944,-0.18 3.897,-0.037 5.838,-0.129c2.984,-0.14 5.961,-0.289 8.938,0.096c0.581,0.076 1.138,-0.002 1.701,-0.143c1.3,-0.322 2.285,-1.211 3.287,-1.983c1.676,-1.296 3.253,-2.708 4.277,-4.672c0.997,-1.908 1.002,-4.019 1.539,-6.016c0.329,-1.22 -0.092,-2.416 -0.381,-3.556c-0.325,-1.287 -1.537,-1.797 -2.85,-2.238Zm-40.259,62.105c0,-4.238 -0.087,-8.37 0.022,-12.498c0.113,-4.184 -0.873,-8.279 -0.762,-12.465c0.089,-3.322 -0.258,-6.653 0.212,-9.97c0.029,-0.192 0.044,-0.337 -0.125,-0.504c-1.044,-1.035 -1.665,-2.358 -2.378,-3.613c-0.352,-0.624 -0.543,-0.548 -0.935,-0.045c-0.788,1.026 -1.536,2.113 -2.696,2.777c-0.419,0.24 -0.194,0.472 -0.13,0.759c0.735,3.255 1.53,6.502 2.16,9.779c0.61,3.186 0.646,6.453 1.051,9.666c0.552,4.366 0.659,8.761 0.98,13.139c0.18,2.478 0.031,2.489 2.601,2.975Zm-21.037,-39.033c1.033,1.862 1.752,3.777 2.56,5.654c1.332,3.09 2.122,6.348 2.768,9.612c0.588,2.975 1,5.998 1.538,8.984c0.611,3.367 1.276,6.725 1.759,10.113c0.067,0.459 0.081,1.002 0.711,1.174c0.706,0.191 1.329,0.563 1.932,0.973c0.655,0.447 0.969,0.318 0.918,-0.519c-0.096,-1.605 -0.178,-3.208 -0.247,-4.814c-0.261,-5.992 -1.31,-11.865 -2.626,-17.706c-0.701,-3.121 -1.992,-6.063 -2.694,-9.16c-0.505,-2.227 -1.585,-4.052 -2.845,-5.849c-0.132,-0.187 -0.265,-0.503 -0.483,-0.241c-0.855,1.022 -2.149,1.236 -3.291,1.779Zm66.268,-0.316c-0.846,-0.672 -1.646,-1.311 -2.447,-1.95c-0.185,-0.145 -0.341,-0.506 -0.622,-0.129c-1.242,1.672 -3.386,2.723 -3.506,5.174c-0.038,0.775 -0.508,1.423 -0.855,2.1c-0.33,0.641 -0.775,1.253 -0.958,1.935c-1.59,6.005 -4.473,11.578 -5.606,17.764c-0.842,4.595 -2.036,9.138 -2.926,14.105c1.202,-1.496 2.723,-1.803 4.115,-2.358c0.463,-0.185 0.65,-0.481 0.79,-0.975c0.492,-1.766 0.657,-3.585 0.949,-5.382c0.719,-4.406 2.364,-8.554 3.455,-12.852c0.895,-3.529 2.694,-6.673 3.908,-10.057c0.942,-2.621 1.901,-5.226 3.703,-7.375Zm-26.381,40.54c0.728,-0.405 1.652,-0.047 2.489,-0.408c0.312,-0.133 0.477,-0.191 0.517,-0.578c0.505,-4.739 1.759,-9.337 2.658,-14.001c0.938,-4.852 2.539,-9.526 3.937,-14.251c0.67,-2.255 0.964,-4.622 1.895,-6.793c0.329,-0.768 0.59,-1.267 -0.274,-1.85c-0.862,-0.581 -1.089,-2.258 -2.282,-2.026c-1.042,0.2 -1.75,1.402 -2.554,2.215c-0.274,0.278 -0.646,0.537 -0.633,1.04c0.063,2.148 -0.452,4.244 -0.652,6.363c-0.565,6.057 -2.407,11.83 -3.814,17.695c-0.955,3.975 -2.541,7.791 -3.059,11.886c-0.045,0.338 -0.058,0.481 0.329,0.505c0.452,0.031 0.902,0.123 1.443,0.203Zm-22.591,-1.966c0,-1.492 0.096,-2.877 -0.018,-4.244c-0.296,-3.534 -0.363,-7.083 -0.835,-10.605c-0.392,-2.913 -0.481,-5.867 -0.906,-8.773c-0.423,-2.893 -1.234,-5.729 -1.628,-8.624c-0.329,-2.416 -1.298,-4.482 -2.641,-6.435c-0.356,-0.521 -0.605,-0.864 -1.389,-0.316c-1.02,0.713 -1.841,1.735 -3.088,2.122c-0.31,0.098 -0.236,0.296 -0.098,0.534c0.721,1.223 0.922,2.635 1.398,3.948c2.178,5.992 3.429,12.186 4.235,18.497c0.512,4.028 0.717,8.067 0.862,12.112c0.02,0.564 0.182,0.884 0.714,0.942c1.136,0.127 2.225,0.461 3.394,0.842Zm22.704,-69.855c-2.569,-0.8 -4.758,-1.697 -5.66,-4.278c-0.256,-0.734 -0.652,-1.031 -1.489,-1.017c-1.305,0.022 -2.592,0.24 -3.89,0.256c-3.832,0.051 -7.639,-0.045 -11.46,0.813c-2.287,0.512 -4.151,1.291 -5.689,3.003c-0.898,1 -1.203,2.294 -0.666,3.456c0.078,0.167 0.265,0.461 0.294,0.448c0.997,-0.437 1.921,0.271 2.868,0.187c1.402,-0.125 2.803,-0.495 4.204,-0.263c1.222,0.202 2.444,0.24 3.653,0.18c2.612,-0.136 5.195,0.715 7.838,0.08c1.049,-0.251 2.135,-0.514 3.262,-0.541c2.427,-0.058 4.467,-1.287 6.735,-2.324Zm3.942,71.037c-0.294,0.588 0.111,0.641 0.463,0.514c1.031,-0.374 2.079,-0.65 3.161,-0.828c0.363,-0.062 0.57,-0.207 0.651,-0.641c0.247,-1.3 0.654,-2.576 0.859,-3.881c0.866,-5.524 2.013,-11.024 3.736,-16.301c1.688,-5.166 3.189,-10.452 5.776,-15.308c1.149,-2.16 0.966,-2.084 -0.977,-3.282c-1.036,-0.641 -1.47,-0.341 -2.055,0.399c-0.237,0.294 -0.597,0.481 -0.86,0.754c-0.884,0.913 -1.841,1.711 -2.202,3.08c-0.318,1.205 -0.717,2.398 -1.024,3.611c-1.862,7.351 -4.467,14.504 -5.738,22.015c-0.557,3.297 -1.496,6.528 -1.79,9.868Zm2.798,-87.013c0.123,0.703 -0.2,1.151 0.383,1.405c0.254,0.109 0.403,0.376 0.297,0.672c-0.125,0.354 -0.444,0.392 -0.762,0.352c-1.222,-0.16 -2.158,-0.902 -3.088,-1.617c-0.279,-0.213 -0.39,-0.623 -0.031,-0.886c0.258,-0.189 0.574,-0.187 0.732,0.216c0.109,0.274 0.41,0.397 0.61,0.256c0.457,-0.323 0.267,-1.629 -0.254,-1.912c-1.776,-0.964 -3.645,-0.768 -5.412,-0.129c-3.22,1.16 -5.413,4.577 -5.262,8.338c0.102,2.49 0.966,4.785 2.734,6.669c1.165,1.24 2.665,1.409 4.211,1.476c0.937,0.042 1.792,-0.207 2.525,-0.844c0.249,-0.216 0.548,-0.423 0.859,-0.512c1.41,-0.398 2.309,-1.412 3.133,-2.523c0.343,-0.456 0.572,-1.035 0.998,-1.385c0.777,-0.643 0.826,-1.511 0.861,-2.353c0.043,-0.871 -0.049,-1.761 -0.193,-2.625c-0.272,-1.648 -0.735,-3.227 -2.341,-4.598Zm-19.033,84.326c-0.011,2.596 -0.004,2.567 1.71,2.892c0.522,0.098 1.063,0.031 1.566,0.287c0.661,0.334 1.055,0.002 1.075,-0.67c0.051,-1.679 0.276,-3.338 0.434,-5.005c0.234,-2.425 0.559,-4.836 0.882,-7.248c0.432,-3.251 1.129,-6.473 1.412,-9.735c0.38,-4.346 1.249,-8.572 2.427,-12.754c0.08,-0.287 0.263,-0.436 -0.172,-0.701c-1.104,-0.675 -2.075,-1.536 -2.868,-2.594c-0.785,-1.049 -0.968,-1.042 -1.687,0.04c-0.635,0.951 -1.098,2.042 -2.102,2.674c-0.581,0.365 -0.666,0.826 -0.646,1.436c0.192,5.825 -0.207,11.626 -0.637,17.432c-0.202,2.732 -0.392,5.458 -0.728,8.177c-0.274,2.193 -0.51,4.39 -0.666,5.769Zm5.409,3.228c0.759,0 1.599,-0.002 2.436,0c1.403,0.007 1.73,-0.305 1.81,-1.754c0.047,-0.92 0.171,-1.817 0.421,-2.708c1.334,-4.738 2.703,-9.467 3.95,-14.228c1.302,-4.976 2.157,-10.044 2.727,-15.154c0.092,-0.817 0.599,-1.741 0.163,-2.465c-0.839,-1.396 -1.939,-2.623 -3.191,-3.738c-0.639,0.779 -1.367,1.447 -1.812,2.268c-0.479,0.896 -1.554,1.303 -1.704,2.472c-0.601,4.676 -1.91,9.225 -2.253,13.968c-0.292,4.043 -1.213,8.038 -1.75,12.068c-0.408,3.048 -0.766,6.107 -0.797,9.271Zm-4.244,-32.878c0,-0.69 -0.033,-1.383 0.016,-2.068c0.022,-0.328 0.033,-0.528 -0.272,-0.769c-0.966,-0.772 -1.565,-1.863 -2.287,-2.841c-0.717,-0.968 -0.915,-0.997 -1.803,-0.091c-0.666,0.681 -1.091,1.67 -1.993,2.024c-1.116,0.439 -1.249,1.247 -1.278,2.236c-0.196,6.702 0.396,13.368 0.806,20.046c0.178,2.901 0.176,5.824 0.031,8.728c-0.069,1.454 -0.129,2.881 0.089,4.32c0.042,0.28 0.033,0.556 0.392,0.576c1.14,0.067 2.267,0.399 3.42,0.145c0.448,-0.098 0.706,-0.238 0.697,-0.811c-0.016,-1.222 0.02,-2.453 0.156,-3.667c0.327,-2.912 0.895,-5.807 1.053,-8.726c0.18,-3.313 0.416,-6.615 0.652,-9.924c0.216,-3.043 0.203,-6.118 0.321,-9.178Zm34.109,-11.05c-1.28,0.055 -2.5,-0.038 -3.756,0.142c-2.821,0.399 -5.631,1.069 -8.512,0.753c-1.042,-0.114 -2.002,-0.586 -3.118,-0.53c-2.905,0.145 -5.829,0.298 -8.726,0.129c-1.85,-0.109 -3.703,0.249 -5.568,-0.232c-1.314,-0.338 -2.71,0.274 -4.097,0.214c-0.648,-0.027 -1.232,-0.367 -1.92,-0.196c-2.324,0.584 -4.713,0.394 -7.078,0.474c-0.831,0.029 -1.672,-0.017 -2.498,-0.106c-1.911,-0.205 -3.692,-1.287 -5.7,-0.822c-0.134,0.031 -0.31,-0.031 -0.439,-0.098c-1.959,-1.009 -4.166,-1.336 -6.159,-2.26c-1.663,-0.773 -3.569,-0.692 -5.246,-1.398c-1.734,-0.728 -1.574,-0.706 -2.565,1.01c-0.554,0.96 -0.806,1.942 0.031,2.928c0.666,0.784 1.265,1.621 1.9,2.432c0.24,0.309 0.496,0.296 0.895,0.196c0.895,-0.223 1.556,-0.735 2.233,-1.312c0.9,-0.768 1.39,-0.621 1.966,0.39c0.414,0.724 0.935,1.387 1.343,2.113c0.336,0.606 0.648,0.608 1.153,0.192c0.88,-0.726 1.817,-1.383 2.706,-2.1c0.496,-0.399 0.926,-0.474 1.4,0.018c0.425,0.436 0.833,0.861 1.136,1.411c0.456,0.831 1.024,1.597 1.558,2.416c1.005,-0.764 1.679,-1.69 2.401,-2.576c0.872,-1.078 1.81,-1.015 2.525,0.147c0.581,0.942 1.193,1.864 1.739,2.826c0.396,0.697 0.906,0.621 1.418,0.26c0.403,-0.28 0.779,-0.637 1.066,-1.033c0.593,-0.828 1.372,-1.412 2.22,-1.946c0.557,-0.35 0.927,-0.376 1.283,0.283c0.416,0.766 0.919,1.489 1.432,2.2c1.238,1.725 1.872,1.674 2.963,-0.252c0.457,-0.802 0.98,-1.53 1.634,-2.189c0.628,-0.634 1.063,-0.541 1.595,0.083c0.819,0.953 1.592,1.948 2.574,2.765c0.706,0.59 1.097,0.448 1.576,-0.247c0.583,-0.848 1.236,-1.654 1.908,-2.434c0.993,-1.146 1.423,-1.142 2.492,-0.013c0.784,0.833 1.534,1.697 2.302,2.547c0.955,-0.835 1.728,-1.843 2.761,-2.589c1.403,-1.016 1.39,-1.047 2.599,0.265c0.414,0.449 0.835,0.901 1.175,1.405c0.383,0.563 0.679,0.641 1.109,0.051c0.869,-1.183 2.184,-1.915 3.124,-3.035c0.352,-0.421 0.835,-0.606 1.298,-0.176c0.666,0.619 1.585,0.744 2.289,1.258c0.374,0.272 0.612,0.207 0.824,-0.129c0.748,-1.189 2.031,-1.915 2.754,-3.235Zm-3.927,-21.801c0.302,-0.811 -0.459,-1.385 -0.575,-2.135c-0.069,-0.466 -0.563,-0.608 -0.882,-0.546c-0.318,0.06 -0.193,0.541 -0.274,0.835c-0.093,0.345 0.401,0.575 0.014,1.022c-0.813,0.94 -1.831,1.661 -2.628,2.596c-1.307,1.53 -3.366,1.884 -4.834,3.18c-1.155,1.02 -2.631,1.458 -4.099,1.913c-2.48,0.77 -5.15,0.717 -7.559,1.629c-1.915,0.726 -3.825,1.163 -5.847,1.25c-0.532,0.02 -1.278,-0.132 -1.552,0.153c-0.915,0.958 -2.109,0.982 -3.197,1.029c-1.742,0.071 -3.389,0.416 -5.048,0.884c-2.863,0.813 -5.743,1.434 -8.78,1.053c-1.153,-0.145 -2.367,0.269 -3.544,-0.147c-0.163,-0.056 -0.412,0.154 -0.624,0.214c-1.342,0.372 -2.739,0.579 -4.068,0.225c-0.893,-0.236 -1.612,-0.109 -2.409,0.178c-1.325,0.481 -2.391,1.302 -3.298,2.358c-0.167,0.198 -0.503,0.358 -0.429,0.628c0.082,0.323 0.501,0.369 0.75,0.363c2.545,-0.063 4.774,1.184 7.136,1.814c3.291,0.875 6.518,2.009 9.855,2.746c0.735,0.16 1.285,0.053 1.911,-0.385c1.5,-1.045 3.15,-1.904 4.869,-2.448c3.031,-0.959 6.083,-1.872 9.196,-2.558c1.668,-0.365 3.32,-0.797 4.981,-1.2c4.411,-1.071 8.958,-1.657 13.05,-3.843c1.637,-0.875 3.097,-1.953 4.344,-3.295c1.775,-1.911 2.632,-4.345 3.598,-6.707c0.116,-0.283 0.076,-0.514 -0.057,-0.806Zm-8.007,-10.532c-0.085,-0.015 -0.232,-0.069 -0.247,-0.042c-0.074,0.125 0.031,0.147 0.129,0.156c0.302,1.394 -0.512,2.509 -1.042,3.633c-1.067,2.252 -2.966,3.728 -5.237,4.632c-2.657,1.055 -5.605,1.131 -8.259,2.135c-2.946,1.116 -5.965,1.245 -8.991,1.154c-2.371,-0.074 -4.731,-0.112 -7.096,0.028c-0.488,0.027 -1.002,-0.213 -1.465,0.061c-0.791,0.467 -1.61,0.354 -2.436,0.173c-1.868,-0.403 -3.727,-0.659 -5.633,-0.156c-0.537,0.141 -1.252,0.236 -1.693,-0.002c-1.779,-0.962 -3.199,0.196 -4.344,1.007c-1.175,0.835 -1.814,2.427 -2.284,3.887c-0.274,0.855 -0.087,1.806 0.314,2.559c0.285,0.534 1.245,-0.334 1.71,0.383c1.351,-0.7 2.814,-0.495 4.25,-0.582c4.222,-0.253 8.448,-0.371 12.654,-0.921c1.737,-0.227 3.483,-0.419 5.19,-0.793c1.938,-0.421 3.864,-0.779 5.854,-0.908c2.236,-0.145 4.427,-0.76 6.589,-1.285c3.204,-0.782 6.212,-2.236 9.084,-3.87c1.81,-1.029 3.656,-2.173 4.473,-4.248c0.608,-1.546 0.513,-3.213 0.457,-4.854c-0.047,-1.332 -0.621,-1.987 -1.977,-2.147Zm7.59,31.335c1.744,-0.165 3.393,-0.757 5.097,-1.1c0.637,-0.127 1.144,-0.485 1.592,-1.051c2.082,-2.625 1.38,-5.183 -0.034,-7.788c-0.358,1.146 -0.619,2.297 -1.064,3.375c-1.151,2.788 -3.38,4.631 -5.749,6.337c-0.118,0.062 -0.234,0.125 -0.352,0.189c0.161,0.136 0.334,0.098 0.51,0.038Zm-30.602,-33.891c-1.572,-0.472 -3.113,-0.505 -4.596,0.334c1.481,-0.232 2.973,-0.102 4.455,-0.167c1.69,1.287 3.539,0.57 5.342,0.436c-1.728,-0.273 -3.507,-0.051 -5.201,-0.603Zm21.555,1.483c0.152,0.011 0.23,0.02 0.308,0.02c3.264,0.036 4.213,0.728 4.353,4.026c0.087,2.119 1.276,2.945 2.888,3.585c1.975,0.783 2.81,2.4 3.235,4.301c0.18,0.809 0.22,1.356 1.354,1.521c2.244,0.327 3.653,2.095 3.916,4.449c0.107,0.944 -0.151,2.01 0.207,2.823c0.633,1.443 0.655,3.247 2.303,4.182c1.066,0.605 1.278,1.817 1.647,2.879c0.072,0.211 0.074,0.454 0.083,0.681c0.064,1.715 0.14,3.347 1.821,4.495c0.79,0.539 0.926,1.706 1.084,2.684c0.076,0.463 0.06,0.926 -0.614,1.004c-0.519,0.058 -0.539,0.59 -0.726,0.942c-1.053,1.981 -1.826,4.085 -2.645,6.165c-1.056,2.685 -2.79,5.03 -3.723,7.771c-1.04,3.055 -2.305,6.018 -3.712,8.924c-0.855,1.766 -1.135,3.694 -1.425,5.604c-0.078,0.515 -0.191,0.916 -0.541,1.319c-0.951,1.104 -1.058,2.576 -1.527,3.881c-0.882,2.442 -3.57,4.495 -6.197,4.582c-0.359,0.013 -0.755,0.174 -1.058,0.376c-2.271,1.517 -4.94,2.294 -7.49,2.351c-2.456,0.056 -4.95,0.263 -7.461,0.074c-3.463,-0.258 -6.923,-0.946 -10.427,-0.612c-1.198,0.113 -2.305,-0.546 -3.501,-0.457c-1.282,0.094 -2.513,-0.461 -3.8,-0.289c-0.038,0.004 -0.087,0 -0.112,-0.022c-1.848,-1.726 -4.48,-1.103 -6.544,-2.203c-2.097,-1.12 -4.348,-1.917 -6.428,-3.083c-0.67,-0.374 -0.993,-0.86 -1.109,-1.599c-0.501,-3.24 -1,-6.482 -1.569,-9.71c-0.446,-2.539 -1.174,-5.01 -1.918,-7.475c-0.668,-2.209 -1.211,-4.473 -2.086,-6.604c-1.265,-3.097 -2.175,-6.306 -3.284,-9.45c-0.152,-0.432 -0.345,-0.788 -0.898,-0.363c-0.202,0.154 -0.529,0.169 -0.694,-0.138c-0.125,-0.238 0.102,-0.329 0.247,-0.434c1.567,-1.142 2.338,-2.748 2.616,-4.616c0.076,-0.541 0.265,-1.037 0.517,-1.496c1.436,-2.578 2.703,-5.266 4.704,-7.486c0.608,-0.675 0.76,-1.463 0.412,-2.231c-1.518,-3.36 2.281,-8.837 5.712,-9.458c0.93,-0.168 1.87,-0.279 2.796,-0.497c0.844,-0.196 1.2,-0.401 0.588,-1.307c-1.469,-2.173 -1.265,-3.6 0.441,-5.618c1.81,-2.14 4.248,-2.821 6.845,-3.242c0.826,-0.131 1.649,-0.287 2.451,-0.514c1.096,-0.312 1.541,-1.173 1.231,-2.543c-0.144,-0.637 -0.169,-1.249 0.098,-1.786c0.878,-1.761 1.79,-3.498 3.685,-4.455c2.16,-1.091 3.872,-2.761 5.222,-4.716c0.917,-1.334 1.846,-2.696 2.431,-4.259c0.287,-0.769 0.53,-1.501 0.503,-2.312c-0.011,-0.405 -0.017,-0.87 0.435,-0.939c0.463,-0.072 0.512,0.367 0.63,0.761c0.521,1.755 0.735,3.572 1.122,5.353c0.073,0.332 0.142,0.666 0.236,0.995c0.592,2.104 0.721,2.118 2.694,1.316c1.946,-0.788 3.959,-0.77 5.916,0.002c0.543,0.214 0.795,0.325 1.105,-0.329c0.941,-1.995 2.451,-3.58 4.112,-4.97c0.96,-0.804 2.309,-0.917 3.512,-1.229c0.61,-0.156 1.024,0.321 1.044,0.94c0.022,0.683 0.3,1.578 -0.713,1.808c-1.73,0.392 -2.897,1.545 -4.032,2.772c-0.051,0.055 -0.089,0.125 -0.138,0.185c-0.646,0.806 -1.581,1.525 -1.855,2.442c-0.272,0.917 0.944,1.548 1.36,2.425c1.192,2.52 1.459,6.163 0.363,8.804Z" style="fill:#ff00c2;fill-rule:nonzero;"/></g></svg>