<?xml version="1.0" encoding="UTF-8" standalone="no"?><!DOCTYPE svg PUBLIC "-//W3C//DTD SVG 1.1//EN" "http://www.w3.org/Graphics/SVG/1.1/DTD/svg11.dtd"><svg width="100%" height="100%" viewBox="0 0 101 101" version="1.1" xmlns="http://www.w3.org/2000/svg" xmlns:xlink="http://www.w3.org/1999/xlink" xml:space="preserve" xmlns:serif="http://www.serif.com/" style="fill-rule:evenodd;clip-rule:evenodd;stroke-linejoin:round;stroke-miterlimit:1.41421;"><rect id="Vegetables" x="0" y="0" width="100" height="100" style="fill:none;"/><clipPath id="_clip1"><rect x="0" y="0" width="100" height="100"/></clipPath><g clip-path="url(#_clip1)"><path d="M31.742,51.186c0.193,-0.122 0.384,-0.242 0.577,-0.362c-0.847,-2.979 -1.694,-5.959 -2.541,-8.938c-0.318,-0.009 -0.637,-0.021 -0.953,-0.03c-0.551,1.943 -1.102,3.886 -1.638,5.777c1.591,1.239 3.073,2.395 4.555,3.553Zm26.039,3.721c3.245,1.897 5.878,1.372 8.503,-0.277c-1.116,-2.489 -2.17,-4.838 -3.241,-7.224c-1.644,2.343 -3.398,4.844 -5.262,7.501Zm-18.272,41.384c6.191,2.533 11.974,2.381 17.637,-0.643c-1.533,-2.037 -3.45,-2.406 -5.89,-1.799c-1.473,0.367 -3.211,0.384 -4.662,-0.032c-2.949,-0.849 -5.016,0.257 -7.085,2.474Zm6.701,-44.181c4.625,-0.864 7.413,-3.977 10.563,-6.906c-3.032,-0.758 -2.811,-3.329 -3.304,-5.512c-0.894,-0.205 -1.748,-0.458 -2.621,-0.585c-1.151,-0.165 -2.097,-0.039 -2.792,1.222c-1.983,3.599 -2.603,7.362 -1.846,11.781Zm39.127,2.563c3.321,-1.072 5.435,-2.747 7.348,-4.655c2.052,-2.042 1.937,-2.501 -0.493,-3.938c-1.372,-0.812 -1.572,-2.822 -0.607,-4.046c0.948,-1.205 1.842,-2.513 2.451,-3.911c1.28,-2.934 0.875,-3.573 -1.88,-5.1c-1.585,-0.879 -3.899,-1.61 -2.16,-4.387c0.288,-0.463 -0.233,-1.833 -0.787,-2.352c-1.589,-1.493 -3.296,-2.544 -5.82,-1.932c-2.532,0.617 -2.329,2.361 -2.491,4.13c3.84,0.859 5.738,4.646 4.325,8.468c-0.223,0.605 -0.384,1.705 -0.071,1.958c1.76,1.432 1.535,3.293 1.357,5.142c-0.325,3.336 -0.729,6.664 -1.172,10.623Zm-7.78,-32.929c0.579,-0.648 1.374,-1.207 1.689,-1.966c0.476,-1.15 0.719,-2.426 0.877,-3.672c0.2,-1.591 0.556,-3.278 0.236,-4.795c-0.501,-2.378 -2.054,-3.175 -4.372,-2.479c-1.209,0.361 -2.28,1.184 -3.658,1.93c-0.53,-0.945 -1.042,-1.915 -1.609,-2.851c-2.292,-3.777 -4.646,-3.963 -7.087,-0.489c-0.69,0.982 -1.136,1.226 -1.992,0.223c-0.823,-0.957 -1.662,-2.355 -2.704,-2.578c-2.421,-0.519 -5.102,-1.235 -7.388,1.627c-0.508,-3.055 -2.283,-2.262 -3.778,-1.629c-1.542,0.654 -2.991,1.692 -2.618,3.69c0.152,0.809 0.881,1.51 1.527,2.55c-0.431,0.174 -1.197,0.483 -2.13,0.86c2.269,0 4.731,-0.701 6.255,0.195c1.547,0.909 2.17,3.392 3.378,5.501c0.873,-3.241 3.62,-3.839 6.199,-4.467c1.09,-0.264 2.541,-0.099 3.519,0.437c1.818,0.993 3.425,1.909 5.574,0.853c0.692,-0.34 1.756,-0.169 2.579,0.046c3.35,0.881 4.728,3.36 5.503,7.014Zm-6.594,34.375c-1.918,0.407 -3.468,0.557 -4.885,1.072c-2.376,0.866 -4.686,1.338 -7.19,0.523c-3.286,-1.07 -3.899,-2.889 -1.761,-5.65c1.184,-1.53 2.383,-3.052 3.588,-4.592c-2.11,-2.399 -3.065,0.017 -4.334,0.882c-2.565,1.751 -4.99,3.741 -7.69,5.236c-2.393,1.323 -3.973,0.397 -4.54,-2.172c-0.712,-3.227 -0.448,-6.369 0.982,-9.375c0.717,-1.514 1.48,-3.007 2.222,-4.508c-0.137,-0.193 -0.274,-0.386 -0.41,-0.579c-0.917,0.54 -2.05,0.892 -2.704,1.656c-1.402,1.638 -2.511,3.523 -3.825,5.241c-1.469,1.921 -3.318,2.12 -4.883,0.24c-1.136,-1.368 -1.758,-3.163 -2.683,-4.905c-1.874,0.204 -1.4,1.658 -1.076,2.949c0.774,3.09 1.651,6.155 2.385,9.255c0.154,0.646 -0.127,1.396 -0.208,2.099c-0.743,-0.089 -1.632,0.056 -2.205,-0.302c-2.573,-1.61 -5.058,-3.364 -7.557,-5.054c-0.982,0.566 -1.925,1.111 -2.901,1.675c0,1.72 0,3.42 0,5.264c0.759,0.081 1.651,0.137 2.53,0.275c4.682,0.737 9.116,2.099 11.756,6.411c1.216,1.988 1.926,4.304 2.749,6.515c2.026,5.449 3.806,10.954 4.074,16.844c0.103,2.267 -0.249,4.308 -1.741,6.075c-0.6,0.714 -1.186,1.441 -1.78,2.16c0.607,0.083 1.034,-0.05 1.31,-0.333c1.519,-1.546 3.314,-1.689 5.372,-1.443c2.132,0.257 4.355,0.395 6.461,0.077c2.125,-0.323 3.927,-0.184 5.653,1.274c-0.103,-0.705 -0.401,-1.274 -0.569,-1.879c-0.776,-2.781 -1.629,-5.549 -2.226,-8.371c-0.317,-1.503 -0.158,-3.105 -0.238,-4.662c-0.143,-2.833 -0.467,-5.668 -0.424,-8.498c0.094,-6.052 2.127,-8.702 8.292,-8.374c1.325,0.069 2.728,-0.084 3.993,-0.472c1.898,-0.581 3.912,-1.22 4.463,-4.554Zm12.197,-5.724c-0.603,-0.159 -0.826,-0.184 -1.019,-0.274c-0.785,-0.363 -1.559,-0.745 -2.337,-1.12c0.768,-0.435 1.625,-0.768 2.284,-1.331c0.77,-0.655 1.823,-1.452 1.938,-2.297c0.178,-1.306 -0.321,-2.709 -0.596,-4.06c-0.021,-0.1 -0.549,-0.081 -0.834,-0.145c-0.789,-0.172 -1.572,-0.361 -2.357,-0.543c0.448,-0.707 0.804,-1.495 1.36,-2.103c1.471,-1.602 1.014,-3.279 0.367,-5.001c-0.61,-1.626 -1.748,-1.958 -3.404,-1.684c-1.801,0.297 -2.356,-0.608 -1.565,-2.227c0.163,-0.335 0.519,-0.642 0.534,-0.972c0.054,-1.197 0.41,-2.676 -0.148,-3.508c-0.44,-0.654 -2.061,-0.541 -3.165,-0.704c-0.257,-0.038 -0.562,0.303 -0.824,0.275c-0.557,-0.058 -1.333,-0.082 -1.578,-0.431c-0.231,-0.324 0.015,-1.091 0.221,-1.591c0.193,-0.468 0.609,-0.845 0.929,-1.261c1.784,-2.318 1.556,-3.105 -1.047,-4.411c-1.419,-0.71 -2.455,-0.255 -3.328,0.802c-1.896,2.29 -1.808,2.243 -4.001,0.161c-0.959,-0.912 -2.177,-1.947 -3.389,-2.114c-2.521,-0.342 -4.518,1.627 -5.314,4.16c-0.563,1.79 -1.537,3.456 -2.412,5.133c-0.156,0.298 -0.838,0.62 -1.076,0.508c-0.384,-0.182 -0.777,-0.684 -0.86,-1.11c-0.401,-2.083 -0.611,-4.208 -1.059,-6.281c-0.59,-2.728 -2.943,-4.111 -5.557,-3.416c-3.027,0.802 -3.493,0.384 -3.887,-2.861c-0.123,-1.014 -0.569,-2.239 -1.298,-2.88c-2.149,-1.891 -4.61,-1.359 -6.261,1.012c-0.432,0.624 -1.079,1.302 -1.75,1.474c-0.363,0.092 -1.248,-0.745 -1.446,-1.321c-0.924,-2.653 -3.09,-2.288 -5.045,-2.083c-2.387,0.247 -3.835,1.782 -3.925,3.867c-0.053,1.235 0.566,2.989 -0.036,3.589c-0.708,0.704 -2.423,0.341 -3.678,0.573c-2.296,0.425 -3.22,2.294 -3.922,4.182c-0.602,1.618 0.491,2.401 1.857,3.014c0.397,0.178 0.807,1.01 0.706,1.414c-0.101,0.405 -0.813,0.873 -1.298,0.924c-1.653,0.18 -2.187,1.295 -2.648,2.644c-1.003,2.931 0.105,5.013 2.4,6.808c1.94,1.518 1.711,3.082 -0.558,3.989c-1.512,0.603 -3.163,0.864 -4.683,1.454c-0.656,0.257 -1.705,1.173 -1.61,1.43c0.964,2.597 -0.695,4.33 -1.763,6.313c-0.871,1.617 -1.132,3.794 0.405,4.731c1.986,1.213 1.563,2.517 1.287,4.125c-0.123,0.717 -0.264,1.572 0.01,2.183c0.286,0.639 1.036,1.47 1.626,1.504c3.347,0.195 3.349,0.122 3.103,3.414c-0.028,0.37 -0.157,0.909 0.032,1.093c1.211,1.173 2.329,2.677 3.802,3.281c1.748,0.716 1.88,-1.089 2.41,-2.346c0.47,-1.113 1.6,-1.947 2.438,-2.903c0.567,0.89 1.055,1.848 1.722,2.657c0.798,0.969 1.746,1.81 2.631,2.706c0.959,-1.036 2.046,-1.984 2.837,-3.137c0.545,-0.796 0.635,-1.892 1.019,-2.816c0.174,-0.416 0.57,-0.742 0.866,-1.109c0.38,0.406 0.865,0.759 1.118,1.233c0.386,0.721 0.613,1.527 0.905,2.297c1.25,-2.247 1.235,-4.299 -0.938,-5.215c-2.916,-1.231 -6.008,-2.074 -9.072,-2.908c-0.967,-0.262 -2.096,-0.354 -2.773,1.096c-0.23,0.495 -1.834,0.529 -2.773,0.429c-0.422,-0.045 -1.177,-1.222 -1.061,-1.39c0.999,-1.456 0.392,-3.701 2.551,-4.645c1.315,-0.576 1.965,-1.696 -0.015,-2.669c-1.359,-0.669 -1.057,-1.491 0.221,-1.954c1.098,-0.399 2.248,-0.658 3.687,-1.068c-0.378,-1.756 -0.73,-3.379 -1.081,-5.001c0.218,-0.06 0.437,-0.119 0.654,-0.178c0.519,0.693 1.016,1.405 1.567,2.072c0.625,0.757 1.3,1.473 1.954,2.206c0.347,-1.157 0.71,-2.307 1.029,-3.471c0.075,-0.273 -0.032,-0.594 -0.002,-0.888c0.088,-0.845 0.204,-1.688 0.328,-2.685c-0.392,-0.124 -1.068,-0.336 -1.981,-0.62c0.319,-0.838 0.59,-1.554 0.862,-2.27c0.665,0.257 1.331,0.516 2.033,0.787c2.438,-2.436 3.131,-2.387 4.093,0.471c2.299,-0.302 1.703,-2.839 3.24,-3.917c0.273,1.063 0.125,2.123 0.305,3.122c0.347,1.932 0.772,3.868 1.426,5.71c0.137,0.38 1.827,0.742 2.093,0.455c1.448,-1.563 2.676,-3.33 4.096,-5.183c-1.12,-0.652 -1.892,-1.289 -2.777,-1.578c-1.915,-0.624 -1.624,-2.104 -1.488,-3.496c0.032,-0.328 0.51,-0.722 0.87,-0.86c0.195,-0.075 0.663,0.256 0.849,0.519c0.284,0.406 0.436,0.909 0.654,1.388c1.793,-2.222 3.118,-2.003 4.628,0.716c3.41,-2.627 4.452,1.295 6.5,2.509c-0.114,-0.495 -0.404,-0.718 -0.569,-1.012c-0.666,-1.186 -1.057,-2.565 0.363,-3.305c1.289,-0.671 1.797,0.549 2.447,1.548c1.009,1.549 2.298,2.887 0.849,4.83c-0.107,0.143 0.06,0.589 0.219,0.808c0.855,1.188 1.749,2.348 2.748,3.674c0.55,-0.477 0.995,-0.995 1.557,-1.3c0.363,-0.2 0.897,-0.094 1.354,-0.125c0.104,2.462 1.456,2.887 3.52,2.16c0.043,-0.013 0.116,0.094 0.183,0.12c0.847,0.333 3.071,4.259 2.936,5.217c-0.082,0.583 -0.208,1.16 -0.313,1.741c0.669,-0.214 1.333,-0.45 2.009,-0.624c0.253,-0.066 0.542,0.011 1.074,0.035c-0.304,0.781 -0.757,1.389 -0.705,1.951c0.064,0.669 0.398,1.653 0.898,1.883c2.792,1.291 2.814,1.224 2.056,4.197c-0.087,0.34 -0.012,0.72 -0.012,0.982c1.098,0.508 2.082,0.961 3.165,1.46c0.227,-0.24 0.545,-0.463 0.709,-0.77c0.953,-1.775 1.871,-3.484 4.334,-3.508c0.53,-0.006 1.36,-0.83 1.519,-1.422c0.437,-1.608 0.587,-3.294 0.851,-4.934Zm-51.23,-43.034c3.352,-3.119 7.101,-3.523 11.113,-0.557c1.162,-2.376 2.311,-5.046 5.174,-5.042c3.373,0.001 6.467,-0.825 9.656,-1.642c2.539,-0.65 3.646,1.473 4.656,3.156c2.401,-0.499 4.707,-1.389 6.999,-1.348c2.962,0.053 3.285,2.976 4.259,5.204c0.396,-0.101 0.804,-0.229 1.222,-0.309c5.44,-1.051 9.259,3.287 7.617,8.661c-0.197,0.64 -0.459,1.261 -0.703,1.885c-1.056,2.707 -0.67,3.369 2.221,3.798c4.282,0.635 7.975,3.963 9.067,8.136c0.081,0.309 0.309,0.748 0.561,0.823c2.816,0.845 3.249,3.324 3.768,5.627c0.523,2.316 -0.238,4.424 -1.685,6.281c-0.23,0.294 -0.449,0.594 -0.667,0.883c2.442,4.017 1.743,5.702 -1.396,10.107c-2.104,2.955 -6.474,4.576 -9.667,3.549c-0.551,1.374 -1.323,2.753 -1.651,4.229c-0.545,2.474 -2.932,4.006 -5.88,3.476c-0.436,-0.079 -1.021,-0.513 -1.253,-0.358c-3.444,2.294 -3.531,-1.343 -5.02,-2.947c-2.807,2.258 -6.188,2.091 -9.533,2.222c-2.585,0.103 -3.955,1.128 -4.086,3.774c-0.207,4.239 0.253,8.511 0.076,12.753c-0.17,4.102 1.164,7.702 2.659,11.38c1.509,3.703 0.756,5.726 -3.142,7.255c-5.466,2.146 -10.745,2.11 -16.179,0.355c-0.069,-0.023 -0.135,-0.062 -0.206,-0.087c-1.192,-0.425 -3.42,-0.895 -3.403,-1.263c0.09,-1.928 0.561,-3.901 1.269,-5.715c0.575,-1.476 2.209,-2.675 2.41,-4.132c0.328,-2.366 0.219,-4.924 -0.33,-7.255c-1.055,-4.467 -2.55,-8.833 -3.753,-12.877c-1.443,0.163 -2.618,0.216 -3.756,0.452c-0.743,0.151 -1.59,0.397 -2.119,0.892c-3.168,2.964 -5.908,3.29 -9.738,0.989c-0.178,0.079 -0.42,0.12 -0.577,0.259c-3.137,2.726 -5.637,2.777 -8.783,0.106c-0.437,-0.371 -1.01,-0.955 -0.993,-1.42c0.122,-3.075 -2.103,-4.647 -3.8,-6.676c-0.849,-1.014 -0.776,-2.785 -1.175,-4.196c-0.186,-0.658 -0.328,-1.488 -0.795,-1.877c-1.943,-1.633 -2.655,-5.206 -1.551,-7.605c0.852,-1.853 1.724,-3.768 2.121,-5.748c0.774,-3.853 3.416,-5.588 6.834,-6.643c-3.658,-4.314 -3.662,-7.312 -0.086,-11.292c-2.148,-4.696 0.472,-9.618 5.584,-10.726c0.564,-0.123 1.195,-1.045 1.364,-1.709c1.364,-5.327 4.846,-7.896 9.959,-6.764c1.078,0.238 2.009,1.141 3.338,1.936Z" style="fill:#00ff2a;fill-rule:nonzero;"/></g></svg>