<?xml version="1.0" encoding="UTF-8" standalone="no"?><!DOCTYPE svg PUBLIC "-//W3C//DTD SVG 1.1//EN" "http://www.w3.org/Graphics/SVG/1.1/DTD/svg11.dtd"><svg width="100%" height="100%" viewBox="0 0 101 101" version="1.1" xmlns="http://www.w3.org/2000/svg" xmlns:xlink="http://www.w3.org/1999/xlink" xml:space="preserve" xmlns:serif="http://www.serif.com/" style="fill-rule:evenodd;clip-rule:evenodd;stroke-linejoin:round;stroke-miterlimit:1.41421;"><rect id="WhiteMeat" x="0.19" y="0" width="100" height="100" style="fill:none;"/><g><path d="M20.48,31.762c-8.016,-0.512 -7.654,1.013 -10.233,7.113c4.061,-1.433 6.106,-5.748 10.233,-7.113Zm45.212,-3.249c1.738,0.029 2.651,1.568 4.153,2.084c8.605,2.964 15.829,7.717 20.105,16.12c0.166,0.325 0.2,0.869 0.745,0.857c1.756,-0.041 3.535,0.579 5.269,-0.139c0.64,-0.266 1.527,-0.622 1.484,-1.247c-0.053,-0.718 -0.983,-1.003 -1.701,-1.086c-4.974,-0.582 -7.844,-4.248 -10.585,-7.713c-1.656,-2.09 -3.076,-4.379 -4.798,-6.491c-3.541,-4.346 -9.919,-4.374 -14.672,-2.385Zm-28.223,23.867c-0.825,-1.514 -0.186,-2.038 1.271,-2.014c0.95,0.017 1.914,0.141 2.847,0.027c0.664,-0.082 1.419,-0.434 0.434,-1.245c-0.319,-0.26 -0.716,-0.561 -0.528,-1.007c0.219,-0.514 0.737,-0.421 1.226,-0.428c0.95,-0.01 2.299,0.246 2.78,-0.268c1.662,-1.77 3.351,-3.488 5.199,-5.064c0.428,-0.366 0.217,-1.023 -0.198,-1.476c-0.391,-0.423 -0.86,-0.429 -1.292,-0.133c-2.655,1.816 -5.86,2.407 -8.658,3.908c-2.42,1.298 -5.339,1.107 -7.717,2.456c-3.971,2.256 -8.487,2.753 -12.705,4.184c-3.564,1.21 -7.529,1.711 -9.619,5.703c-1.635,3.123 -0.905,6.802 2.248,8.593c1.293,0.737 2.673,1.32 3.975,2.036c3.16,1.74 6.957,1.699 10.071,3.63c-6.948,0.933 -13.242,-1.325 -19.503,-3.982c2.024,1.03 2.898,3.468 5.08,4.023c3.813,0.97 7.5,2.263 11.168,3.659c2.078,0.791 4.378,1.028 6.409,0.266c1.576,-0.589 2.792,-1.381 4.458,-0.249c0.542,0.368 1.556,-0.037 2.356,-0.141c1.76,-0.226 3.273,-2.148 5.359,-0.617c0.839,0.614 1.957,-0.824 1.619,-1.979c-1.191,-4.079 -4.241,-6.538 -7.621,-8.662c-1.903,-1.196 -3.915,-2.219 -5.586,-3.761c-0.853,-0.79 -1.527,-1.639 -0.714,-2.835c0.716,-1.058 -0.102,-1.128 -0.778,-1.158c-0.446,-0.023 -1.054,0.733 -1.24,-0.248c-0.123,-0.667 0.548,-0.847 0.98,-1.158c0.698,-0.504 1.437,-0.344 2.158,-0.133c1.031,0.298 2.046,0.354 3.24,0.145c-0.545,-0.627 -1.001,-1.087 -1.65,-0.95c-0.559,0.121 -0.995,0.16 -1.017,-0.512c-0.021,-0.532 0.36,-0.829 0.906,-0.911c0.754,-0.114 1.532,-0.214 2.217,0.117c0.866,0.42 1.716,0.358 2.825,0.184Zm23.716,-2.35c-4.723,-0.026 -5.214,0.297 -7.24,2.874c-0.539,0.686 -1.267,1.642 -2.539,1.452c-0.675,-0.099 -1.531,0.122 -1.766,0.775c-0.514,1.448 -1.891,2.342 -2.419,3.605c-1.622,3.875 -3.251,7.862 -0.797,12.075c0.358,0.616 0.6,1.431 0.549,2.127c-0.105,1.412 0.78,2.112 1.801,2.396c5.379,1.509 10.74,1.931 16.181,-0.03c7.434,-2.678 14.644,-6.309 22.915,-5.764c1.478,0.096 2.561,-1.351 2.205,-2.524c-0.528,-1.748 -1.589,-2.569 -3.527,-2.657c-1.994,-0.092 -4.161,-0.19 -5.867,-1.306c-2.79,-1.824 -5.225,-4.123 -7.452,-6.63c-3.4,-3.83 -7.13,-7.045 -12.044,-6.393Zm21.193,10.579c-0.745,-2.593 -0.698,-2.618 2.055,-2.383c0.874,0.074 1.789,0.035 2.647,-0.139c2.714,-0.546 3.214,-1.332 2.516,-3.985c-0.426,-1.621 -1.316,-3.23 -1.548,-4.757c-0.46,-3.046 -2.21,-5.261 -4.024,-7.265c-5.095,-5.623 -12.007,-8.619 -18.895,-11.151c-5.729,-2.109 -11.762,-3.621 -17.906,-4.344c-2.168,-0.254 -4.371,-0.569 -6.514,-0.245c-3.148,0.472 -6.194,1.52 -9.264,2.341c-2.065,0.555 -4.327,1.273 -6.051,2.714c-1.652,1.378 -3.426,2.457 -5.4,3.243c-2.376,0.945 -3.62,3.285 -5.714,4.583c-3.879,2.407 -7.013,5.623 -9.764,9.225c-1.255,1.638 -2.559,3.484 -1.771,5.576c1.105,2.931 1.003,6.364 3.461,8.746c0.369,0.359 0.67,0.903 1.433,0.807c-0.039,-0.452 -0.02,-0.921 -0.125,-1.359c-0.966,-4.035 1.106,-8.626 4.825,-10.425c2.868,-1.386 5.83,-2.487 8.968,-3.204c4.488,-1.023 8.701,-2.964 13.065,-4.372c4.792,-1.545 9.459,-3.269 13.905,-5.608c1.373,-0.721 2.634,-0.459 3.772,0.538c1.153,1.005 1.726,2.491 1.026,3.668c-0.809,1.365 -1.153,3.412 -3.392,3.594c-0.618,0.05 -0.829,0.834 -1.138,1.358c-0.305,0.522 -0.498,1.269 -0.956,1.516c-3.001,1.624 -5.304,4.229 -8.411,5.742c-2.27,1.103 -4.783,1.635 -7.152,3.05c3.503,2.906 7.852,4.28 10.71,8.011c0.151,-0.532 0.221,-0.704 0.245,-0.884c0.932,-6.315 3.337,-11.522 9.048,-15.231c5.49,-3.566 16.398,-3.224 21.085,2.923c1.234,1.617 2.794,3.007 4.319,4.378c1.472,1.329 2.698,3.091 4.945,3.339Zm8.638,-10.64c2.575,8.914 0.835,7.997 -3.301,11.842c0.26,0.515 0.788,0.433 1.228,0.548c2.118,0.555 4.358,2.739 4.083,3.977c-0.945,4.225 -2.54,5.875 -5.678,5.639c-1.439,-0.108 -2.847,-0.178 -4.278,0.07c-5.719,0.993 -11.084,3.138 -16.477,5.158c-5.189,1.939 -10.415,2.319 -15.805,0.991c-1.856,-0.459 -3.805,-0.62 -5.115,-2.229c-0.491,-0.604 -0.856,-0.104 -1.187,0.045c-2.602,1.161 -5.347,1.384 -8.149,1.627c-3.171,0.279 -6.323,0.913 -9.502,0.336c-6.423,-1.169 -13.112,-1.337 -18.735,-5.437c-2.688,-1.963 -4.301,-4.288 -4.176,-7.672c0.017,-0.409 0.068,-0.788 -0.207,-1.164c-1.803,-2.491 -1.909,-5.615 -3.08,-8.345c-0.469,-1.089 -0.571,-2.246 -0.082,-3.382c1.646,-3.805 2.534,-7.95 5.234,-11.285c1.797,-2.225 3.338,-4.603 4.323,-7.348c0.974,-2.722 5.087,-4.612 8.824,-4.084c1.222,0.174 2.442,0.07 3.339,-0.454c2.659,-1.548 5.604,-2.422 8.304,-3.885c3.306,-1.793 6.839,-3.232 10.615,-3.842c1.601,-0.26 2.741,0.452 2.948,2.032c0.125,0.977 0.499,0.991 1.263,1.042c3.731,0.244 7.412,0.77 10.988,1.967c1.727,0.58 3.543,0.917 5.334,1.286c0.714,0.149 1.386,0.045 2.121,-0.375c4.959,-2.841 10.191,-3.148 15.098,-0.292c3.338,1.942 5.686,5.119 7.8,8.48c2.225,3.533 4.884,6.873 9.578,7.506c0.962,0.129 1.953,0.7 2.741,1.312c2.401,1.871 0.36,4.577 -1.81,5.539c-1.893,0.837 -3.965,0.739 -6.239,0.397Z" style="fill:#ff9e00;fill-rule:nonzero;"/><path d="M35.926,33.219c-0.838,0.133 -1.693,0.131 -1.576,-1.099c0.135,-1.414 1.037,-2.135 2.423,-2.227c1.206,-0.08 1.775,0.544 1.668,1.723c-0.141,1.55 -1.195,1.761 -2.515,1.603Z" style="fill:#ff9e00;fill-rule:nonzero;"/><path d="M55.312,31.33c-0.573,0.671 -0.258,2.266 -1.793,2.2c-1.093,-0.047 -1.672,-0.96 -1.634,-2.006c0.048,-1.156 0.815,-1.956 1.957,-1.983c0.899,-0.021 1.445,0.665 1.47,1.789Z" style="fill:#ff9e00;fill-rule:nonzero;"/><path d="M70.263,34.39c1.248,0.094 1.758,0.95 1.758,1.906c0,0.935 -0.643,1.623 -1.734,1.535c-1.169,-0.094 -1.643,-1.12 -1.738,-1.943c-0.106,-0.958 0.844,-1.379 1.714,-1.498Z" style="fill:#ff9e00;fill-rule:nonzero;"/><path d="M59.866,34.963c0.107,-1.05 0.705,-1.777 1.947,-1.754c0.923,0.018 1.674,0.553 1.658,1.468c-0.031,1.641 -1.605,1.424 -2.598,1.733c-1.052,0.326 -0.906,-0.673 -1.007,-1.447Z" style="fill:#ff9e00;fill-rule:nonzero;"/><path d="M37.86,38.414c-0.716,-0.2 -1.31,-0.54 -1.216,-1.383c0.135,-1.212 0.915,-1.749 2.08,-1.802c0.708,-0.032 0.97,0.334 0.925,1.011c-0.08,1.165 -0.721,1.853 -1.789,2.174Z" style="fill:#ff9e00;fill-rule:nonzero;"/><path d="M47.024,30.323c-0.282,0.95 -0.935,1.265 -1.84,1.214c-0.876,-0.05 -1.421,-0.477 -1.374,-1.372c0.058,-1.087 0.919,-1.189 1.748,-1.187c0.881,0 1.261,0.606 1.466,1.345Z" style="fill:#ff9e00;fill-rule:nonzero;"/><path d="M28.066,37.839c-1.139,-0.049 -1.163,-0.811 -1.22,-1.474c-0.08,-0.937 0.546,-1.41 1.355,-1.441c0.718,-0.026 1.289,0.344 1.215,1.257c-0.079,0.968 -0.724,1.376 -1.35,1.658Z" style="fill:#ff9e00;fill-rule:nonzero;"/><path d="M74.6,40.795c0.021,0.888 -0.444,1.298 -0.98,1.31c-0.895,0.018 -1.278,-0.727 -1.382,-1.49c-0.084,-0.633 0.196,-1.364 0.911,-1.343c0.982,0.029 0.71,1.353 1.451,1.523Z" style="fill:#ff9e00;fill-rule:nonzero;"/><path d="M79.895,42.791c0.846,0.167 1.147,0.882 1.341,1.588c0.197,0.71 -0.462,0.727 -0.9,0.79c-0.666,0.098 -1.237,0.008 -1.21,-0.899c0.018,-0.618 -0.06,-1.25 0.769,-1.479Z" style="fill:#ff9e00;fill-rule:nonzero;"/><path d="M52.487,65.225c1.169,-0.17 1.826,0.673 1.92,1.738c0.105,1.181 -0.827,1.819 -1.918,1.952c-1.355,0.164 -1.932,-1.15 -2.114,-1.936c-0.258,-1.114 0.755,-1.758 2.112,-1.754Z" style="fill:#ff9e00;fill-rule:nonzero;"/><path d="M61.346,69.325c-1.142,-0.021 -1.819,-0.283 -1.506,-1.198c0.348,-1.021 -0.002,-2.657 1.963,-2.497c1.201,0.1 1.512,0.909 1.451,1.81c-0.092,1.297 -1.134,1.701 -1.908,1.885Z" style="fill:#ff9e00;fill-rule:nonzero;"/><path d="M73.311,68.168c-0.733,0.543 -0.324,2.223 -1.47,2.209c-0.737,-0.012 -2.287,-0.473 -2.311,-1.558c-0.027,-1.244 1.312,-1.754 2.378,-2.037c0.784,-0.208 1.151,0.531 1.403,1.386Z" style="fill:#ff9e00;fill-rule:nonzero;"/><path d="M73.804,62.101c-0.234,0.972 -0.852,1.799 -1.975,1.859c-0.752,0.037 -1.765,-0.17 -1.708,-1.269c0.064,-1.169 0.51,-2.086 2.004,-2c0.926,0.053 1.617,0.198 1.679,1.41Z" style="fill:#ff9e00;fill-rule:nonzero;"/><path d="M56.282,61.233c-0.874,-0.047 -1.482,-0.419 -1.308,-1.254c0.25,-1.214 1.194,-1.789 2.381,-1.878c0.786,-0.059 1.371,0.33 1.33,1.184c-0.069,1.559 -1.402,1.598 -2.403,1.948Z" style="fill:#ff9e00;fill-rule:nonzero;"/><path d="M62.707,55.911c-0.153,0.661 -0.319,1.677 -1.205,1.445c-1.013,-0.264 -1.603,-1.254 -1.638,-2.38c-0.018,-0.594 0.017,-1.439 0.864,-1.279c1.087,0.204 2.004,0.802 1.979,2.214Z" style="fill:#ff9e00;fill-rule:nonzero;"/><path d="M67.516,56.906c0.904,0.078 1.349,0.602 1.338,1.48c-0.012,1.195 -1.134,1.347 -1.858,1.541c-0.778,0.209 -1.159,-0.636 -1.149,-1.355c0.019,-1.017 0.574,-1.647 1.669,-1.666Z" style="fill:#ff9e00;fill-rule:nonzero;"/></g></svg>