<?xml version="1.0" encoding="UTF-8" standalone="no"?><!DOCTYPE svg PUBLIC "-//W3C//DTD SVG 1.1//EN" "http://www.w3.org/Graphics/SVG/1.1/DTD/svg11.dtd"><svg width="100%" height="100%" viewBox="0 0 379 663" version="1.1" xmlns="http://www.w3.org/2000/svg" xmlns:xlink="http://www.w3.org/1999/xlink" xml:space="preserve" xmlns:serif="http://www.serif.com/" style="fill-rule:evenodd;clip-rule:evenodd;stroke-linejoin:round;stroke-miterlimit:1.41421;"><rect id="Dessert" x="0.788" y="0.611" width="378" height="662" style="fill:none;"/><clipPath id="_clip1"><rect x="0.788" y="0.611" width="378" height="662"/></clipPath><g clip-path="url(#_clip1)"><g><path d="M213.391,663.611l127.013,0c3.351,0 6.087,-2.743 6.087,-6.09l0,-0.004c0,-3.347 -2.736,-6.09 -6.087,-6.09l-127.013,0c-3.354,0 -6.09,2.743 -6.09,6.09l0,0.004c0,3.347 2.736,6.09 6.09,6.09" style="fill:#bbd8e6;"/><path d="M296.687,652.588c-5.194,-7.704 -12.623,-12.593 -12.623,-39.689l0,-40.488c0,-29.074 10.227,-43.349 21.346,-54.986l-57.028,0c11.123,11.641 21.343,25.919 21.343,54.989l0,40.478c0,27.09 -7.426,31.992 -12.62,39.696c7.556,10.453 30.55,6.903 39.582,0" style="fill:#bbd8e6;"/><path d="M249.357,518.457c10.738,11.456 20.371,25.741 20.371,53.96l0,40.474c0,21.25 -4.57,28.848 -9.05,34.855c15.717,1.555 14.645,-35.157 14.645,-46.338l0,-40.492c0,-12.88 -0.003,-36.245 -5.496,-43.492c-4.504,-5.932 -13.8,3.337 -20.47,1.033" style="fill:#99b9c9;"/><path d="M214.638,663.611l124.517,0c4.034,0 7.337,-2.743 7.337,-6.09l-139.193,0c0,3.347 3.302,6.09 7.339,6.09" style="fill:#99b9c9;"/><path d="M340.139,332.611l-126.484,0c-6.481,17.927 -40.526,77.152 -22.816,128.568c13.255,38.49 49.04,60.441 86.055,60.441c37.017,0 72.803,-21.951 86.061,-60.441c17.711,-51.419 -16.331,-110.641 -22.816,-128.568" style="fill:#99b9c9;"/><path d="M237.516,332.611l-10.835,0c-5.149,17.264 -32.184,74.31 -18.123,123.837c5.613,19.76 16.304,34.993 29.521,44.914c-6.465,-9.77 -11.635,-22.29 -14.769,-37.251c-11.03,-52.593 10.168,-113.165 14.206,-131.5" style="fill:#bbd8e6;"/><path d="M190.342,394.646c-5.177,21.037 -7.092,44.501 0.498,66.534c13.255,38.49 49.044,60.437 86.058,60.437c37.014,0 72.799,-21.947 86.058,-60.437c7.586,-22.033 5.671,-45.497 0.497,-66.534l-173.111,0Z" style="fill:#a24900;"/><path d="M340.139,332.611l-79.404,0c-4.508,17.927 -28.168,77.152 -15.857,128.568c7.837,32.754 27.017,53.527 48.415,58.992c30.783,-5.465 58.381,-26.238 69.662,-58.992c3.598,-10.447 5.06,-21.212 5.05,-31.889c-0.031,-41.886 -22.699,-82.395 -27.866,-96.679" style="fill:#bbd8e6;"/><path d="M327.115,332.611l-10.838,0c4.037,18.335 25.232,78.907 14.205,131.5c-3.141,14.961 -8.304,27.481 -14.768,37.251c13.213,-9.918 23.907,-25.154 29.516,-44.914c14.065,-49.527 -12.969,-106.573 -18.115,-123.837" style="fill:#e1f2fa;"/><path d="M244.391,394.646c-3.439,21.037 -4.71,44.501 0.33,66.534c7.491,32.754 25.823,53.527 46.276,58.989c29.424,-5.462 55.803,-26.235 66.59,-58.989c3.436,-10.447 4.833,-21.212 4.826,-31.889c-0.01,-11.847 -1.75,-23.581 -4.353,-34.645l-113.669,0Z" style="fill:#ba5705;"/><path d="M207.718,394.646c-3.766,19.667 -4.96,41.374 0.841,61.8c5.613,19.763 16.304,34.996 29.521,44.917c-6.465,-9.774 -11.635,-22.29 -14.769,-37.255c-4.83,-23.032 -3.478,-47.591 -0.096,-69.462l-15.497,0Z" style="fill:#919191;"/><path d="M330.578,394.646c3.381,21.871 4.734,46.43 -0.093,69.462c-3.141,14.965 -8.304,27.481 -14.772,37.255c13.217,-9.921 23.907,-25.154 29.52,-44.917c5.798,-20.426 4.607,-42.133 0.845,-61.8l-15.5,0Z" style="fill:#fff;"/></g><g><path d="M42.839,662.658c-19.897,0 -36.176,-14.727 -36.176,-32.731l0,-366.883c0,-71.957 50.078,-77.749 51.461,-103.065l7.862,-144.238l53.645,0l7.865,144.238c1.379,25.313 51.461,31.116 51.461,103.065l0,366.883c0,18.001 -16.283,32.731 -36.18,32.731l-99.938,0Z" style="fill:#a24900;"/><path d="M127.497,159.979c0.023,0.395 0.056,0.787 0.1,1.171c0.045,0.389 0.1,0.769 0.167,1.146c0.07,0.381 0.147,0.751 0.24,1.12c0.085,0.374 0.188,0.74 0.299,1.105c0.111,0.359 0.229,0.718 0.359,1.076c0.137,0.351 0.277,0.706 0.425,1.057c0.151,0.351 0.31,0.695 0.484,1.043c0.163,0.343 0.344,0.683 0.532,1.023c0.189,0.344 0.385,0.681 0.588,1.021c0.207,0.332 0.425,0.665 0.643,1.001c0.222,0.333 0.451,0.666 0.691,0.998c0.233,0.326 0.477,0.655 0.732,0.984c0.252,0.329 0.514,0.654 0.784,0.979l0,0.004c0.262,0.329 0.536,0.654 0.813,0.979c0.288,0.322 0.573,0.651 0.869,0.976c0.292,0.329 0.591,0.654 0.894,0.98c0.307,0.329 0.618,0.658 0.935,0.979c0.318,0.333 0.64,0.658 0.969,0.991l0.994,0.994l1.028,0.998l1.053,1.017l1.076,1.027l1.098,1.039l1.112,1.053l1.135,1.076l1.153,1.094l1.157,1.116l1.172,1.146l1.179,1.165l0,0.003c0.396,0.392 0.791,0.791 1.187,1.194c0.395,0.403 0.791,0.817 1.19,1.227c0.395,0.414 0.791,0.836 1.19,1.261c0.396,0.421 0.791,0.854 1.187,1.297c0.399,0.433 0.794,0.876 1.186,1.327c0.396,0.448 0.791,0.902 1.183,1.364c0.388,0.466 0.78,0.932 1.172,1.409c0.388,0.476 0.776,0.961 1.16,1.452c0.388,0.488 0.766,0.987 1.15,1.49l0,0.003c0.381,0.507 0.761,1.017 1.138,1.538c0.374,0.518 0.747,1.046 1.117,1.59c0.369,0.532 0.735,1.079 1.097,1.637c0.366,0.547 0.721,1.113 1.08,1.686c0.358,0.569 0.71,1.149 1.053,1.744c0.348,0.588 0.691,1.19 1.032,1.797c0.336,0.61 0.669,1.227 0.998,1.855c0.332,0.629 0.654,1.268 0.972,1.911c0.318,0.651 0.632,1.312 0.939,1.981c0.306,0.669 0.606,1.35 0.901,2.041c0.296,0.691 0.581,1.393 0.865,2.11c0.281,0.71 0.559,1.435 0.825,2.174c0.27,0.735 0.532,1.482 0.787,2.24c0.251,0.761 0.499,1.53 0.736,2.314c0.24,0.787 0.473,1.582 0.694,2.388c0.226,0.809 0.444,1.633 0.647,2.461c0.207,0.839 0.407,1.686 0.592,2.547c0.192,0.858 0.377,1.73 0.547,2.617c0.17,0.887 0.332,1.785 0.484,2.698c0.155,0.917 0.299,1.841 0.433,2.787c0.133,0.939 0.251,1.9 0.365,2.869c0.115,0.972 0.215,1.955 0.311,2.961c0.089,0.998 0.17,2.01 0.24,3.045c0.07,1.028 0.13,2.07 0.178,3.131c0.048,1.061 0.081,2.14 0.107,3.234c0.022,1.091 0.037,2.2 0.037,3.323l0,366.883c0,18.001 -16.283,32.731 -36.18,32.731l-62.623,0c-16.73,0 -26.765,-18.515 -26.765,-30.602l0,-369.012c0,-71.956 33.296,-77.719 33.374,-103.064l0.458,-144.235l32.41,0l7.865,144.235Z" style="fill:#ba5705;"/><path d="M66.237,152.395l5.777,-136.654l5.56,0l-4.111,136.654c-0.214,7.152 -7.089,6.745 -7.226,0m-40.212,477.528l0,-366.879c0,-41.617 12.989,-61.1 24.144,-75.028c1.394,-1.745 2.758,-3.401 4.074,-5.001c5.356,-6.509 12.164,-6.857 9.03,0c-0.887,1.952 -2.159,3.741 -3.264,5.777c-7.578,13.972 -15.569,33.881 -15.569,72.914l0,369.082c0,16.992 -18.415,10.831 -18.415,-0.865" style="fill:#ba5705;"/><path d="M131.378,183.016c1.711,1.682 3.079,3.748 4.687,5.77c11.011,13.879 23.523,33.411 23.523,74.255l0,366.883c0,18.618 -18.411,16.316 -18.411,2.022l0,-370.239c0,-38.457 -7.755,-58.347 -15.236,-72.297c-1.217,-2.266 -3.201,-4.151 -3.593,-6.394c-1.279,-7.238 3.759,-5.179 9.03,0m-23.335,-167.274l5.556,0l5.777,136.653c0.259,6.118 -7.023,6.646 -7.223,0l-4.11,-136.653Z" style="fill:#cc8174;"/><rect x="14.88" y="272.116" width="155.852" height="216.808" style="fill:#481a16;"/><rect x="26.025" y="272.112" width="18.411" height="216.808" style="fill:#7f4842;"/><rect x="53.389" y="272.112" width="117.344" height="216.808" style="fill:#66241e;"/><path d="M60.567,115.164l5.418,-99.42l53.645,0l5.423,99.42l-64.486,0Z"/><path d="M72.016,15.742l5.56,0l-2.991,99.421l-6.775,0l4.206,-99.421Z" style="fill:#3a3a3a;"/><path d="M65.068,32.567l0.916,-16.825l53.649,0l0.916,16.825l-55.481,0Z"/><path d="M72.016,15.742l5.56,0l-0.507,16.826l-5.762,0l0.709,-16.826Z" style="fill:#292929;"/><path d="M60.682,0.658l64.253,0c3.334,0 6.058,2.724 6.058,6.062l0,16.977c0,3.334 -2.724,6.058 -6.058,6.058l-64.253,0c-3.33,0 -6.058,-2.724 -6.058,-6.058l0,-16.977c0,-3.338 2.728,-6.062 6.058,-6.062"/><path d="M120.394,29.755l4.661,85.408l-38.147,0l0.152,-85.519c-3.075,-0.55 -5.408,-3.016 -5.408,-5.947l0,-16.977c0,-2.95 2.362,-5.427 5.46,-5.959l0,-0.103l37.185,0c3.685,0 6.698,2.731 6.698,6.062l0,16.977c0,3.338 -3.013,6.058 -6.698,6.058l-3.903,0Z" style="fill:#3a3a3a;"/><path d="M117.805,115.164l-6.775,0l-2.99,-85.407l5.559,0l4.206,85.407Z" style="fill:#585858;"/><path d="M120.394,29.755l0.155,2.813l-33.496,0l0.129,-2.813l33.212,0Z" style="fill:#333;"/><rect x="108.041" y="29.754" width="5.7" height="2.813" style="fill:#4f4f4f;"/><rect x="141.176" y="272.112" width="18.408" height="216.808" style="fill:#7f4842;"/><path d="M116.087,0.658l0.037,29.097l6.705,0l-0.388,-29.097l-6.354,0Z" style="fill:#6d6d6d;"/><path d="M71.626,0.658l-0.033,29.097l-6.653,0l0.392,-29.097l6.294,0Z" style="fill:#191919;"/></g><g><path d="M138,436.206c0,-1.217 -0.989,-2.206 -2.206,-2.206l-87.029,0c-1.217,0 -2.206,0.989 -2.206,2.206l0,4.413c0,1.218 0.989,2.207 2.206,2.207l87.029,0c1.217,0 2.206,-0.989 2.206,-2.207l0,-4.413Z" style="fill:#d49900;"/><path d="M151.38,419.511c0,-1.574 -1.278,-2.852 -2.852,-2.852l-112.497,0c-1.574,0 -2.852,1.278 -2.852,2.852l0,5.705c0,1.574 1.278,2.852 2.852,2.852l112.497,0c1.574,0 2.852,-1.278 2.852,-2.852l0,-5.705Z" style="fill:#d49900;"/><ellipse cx="92.28" cy="362.111" rx="15.53" ry="32" style="fill:#d49900;"/></g></g></svg>