<?xml version="1.0" encoding="UTF-8" standalone="no"?><!DOCTYPE svg PUBLIC "-//W3C//DTD SVG 1.1//EN" "http://www.w3.org/Graphics/SVG/1.1/DTD/svg11.dtd"><svg width="100%" height="100%" viewBox="0 0 358 662" version="1.1" xmlns="http://www.w3.org/2000/svg" xmlns:xlink="http://www.w3.org/1999/xlink" xml:space="preserve" xmlns:serif="http://www.serif.com/" style="fill-rule:evenodd;clip-rule:evenodd;stroke-linejoin:round;stroke-miterlimit:1.41421;"><rect id="Red" x="0.539" y="0" width="357" height="662" style="fill:none;"/><clipPath id="_clip1"><rect x="0.539" y="0" width="357" height="662"/></clipPath><g clip-path="url(#_clip1)"><path d="M43.889,661.097c-19.87,0 -36.126,-14.706 -36.126,-32.687l0,-366.382c0,-71.858 50.009,-77.642 51.386,-102.924l7.855,-144.041l53.572,0l7.855,144.041c1.377,25.278 51.39,31.073 51.39,102.924l0,366.382c0,17.977 -16.257,32.687 -36.127,32.687l-99.805,0Z" style="fill:#36021a;"/><path d="M128.432,159.104c0.022,0.395 0.056,0.786 0.1,1.17c0.044,0.387 0.103,0.768 0.17,1.144c0.066,0.38 0.144,0.749 0.236,1.119c0.089,0.372 0.188,0.738 0.299,1.103c0.111,0.358 0.229,0.716 0.362,1.074c0.133,0.351 0.273,0.705 0.424,1.056c0.152,0.351 0.31,0.694 0.48,1.041c0.163,0.343 0.343,0.683 0.532,1.023c0.188,0.343 0.387,0.679 0.59,1.018c0.203,0.333 0.421,0.665 0.639,1.001c0.221,0.332 0.446,0.664 0.69,0.996c0.236,0.325 0.48,0.654 0.731,0.982c0.255,0.329 0.517,0.654 0.779,0.978l0,0.004c0.269,0.329 0.539,0.653 0.819,0.978c0.285,0.321 0.569,0.65 0.86,0.975c0.296,0.328 0.595,0.653 0.897,0.978c0.307,0.328 0.617,0.657 0.934,0.978c0.318,0.332 0.639,0.657 0.967,0.989l0.993,0.993l1.03,0.997l1.052,1.015l1.071,1.026l1.096,1.038l1.115,1.052l1.133,1.074l1.148,1.092l1.159,1.115l1.166,1.144l1.182,1.163l0,0.004c0.391,0.391 0.79,0.79 1.181,1.192c0.395,0.402 0.79,0.816 1.185,1.226c0.398,0.413 0.793,0.834 1.192,1.258c0.395,0.421 0.79,0.853 1.189,1.296c0.395,0.432 0.79,0.875 1.181,1.325c0.395,0.447 0.79,0.901 1.181,1.362c0.391,0.465 0.783,0.93 1.17,1.407c0.388,0.476 0.775,0.959 1.159,1.45c0.388,0.488 0.768,0.986 1.152,1.488l0,0.004c0.377,0.505 0.757,1.015 1.133,1.535c0.373,0.517 0.75,1.045 1.115,1.587c0.369,0.532 0.735,1.078 1.096,1.636c0.366,0.546 0.724,1.111 1.082,1.683c0.354,0.568 0.705,1.148 1.048,1.742c0.347,0.587 0.694,1.189 1.03,1.794c0.336,0.609 0.672,1.226 0.997,1.853c0.328,0.628 0.653,1.266 0.97,1.909c0.318,0.649 0.632,1.31 0.938,1.978c0.306,0.668 0.605,1.347 0.901,2.038c0.295,0.69 0.579,1.391 0.864,2.107c0.28,0.709 0.557,1.433 0.826,2.171c0.266,0.734 0.525,1.48 0.783,2.237c0.251,0.76 0.498,1.528 0.738,2.311c0.236,0.786 0.469,1.579 0.69,2.384c0.226,0.808 0.443,1.632 0.646,2.458c0.207,0.838 0.406,1.684 0.595,2.544c0.192,0.856 0.373,1.727 0.542,2.613c0.17,0.886 0.336,1.783 0.488,2.695c0.151,0.915 0.295,1.838 0.428,2.783c0.133,0.938 0.254,1.897 0.365,2.865c0.115,0.97 0.218,1.952 0.31,2.956c0.093,0.997 0.17,2.008 0.24,3.042c0.07,1.026 0.129,2.067 0.177,3.126c0.048,1.06 0.082,2.138 0.107,3.23c0.023,1.089 0.037,2.197 0.037,3.319l0,366.382c0,17.976 -16.256,32.686 -36.126,32.686l-62.542,0c-16.71,0 -26.728,-18.489 -26.728,-30.56l0,-368.508c0,-71.859 33.251,-77.613 33.328,-102.924l0.458,-144.038l32.365,0l7.855,144.038Z" style="fill:#57072c;"/><path d="M67.259,151.53l5.77,-136.467l5.548,0l-4.105,136.467c-0.214,7.142 -7.08,6.736 -7.213,0m-40.157,476.877l0,-366.379c0,-41.56 12.967,-61.016 24.107,-74.925c1.392,-1.743 2.754,-3.396 4.068,-4.995c5.349,-6.5 12.148,-6.847 9.018,0c-0.89,1.949 -2.156,3.736 -3.259,5.77c-7.567,13.953 -15.548,33.834 -15.548,72.814l0,368.579c0,16.969 -18.386,10.815 -18.386,-0.864" style="fill:#57072c;"/><path d="M132.307,182.109c1.709,1.68 3.075,3.743 4.681,5.762c10.996,13.861 23.495,33.366 23.495,74.154l0,366.383c0,18.593 -18.386,16.293 -18.386,2.019l0,-369.734c0,-38.404 -7.748,-58.267 -15.219,-72.198c-1.215,-2.263 -3.197,-4.145 -3.588,-6.386c-1.278,-7.227 3.754,-5.171 9.017,0m-23.303,-167.045l5.552,0l5.769,136.467c0.255,6.109 -7.017,6.637 -7.22,0l-4.101,-136.467Z" style="fill:#771743;"/><rect x="15.97" y="271.088" width="155.639" height="216.512" style="fill:#ab4b3a;"/><rect x="27.102" y="271.084" width="18.383" height="216.512" style="fill:#c25745;"/><rect x="54.425" y="271.084" width="117.184" height="216.512" style="fill:#c25745;"/><rect x="142.097" y="271.084" width="18.383" height="216.512" style="fill:#d16c5a;"/><path d="M61.592,114.35l5.412,-99.284l53.571,0l5.415,99.284l-64.398,0Z" style="fill:#ab4b3a;"/><path d="M73.027,15.064l5.552,0l-2.987,99.285l-6.766,0l4.201,-99.285Z" style="fill:#c25745;"/><path d="M66.088,31.866l0.915,-16.803l53.575,0l0.916,16.803l-55.406,0Z" style="fill:#913a2a;"/><path d="M73.027,15.064l5.552,0l-0.506,16.803l-5.755,0l0.709,-16.803Z" style="fill:#ab4b3a;"/><path d="M61.708,0l64.165,0c3.33,0 6.05,2.72 6.05,6.054l0,16.954c0,3.329 -2.72,6.05 -6.05,6.05l-64.165,0c-3.326,0 -6.05,-2.721 -6.05,-6.05l0,-16.954c0,-3.334 2.724,-6.054 6.05,-6.054" style="fill:#ab4b3a;"/><path d="M121.338,29.058l4.655,85.291l-38.094,0l0.151,-85.402c-3.071,-0.55 -5.4,-3.012 -5.4,-5.939l0,-16.954c0,-2.946 2.358,-5.419 5.452,-5.951l0,-0.103l37.134,0c3.68,0 6.689,2.728 6.689,6.054l0,16.954c0,3.333 -3.009,6.05 -6.689,6.05l-3.898,0Z" style="fill:#c25745;"/><path d="M118.753,114.35l-6.762,0l-2.99,-85.29l5.555,0l4.197,85.29Z" style="fill:#d16c5a;"/><path d="M121.338,29.058l0.155,2.809l-33.45,0l0.129,-2.809l33.166,0Z" style="fill:#ab4b3a;"/><rect x="109.002" y="29.057" width="5.692" height="2.809" style="fill:#c25745;"/><path d="M117.041,0l0.033,29.058l6.696,0l-0.387,-29.058l-6.342,0Z" style="fill:#d16c5a;"/><path d="M72.637,0l-0.033,29.058l-6.644,0l0.391,-29.058l6.286,0Z" style="fill:#c25745;"/><g><path d="M206.632,661.097l116.013,0c3.758,0 6.833,-3.072 6.833,-6.837c0,-3.761 -3.075,-6.836 -6.833,-6.836l-116.013,0c-3.762,0 -6.837,3.075 -6.837,6.836c0,3.765 3.075,6.837 6.837,6.837" style="fill:#bbd8e6;"/><path d="M286.856,651.227c-5.829,-5.718 -14.167,-9.35 -14.167,-29.464l0,-103.777c0,-21.583 11.476,-32.177 23.963,-40.818l-64.025,0c12.484,8.641 23.964,19.243 23.964,40.826l0,103.762c0,20.113 -8.339,23.749 -14.171,29.471c8.483,7.763 34.296,5.127 44.436,0" style="fill:#bbd8e6;"/><path d="M233.721,477.931c12.056,8.508 22.868,19.113 22.868,40.065l0,103.759c0,15.776 -5.131,21.42 -10.159,25.883c17.645,1.148 16.441,-26.109 16.441,-34.407l0,-103.78c0,-9.561 -0.003,-26.906 -6.168,-32.284c-5.057,-4.404 -15.492,2.477 -22.982,0.764" style="fill:#99b9c9;"/><path d="M206.632,661.097l116.013,0c3.758,0 6.833,-3.072 6.833,-6.837l-129.683,0c0,3.765 3.075,6.837 6.837,6.837" style="fill:#99b9c9;"/><path d="M318.938,263.299l-108.597,0c-5.567,21.151 -34.798,91.042 -19.594,151.72c11.384,45.417 42.11,71.323 73.892,71.323c31.779,0 62.509,-25.906 73.889,-71.323c15.208,-60.681 -14.023,-130.569 -19.59,-151.72" style="fill:#99b9c9;"/><path d="M230.83,263.299l-9.306,0c-4.422,20.38 -27.633,87.694 -15.558,146.135c4.817,23.321 14.001,41.294 25.348,53.003c-5.552,-11.535 -9.989,-26.304 -12.684,-43.963c-9.468,-62.058 8.734,-133.544 12.2,-155.175" style="fill:#bbd8e6;"/><path d="M190.323,336.505c-4.444,24.824 -6.086,52.513 0.425,78.514c11.384,45.417 42.106,71.323 73.892,71.323c31.778,0 62.505,-25.906 73.885,-71.323c6.519,-26.001 4.872,-53.69 0.428,-78.514l-148.63,0Z" style="fill:#57072c;"/><path d="M318.938,263.299l-68.178,0c-3.868,21.151 -24.181,91.042 -13.613,151.72c6.729,38.647 23.199,63.165 41.571,69.61c26.43,-6.445 50.124,-30.963 59.81,-69.61c3.089,-12.326 4.341,-25.031 4.333,-37.633c-0.022,-49.426 -19.49,-97.229 -23.923,-114.087" style="fill:#bbd8e6;"/><path d="M307.756,263.299l-9.306,0c3.463,21.631 21.665,93.117 12.196,155.175c-2.694,17.659 -7.127,32.428 -12.679,43.963c11.347,-11.709 20.523,-29.682 25.344,-53.003c12.071,-58.441 -11.136,-125.755 -15.555,-146.135" style="fill:#e1f2fa;"/><path d="M236.85,336.505c-3.089,24.824 -4.23,52.513 0.296,78.514c6.729,38.648 23.199,63.162 41.571,69.61c26.429,-6.448 50.124,-30.962 59.81,-69.61c3.089,-12.325 4.344,-25.031 4.337,-37.633c-0.007,-13.979 -1.573,-27.828 -3.909,-40.881l-102.105,0Z" style="fill:#771743;"/><path d="M205.244,336.505c-3.234,23.211 -4.256,48.825 0.719,72.929c4.821,23.318 14.001,41.294 25.352,53.003c-5.552,-11.535 -9.992,-26.304 -12.683,-43.963c-4.145,-27.175 -2.99,-56.159 -0.085,-81.969l-13.303,0Z" style="fill:#771743;"/><path d="M310.73,336.505c2.901,25.81 4.064,54.794 -0.081,81.969c-2.699,17.659 -7.132,32.428 -12.684,43.963c11.347,-11.709 20.528,-29.681 25.345,-53.003c4.979,-24.104 3.957,-49.718 0.723,-72.929l-13.303,0Z" style="fill:#a63f6f;"/></g><g><path d="M138.563,434.057c0,-1.218 -0.989,-2.206 -2.207,-2.206l-87.028,0c-1.218,0 -2.206,0.988 -2.206,2.206l0,4.413c0,1.218 0.988,2.206 2.206,2.206l87.028,0c1.218,0 2.207,-0.988 2.207,-2.206l0,-4.413Z" style="fill:#d2d2d2;"/><path d="M151.943,417.362c0,-1.574 -1.278,-2.852 -2.852,-2.852l-112.498,0c-1.574,0 -2.852,1.278 -2.852,2.852l0,5.704c0,1.574 1.278,2.852 2.852,2.852l112.498,0c1.574,0 2.852,-1.278 2.852,-2.852l0,-5.704Z" style="fill:#d2d2d2;"/><ellipse cx="92.842" cy="359.961" rx="15.53" ry="32" style="fill:#d2d2d2;"/></g></g></svg>