<?xml version="1.0" encoding="UTF-8"?>
<svg width="511px" height="995px" viewBox="0 0 511 995" version="1.1" xmlns="http://www.w3.org/2000/svg" xmlns:xlink="http://www.w3.org/1999/xlink">
    <!-- Generator: Sketch 52.5 (67469) - http://www.bohemiancoding.com/sketch -->
    <title>Red Bottle and Glass</title>
    <desc>Created with Sketch.</desc>
    <g id="Red-Bottle-and-Glass" stroke="none" stroke-width="1" fill="none" fill-rule="evenodd">
        <g id="wine" transform="translate(10.000000, 0.000000)">
            <path d="M179.822158,302.99969 L179.822158,210 L102.175899,210 L102.175899,302.99969 C102.175899,302.99969 9,365.000776 9,442.500194 L9,830.001163 L9,969.499729 C9,978.023521 15.840113,985 24.5296403,985 L47.8241008,985 L78.8833814,985 L109.942662,985 L141.001943,985 L172.059281,985 L203.118561,985 L234.175899,985 L257.47036,985 C266.014187,985 273,978.021582 273,969.499729 L273,551.000155 L273,442.500194 C272.998057,364.998837 179.822158,302.99969 179.822158,302.99969 Z M241.938777,829.999224 L40.057338,829.999224 L40.057338,550.998216 L241.938777,550.998216 L241.938777,829.999224 Z" id="Shape" fill="#656D78" fill-rule="nonzero"></path>
            <g id="Group" opacity="0.4" transform="translate(5.000000, 304.000000)" fill="#FFFFFF">
                <path d="M32.876,667.732705 L32.876,528.12466 L32.876,248.904688 L32.876,140.319575 C32.876,62.7593343 96.826,0.709589235 96.826,0.709589235 C96.826,0.709589235 0.9,62.7593343 0.9,140.319575 L0.9,528.12466 L0.9,667.732705 C0.9,676.263187 7.942,683.245142 16.888,683.245142 L40.87,683.245142 L48.864,683.245142 C39.918,683.245142 32.876,676.261246 32.876,667.732705 Z" id="Path"></path>
            </g>
            <g id="Group" opacity="0.2" transform="translate(176.000000, 304.000000)" fill="#000000">
                <path d="M64.716,667.732705 L64.716,528.12466 L64.716,248.904688 L64.716,140.319575 C64.716,62.7593343 0.764,0.709589235 0.764,0.709589235 C0.764,0.709589235 96.69,62.7593343 96.69,140.319575 L96.69,528.12466 L96.69,667.732705 C96.69,676.263187 89.648,683.245142 80.702,683.245142 L56.72,683.245142 L48.726,683.245142 C57.676,683.245142 64.716,676.261246 64.716,667.732705 Z" id="Path"></path>
            </g>
            <g id="Group" transform="translate(100.000000, 8.000000)" fill="#ED5565">
                <rect id="Rectangle" x="0.805707317" y="0.938764543" width="78.9631463" height="202.082659"></rect>
                <path d="M32.3897805,646.04954 C32.3897805,654.597994 25.2874634,661.594659 16.5967561,661.594659 C7.75985366,661.594659 0.803731707,654.59605 0.803731707,646.04954 C0.803731707,637.50303 7.75985366,630.506366 16.5967561,630.506366 C25.2874634,630.506366 32.3897805,637.504975 32.3897805,646.04954 Z" id="Path"></path>
                <path d="M40.2862927,669.369163 C48.977,669.369163 56.0793171,676.367773 56.0793171,684.914283 C56.0793171,693.460792 48.977,700.457457 40.2862927,700.457457 C31.4493902,700.457457 24.4932683,693.458848 24.4932683,684.914283 C24.4932683,676.365828 31.4493902,669.369163 40.2862927,669.369163 Z" id="Path"></path>
                <path d="M63.9758293,630.506366 C72.6665366,630.506366 79.7688537,637.504975 79.7688537,646.04954 C79.7688537,654.597994 72.6665366,661.594659 63.9758293,661.594659 C55.1389268,661.594659 48.1828049,654.59605 48.1828049,646.04954 C48.1828049,637.504975 55.1389268,630.506366 63.9758293,630.506366 Z" id="Path"></path>
            </g>
            <path d="M114.691859,667.249677 C123.242648,667.249677 130.23062,660.271284 130.23062,651.749461 C130.23062,643.227639 123.242648,636.251185 114.691859,636.251185 C105.997229,636.251185 99.1530985,643.229578 99.1530985,651.749461 C99.1530985,660.271284 105.997229,667.249677 114.691859,667.249677 Z M138,705.998276 C146.550789,705.998276 153.538761,699.019883 153.538761,690.5 C153.538761,681.976239 146.550789,674.999785 138,674.999785 C129.30537,674.999785 122.461239,681.978178 122.461239,690.5 C122.461239,699.019883 129.30537,705.998276 138,705.998276 Z M161.308141,667.249677 C169.85893,667.249677 176.846901,660.271284 176.846901,651.749461 C176.846901,643.227639 169.85893,636.251185 161.308141,636.251185 C152.61351,636.251185 145.76938,643.229578 145.76938,651.749461 C145.76938,660.271284 152.61351,667.249677 161.308141,667.249677 Z M239,551 L239,830 L37,830 L37,551 L239,551 Z" id="Shape" fill="#FFCE54" fill-rule="nonzero"></path>
            <g id="Group" opacity="0.4" transform="translate(102.000000, 8.000000)" fill="#FFFFFF">
                <polygon id="Path" points="15.8243333 279.304261 0.724555556 294.769778 0.724555556 0.928836601 15.8243333 0.928836601"></polygon>
            </g>
            <g id="Group" opacity="0.3" transform="translate(164.000000, 8.000000)" fill="#000000">
                <polygon id="Path" points="15.779 294.769778 0.679222222 279.304261 0.679222222 0.928836601 15.779 0.928836601"></polygon>
            </g>
            <g id="Group" opacity="0.5" transform="translate(38.000000, 552.000000)" fill="#FFFFFF">
                <rect id="Rectangle" x="0.813058824" y="0.535558621" width="31.0335882" height="281.825931"></rect>
            </g>
            <g id="Group" opacity="0.2" transform="translate(210.000000, 552.000000)" fill="#000000">
                <rect id="Rectangle" x="0.696588235" y="0.535558621" width="31.0355294" height="281.825931"></rect>
            </g>
            <g id="Group" fill="#3A3847">
                <path d="M8.6010059,978.702988 C4.31643579,978.702988 0.848436085,975.228262 0.848436085,970.935381 L0.848436085,442.74585 C0.848436085,438.452969 4.31643579,434.978242 8.6010059,434.978242 C12.885576,434.978242 16.3535757,438.452969 16.3535757,442.74585 L16.3535757,970.933437 C16.3535757,975.226318 12.885576,978.702988 8.6010059,978.702988 Z" id="Path"></path>
                <path d="M24.1061455,994.238203 C11.2815292,994.238203 0.848436085,983.784873 0.848436085,970.935381 C0.848436085,966.6425 4.31643579,963.169717 8.6010059,963.169717 C12.885576,963.169717 16.3535757,966.6425 16.3535757,970.935381 C16.3535757,975.288506 19.7614479,978.702988 24.1061455,978.702988 C28.3907156,978.702988 31.8587153,982.177715 31.8587153,986.470596 C31.8587153,990.763477 28.3907156,994.238203 24.1061455,994.238203 Z" id="Path"></path>
                <path d="M272.1845,978.702988 C267.89993,978.702988 264.43193,975.228262 264.43193,970.935381 L264.43193,442.74585 C264.43193,438.452969 267.89993,434.978242 272.1845,434.978242 C276.46907,434.978242 279.93707,438.452969 279.93707,442.74585 L279.93707,970.933437 C279.93707,975.226318 276.46907,978.702988 272.1845,978.702988 Z" id="Path"></path>
                <path d="M256.679361,994.238203 C252.394791,994.238203 248.926791,990.763477 248.926791,986.470596 C248.926791,982.177715 252.394791,978.702988 256.679361,978.702988 C260.956172,978.702988 264.43193,975.212715 264.43193,970.935381 C264.43193,966.6425 267.89993,963.169717 272.1845,963.169717 C276.46907,963.169717 279.93707,966.6425 279.93707,970.935381 C279.93707,983.784873 269.503977,994.238203 256.679361,994.238203 Z" id="Path"></path>
                <path d="M256.679361,994.238203 L24.1061455,994.238203 C19.8215754,994.238203 16.3535757,990.763477 16.3535757,986.470596 C16.3535757,982.177715 19.8215754,978.702988 24.1061455,978.702988 L256.679361,978.702988 C260.963931,978.702988 264.43193,982.177715 264.43193,986.470596 C264.43193,990.763477 260.963931,994.238203 256.679361,994.238203 Z" id="Path"></path>
                <path d="M101.629904,310.70041 C97.3453339,310.70041 93.8773342,307.225684 93.8773342,302.932803 L93.8773342,7.76760742 C93.8773342,3.47472656 97.3433943,0 101.629904,0 C105.916414,0 109.382474,3.47472656 109.382474,7.76760742 L109.382474,302.930859 C109.382474,307.225684 105.916414,310.70041 101.629904,310.70041 Z" id="Path"></path>
                <path d="M179.155602,310.70041 C174.871032,310.70041 171.403032,307.225684 171.403032,302.932803 L171.403032,7.76760742 C171.403032,3.47472656 174.871032,0 179.155602,0 C183.440172,0 186.908172,3.47472656 186.908172,7.76760742 L186.908172,302.930859 C186.908172,307.225684 183.440172,310.70041 179.155602,310.70041 Z" id="Path"></path>
                <path d="M8.6010059,450.5154 C4.31643579,450.5154 0.848436085,447.040674 0.848436085,442.747793 C0.848436085,361.849629 93.3924349,299.102441 97.3298171,296.469189 C100.888978,294.086631 105.6953,295.05248 108.081004,298.622432 C110.451192,302.188496 109.49691,307.011914 105.931931,309.394473 C105.037776,309.994971 16.3535757,370.192471 16.3535757,442.74585 C16.3535757,447.03873 12.885576,450.5154 8.6010059,450.5154 Z" id="Path"></path>
                <path d="M272.1845,450.5154 C267.89993,450.5154 264.43193,447.040674 264.43193,442.747793 C264.43193,370.194414 175.74773,309.994971 174.855515,309.396416 C171.288596,307.013857 170.336254,302.190439 172.706442,298.624375 C175.090207,295.05248 179.882951,294.088574 183.455689,296.471133 C187.393071,299.102441 279.93707,361.851572 279.93707,442.749736 C279.93707,447.03873 276.46907,450.5154 272.1845,450.5154 Z" id="Path"></path>
                <path d="M179.155602,15.5352148 L101.631844,15.5352148 C97.3472735,15.5352148 93.8792738,12.0604883 93.8792738,7.76760742 C93.8792738,3.47472656 97.3453339,0 101.631844,0 L179.155602,0 C183.440172,0 186.908172,3.47472656 186.908172,7.76760742 C186.908172,12.0604883 183.440172,15.5352148 179.155602,15.5352148 Z" id="Path"></path>
                <path d="M179.155602,217.489121 L101.631844,217.489121 C97.3472735,217.489121 93.8792738,214.014395 93.8792738,209.721514 C93.8792738,205.428633 97.3453339,201.953906 101.631844,201.953906 L179.155602,201.953906 C183.440172,201.953906 186.908172,205.428633 186.908172,209.721514 C186.908172,214.016338 183.440172,217.489121 179.155602,217.489121 Z" id="Path"></path>
                <path d="M163.650463,46.6056445 L117.135044,46.6056445 C112.850474,46.6056445 109.382474,43.1328613 109.382474,38.8380371 C109.382474,34.5432129 112.850474,31.0704297 117.135044,31.0704297 L163.650463,31.0704297 C167.935033,31.0704297 171.403032,34.5432129 171.403032,38.8380371 C171.403032,43.1328613 167.935033,46.6056445 163.650463,46.6056445 Z" id="Path"></path>
                <path d="M163.650463,77.6760742 L117.135044,77.6760742 C112.850474,77.6760742 109.382474,74.2013477 109.382474,69.9084668 C109.382474,65.6155859 112.850474,62.1408594 117.135044,62.1408594 L163.650463,62.1408594 C167.935033,62.1408594 171.403032,65.6155859 171.403032,69.9084668 C171.403032,74.2013477 167.935033,77.6760742 163.650463,77.6760742 Z" id="Path"></path>
                <path d="M241.174221,559.259961 L39.6112851,559.259961 C35.326715,559.259961 31.8587153,555.785234 31.8587153,551.492354 C31.8587153,547.199473 35.326715,543.724746 39.6112851,543.724746 L241.174221,543.724746 C245.458791,543.724746 248.926791,547.199473 248.926791,551.492354 C248.926791,555.785234 245.458791,559.259961 241.174221,559.259961 Z" id="Path"></path>
                <path d="M241.174221,838.887998 L39.6112851,838.887998 C35.326715,838.887998 31.8587153,835.413271 31.8587153,831.120391 C31.8587153,826.82751 35.326715,823.352783 39.6112851,823.352783 L241.174221,823.352783 C245.458791,823.352783 248.926791,826.82751 248.926791,831.120391 C248.926791,835.413271 245.458791,838.887998 241.174221,838.887998 Z" id="Path"></path>
                <path d="M140.392753,714.608223 C127.568137,714.608223 117.135044,704.154893 117.135044,691.307344 C117.135044,678.457852 127.568137,668.004521 140.392753,668.004521 C153.217369,668.004521 163.650463,678.457852 163.650463,691.307344 C163.650463,704.154893 153.219309,714.608223 140.392753,714.608223 Z M140.392753,683.537793 C136.046116,683.537793 132.640183,686.952275 132.640183,691.307344 C132.640183,695.660469 136.046116,699.073008 140.392753,699.073008 C144.669565,699.073008 148.145323,695.584678 148.145323,691.307344 C148.145323,687.028066 144.669565,683.537793 140.392753,683.537793 Z" id="Shape" fill-rule="nonzero"></path>
                <path d="M117.135044,675.772129 C104.310427,675.772129 93.8792738,665.318799 93.8792738,652.469307 C93.8792738,639.619814 104.310427,629.166484 117.135044,629.166484 C129.95966,629.166484 140.392753,639.619814 140.392753,652.469307 C140.392753,665.318799 129.95966,675.772129 117.135044,675.772129 Z M117.135044,644.699756 C112.790346,644.699756 109.382474,648.114238 109.382474,652.467363 C109.382474,656.822432 112.788406,660.234971 117.135044,660.234971 C121.413795,660.234971 124.887613,656.746641 124.887613,652.467363 C124.887613,648.190029 121.413795,644.699756 117.135044,644.699756 Z" id="Shape" fill-rule="nonzero"></path>
                <path d="M163.650463,675.772129 C150.825846,675.772129 140.392753,665.318799 140.392753,652.469307 C140.392753,639.619814 150.825846,629.166484 163.650463,629.166484 C176.475079,629.166484 186.908172,639.619814 186.908172,652.469307 C186.908172,665.318799 176.475079,675.772129 163.650463,675.772129 Z M163.650463,644.699756 C159.303825,644.699756 155.897893,648.114238 155.897893,652.467363 C155.897893,656.822432 159.303825,660.234971 163.650463,660.234971 C167.929214,660.234971 171.403032,656.746641 171.403032,652.467363 C171.403032,648.190029 167.929214,644.699756 163.650463,644.699756 Z" id="Shape" fill-rule="nonzero"></path>
                <path d="M140.392753,636.934092 C136.108183,636.934092 132.640183,633.459365 132.640183,629.164541 C132.640183,598.443916 152.922551,590.328447 163.650463,590.328447 C167.935033,590.328447 171.403032,593.803174 171.403032,598.096055 C171.403032,602.390879 167.936972,605.863662 163.650463,605.863662 C161.152261,605.939453 148.145323,607.41252 148.145323,629.164541 C148.145323,633.459365 144.677323,636.934092 140.392753,636.934092 Z" id="Path"></path>
                <path d="M210.163942,761.213867 L70.6196248,761.213867 C66.3350547,761.213867 62.867055,757.739141 62.867055,753.44626 C62.867055,749.153379 66.3350547,745.680596 70.6196248,745.680596 L210.163942,745.680596 C214.448512,745.680596 217.916512,749.153379 217.916512,753.44626 C217.916512,757.739141 214.450451,761.213867 210.163942,761.213867 Z" id="Path"></path>
                <path d="M179.155602,792.282354 L101.631844,792.282354 C97.3472735,792.282354 93.8792738,788.80957 93.8792738,784.516689 C93.8792738,780.223809 97.3453339,776.749082 101.631844,776.749082 L179.155602,776.749082 C183.440172,776.749082 186.908172,780.223809 186.908172,784.516689 C186.908172,788.80957 183.440172,792.282354 179.155602,792.282354 Z" id="Path"></path>
                <path d="M39.6112851,838.887998 C35.326715,838.887998 31.8587153,835.413271 31.8587153,831.120391 L31.8587153,551.49041 C31.8587153,547.197529 35.326715,543.722803 39.6112851,543.722803 C43.8958552,543.722803 47.3638549,547.197529 47.3638549,551.49041 L47.3638549,831.120391 C47.3638549,835.413271 43.8958552,838.887998 39.6112851,838.887998 Z" id="Path"></path>
                <path d="M241.174221,838.887998 C236.889651,838.887998 233.421651,835.413271 233.421651,831.120391 L233.421651,551.49041 C233.421651,547.197529 236.889651,543.722803 241.174221,543.722803 C245.458791,543.722803 248.926791,547.197529 248.926791,551.49041 L248.926791,831.120391 C248.926791,835.413271 245.458791,838.887998 241.174221,838.887998 Z" id="Path"></path>
                <path d="M47.3638549,994.238203 C43.0792848,994.238203 39.6112851,990.763477 39.6112851,986.470596 L39.6112851,978.702988 C39.6112851,974.410107 43.0773452,970.935381 47.3638549,970.935381 C51.6503647,970.935381 55.1164248,974.410107 55.1164248,978.702988 L55.1164248,986.470596 C55.1164248,990.763477 51.6484251,994.238203 47.3638549,994.238203 Z" id="Path"></path>
                <path d="M78.3741342,994.238203 C74.0895641,994.238203 70.6215644,990.763477 70.6215644,986.470596 L70.6215644,978.702988 C70.6215644,974.410107 74.0895641,970.935381 78.3741342,970.935381 C82.6587043,970.935381 86.126704,974.410107 86.126704,978.702988 L86.126704,986.470596 C86.126704,990.763477 82.6587043,994.238203 78.3741342,994.238203 Z" id="Path"></path>
                <path d="M109.382474,994.238203 C105.097904,994.238203 101.629904,990.763477 101.629904,986.470596 L101.629904,978.702988 C101.629904,974.410107 105.097904,970.935381 109.382474,970.935381 C113.667044,970.935381 117.135044,974.410107 117.135044,978.702988 L117.135044,986.470596 C117.135044,990.763477 113.668984,994.238203 109.382474,994.238203 Z" id="Path"></path>
                <path d="M140.392753,994.238203 C136.108183,994.238203 132.640183,990.763477 132.640183,986.470596 L132.640183,978.702988 C132.640183,974.410107 136.108183,970.935381 140.392753,970.935381 C144.677323,970.935381 148.145323,974.410107 148.145323,978.702988 L148.145323,986.470596 C148.145323,990.763477 144.677323,994.238203 140.392753,994.238203 Z" id="Path"></path>
                <path d="M171.403032,994.238203 C167.118462,994.238203 163.650463,990.763477 163.650463,986.470596 L163.650463,978.702988 C163.650463,974.410107 167.118462,970.935381 171.403032,970.935381 C175.687602,970.935381 179.155602,974.410107 179.155602,978.702988 L179.155602,986.470596 C179.155602,990.763477 175.687602,994.238203 171.403032,994.238203 Z" id="Path"></path>
                <path d="M202.413312,994.238203 C198.128741,994.238203 194.660742,990.763477 194.660742,986.470596 L194.660742,978.702988 C194.660742,974.410107 198.128741,970.935381 202.413312,970.935381 C206.697882,970.935381 210.165881,974.410107 210.165881,978.702988 L210.165881,986.470596 C210.163942,990.763477 206.697882,994.238203 202.413312,994.238203 Z" id="Path"></path>
                <path d="M233.421651,994.238203 C229.137081,994.238203 225.669081,990.763477 225.669081,986.470596 L225.669081,978.702988 C225.669081,974.410107 229.137081,970.935381 233.421651,970.935381 C237.706221,970.935381 241.174221,974.410107 241.174221,978.702988 L241.174221,986.470596 C241.174221,990.763477 237.708161,994.238203 233.421651,994.238203 Z" id="Path"></path>
            </g>
            <g id="Glass" transform="translate(197.000000, 450.000000)">
                <g id="Group-2" transform="translate(4.758065, 8.537118)">
                    <polygon id="Path" fill="#E6E6E6" points="190.322581 529.310044 97.5403226 529.310044 143.931452 498.31441"></polygon>
                    <g id="Group" opacity="0.3" transform="translate(134.225806, 496.930131)" fill="#000000">
                        <polygon id="Path" points="7.95106785 0.13407552 53.1988668 29.2863802 38.1156382 29.2863802 0.407566741 5.0022132"></polygon>
                    </g>
                    <polygon id="Path" fill="#FFFFFF" points="144.440965 498.31441 97.5403226 529.310044 113.17061 529.310044 152.258065 503.490365"></polygon>
                    <path d="M4.75806452,159.746725 L285.483871,159.746725 C285.483871,164.862968 285.335516,169.826054 284.876789,174.942297 C277.529335,261.255398 145.199049,314.724891 145.199049,314.724891 C145.199049,314.724891 12.7301683,261.255398 5.39833142,174.942297 C4.92593938,169.826054 4.75806452,164.711749 4.75806452,159.746725 Z" id="Path" fill="#ED5565" opacity="0.95"></path>
                    <g id="Group" opacity="0.4" transform="translate(3.379032, 153.593886)" fill="#FFFFFF">
                        <path d="M31.9083711,15.6998467 C31.4430584,10.5729393 31.2776994,5.44797477 31.2776994,0.47260165 L0.536300817,0.47260165 C0.536300817,5.44797477 0.701659854,10.5729393 1.16697249,15.6998467 C8.38893228,102.192852 138.872594,155.773793 138.872594,155.773793 C138.872594,155.773793 37.5978756,83.8552703 31.9083711,15.6998467 Z" id="Path"></path>
                    </g>
                    <path d="M236.96316,0 C236.96316,0 285.954788,74.2358947 285.480449,154.978166 L4.75806452,154.978166 C4.45496365,74.2358947 53.4641592,0 53.4641592,0 L236.96316,0 Z" id="Path" fill="#E6E6E6" opacity="0.589192708"></path>
                    <path d="M49.3010435,0 C49.3010435,0 -0.306803264,74.2358947 0.00143045921,154.978166 L31.5914354,154.978166 C31.2832017,74.2358947 80.8870968,0 80.8870968,0 L49.3010435,0 Z" id="Path" fill="#FFFFFF"></path>
                    <g id="Group" opacity="0.3" transform="translate(143.741935, 153.593886)" fill="#000000">
                        <path d="M107.333242,15.6998467 C107.798555,10.5729393 107.963914,5.44797477 107.963914,0.47260165 L138.701467,0.47260165 C138.701467,5.44797477 138.536108,10.5729393 138.074641,15.6998467 C130.852681,102.192852 0.370941781,155.773793 0.370941781,155.773793 C0.370941781,155.773793 101.643738,83.8552703 107.333242,15.6998467 Z" id="Path"></path>
                    </g>
                    <g id="Group" opacity="0.2" transform="translate(200.838710, 1.000000)" fill="#000000">
                        <path d="M31.1757316,0.593051917 C31.1757316,0.593051917 79.5250307,74.9827482 79.2245929,155.892301 L48.4374232,155.892301 C48.737861,74.9827482 0.388561828,0.593051917 0.388561828,0.593051917 L31.1757316,0.593051917 Z" id="Path"></path>
                    </g>
                </g>
                <path d="M147.238403,326.91479 C146.269551,326.91479 145.285197,326.732253 144.331846,326.338051 C138.780323,324.07964 8.34180423,269.945743 0.749877863,179.776307 C0.26545173,174.473023 0.0833075035,169.105655 0.0833075035,163.920826 C-0.218974404,81.6956369 47.6403899,7.55256881 49.6982321,4.43778708 C52.0409169,0.868604531 56.821234,-0.156710153 60.4079251,2.20267875 C63.9771768,4.5445907 64.9750947,9.35852081 62.6440361,12.9432384 C62.15961,13.6714449 15.2981635,86.3969377 15.5713799,163.891697 C15.5713799,168.651255 15.7225208,173.548686 16.1778814,178.444175 C22.9830997,259.273149 148.881576,311.451569 150.168212,311.96811 C154.115316,313.574048 156.037519,318.106405 154.417598,322.079499 C153.20072,325.095245 150.294163,326.91479 147.238403,326.91479 Z" id="Path" fill="#3A3847"></path>
                <path d="M147.238403,326.91479 C144.180705,326.91479 141.307089,325.095245 140.066959,322.079499 C138.466415,318.106405 140.36924,313.574048 144.331846,311.96811 C145.60298,311.451569 271.369693,259.152752 278.172974,178.475245 C278.612833,173.533151 278.748472,168.804663 278.748472,163.922767 C279.201895,86.2454708 232.323009,13.6714449 231.85796,12.9432384 C229.5114,9.35852081 230.511255,4.55235823 234.094071,2.20267875 C237.663323,-0.147000733 242.472705,0.845301924 244.803764,4.43778708 C246.848042,7.55256881 294.722908,81.6975787 294.238482,163.967431 C294.238482,169.288193 294.087341,174.473023 293.602915,179.838448 C286.010989,269.945743 155.70811,324.07964 150.172088,326.338051 C149.203235,326.732253 148.222757,326.91479 147.238403,326.91479 Z" id="Path" fill="#3A3847"></path>
                <path d="M238.329893,16.4502807 L56.1759784,16.4502807 C51.876212,16.4502807 48.4290356,12.9781923 48.4290356,8.68857088 C48.4290356,4.39894941 51.876212,0.926861047 56.1759784,0.926861047 L238.329893,0.926861047 C242.610282,0.926861047 246.076836,4.39894941 246.076836,8.68857088 C246.076836,12.9801342 242.610282,16.4502807 238.329893,16.4502807 Z" id="Path" fill="#3A3847"></path>
                <path d="M147.238403,513.191942 C142.973515,513.191942 139.49146,509.719854 139.49146,505.42829 L139.49146,319.151138 C139.49146,314.861517 142.973515,311.389429 147.238403,311.389429 C151.534294,311.389429 154.98147,314.861517 154.98147,319.151138 L154.98147,505.42829 C154.983408,509.719854 151.534294,513.191942 147.238403,513.191942 Z" id="Path" fill="#3A3847"></path>
                <path d="M255.666536,544.238782 L38.8083326,544.238782 C34.543445,544.238782 31.0652653,540.766693 31.0652653,536.477072 C31.0652653,532.18745 34.543445,528.715362 38.8083326,528.715362 L255.666536,528.715362 C259.962427,528.715362 263.409603,532.18745 263.409603,536.477072 C263.409603,540.766693 259.962427,544.238782 255.666536,544.238782 Z" id="Path" fill="#3A3847"></path>
                <path d="M193.706495,544.238782 C192.226089,544.238782 190.743745,543.813509 189.410604,542.935777 L142.94445,511.888938 C139.386824,509.508189 138.437349,504.703968 140.795535,501.125076 C143.157597,497.548126 147.96698,496.577184 151.536232,498.973469 L198.002386,530.020308 C201.575514,532.401057 202.544366,537.205278 200.151301,540.782228 C198.667019,543.027046 196.219698,544.238782 193.706495,544.238782 Z" id="Path" fill="#3A3847"></path>
                <path d="M100.785812,544.238782 C98.288111,544.238782 95.8233509,543.027046 94.3255053,540.782228 C91.9634434,537.205278 92.9167941,532.401057 96.4705442,530.020308 L142.942512,498.973469 C146.511764,496.579126 151.321146,497.550068 153.679333,501.125076 C156.07046,504.703968 155.101608,509.508189 151.534294,511.888938 L105.066201,542.935777 C103.748562,543.813509 102.250717,544.238782 100.785812,544.238782 Z" id="Path" fill="#3A3847"></path>
                <path d="M286.644618,171.682535 L7.82831253,171.682535 C3.56342485,171.682535 0.085245208,168.210447 0.085245208,163.920826 C0.085245208,159.631204 3.56342485,156.159116 7.82831253,156.159116 L286.493477,156.159116 C290.793243,156.159116 294.331492,159.631204 294.331492,163.920826 C294.331492,168.210447 290.944384,171.682535 286.644618,171.682535 Z" id="Path" fill="#3A3847"></path>
            </g>
        </g>
    </g>
</svg>