<?xml version="1.0" encoding="UTF-8" standalone="no"?><!DOCTYPE svg PUBLIC "-//W3C//DTD SVG 1.1//EN" "http://www.w3.org/Graphics/SVG/1.1/DTD/svg11.dtd"><svg width="100%" height="100%" viewBox="0 0 310 662" version="1.1" xmlns="http://www.w3.org/2000/svg" xmlns:xlink="http://www.w3.org/1999/xlink" xml:space="preserve" xmlns:serif="http://www.serif.com/" style="fill-rule:evenodd;clip-rule:evenodd;stroke-linejoin:round;stroke-miterlimit:1.41421;"><rect id="Sparkling" x="0" y="0" width="310" height="662" style="fill:none;"/><clipPath id="_clip1"><rect x="0" y="0" width="310" height="662"/></clipPath><g clip-path="url(#_clip1)"><g><path d="M104.948,0c-36.56,0 -35.847,19.554 -26.807,55.709c4.639,18.568 -6.356,6.662 -8.43,24.76c-2.077,18.097 7.222,13.928 7.222,26.305c0,12.38 -4.892,102.138 -23.467,145.467c-49.37,115.193 -63.244,262.293 -21.697,388.359c5.902,17.896 16.675,18.081 17.999,20.182c26.681,0.812 40.971,1.218 55.207,1.218c14.233,0 28.465,-0.406 55.153,-1.218c1.323,-2.101 12.096,-2.286 17.995,-20.182c41.554,-126.066 27.677,-273.166 -21.697,-388.359c-18.572,-43.329 -23.508,-128.26 -23.508,-140.636c0,-12.38 14.557,-11.347 12.479,-29.444c-2.077,-18.098 -18.916,-3.77 -14.273,-22.335c9.037,-36.158 10.381,-59.826 -26.176,-59.826" style="fill:#2a3d03;"/><path d="M87.404,3.831c-12.851,7.321 -14.488,25.016 -9.265,51.878c3.613,18.568 -6.813,6.662 -8.43,24.76c-1.61,18.098 7.226,13.925 7.226,26.305c0,12.38 2.408,102.138 -12.039,145.467c-38.392,115.125 -49.2,262.127 -16.935,388.145c2.781,8.283 14.117,6.075 13.312,0c-23.167,-126.871 -14.905,-273.886 13.584,-389.332c10.859,-43.991 9.047,-135.103 9.047,-147.667c0,-12.568 -6.642,-8.334 -5.427,-26.708c1.211,-18.367 9.043,-6.281 6.331,-25.135c-3.227,-22.42 -2.968,-38.556 2.596,-47.713" style="fill:#395403;"/><path d="M121.952,661.823c9.927,-0.191 21.669,-0.536 38.174,-1.041c1.323,-2.101 12.096,-2.286 17.998,-20.182c41.551,-126.066 27.674,-273.166 -21.7,-388.359c-18.568,-43.329 -20.315,-131.391 -20.315,-143.771c0,-12.38 11.364,-8.212 9.289,-26.309c-2.077,-18.098 -15.477,-6.189 -10.838,-24.76c7.407,-29.618 9.481,-47.859 -12.066,-53.57c-15.164,5.711 -18.06,22.256 -12.847,51.878c3.271,18.568 -6.161,6.662 -7.625,24.76c-1.46,18.097 6.537,13.925 6.537,26.305c0,12.38 2.179,102.138 -10.89,145.467c-34.748,115.196 -44.512,262.293 -15.269,388.359c4.151,17.896 11.735,18.081 12.663,20.182c11.616,0.505 19.895,0.85 26.889,1.041" style="fill:#395403;"/><path d="M161.933,640.385c32.265,-126.015 21.461,-273.017 -16.935,-388.142c-14.447,-43.332 -12.039,-133.09 -12.039,-145.47c0,-12.38 8.843,-8.207 7.226,-26.305c-1.617,-18.098 -12.043,-6.185 -8.43,-24.76c5.23,-26.862 3.586,-44.553 -9.262,-51.878c5.561,9.157 5.823,25.293 2.593,47.716c-2.716,18.851 5.117,6.765 6.331,25.135c1.215,18.374 -5.427,14.137 -5.427,26.705c0,12.564 -1.808,103.676 9.044,147.667c28.492,115.446 36.758,262.464 13.591,389.332c-1.641,7.457 11.08,7.733 13.308,0" style="fill:#59781c;"/><path d="M104.918,586.375c47.937,0 87.032,-47.279 87.032,-105.256c0,-57.97 -39.095,-105.249 -87.032,-105.249c-47.934,0 -87.029,47.279 -87.029,105.249c0,57.977 39.095,105.256 87.029,105.256" style="fill:#fae496;"/><path d="M104.918,423.273c19.459,0 35.329,-21.294 35.329,-47.405c0,-26.111 -15.87,-47.405 -35.329,-47.405c-19.456,0 -35.325,21.294 -35.325,47.405c0,26.111 15.869,47.405 35.325,47.405" style="fill:#cbaf4b;"/><path d="M104.948,0c-36.56,0 -43.496,19.551 -34.459,55.709c4.646,18.568 -8.757,6.662 -10.831,24.76c-2.078,18.097 9.282,13.925 9.282,26.305c0,10.753 2.334,79.834 -9.207,126.209c8.897,14.406 25.8,24.129 45.184,24.129c19.421,0 36.342,-9.753 45.232,-24.194c-11.527,-46.375 -9.197,-115.398 -9.197,-126.144c0,-12.38 11.363,-8.208 9.282,-26.305c-2.07,-18.098 -15.474,-6.189 -10.827,-24.76c9.036,-36.158 2.098,-55.709 -34.459,-55.709" style="fill:#cbaf4b;"/><path d="M67.645,242.664c2.361,2.234 4.964,4.257 7.768,6.035c10.238,-44.799 8.491,-132.964 8.491,-145.313c0,-12.568 -6.642,-8.334 -5.427,-26.705c1.211,-18.37 9.043,-6.284 6.331,-25.135c-3.227,-22.423 -2.968,-38.559 2.596,-47.716c-12.851,7.325 -14.488,25.016 -9.265,51.878c3.613,18.572 -6.813,6.662 -8.43,24.76c-1.61,18.098 7.226,13.925 7.226,26.305c0,11.531 2.084,90.14 -9.29,135.891" style="fill:#ebd37c;"/><path d="M150.149,232.92c-9.627,-38.502 -9.623,-84.037 -9.2,-124.968l0.003,-1.18c0,-12.377 11.363,-8.208 9.282,-26.302c-2.183,-19.049 -15.648,-4.558 -10.442,-26.353c3.62,-15.161 7.263,-37.26 -7.621,-47.678c-2.804,-1.955 -9.75,-6.311 -24.883,-6.414c-2.432,15.382 -2.852,26.06 2.357,55.685c3.272,18.568 -6.161,6.662 -7.621,24.76c-1.46,18.094 6.537,13.925 6.537,26.302c0,12.38 2.176,102.141 -10.893,145.47c-0.427,1.405 -0.843,2.821 -1.259,4.233c21.799,3.292 43.114,-6.29 53.74,-23.555" style="fill:#ebd37c;"/><path d="M134.471,248.667c2.787,-1.767 5.39,-3.786 7.768,-6.041c-11.363,-45.758 -9.279,-124.326 -9.279,-135.853c0,-12.38 8.839,-8.208 7.225,-26.306c-1.617,-18.094 -12.042,-6.185 -8.429,-24.76c5.226,-26.861 3.585,-44.553 -9.262,-51.877c5.56,9.156 5.82,25.295 2.592,47.715c-2.715,18.852 5.118,6.765 6.329,25.136c1.218,18.373 -5.424,14.137 -5.424,26.704c0,12.343 -1.744,100.477 8.48,145.282" style="fill:#f5e29d;"/><path d="M71.3,59.826c0.539,4.173 -0.341,6.042 -1.829,7.26l70.958,0c-1.494,-1.218 -2.374,-3.087 -1.832,-7.26l-67.297,0Z" style="fill:#b09430;"/><path d="M67.865,101.207c0.659,1.432 1.075,3.196 1.075,5.567c0,0.461 0.007,1.034 0.014,1.696l71.984,0c0.01,-0.662 0.014,-1.235 0.014,-1.696c0,-2.371 0.419,-4.135 1.078,-5.567l-74.165,0Z" style="fill:#b09430;"/><path d="M132.549,67.086c-1.16,-1.218 -1.842,-3.087 -1.423,-7.26l-6.519,0c0.474,4.452 2.787,4.098 4.619,7.26l3.323,0Z" style="fill:#cbaf4b;"/><path d="M132.952,108.469l0.007,-1.695c0,-2.371 0.328,-4.138 0.839,-5.568l-7.733,0c-0.045,0.666 -0.075,1.389 -0.075,2.18c0,1.109 -0.014,2.839 -0.031,5.083l6.993,0Z" style="fill:#cbaf4b;"/><path d="M77.343,67.086l3.323,0c1.835,-3.162 4.148,-2.808 4.623,-7.26l-6.52,0c0.42,4.173 -0.266,6.042 -1.426,7.26" style="fill:#cbaf4b;"/><path d="M76.943,108.469l6.994,0c-0.021,-2.244 -0.034,-3.974 -0.034,-5.083c0,-0.791 -0.027,-1.514 -0.072,-2.18l-7.737,0c0.512,1.43 0.839,3.197 0.839,5.568l0.01,1.695Z" style="fill:#cbaf4b;"/></g><g><path d="M220.893,661.996l66.267,0c3.998,0 7.266,-3.265 7.266,-7.263c0,-3.998 -3.268,-7.266 -7.266,-7.266l-66.267,0c-3.999,0 -7.267,3.268 -7.267,7.266c0,3.998 3.268,7.263 7.267,7.263" style="fill:#bbd8e6;"/><path d="M267.87,651.508c-3.63,-6.072 -8.829,-9.934 -8.829,-31.303l0,-110.257c0,-22.932 7.15,-34.193 14.928,-43.37l-39.886,0c7.778,9.177 14.932,20.442 14.932,43.377l0,110.243c0,21.366 -5.199,25.234 -8.832,31.31c5.287,8.242 21.365,5.448 27.687,0" style="fill:#bbd8e6;"/><path d="M234.761,467.391c7.509,9.034 14.253,20.302 14.253,42.565l0,110.243c0,16.757 -3.2,22.754 -6.331,27.493c10.991,1.225 10.241,-27.732 10.241,-36.554l0,-110.257c0,-10.156 0,-28.587 -3.845,-34.302c-3.145,-4.683 -9.651,2.631 -14.318,0.812" style="fill:#99b9c9;"/><path d="M217.888,661.999l72.277,0c2.344,0 4.261,-3.268 4.261,-7.266l-80.799,0c0,3.998 1.913,7.266 4.261,7.266" style="fill:#99b9c9;"/><path d="M287.855,239.356l-67.659,0c-3.469,22.474 -21.679,96.727 -12.206,161.193c7.089,48.255 26.234,75.778 46.034,75.778c19.803,0 38.948,-27.523 46.037,-75.778c9.474,-64.466 -8.736,-138.719 -12.206,-161.193" style="fill:#99b9c9;"/><path d="M232.963,239.356l-5.796,0c-2.76,21.649 -17.218,93.173 -9.699,155.264c3.002,24.77 8.726,43.867 15.795,56.309c-3.459,-12.251 -6.223,-27.946 -7.904,-46.709c-5.895,-65.933 5.441,-141.881 7.604,-164.864" style="fill:#bbd8e6;"/><path d="M207.727,317.129c-2.774,26.377 -3.794,55.794 0.262,83.42c7.089,48.258 26.238,75.778 46.034,75.778c19.803,0 38.948,-27.52 46.037,-75.778c4.06,-27.626 3.036,-57.043 0.266,-83.42l-92.599,0Z" style="fill:#f1cf64;"/><path d="M287.855,239.356l-42.472,0c-2.412,22.471 -15.072,96.727 -8.488,161.193c4.196,41.067 14.458,67.109 25.9,73.96c16.467,-6.851 31.231,-32.893 37.266,-73.96c1.924,-13.096 2.705,-26.595 2.702,-39.982c-0.02,-52.512 -12.141,-103.301 -14.908,-121.211" style="fill:#bbd8e6;"/><path d="M280.889,239.356l-5.799,0c2.162,22.983 13.502,98.931 7.6,164.864c-1.678,18.763 -4.438,34.458 -7.901,46.712c7.069,-12.441 12.79,-31.542 15.792,-56.312c7.522,-62.091 -6.936,-133.615 -9.692,-155.264" style="fill:#e1f2fa;"/><path d="M236.71,317.129c-1.92,26.377 -2.633,55.794 0.188,83.42c4.193,41.066 14.454,67.109 25.896,73.959c16.47,-6.85 31.232,-32.893 37.266,-73.959c1.925,-13.097 2.706,-26.596 2.702,-39.982c-0.006,-14.85 -0.979,-29.564 -2.435,-43.438l-63.617,0Z" style="fill:#fde67c;"/><path d="M217.018,317.129c-2.013,24.661 -2.647,51.878 0.45,77.491c3.002,24.773 8.723,43.867 15.795,56.309c-3.459,-12.251 -6.222,-27.947 -7.904,-46.71c-2.583,-28.871 -1.859,-59.662 -0.048,-87.09l-8.293,0Z" style="fill:#fde67c;"/><path d="M282.741,317.129c1.812,27.428 2.535,58.219 -0.051,87.09c-1.678,18.763 -4.438,34.459 -7.901,46.713c7.069,-12.442 12.79,-31.539 15.792,-56.312c3.101,-25.613 2.466,-52.83 0.45,-77.491l-8.29,0Z" style="fill:#fff6cf;"/><path d="M263.515,460.808c1.355,0 2.46,-1.102 2.46,-2.456c0,-1.354 -1.105,-2.456 -2.46,-2.456c-1.351,0 -2.456,1.102 -2.456,2.456c0,1.354 1.105,2.456 2.456,2.456" style="fill:#fff6cf;"/><path d="M251.229,453.846c1.351,0 2.456,-1.102 2.456,-2.457c0,-1.354 -1.105,-2.456 -2.456,-2.456c-1.351,0 -2.46,1.102 -2.46,2.456c0,1.355 1.109,2.457 2.46,2.457" style="fill:#fff6cf;"/><path d="M257.372,447.296c1.354,0 2.46,-1.105 2.46,-2.46c0,-1.354 -1.106,-2.456 -2.46,-2.456c-1.351,0 -2.456,1.102 -2.456,2.456c0,1.355 1.105,2.46 2.456,2.46" style="fill:#fff6cf;"/><path d="M248.77,435.006c1.354,0 2.46,-1.101 2.46,-2.459c0,-1.351 -1.106,-2.453 -2.46,-2.453c-1.351,0 -2.456,1.102 -2.456,2.453c0,1.358 1.105,2.459 2.456,2.459" style="fill:#fff6cf;"/><path d="M254.504,425.995c1.354,0 2.459,-1.102 2.459,-2.46c0,-1.351 -1.105,-2.453 -2.459,-2.453c-1.351,0 -2.457,1.102 -2.457,2.453c0,1.358 1.106,2.46 2.457,2.46" style="fill:#fff6cf;"/><path d="M249.18,418.622c1.355,0 2.46,-1.102 2.46,-2.456c0,-1.351 -1.105,-2.456 -2.46,-2.456c-1.351,0 -2.456,1.105 -2.456,2.456c0,1.354 1.105,2.456 2.456,2.456" style="fill:#fff6cf;"/><path d="M256.962,415.347c1.355,0 2.46,-1.101 2.46,-2.459c0,-1.351 -1.105,-2.453 -2.46,-2.453c-1.351,0 -2.456,1.102 -2.456,2.453c0,1.358 1.105,2.459 2.456,2.459" style="fill:#fff6cf;"/><path d="M247.541,395.279c1.354,0 2.46,-1.106 2.46,-2.46c0,-1.351 -1.106,-2.456 -2.46,-2.456c-1.351,0 -2.456,1.105 -2.456,2.456c0,1.354 1.105,2.46 2.456,2.46" style="fill:#fff6cf;"/><path d="M256.143,389.542c1.351,0 2.46,-1.102 2.46,-2.457c0,-1.354 -1.109,-2.456 -2.46,-2.456c-1.351,0 -2.46,1.102 -2.46,2.456c0,1.355 1.109,2.457 2.46,2.457" style="fill:#fff6cf;"/><path d="M253.684,389.542c1.355,0 2.46,-1.102 2.46,-2.457c0,-1.354 -1.105,-2.456 -2.46,-2.456c-1.351,0 -2.456,1.102 -2.456,2.456c0,1.355 1.105,2.457 2.456,2.457" style="fill:#fff6cf;"/><path d="M250,384.631c1.354,0 2.459,-1.105 2.459,-2.459c0,-1.355 -1.105,-2.457 -2.459,-2.457c-1.351,0 -2.457,1.102 -2.457,2.457c0,1.354 1.106,2.459 2.457,2.459" style="fill:#fff6cf;"/><path d="M258.601,372.751c1.351,0 2.46,-1.102 2.46,-2.46c0,-1.351 -1.109,-2.452 -2.46,-2.452c-1.35,0 -2.459,1.101 -2.459,2.452c0,1.358 1.109,2.46 2.459,2.46" style="fill:#fff6cf;"/><path d="M247.954,357.186c1.351,0 2.456,-1.101 2.456,-2.459c0,-1.351 -1.105,-2.453 -2.456,-2.453c-1.354,0 -2.46,1.102 -2.46,2.453c0,1.358 1.106,2.459 2.46,2.459" style="fill:#fff6cf;"/><path d="M254.917,351.863c1.351,0 2.456,-1.102 2.456,-2.46c0,-1.351 -1.105,-2.453 -2.456,-2.453c-1.355,0 -2.46,1.102 -2.46,2.453c0,1.358 1.105,2.46 2.46,2.46" style="fill:#fff6cf;"/><path d="M248.364,345.72c1.351,0 2.456,-1.106 2.456,-2.46c0,-1.351 -1.105,-2.453 -2.456,-2.453c-1.355,0 -2.46,1.102 -2.46,2.453c0,1.354 1.105,2.46 2.46,2.46" style="fill:#fff6cf;"/><path d="M256.962,341.625c1.355,0 2.46,-1.105 2.46,-2.459c0,-1.355 -1.105,-2.457 -2.46,-2.457c-1.351,0 -2.456,1.102 -2.456,2.457c0,1.354 1.105,2.459 2.456,2.459" style="fill:#fff6cf;"/><path d="M254.917,331.794c1.351,0 2.456,-1.105 2.456,-2.459c0,-1.351 -1.105,-2.457 -2.456,-2.457c-1.355,0 -2.46,1.106 -2.46,2.457c0,1.354 1.105,2.459 2.46,2.459" style="fill:#fff6cf;"/><path d="M257.782,323.602c1.351,0 2.459,-1.102 2.459,-2.456c0,-1.355 -1.108,-2.456 -2.459,-2.456c-1.351,0 -2.46,1.101 -2.46,2.456c0,1.354 1.109,2.456 2.46,2.456" style="fill:#fff6cf;"/><path d="M245.086,324.421c1.351,0 2.459,-1.101 2.459,-2.459c0,-1.351 -1.108,-2.453 -2.459,-2.453c-1.355,0 -2.46,1.102 -2.46,2.453c0,1.358 1.105,2.459 2.46,2.459" style="fill:#fff6cf;"/></g></g></svg>