<?xml version="1.0" encoding="UTF-8" standalone="no"?><!DOCTYPE svg PUBLIC "-//W3C//DTD SVG 1.1//EN" "http://www.w3.org/Graphics/SVG/1.1/DTD/svg11.dtd"><svg width="100%" height="100%" viewBox="0 0 348 663" version="1.1" xmlns="http://www.w3.org/2000/svg" xmlns:xlink="http://www.w3.org/1999/xlink" xml:space="preserve" xmlns:serif="http://www.serif.com/" style="fill-rule:evenodd;clip-rule:evenodd;stroke-linejoin:round;stroke-miterlimit:1.41421;"><rect id="White" x="0.741" y="0.611" width="347" height="662" style="fill:none;"/><g><path d="M42.491,662.611c-19.897,0 -36.176,-14.726 -36.176,-32.731l0,-366.883c0,-71.957 50.078,-77.749 51.461,-103.065l7.862,-144.238l53.645,0l7.865,144.238c1.379,25.313 51.461,31.116 51.461,103.065l0,366.883c0,18.001 -16.283,32.731 -36.18,32.731l-99.938,0Z" style="fill:#918c5a;"/><path d="M127.15,159.932c0.022,0.395 0.055,0.787 0.099,1.172c0.045,0.388 0.1,0.768 0.167,1.145c0.07,0.381 0.147,0.751 0.24,1.12c0.085,0.374 0.188,0.74 0.299,1.106c0.111,0.358 0.229,0.717 0.359,1.075c0.137,0.351 0.277,0.706 0.425,1.057c0.151,0.352 0.31,0.695 0.484,1.043c0.163,0.343 0.344,0.684 0.532,1.024c0.189,0.343 0.385,0.68 0.588,1.02c0.207,0.332 0.425,0.665 0.643,1.002c0.222,0.332 0.451,0.665 0.692,0.998c0.232,0.325 0.476,0.654 0.731,0.983c0.252,0.329 0.514,0.654 0.784,0.979l0,0.004c0.262,0.329 0.536,0.654 0.813,0.979c0.289,0.322 0.573,0.651 0.869,0.976c0.292,0.329 0.591,0.655 0.894,0.98c0.307,0.329 0.618,0.658 0.936,0.979c0.317,0.333 0.639,0.658 0.968,0.991l0.994,0.994l1.028,0.998l1.053,1.017l1.076,1.027l1.098,1.039l1.112,1.054l1.135,1.075l1.153,1.094l1.157,1.117l1.172,1.145l1.179,1.165l0,0.003c0.396,0.392 0.791,0.791 1.187,1.194c0.395,0.403 0.791,0.817 1.19,1.228c0.395,0.414 0.791,0.835 1.19,1.26c0.396,0.421 0.791,0.854 1.187,1.297c0.399,0.433 0.794,0.876 1.186,1.327c0.396,0.448 0.791,0.902 1.183,1.364c0.388,0.466 0.78,0.932 1.172,1.409c0.388,0.476 0.776,0.961 1.16,1.452c0.389,0.488 0.766,0.987 1.15,1.49l0,0.004c0.381,0.506 0.761,1.016 1.138,1.537c0.374,0.518 0.747,1.046 1.117,1.59c0.369,0.532 0.735,1.079 1.098,1.637c0.365,0.547 0.72,1.113 1.079,1.686c0.358,0.569 0.71,1.149 1.053,1.744c0.348,0.588 0.692,1.191 1.032,1.797c0.336,0.61 0.669,1.227 0.998,1.855c0.332,0.629 0.654,1.268 0.972,1.911c0.318,0.651 0.632,1.313 0.939,1.982c0.306,0.669 0.606,1.349 0.901,2.04c0.296,0.691 0.581,1.393 0.865,2.111c0.281,0.709 0.559,1.434 0.825,2.173c0.27,0.736 0.532,1.482 0.787,2.24c0.251,0.761 0.499,1.53 0.736,2.314c0.24,0.787 0.473,1.582 0.695,2.388c0.225,0.809 0.443,1.633 0.646,2.461c0.207,0.84 0.407,1.686 0.592,2.547c0.192,0.858 0.377,1.73 0.547,2.617c0.17,0.887 0.333,1.786 0.484,2.699c0.155,0.916 0.299,1.84 0.433,2.787c0.133,0.938 0.251,1.899 0.365,2.868c0.115,0.972 0.215,1.955 0.311,2.961c0.089,0.998 0.17,2.01 0.24,3.045c0.07,1.028 0.13,2.07 0.178,3.131c0.048,1.061 0.081,2.14 0.107,3.235c0.022,1.09 0.037,2.199 0.037,3.323l0,366.882c0,18.002 -16.283,32.731 -36.18,32.731l-62.623,0c-16.73,0 -26.765,-18.515 -26.765,-30.602l0,-369.011c0,-71.957 33.296,-77.719 33.374,-103.065l0.458,-144.235l32.41,0l7.866,144.235Z" style="fill:#c0bc8c;"/><path d="M65.889,152.348l5.777,-136.654l5.56,0l-4.111,136.654c-0.214,7.152 -7.089,6.745 -7.226,0m-40.212,477.528l0,-366.879c0,-41.617 12.989,-61.1 24.144,-75.028c1.394,-1.744 2.758,-3.4 4.074,-5.001c5.356,-6.509 12.164,-6.857 9.03,0c-0.887,1.952 -2.159,3.741 -3.264,5.777c-7.578,13.973 -15.569,33.881 -15.569,72.914l0,369.082c0,16.992 -18.415,10.831 -18.415,-0.865" style="fill:#c0bc8c;"/><path d="M131.03,182.969c1.711,1.682 3.079,3.748 4.687,5.77c11.011,13.879 23.523,33.411 23.523,74.255l0,366.883c0,18.619 -18.411,16.316 -18.411,2.022l0,-370.239c0,-38.457 -7.755,-58.347 -15.236,-72.297c-1.216,-2.265 -3.201,-4.151 -3.593,-6.394c-1.279,-7.238 3.759,-5.179 9.03,0m-23.335,-167.274l5.556,0l5.777,136.653c0.259,6.118 -7.023,6.646 -7.223,0l-4.11,-136.653Z" style="fill:#d6d2ab;"/><rect x="14.532" y="272.069" width="155.852" height="216.808" style="fill:#2b653f;"/><rect x="25.677" y="272.065" width="18.411" height="216.808" style="fill:#4a875f;"/><rect x="53.041" y="272.065" width="117.344" height="216.808" style="fill:#4a875f;"/><path d="M60.219,115.117l5.418,-99.42l53.645,0l5.423,99.42l-64.486,0Z" style="fill:#2b653f;"/><path d="M71.668,15.695l5.56,0l-2.991,99.421l-6.775,0l4.206,-99.421Z" style="fill:#4a875f;"/><path d="M64.72,32.52l0.916,-16.825l53.649,0l0.917,16.825l-55.482,0Z" style="fill:#1c472b;"/><path d="M71.668,15.695l5.56,0l-0.507,16.826l-5.762,0l0.709,-16.826Z" style="fill:#2b653f;"/><path d="M60.334,0.611l64.253,0c3.334,0 6.058,2.724 6.058,6.062l0,16.977c0,3.334 -2.724,6.058 -6.058,6.058l-64.253,0c-3.33,0 -6.058,-2.724 -6.058,-6.058l0,-16.977c0,-3.338 2.728,-6.062 6.058,-6.062" style="fill:#2b653f;"/><path d="M120.046,29.708l4.661,85.408l-38.147,0l0.152,-85.519c-3.075,-0.55 -5.408,-3.016 -5.408,-5.947l0,-16.977c0,-2.95 2.362,-5.426 5.46,-5.959l0,-0.103l37.185,0c3.685,0 6.698,2.731 6.698,6.062l0,16.977c0,3.338 -3.013,6.058 -6.698,6.058l-3.903,0Z" style="fill:#4a875f;"/><path d="M117.457,115.117l-6.775,0l-2.99,-85.407l5.559,0l4.206,85.407Z" style="fill:#64a179;"/><path d="M120.046,29.708l0.155,2.813l-33.496,0l0.129,-2.813l33.212,0Z" style="fill:#2b653f;"/><rect x="107.693" y="29.708" width="5.7" height="2.813" style="fill:#4a875f;"/><rect x="140.829" y="272.065" width="18.408" height="216.808" style="fill:#64a179;"/><path d="M115.739,0.611l0.037,29.097l6.705,0l-0.388,-29.097l-6.354,0Z" style="fill:#64a179;"/><path d="M71.278,0.611l-0.033,29.097l-6.653,0l0.392,-29.097l6.294,0Z" style="fill:#4a875f;"/></g><g><path d="M205.899,662.611l116.172,0c3.763,0 6.842,-3.076 6.842,-6.846c0,-3.766 -3.079,-6.845 -6.842,-6.845l-116.172,0c-3.767,0 -6.846,3.079 -6.846,6.845c0,3.77 3.079,6.846 6.846,6.846" style="fill:#bbd8e6;"/><path d="M286.233,652.728c-5.837,-5.726 -14.19,-9.363 -14.19,-29.505l0,-103.918c0,-21.613 11.495,-32.221 24,-40.874l-64.113,0c12.497,8.653 23.997,19.269 23.997,40.881l0,103.904c0,20.141 -8.354,23.782 -14.191,29.512c8.495,7.773 34.343,5.134 44.497,0" style="fill:#bbd8e6;"/><path d="M233.022,479.195c12.072,8.52 22.903,19.139 22.903,40.12l0,103.9c0,15.798 -5.138,21.45 -10.176,25.919c17.676,1.149 16.467,-26.145 16.467,-34.454l0,-103.922c0,-9.574 -0.004,-26.943 -6.18,-32.328c-5.061,-4.41 -15.51,2.48 -23.014,0.765" style="fill:#99b9c9;"/><path d="M205.899,662.611l116.172,0c3.763,0 6.842,-3.076 6.842,-6.846l-129.86,0c0,3.77 3.079,6.846 6.846,6.846" style="fill:#99b9c9;"/><path d="M318.355,264.27l-108.746,0c-5.574,21.18 -34.841,91.166 -19.616,151.926c11.396,45.48 42.168,71.421 73.993,71.421c31.822,0 62.594,-25.941 73.989,-71.421c15.226,-60.764 -14.046,-130.746 -19.62,-151.926" style="fill:#99b9c9;"/><path d="M230.127,264.27l-9.318,0c-4.428,20.407 -27.667,87.814 -15.576,146.334c4.823,23.353 14.02,41.351 25.379,53.075c-5.56,-11.551 -10.003,-26.34 -12.701,-44.023c-9.477,-62.142 8.749,-133.726 12.216,-155.386" style="fill:#bbd8e6;"/><path d="M189.569,337.576c-4.451,24.858 -6.099,52.584 0.425,78.621c11.399,45.479 42.164,71.42 73.993,71.42c31.821,0 62.59,-25.941 73.986,-71.42c6.527,-26.037 4.879,-53.763 0.428,-78.621l-148.832,0Z" style="fill:#c0bc8c;"/><path d="M318.355,264.27l-68.267,0c-3.874,21.18 -24.218,91.166 -13.632,151.926c6.738,38.701 23.228,63.252 41.624,69.706c26.47,-6.454 50.196,-31.005 59.895,-69.706c3.094,-12.342 4.347,-25.064 4.34,-37.684c-0.026,-49.493 -19.517,-97.361 -23.96,-114.242" style="fill:#bbd8e6;"/><path d="M307.158,264.27l-9.318,0c3.47,21.66 21.697,93.244 12.212,155.386c-2.694,17.683 -7.134,32.472 -12.693,44.023c11.359,-11.724 20.555,-29.722 25.379,-53.075c12.091,-58.52 -11.152,-125.927 -15.58,-146.334" style="fill:#e1f2fa;"/><path d="M236.155,337.576c-3.09,24.858 -4.236,52.584 0.3,78.621c6.738,38.7 23.227,63.251 41.624,69.705c26.469,-6.454 50.196,-31.005 59.895,-69.705c3.094,-12.342 4.351,-25.065 4.344,-37.684c-0.008,-13.998 -1.575,-27.867 -3.915,-40.937l-102.248,0Z" style="fill:#d6d2ab;"/><path d="M204.505,337.576c-3.238,23.242 -4.261,48.891 0.725,73.028c4.827,23.35 14.02,41.351 25.383,53.076c-5.56,-11.551 -10.006,-26.34 -12.701,-44.023c-4.147,-27.213 -2.99,-56.236 -0.081,-82.081l-13.326,0Z" style="fill:#d6d2ab;"/><path d="M310.136,337.576c2.909,25.845 4.074,54.868 -0.081,82.081c-2.698,17.683 -7.138,32.472 -12.697,44.023c11.359,-11.725 20.555,-29.722 25.379,-53.076c4.986,-24.137 3.959,-49.786 0.724,-73.028l-13.325,0Z" style="fill:#e8e5cf;"/></g><g><path d="M139.765,429.317c0,-1.218 -0.989,-2.206 -2.207,-2.206l-87.028,0c-1.217,0 -2.206,0.988 -2.206,2.206l0,4.413c0,1.218 0.989,2.206 2.206,2.206l87.028,0c1.218,0 2.207,-0.988 2.207,-2.206l0,-4.413Z" style="fill:#d2d2d2;"/><path d="M153.145,412.622c0,-1.574 -1.278,-2.852 -2.852,-2.852l-112.497,0c-1.575,0 -2.853,1.278 -2.853,2.852l0,5.704c0,1.574 1.278,2.852 2.853,2.852l112.497,0c1.574,0 2.852,-1.278 2.852,-2.852l0,-5.704Z" style="fill:#d2d2d2;"/><ellipse cx="94.044" cy="355.222" rx="15.53" ry="32" style="fill:#d2d2d2;"/></g></svg>