<?xml version="1.0" encoding="UTF-8"?>
<svg width="511px" height="995px" viewBox="0 0 511 995" version="1.1" xmlns="http://www.w3.org/2000/svg" xmlns:xlink="http://www.w3.org/1999/xlink">
    <!-- Generator: Sketch 52.5 (67469) - http://www.bohemiancoding.com/sketch -->
    <title>White Bottle and Glass</title>
    <desc>Created with Sketch.</desc>
    <g id="White-Bottle-and-Glass" stroke="none" stroke-width="1" fill="none" fill-rule="evenodd">
        <g id="wine" transform="translate(7.000000, 0.000000)">
            <path d="M180.469212,302.99969 L180.469212,210 L102.528838,210 L102.528838,302.99969 C102.528838,302.99969 9,365.000776 9,442.500194 L9,830.001163 L9,969.499729 C9,978.023521 15.8660225,985 24.5884647,985 L47.9711618,985 L79.1480912,985 L110.325021,985 L141.50195,985 L172.676929,985 L203.853859,985 L235.028838,985 L258.411535,985 C266.987726,985 274,978.021582 274,969.499729 L274,551.000155 L274,442.500194 C273.99805,364.998837 180.469212,302.99969 180.469212,302.99969 Z M242.821121,829.999224 L40.1749794,829.999224 L40.1749794,550.998216 L242.821121,550.998216 L242.821121,829.999224 Z" id="Shape" fill="#656D78" fill-rule="nonzero"></path>
            <g id="Group" opacity="0.4" transform="translate(5.000000, 304.000000)" fill="#FFFFFF">
                <path d="M32.876,667.732705 L32.876,528.12466 L32.876,248.904688 L32.876,140.319575 C32.876,62.7593343 96.826,0.709589235 96.826,0.709589235 C96.826,0.709589235 0.9,62.7593343 0.9,140.319575 L0.9,528.12466 L0.9,667.732705 C0.9,676.263187 7.942,683.245142 16.888,683.245142 L40.87,683.245142 L48.864,683.245142 C39.918,683.245142 32.876,676.261246 32.876,667.732705 Z" id="Path"></path>
            </g>
            <g id="Group" opacity="0.2" transform="translate(177.000000, 304.000000)" fill="#000000">
                <path d="M64.716,667.732705 L64.716,528.12466 L64.716,248.904688 L64.716,140.319575 C64.716,62.7593343 0.764,0.709589235 0.764,0.709589235 C0.764,0.709589235 96.69,62.7593343 96.69,140.319575 L96.69,528.12466 L96.69,667.732705 C96.69,676.263187 89.648,683.245142 80.702,683.245142 L56.72,683.245142 L48.726,683.245142 C57.676,683.245142 64.716,676.261246 64.716,667.732705 Z" id="Path"></path>
            </g>
            <g id="Group" transform="translate(100.000000, 8.000000)" fill="#E7E7AC">
                <rect id="Rectangle" x="0.805707317" y="0.938764543" width="78.9631463" height="202.082659"></rect>
                <path d="M32.3897805,646.04954 C32.3897805,654.597994 25.2874634,661.594659 16.5967561,661.594659 C7.75985366,661.594659 0.803731707,654.59605 0.803731707,646.04954 C0.803731707,637.50303 7.75985366,630.506366 16.5967561,630.506366 C25.2874634,630.506366 32.3897805,637.504975 32.3897805,646.04954 Z" id="Path"></path>
                <path d="M40.2862927,669.369163 C48.977,669.369163 56.0793171,676.367773 56.0793171,684.914283 C56.0793171,693.460792 48.977,700.457457 40.2862927,700.457457 C31.4493902,700.457457 24.4932683,693.458848 24.4932683,684.914283 C24.4932683,676.365828 31.4493902,669.369163 40.2862927,669.369163 Z" id="Path"></path>
                <path d="M63.9758293,630.506366 C72.6665366,630.506366 79.7688537,637.504975 79.7688537,646.04954 C79.7688537,654.597994 72.6665366,661.594659 63.9758293,661.594659 C55.1389268,661.594659 48.1828049,654.59605 48.1828049,646.04954 C48.1828049,637.504975 55.1389268,630.506366 63.9758293,630.506366 Z" id="Path"></path>
            </g>
            <path d="M115.076472,667.249677 C123.669592,667.249677 130.692157,660.271284 130.692157,651.749461 C130.692157,643.227639 123.669592,636.251185 115.076472,636.251185 C106.338799,636.251185 99.4607871,643.229578 99.4607871,651.749461 C99.4607871,660.271284 106.338799,667.249677 115.076472,667.249677 Z M138.5,705.998276 C147.09312,705.998276 154.115685,699.019883 154.115685,690.5 C154.115685,681.976239 147.09312,674.999785 138.5,674.999785 C129.762327,674.999785 122.884315,681.978178 122.884315,690.5 C122.884315,699.019883 129.762327,705.998276 138.5,705.998276 Z M161.923528,667.249677 C170.516647,667.249677 177.539213,660.271284 177.539213,651.749461 C177.539213,643.227639 170.516647,636.251185 161.923528,636.251185 C153.185855,636.251185 146.307843,643.229578 146.307843,651.749461 C146.307843,660.271284 153.185855,667.249677 161.923528,667.249677 Z M240,551 L240,830 L37,830 L37,551 L240,551 Z" id="Shape" fill="#48AFCC" fill-rule="nonzero"></path>
            <g id="Group" opacity="0.4" transform="translate(103.000000, 8.000000)" fill="#FFFFFF">
                <polygon id="Path" points="15.8243333 279.304261 0.724555556 294.769778 0.724555556 0.928836601 15.8243333 0.928836601"></polygon>
            </g>
            <g id="Group" opacity="0.3" transform="translate(165.000000, 8.000000)" fill="#000000">
                <polygon id="Path" points="15.779 294.769778 0.679222222 279.304261 0.679222222 0.928836601 15.779 0.928836601"></polygon>
            </g>
            <g id="Group" opacity="0.5" transform="translate(38.000000, 552.000000)" fill="#FFFFFF">
                <rect id="Rectangle" x="0.813058824" y="0.535558621" width="31.0335882" height="281.825931"></rect>
            </g>
            <g id="Group" opacity="0.2" transform="translate(210.000000, 552.000000)" fill="#000000">
                <rect id="Rectangle" x="0.696588235" y="0.535558621" width="31.0355294" height="281.825931"></rect>
            </g>
            <g id="Group" fill="#3A3847">
                <path d="M8.63517318,978.702988 C4.33535549,978.702988 0.855014149,975.228262 0.855014149,970.935381 L0.855014149,442.74585 C0.855014149,438.452969 4.33535549,434.978242 8.63517318,434.978242 C12.9349909,434.978242 16.4153322,438.452969 16.4153322,442.74585 L16.4153322,970.933437 C16.4153322,975.226318 12.9349909,978.702988 8.63517318,978.702988 Z" id="Path"></path>
                <path d="M24.1954912,994.238203 C11.3252357,994.238203 0.855014149,983.784873 0.855014149,970.935381 C0.855014149,966.6425 4.33535549,963.169717 8.63517318,963.169717 C12.9349909,963.169717 16.4153322,966.6425 16.4153322,970.935381 C16.4153322,975.288506 19.8353321,978.702988 24.1954912,978.702988 C28.4953089,978.702988 31.9756503,982.177715 31.9756503,986.470596 C31.9756503,990.763477 28.4953089,994.238203 24.1954912,994.238203 Z" id="Path"></path>
                <path d="M273.156687,978.702988 C268.856869,978.702988 265.376528,975.228262 265.376528,970.935381 L265.376528,442.74585 C265.376528,438.452969 268.856869,434.978242 273.156687,434.978242 C277.456505,434.978242 280.936846,438.452969 280.936846,442.74585 L280.936846,970.933437 C280.936846,975.226318 277.456505,978.702988 273.156687,978.702988 Z" id="Path"></path>
                <path d="M257.596369,994.238203 C253.296551,994.238203 249.81621,990.763477 249.81621,986.470596 C249.81621,982.177715 253.296551,978.702988 257.596369,978.702988 C261.888401,978.702988 265.376528,975.212715 265.376528,970.935381 C265.376528,966.6425 268.856869,963.169717 273.156687,963.169717 C277.456505,963.169717 280.936846,966.6425 280.936846,970.935381 C280.936846,983.784873 270.466625,994.238203 257.596369,994.238203 Z" id="Path"></path>
                <path d="M257.596369,994.238203 L24.1954912,994.238203 C19.8956735,994.238203 16.4153322,990.763477 16.4153322,986.470596 C16.4153322,982.177715 19.8956735,978.702988 24.1954912,978.702988 L257.596369,978.702988 C261.896187,978.702988 265.376528,982.177715 265.376528,986.470596 C265.376528,990.763477 261.896187,994.238203 257.596369,994.238203 Z" id="Path"></path>
                <path d="M101.995135,310.70041 C97.6953173,310.70041 94.214976,307.225684 94.214976,302.932803 L94.214976,7.76760742 C94.214976,3.47472656 97.6933708,0 101.995135,0 C106.296899,0 109.775294,3.47472656 109.775294,7.76760742 L109.775294,302.930859 C109.775294,307.225684 106.296899,310.70041 101.995135,310.70041 Z" id="Path"></path>
                <path d="M179.796725,310.70041 C175.496908,310.70041 172.016566,307.225684 172.016566,302.932803 L172.016566,7.76760742 C172.016566,3.47472656 175.496908,0 179.796725,0 C184.096543,0 187.576884,3.47472656 187.576884,7.76760742 L187.576884,302.930859 C187.576884,307.225684 184.096543,310.70041 179.796725,310.70041 Z" id="Path"></path>
                <path d="M8.63517318,450.5154 C4.33535549,450.5154 0.855014149,447.040674 0.855014149,442.747793 C0.855014149,361.849629 93.7283511,299.102441 97.6797453,296.469189 C101.251572,294.086631 106.074998,295.05248 108.469193,298.622432 C110.847815,302.188496 109.890138,307.011914 106.312471,309.394473 C105.415135,309.994971 16.4153322,370.192471 16.4153322,442.74585 C16.4153322,447.03873 12.9349909,450.5154 8.63517318,450.5154 Z" id="Path"></path>
                <path d="M273.156687,450.5154 C268.856869,450.5154 265.376528,447.040674 265.376528,442.747793 C265.376528,370.194414 176.376725,309.994971 175.481336,309.396416 C171.901723,307.013857 170.945991,302.190439 173.324614,298.624375 C175.716862,295.05248 180.526663,294.088574 184.112115,296.471133 C188.063509,299.102441 280.936846,361.851572 280.936846,442.749736 C280.936846,447.03873 277.456505,450.5154 273.156687,450.5154 Z" id="Path"></path>
                <path d="M179.796725,15.5352148 L101.997082,15.5352148 C97.6972638,15.5352148 94.2169225,12.0604883 94.2169225,7.76760742 C94.2169225,3.47472656 97.6953173,0 101.997082,0 L179.796725,0 C184.096543,0 187.576884,3.47472656 187.576884,7.76760742 C187.576884,12.0604883 184.096543,15.5352148 179.796725,15.5352148 Z" id="Path"></path>
                <path d="M179.796725,217.489121 L101.997082,217.489121 C97.6972638,217.489121 94.2169225,214.014395 94.2169225,209.721514 C94.2169225,205.428633 97.6953173,201.953906 101.997082,201.953906 L179.796725,201.953906 C184.096543,201.953906 187.576884,205.428633 187.576884,209.721514 C187.576884,214.016338 184.096543,217.489121 179.796725,217.489121 Z" id="Path"></path>
                <path d="M164.236407,46.6056445 L117.555453,46.6056445 C113.255635,46.6056445 109.775294,43.1328613 109.775294,38.8380371 C109.775294,34.5432129 113.255635,31.0704297 117.555453,31.0704297 L164.236407,31.0704297 C168.536225,31.0704297 172.016566,34.5432129 172.016566,38.8380371 C172.016566,43.1328613 168.536225,46.6056445 164.236407,46.6056445 Z" id="Path"></path>
                <path d="M164.236407,77.6760742 L117.555453,77.6760742 C113.255635,77.6760742 109.775294,74.2013477 109.775294,69.9084668 C109.775294,65.6155859 113.255635,62.1408594 117.555453,62.1408594 L164.236407,62.1408594 C168.536225,62.1408594 172.016566,65.6155859 172.016566,69.9084668 C172.016566,74.2013477 168.536225,77.6760742 164.236407,77.6760742 Z" id="Path"></path>
                <path d="M242.036051,559.259961 L39.7558093,559.259961 C35.4559916,559.259961 31.9756503,555.785234 31.9756503,551.492354 C31.9756503,547.199473 35.4559916,543.724746 39.7558093,543.724746 L242.036051,543.724746 C246.335869,543.724746 249.81621,547.199473 249.81621,551.492354 C249.81621,555.785234 246.335869,559.259961 242.036051,559.259961 Z" id="Path"></path>
                <path d="M242.036051,838.887998 L39.7558093,838.887998 C35.4559916,838.887998 31.9756503,835.413271 31.9756503,831.120391 C31.9756503,826.82751 35.4559916,823.352783 39.7558093,823.352783 L242.036051,823.352783 C246.335869,823.352783 249.81621,826.82751 249.81621,831.120391 C249.81621,835.413271 246.335869,838.887998 242.036051,838.887998 Z" id="Path"></path>
                <path d="M140.89593,714.608223 C128.025675,714.608223 117.555453,704.154893 117.555453,691.307344 C117.555453,678.457852 128.025675,668.004521 140.89593,668.004521 C153.766186,668.004521 164.236407,678.457852 164.236407,691.307344 C164.236407,704.154893 153.768132,714.608223 140.89593,714.608223 Z M140.89593,683.537793 C136.533824,683.537793 133.115771,686.952275 133.115771,691.307344 C133.115771,695.660469 136.533824,699.073008 140.89593,699.073008 C145.187962,699.073008 148.676089,695.584678 148.676089,691.307344 C148.676089,687.028066 145.187962,683.537793 140.89593,683.537793 Z" id="Shape" fill-rule="nonzero"></path>
                <path d="M117.555453,675.772129 C104.685197,675.772129 94.2169225,665.318799 94.2169225,652.469307 C94.2169225,639.619814 104.685197,629.166484 117.555453,629.166484 C130.425709,629.166484 140.89593,639.619814 140.89593,652.469307 C140.89593,665.318799 130.425709,675.772129 117.555453,675.772129 Z M117.555453,644.699756 C113.195294,644.699756 109.775294,648.114238 109.775294,652.467363 C109.775294,656.822432 113.193347,660.234971 117.555453,660.234971 C121.849431,660.234971 125.335612,656.746641 125.335612,652.467363 C125.335612,648.190029 121.849431,644.699756 117.555453,644.699756 Z" id="Shape" fill-rule="nonzero"></path>
                <path d="M164.236407,675.772129 C151.366152,675.772129 140.89593,665.318799 140.89593,652.469307 C140.89593,639.619814 151.366152,629.166484 164.236407,629.166484 C177.106663,629.166484 187.576884,639.619814 187.576884,652.469307 C187.576884,665.318799 177.106663,675.772129 164.236407,675.772129 Z M164.236407,644.699756 C159.874302,644.699756 156.456248,648.114238 156.456248,652.467363 C156.456248,656.822432 159.874302,660.234971 164.236407,660.234971 C168.530385,660.234971 172.016566,656.746641 172.016566,652.467363 C172.016566,648.190029 168.530385,644.699756 164.236407,644.699756 Z" id="Shape" fill-rule="nonzero"></path>
                <path d="M140.89593,636.934092 C136.596112,636.934092 133.115771,633.459365 133.115771,629.164541 C133.115771,598.443916 153.470318,590.328447 164.236407,590.328447 C168.536225,590.328447 172.016566,593.803174 172.016566,598.096055 C172.016566,602.390879 168.538171,605.863662 164.236407,605.863662 C161.729316,605.939453 148.676089,607.41252 148.676089,629.164541 C148.676089,633.459365 145.195748,636.934092 140.89593,636.934092 Z" id="Path"></path>
                <path d="M210.915415,761.213867 L70.8744989,761.213867 C66.5746812,761.213867 63.0943399,757.739141 63.0943399,753.44626 C63.0943399,749.153379 66.5746812,745.680596 70.8744989,745.680596 L210.915415,745.680596 C215.215233,745.680596 218.695574,749.153379 218.695574,753.44626 C218.695574,757.739141 215.217179,761.213867 210.915415,761.213867 Z" id="Path"></path>
                <path d="M179.796725,792.282354 L101.997082,792.282354 C97.6972638,792.282354 94.2169225,788.80957 94.2169225,784.516689 C94.2169225,780.223809 97.6953173,776.749082 101.997082,776.749082 L179.796725,776.749082 C184.096543,776.749082 187.576884,780.223809 187.576884,784.516689 C187.576884,788.80957 184.096543,792.282354 179.796725,792.282354 Z" id="Path"></path>
                <path d="M39.7558093,838.887998 C35.4559916,838.887998 31.9756503,835.413271 31.9756503,831.120391 L31.9756503,551.49041 C31.9756503,547.197529 35.4559916,543.722803 39.7558093,543.722803 C44.055627,543.722803 47.5359683,547.197529 47.5359683,551.49041 L47.5359683,831.120391 C47.5359683,835.413271 44.055627,838.887998 39.7558093,838.887998 Z" id="Path"></path>
                <path d="M242.036051,838.887998 C237.736233,838.887998 234.255892,835.413271 234.255892,831.120391 L234.255892,551.49041 C234.255892,547.197529 237.736233,543.722803 242.036051,543.722803 C246.335869,543.722803 249.81621,547.197529 249.81621,551.49041 L249.81621,831.120391 C249.81621,835.413271 246.335869,838.887998 242.036051,838.887998 Z" id="Path"></path>
                <path d="M47.5359683,994.238203 C43.2361506,994.238203 39.7558093,990.763477 39.7558093,986.470596 L39.7558093,978.702988 C39.7558093,974.410107 43.2342041,970.935381 47.5359683,970.935381 C51.8377325,970.935381 55.3161273,974.410107 55.3161273,978.702988 L55.3161273,986.470596 C55.3161273,990.763477 51.835786,994.238203 47.5359683,994.238203 Z" id="Path"></path>
                <path d="M78.6566044,994.238203 C74.3567867,994.238203 70.8764454,990.763477 70.8764454,986.470596 L70.8764454,978.702988 C70.8764454,974.410107 74.3567867,970.935381 78.6566044,970.935381 C82.9564221,970.935381 86.4367634,974.410107 86.4367634,978.702988 L86.4367634,986.470596 C86.4367634,990.763477 82.9564221,994.238203 78.6566044,994.238203 Z" id="Path"></path>
                <path d="M109.775294,994.238203 C105.475476,994.238203 101.995135,990.763477 101.995135,986.470596 L101.995135,978.702988 C101.995135,974.410107 105.475476,970.935381 109.775294,970.935381 C114.075112,970.935381 117.555453,974.410107 117.555453,978.702988 L117.555453,986.470596 C117.555453,990.763477 114.077058,994.238203 109.775294,994.238203 Z" id="Path"></path>
                <path d="M140.89593,994.238203 C136.596112,994.238203 133.115771,990.763477 133.115771,986.470596 L133.115771,978.702988 C133.115771,974.410107 136.596112,970.935381 140.89593,970.935381 C145.195748,970.935381 148.676089,974.410107 148.676089,978.702988 L148.676089,986.470596 C148.676089,990.763477 145.195748,994.238203 140.89593,994.238203 Z" id="Path"></path>
                <path d="M172.016566,994.238203 C167.716749,994.238203 164.236407,990.763477 164.236407,986.470596 L164.236407,978.702988 C164.236407,974.410107 167.716749,970.935381 172.016566,970.935381 C176.316384,970.935381 179.796725,974.410107 179.796725,978.702988 L179.796725,986.470596 C179.796725,990.763477 176.316384,994.238203 172.016566,994.238203 Z" id="Path"></path>
                <path d="M203.137202,994.238203 C198.837385,994.238203 195.357043,990.763477 195.357043,986.470596 L195.357043,978.702988 C195.357043,974.410107 198.837385,970.935381 203.137202,970.935381 C207.43702,970.935381 210.917361,974.410107 210.917361,978.702988 L210.917361,986.470596 C210.915415,990.763477 207.43702,994.238203 203.137202,994.238203 Z" id="Path"></path>
                <path d="M234.255892,994.238203 C229.956074,994.238203 226.475733,990.763477 226.475733,986.470596 L226.475733,978.702988 C226.475733,974.410107 229.956074,970.935381 234.255892,970.935381 C238.55571,970.935381 242.036051,974.410107 242.036051,978.702988 L242.036051,986.470596 C242.036051,990.763477 238.557656,994.238203 234.255892,994.238203 Z" id="Path"></path>
            </g>
            <g id="Glass" transform="translate(202.000000, 450.000000)">
                <g id="Group-2" transform="translate(4.774194, 8.537118)">
                    <polygon id="Path" fill="#E6E6E6" points="190.967742 529.310044 97.8709677 529.310044 144.419355 498.31441"></polygon>
                    <g id="Group" opacity="0.3" transform="translate(134.677419, 496.930131)" fill="#000000">
                        <polygon id="Path" points="7.98141046 0.13407552 53.3825918 29.2863802 38.2482336 29.2863802 0.412338154 5.0022132"></polygon>
                    </g>
                    <polygon id="Path" fill="#FFFFFF" points="144.930595 498.31441 97.8709677 529.310044 113.55424 529.310044 152.774194 503.490365"></polygon>
                    <path d="M4.77419355,159.746725 L286.451613,159.746725 C286.451613,164.862968 286.302755,169.826054 285.842473,174.942297 C278.470113,261.255398 145.691249,314.724891 145.691249,314.724891 C145.691249,314.724891 12.7733214,261.255398 5.41663085,174.942297 C4.94263748,169.826054 4.77419355,164.711749 4.77419355,159.746725 Z" id="Path" fill="#E7E7AC" opacity="0.95"></path>
                    <g id="Group" opacity="0.4" transform="translate(3.387097, 153.593886)" fill="#FFFFFF">
                        <path d="M32.0199249,15.6998467 C31.5530349,10.5729393 31.3871153,5.44797477 31.3871153,0.47260165 L0.541508617,0.47260165 C0.541508617,5.44797477 0.707428193,10.5729393 1.17431816,15.6998467 C8.42075917,102.192852 139.346739,155.773793 139.346739,155.773793 C139.346739,155.773793 37.7287159,83.8552703 32.0199249,15.6998467 Z" id="Path"></path>
                    </g>
                    <path d="M237.766425,0 C237.766425,0 286.924126,74.2358947 286.448179,154.978166 L4.77419355,154.978166 C4.47006522,74.2358947 53.6453936,0 53.6453936,0 L237.766425,0 Z" id="Path" fill="#E6E6E6" opacity="0.59"></path>
                    <path d="M49.4681657,0 C49.4681657,0 -0.307843276,74.2358947 0.00143530823,154.978166 L31.698525,154.978166 C31.3892464,74.2358947 81.1612903,0 81.1612903,0 L49.4681657,0 Z" id="Path" fill="#FFFFFF"></path>
                    <g id="Group" opacity="0.3" transform="translate(144.225806, 153.593886)" fill="#000000">
                        <path d="M107.700474,15.6998467 C108.167364,10.5729393 108.333283,5.44797477 108.333283,0.47260165 L139.175031,0.47260165 C139.175031,5.44797477 139.009112,10.5729393 138.54608,15.6998467 C131.299639,102.192852 0.375589041,155.773793 0.375589041,155.773793 C0.375589041,155.773793 101.991683,83.8552703 107.700474,15.6998467 Z" id="Path"></path>
                    </g>
                    <g id="Group" opacity="0.2" transform="translate(201.516129, 1.000000)" fill="#000000">
                        <path d="M31.2848018,0.593051917 C31.2848018,0.593051917 79.7979969,74.9827482 79.4965407,155.892301 L48.6050077,155.892301 C48.9064639,74.9827482 0.393268817,0.593051917 0.393268817,0.593051917 L31.2848018,0.593051917 Z" id="Path"></path>
                    </g>
                </g>
                <path d="M147.737516,326.91479 C146.76538,326.91479 145.777689,326.732253 144.821107,326.338051 C139.250764,324.07964 8.37008153,269.945743 0.752419822,179.776307 C0.266351566,174.473023 0.0835899018,169.105655 0.0835899018,163.920826 C-0.21971669,81.6956369 47.8018827,7.55256881 49.8667007,4.43778708 C52.2173268,0.868604531 57.0138483,-0.156710153 60.6126977,2.20267875 C64.1940486,4.5445907 65.1953492,9.35852081 62.8563888,12.9432384 C62.3703205,13.6714449 15.3500217,86.3969377 15.6241642,163.891697 C15.6241642,168.651255 15.7758175,173.548686 16.2327216,178.444175 C23.0610085,259.273149 149.38626,311.451569 150.677257,311.96811 C154.637741,313.574048 156.56646,318.106405 154.941048,322.079499 C153.720044,325.095245 150.803635,326.91479 147.737516,326.91479 Z" id="Path" fill="#3A3847"></path>
                <path d="M147.737516,326.91479 C144.669453,326.91479 141.786096,325.095245 140.541762,322.079499 C138.935792,318.106405 140.845068,313.574048 144.821107,311.96811 C146.09655,311.451569 272.28959,259.152752 279.115933,178.475245 C279.557283,173.533151 279.693382,168.804663 279.693382,163.922767 C280.148342,86.2454708 233.110545,13.6714449 232.643919,12.9432384 C230.289405,9.35852081 231.292649,4.55235823 234.88761,2.20267875 C238.468961,-0.147000733 243.294647,0.845301924 245.633607,4.43778708 C247.684815,7.55256881 295.721969,81.6975787 295.235901,163.967431 C295.235901,169.288193 295.084247,174.473023 294.598179,179.838448 C286.980517,269.945743 156.235934,324.07964 150.681146,326.338051 C149.709009,326.732253 148.725207,326.91479 147.737516,326.91479 Z" id="Path" fill="#3A3847"></path>
                <path d="M239.137791,16.4502807 L56.3664054,16.4502807 C52.0520636,16.4502807 48.5932019,12.9781923 48.5932019,8.68857088 C48.5932019,4.39894941 52.0520636,0.926861047 56.3664054,0.926861047 L239.137791,0.926861047 C243.43269,0.926861047 246.910995,4.39894941 246.910995,8.68857088 C246.910995,12.9801342 243.43269,16.4502807 239.137791,16.4502807 Z" id="Path" fill="#3A3847"></path>
                <path d="M147.737516,513.191942 C143.458171,513.191942 139.964313,509.719854 139.964313,505.42829 L139.964313,319.151138 C139.964313,314.861517 143.458171,311.389429 147.737516,311.389429 C152.04797,311.389429 155.506831,314.861517 155.506831,319.151138 L155.506831,505.42829 C155.508776,509.719854 152.04797,513.191942 147.737516,513.191942 Z" id="Path" fill="#3A3847"></path>
                <path d="M256.533202,544.238782 L38.9398863,544.238782 C34.6605414,544.238782 31.1705713,540.766693 31.1705713,536.477072 C31.1705713,532.18745 34.6605414,528.715362 38.9398863,528.715362 L256.533202,528.715362 C260.843655,528.715362 264.302517,532.18745 264.302517,536.477072 C264.302517,540.766693 260.843655,544.238782 256.533202,544.238782 Z" id="Path" fill="#3A3847"></path>
                <path d="M194.363128,544.238782 C192.877703,544.238782 191.390334,543.813509 190.052674,542.935777 L143.429007,511.888938 C139.859322,509.508189 138.906628,504.703968 141.272808,501.125076 C143.642877,497.548126 148.468563,496.577184 152.049914,498.973469 L198.673581,530.020308 C202.25882,532.401057 203.230957,537.205278 200.82978,540.782228 C199.340467,543.027046 196.88485,544.238782 194.363128,544.238782 Z" id="Path" fill="#3A3847"></path>
                <path d="M101.127459,544.238782 C98.6212911,544.238782 96.1481758,543.027046 94.6452527,540.782228 C92.2751839,537.205278 93.2317662,532.401057 96.797563,530.020308 L143.427063,498.973469 C147.008414,496.579126 151.834099,497.550068 154.20028,501.125076 C156.599513,504.703968 155.627376,509.508189 152.04797,511.888938 L105.422358,542.935777 C104.100252,543.813509 102.597329,544.238782 101.127459,544.238782 Z" id="Path" fill="#3A3847"></path>
                <path d="M287.616295,171.682535 L7.85484918,171.682535 C3.57550425,171.682535 0.0855341748,168.210447 0.0855341748,163.920826 C0.0855341748,159.631204 3.57550425,156.159116 7.85484918,156.159116 L287.464641,156.159116 C291.778983,156.159116 295.329226,159.631204 295.329226,163.920826 C295.329226,168.210447 291.930637,171.682535 287.616295,171.682535 Z" id="Path" fill="#3A3847"></path>
            </g>
        </g>
    </g>
</svg>